<svg width="49" height="49" viewBox="0 0 49 49" fill="none" xmlns="http://www.w3.org/2000/svg">
<g clip-path="url(#clip0_1721_1459)">
<path d="M35.7293 24.5C35.515 24.5 35.3006 24.4326 35.1189 24.2979C34.6003 23.912 22.4585 14.7633 22.4585 7.41125C22.4585 3.32383 25.7844 0 29.8718 0C32.2013 0 34.3492 1.08413 35.7293 2.8665C37.1115 1.08413 39.2594 0 41.5869 0C45.6743 0 49.0002 3.32383 49.0002 7.41125C49.0002 14.7633 36.8584 23.912 36.3398 24.2979C36.1581 24.4326 35.9437 24.5 35.7293 24.5ZM29.8718 2.04167C26.9114 2.04167 24.5002 4.45083 24.5002 7.41125C24.5002 12.3664 32.1033 19.3509 35.7293 22.1929C39.3553 19.3509 46.9585 12.3684 46.9585 7.41125C46.9585 4.45083 44.5473 2.04167 41.5869 2.04167C39.4472 2.04167 37.5158 3.30546 36.6665 5.26342C36.5031 5.63704 36.1356 5.87796 35.7293 5.87796C35.323 5.87796 34.9535 5.63704 34.7922 5.26342C33.9449 3.30546 32.0135 2.04167 29.8718 2.04167Z" fill="black"/>
<path d="M39.8127 34.7083H13.271C12.7851 34.7083 12.3666 34.3653 12.2706 33.8876L8.18727 13.4709C8.12602 13.1708 8.20564 12.8605 8.39756 12.6236C8.58948 12.3868 8.88348 12.25 9.18769 12.25H19.396C19.9595 12.25 20.4169 12.7073 20.4169 13.2708C20.4169 13.8343 19.9595 14.2917 19.396 14.2917H10.4331L14.1081 32.6667H38.9756L40.6498 24.2999C40.7621 23.7446 41.3215 23.3832 41.8503 23.4996C42.4036 23.6098 42.7629 24.1468 42.6526 24.7001L40.8151 33.8876C40.7171 34.3653 40.2986 34.7083 39.8127 34.7083Z" fill="black"/>
<path d="M13.2688 34.7082C12.7931 34.7082 12.3684 34.3734 12.2704 33.8874L7.20912 8.58302C6.92533 7.15589 5.6595 6.12077 4.20583 6.12077H4.20379L1.02287 6.12485C1.02083 6.12485 1.02083 6.12485 1.02083 6.12485C0.457333 6.12485 0 5.66752 0 5.10402C0 4.54052 0.457333 4.08318 1.01879 4.08318L4.19971 4.0791H4.20583C6.63133 4.0791 8.73629 5.80431 9.212 8.18285L14.2712 33.4873C14.3835 34.0406 14.0242 34.5775 13.4689 34.6878C13.4035 34.7021 13.3362 34.7082 13.2688 34.7082Z" fill="black"/>
<path d="M43.8958 38.792H9.1875C7.49904 38.792 6.125 37.418 6.125 35.7295C6.125 34.041 7.49904 32.667 9.1875 32.667H13.2708C13.8343 32.667 14.2917 33.1243 14.2917 33.6878C14.2917 34.2513 13.8343 34.7087 13.2708 34.7087H9.1875C8.62604 34.7087 8.16667 35.166 8.16667 35.7295C8.16667 36.293 8.62604 36.7503 9.1875 36.7503H43.8958C44.4593 36.7503 44.9167 37.2077 44.9167 37.7712C44.9167 38.3347 44.4593 38.792 43.8958 38.792Z" fill="black"/>
<path d="M16.3333 48.9997C14.0814 48.9997 12.25 47.1683 12.25 44.9163C12.25 42.6644 14.0814 40.833 16.3333 40.833C18.5853 40.833 20.4167 42.6644 20.4167 44.9163C20.4167 47.1683 18.5853 48.9997 16.3333 48.9997ZM16.3333 42.8747C15.2063 42.8747 14.2917 43.7914 14.2917 44.9163C14.2917 46.0413 15.2063 46.958 16.3333 46.958C17.4603 46.958 18.375 46.0413 18.375 44.9163C18.375 43.7914 17.4603 42.8747 16.3333 42.8747Z" fill="black"/>
<path d="M34.7083 48.9997C32.4564 48.9997 30.625 47.1683 30.625 44.9163C30.625 42.6644 32.4564 40.833 34.7083 40.833C36.9603 40.833 38.7917 42.6644 38.7917 44.9163C38.7917 47.1683 36.9603 48.9997 34.7083 48.9997ZM34.7083 42.8747C33.5813 42.8747 32.6667 43.7914 32.6667 44.9163C32.6667 46.0413 33.5813 46.958 34.7083 46.958C35.8353 46.958 36.75 46.0413 36.75 44.9163C36.75 43.7914 35.8353 42.8747 34.7083 42.8747Z" fill="black"/>
</g>
<defs>
<clipPath id="clip0_1721_1459">
<rect width="49" height="49" fill="white"/>
</clipPath>
</defs>
</svg>
