<svg width="42" height="42" viewBox="0 0 42 42" fill="none" xmlns="http://www.w3.org/2000/svg">
<g clip-path="url(#clip0_1721_1271)">
<path d="M24.2862 26.8631C23.1039 27.7205 21.9884 28.8222 20.6498 29.4426C17.5093 30.8978 14.2566 31.0795 11.1004 29.3887C9.40658 28.4815 8.40901 26.9823 7.89602 25.1523C7.27076 22.9192 7.35603 20.7087 8.18733 18.5451C9.18916 15.94 11.1857 14.3812 13.7066 13.376C15.9305 12.4887 18.2738 12.202 20.6256 11.9478C21.4683 11.857 22.3152 11.7988 23.2346 11.7193C23.2588 10.3109 23.4037 8.91822 22.8552 7.59223C22.3223 6.30032 20.7464 5.50955 19.1122 5.74096C17.1995 6.01212 15.8126 6.94628 15.2996 8.92816C15.0623 9.84386 14.6829 10.0256 13.7279 9.89355C12.3694 9.70473 11.0067 9.5443 9.64389 9.39382C8.54117 9.27172 8.26264 8.93242 8.49996 7.87475C9.11953 5.11204 10.6173 2.95412 13.1624 1.68918C17.5249 -0.477263 21.9969 -0.562444 26.4433 1.43505C29.1873 2.66876 30.5785 4.93316 30.6638 7.89321C30.7761 11.7462 30.8073 15.6049 30.7434 19.458C30.7078 21.5548 31.2393 23.355 32.6035 24.9451C33.2657 25.7174 33.1947 26.1163 32.4145 26.8006C31.2578 27.8128 30.0925 28.8165 28.9216 29.8146C28.1585 30.4648 27.6199 30.4932 26.9364 29.7933C26 28.8336 25.1331 27.8057 24.2862 26.8631ZM23.2417 15.9471C22.0893 16.0436 20.9823 16.0692 19.8966 16.2395C16.7661 16.7322 15.122 18.8106 15.3223 21.9282C15.4701 24.2111 17.0531 25.5399 19.2174 25.1452C20.3656 24.9351 21.2111 24.2437 21.8918 23.3053C23.4918 21.1006 23.2517 18.5778 23.2417 15.9471Z" fill="black"/>
<path d="M19.5742 42.0001C14.9019 42.02 10.6771 40.5521 6.85456 37.9753C4.68322 36.5116 2.66678 34.8194 0.597754 33.2066C-0.045973 32.704 -0.151129 32.1646 0.19276 31.679C0.533808 31.1963 1.06385 31.1268 1.77721 31.4945C4.10628 32.6955 6.40835 33.9548 8.76584 35.099C14.6461 37.954 20.7935 38.4325 27.0815 36.8367C29.7062 36.1709 32.2498 35.1927 34.829 34.3523C35.0748 34.2728 35.3064 34.1436 35.5551 34.0769C36.2074 33.9023 36.7289 34.101 37.0572 34.6973C37.3897 35.3006 37.1623 35.8259 36.6848 36.2064C36.0752 36.6905 35.4215 37.1221 34.7622 37.5366C30.4664 40.2312 24.5663 41.9604 19.5742 42.0001Z" fill="black"/>
<path d="M38.9003 32.5022C37.5631 32.5802 36.4192 32.6413 35.2767 32.7194C34.9484 32.7421 34.6173 32.7889 34.2976 32.8656C33.786 32.9877 33.3839 32.8258 33.1664 32.3786C32.9249 31.8803 33.1224 31.4076 33.5729 31.1591C34.3928 30.7077 35.2213 30.2079 36.1108 29.9581C37.5745 29.5464 39.0978 29.5336 40.597 29.8488C41.6145 30.0617 42.0351 30.5387 41.9967 31.5794C41.9115 33.9105 41.1924 36.0201 39.5952 37.7763C39.4218 37.9665 39.2257 38.215 39.004 38.2618C38.6431 38.3385 38.1429 38.4081 37.9056 38.2221C37.674 38.0404 37.556 37.498 37.637 37.1758C37.8715 36.243 38.258 35.3486 38.5323 34.4244C38.6943 33.892 38.7483 33.3284 38.9003 32.5022Z" fill="black"/>
</g>
<defs>
<clipPath id="clip0_1721_1271">
<rect width="42" height="42" fill="black"/>
</clipPath>
</defs>
</svg>
