<svg width="53" height="53" viewBox="0 0 53 53" fill="none" xmlns="http://www.w3.org/2000/svg">
<g clip-path="url(#clip0_1721_1260)">
<path d="M26.4733 0C39.769 0.184215 50.6606 9.54003 52.6912 22.6812C53.3223 26.7665 52.9798 30.8111 51.662 34.7448C51.5462 35.0888 51.5348 35.2241 51.3701 35.573C51.2429 35.8436 51.0814 36.3506 51.008 36.6359C50.8596 37.226 50.4893 37.7412 50.2186 38.2596C45.8558 46.6422 39.0057 51.6208 29.6113 52.793C15.7464 54.5243 3.08683 45.1554 0.460972 31.3931C-2.29537 16.951 7.61115 2.78604 22.1072 0.469503C23.5506 0.239642 25.0185 0.15324 26.4733 0ZM50.4763 33.9607C51.4973 30.5878 51.8365 27.1529 51.432 23.6528C49.788 9.43896 36.507 -0.542862 22.3682 1.79976C5.56754 4.58254 -3.68822 23.0431 4.30191 38.134C8.88982 46.7987 16.3483 51.422 26.1341 51.5687C35.9965 51.717 43.4517 47.1426 48.4604 38.6573" fill="black"/>
<path d="M48.2453 34.797C48.3285 35.6235 47.177 37.4657 46.7301 38.2221C43.509 43.6605 38.8884 47.3529 32.7902 49.0157C19.126 52.7424 5.67209 44.0273 3.40667 30.0726C1.31577 17.2004 10.6824 4.87924 23.691 3.38759C35.9462 1.98234 46.9976 9.96552 49.418 22.034C50.2922 26.39 49.917 30.6823 48.3301 34.8492C47.9794 35.7719 46.8949 34.8263 46.996 34.5345C49.9187 26.09 48.4834 18.4687 42.6152 11.5387C40.0154 14.1617 37.4988 16.7016 34.948 19.2773C34.5451 18.8469 34.2597 18.5405 33.9254 18.1834C36.4403 15.7071 38.9863 13.1999 41.6285 10.5964C36.1549 5.74325 29.954 3.6794 22.9294 4.92488C14.2086 6.47196 8.25717 11.5974 5.57912 20.0451C3.05112 28.0153 4.97403 35.1882 10.397 41.5575C13.3931 38.5286 16.3256 35.5648 19.3494 32.5082C19.7947 32.9516 20.0931 33.2483 20.4699 33.6249C17.4249 36.631 14.4728 39.5458 11.4555 42.5258C14.008 44.9353 16.872 46.5753 20.1111 47.56C23.36 48.5479 26.6741 48.7647 30.0257 48.2235C33.3774 47.6822 36.4534 46.4335 39.2162 44.4528C41.9286 42.5095 44.1499 40.1148 45.7793 37.1315L47.0139 34.4856L48.198 34.5753L48.2453 34.797Z" fill="black"/>
<path d="M38.9799 36.5836C38.3422 36.727 38.246 36.8069 37.4958 36.8624C35.625 37.34 33.7038 37.7133 31.8673 38.3377C30.4304 38.8251 29.4045 38.561 28.2938 37.5601C26.7232 36.1451 25.0188 34.8735 23.3161 33.6166C22.5447 33.0476 22.2478 32.4575 22.6066 31.5544C22.7029 31.3131 22.7143 31.0392 22.7795 30.7018C20.8664 30.5078 19.0381 30.2274 17.2032 30.167C15.6913 30.1181 14.8269 29.6454 14.3572 28.0771C13.633 25.666 12.6267 23.3381 11.7101 20.9873C11.472 20.3792 11.5372 19.9472 12.02 19.4679C13.8891 17.6111 15.7027 15.6989 17.5784 13.8502C17.8638 13.5682 18.3808 13.3562 18.7755 13.3774C21.4323 13.529 24.0843 13.7752 26.7395 13.9399C27.4294 13.9822 27.7328 14.3001 27.9513 14.9033C28.6331 16.7911 29.3719 18.6593 30.0569 20.5471C30.233 21.0329 30.4222 21.3117 30.9817 21.0688C33.0057 20.1869 34.6595 20.7085 36.2578 22.1888C37.6458 23.4734 39.2572 24.52 40.7919 25.6416C41.2454 25.9725 41.4297 26.3328 41.3106 26.8838C40.6631 29.8524 40.0303 32.8243 39.3844 35.7929C39.3469 35.9625 39.2523 36.119 39.1838 36.2804L38.9799 36.5836ZM39.771 27.3843C37.3816 28.0005 35.1569 28.5629 32.9453 29.1677C32.7676 29.2166 32.6045 29.5541 32.5539 29.7839C32.1967 31.3685 31.8705 32.9596 31.5362 34.5474C31.3666 35.3511 31.2002 36.1548 31.0061 37.0873C33.3661 36.4841 35.5435 35.9364 37.7127 35.356C37.8953 35.3071 38.1139 35.061 38.1563 34.8719C38.6961 32.4477 39.2083 30.0154 39.771 27.3843ZM29.5709 36.727C29.6557 36.5102 29.7209 36.3928 29.747 36.2673C30.2347 33.9899 30.7403 31.7174 31.1774 29.4302C31.2296 29.1547 31.0045 28.7113 30.768 28.5156C29.3898 27.3745 27.9725 26.2822 26.565 25.1786C26.2584 24.9373 25.9403 24.7091 25.5489 24.4173C25.0025 27.0077 24.4708 29.4661 23.9864 31.9358C23.9473 32.1396 24.174 32.4705 24.3681 32.6319C25.5195 33.5775 26.6971 34.4936 27.8698 35.4147C28.4145 35.8418 28.9674 36.2624 29.5709 36.727ZM23.1791 29.3373C23.1041 28.9167 23.0927 28.5988 22.9899 28.3135C22.5104 26.9898 22.0064 25.6758 21.5057 24.3586C21.1975 23.5484 21.0964 22.4626 20.5108 22.0094C19.8992 21.5367 18.8179 21.6475 17.9372 21.5513C16.435 21.3883 14.928 21.2612 13.3965 21.1161C13.3965 21.2807 13.3753 21.3655 13.3998 21.4323C14.2528 23.7146 15.1025 25.9986 15.9816 28.2711C16.0485 28.4455 16.3127 28.633 16.5035 28.6542C18.6564 28.8955 20.8126 29.1025 23.1791 29.3373ZM26.6824 23.488C28.5792 24.9878 30.2934 26.3474 32.019 27.6907C32.1462 27.7902 32.3827 27.8358 32.5425 27.7967C34.6579 27.2685 36.7667 26.7208 38.918 26.1665C38.8413 26.0214 38.8234 25.9317 38.7679 25.8894C37.106 24.6292 35.4424 23.369 33.769 22.1236C33.6336 22.0225 33.402 21.9573 33.2422 21.9915C31.1284 22.461 29.0212 22.9501 26.6824 23.488ZM25.5978 15.2554C23.3438 15.0892 21.3198 14.9098 19.2909 14.8153C18.8978 14.7974 18.3922 15.0093 18.1052 15.2864C16.7955 16.5482 15.5462 17.8719 14.2773 19.1761C14.1403 19.3163 14.0277 19.4793 13.8027 19.7548C16.1415 19.9782 18.3253 20.1917 20.5108 20.3841C20.6707 20.3988 20.8892 20.2993 21.0018 20.1787C22.4908 18.6007 23.9636 17.0112 25.5978 15.2554ZM26.8455 15.9695C25.1852 17.7497 23.6505 19.3864 22.132 21.0411C22.0097 21.1748 21.9167 21.4584 21.9722 21.6133C22.499 23.0723 23.0617 24.5183 23.6146 25.9676C23.962 25.1721 24.1626 24.3928 24.2784 23.6005C24.3925 22.8197 24.7726 22.4366 25.5652 22.2996C26.6726 22.1105 27.7605 21.8024 28.9397 21.5269C28.2367 19.6603 27.5729 17.8997 26.8455 15.9695Z" fill="black"/>
<path d="M39.7704 27.3848C39.2077 30.0143 38.6956 32.4482 38.1541 34.874C38.1117 35.0631 37.8931 35.3093 37.7105 35.3582C35.5413 35.9385 33.3639 36.4863 31.0039 37.0894C31.198 36.1553 31.3644 35.3516 31.534 34.5496C31.8683 32.9601 32.1945 31.369 32.5517 29.7861C32.6039 29.5562 32.767 29.2188 32.9431 29.1699C35.1564 28.5634 37.381 28.0026 39.7704 27.3848Z" fill="transparent"/>
<path d="M29.5707 36.7271C28.9672 36.2609 28.4143 35.8419 27.8696 35.4115C26.6969 34.4904 25.521 33.5743 24.3679 32.6287C24.1722 32.469 23.9455 32.1364 23.9862 31.9326C24.4706 29.4645 25.0023 27.0045 25.5487 24.4141C25.9402 24.7075 26.2582 24.9341 26.5648 25.1754C27.9723 26.2807 29.3913 27.3713 30.7678 28.5124C31.0043 28.7081 31.231 29.1531 31.1772 29.427C30.7385 31.7142 30.2345 33.9867 29.7468 36.2641C29.7207 36.3929 29.6555 36.5103 29.5707 36.7271Z" fill="transparent"/>
<path d="M23.1788 29.3371C20.8122 29.1007 18.6561 28.8953 16.5032 28.6573C16.3124 28.6361 16.0482 28.447 15.9813 28.2742C15.1022 26.0016 14.2525 23.7177 13.3995 21.4354C13.375 21.3686 13.3962 21.2838 13.3962 21.1191C14.9277 21.2642 16.4347 21.3898 17.9368 21.5544C18.8176 21.6506 19.8989 21.5397 20.5105 22.0125C21.0977 22.4657 21.1988 23.5514 21.5054 24.3616C22.0045 25.6772 22.5085 26.9928 22.9896 28.3165C23.0923 28.5986 23.1038 28.9165 23.1788 29.3371Z" fill="transparent"/>
<path d="M26.6816 23.4882C29.0204 22.9503 31.1277 22.4612 33.2398 21.9933C33.3996 21.9575 33.6296 22.0227 33.7666 22.1254C35.4399 23.3709 37.1035 24.631 38.7655 25.8912C38.8209 25.9319 38.8389 26.0216 38.9155 26.1683C36.7659 26.721 34.6554 27.2687 32.5401 27.7985C32.3819 27.8377 32.1454 27.792 32.0165 27.6926C30.291 26.3476 28.5785 24.988 26.6816 23.4882Z" fill="transparent"/>
<path d="M25.5973 15.2553C23.963 17.0111 22.4903 18.6006 21.0028 20.177C20.8903 20.2976 20.6701 20.3971 20.5119 20.3824C18.3264 20.19 16.1425 19.9765 13.8037 19.7531C14.0272 19.4776 14.1413 19.3146 14.2783 19.1744C15.5472 17.8702 16.7965 16.5481 18.1062 15.2847C18.3933 15.0076 18.8989 14.7956 19.2919 14.8136C21.3192 14.9097 23.3449 15.0891 25.5973 15.2553Z" fill="transparent"/>
<path d="M26.8452 15.9697C27.5726 17.8999 28.2364 19.6605 28.941 21.5271C27.7601 21.8043 26.6739 22.1108 25.5665 22.2999C24.7738 22.4352 24.3922 22.8183 24.2796 23.6008C24.1638 24.3931 23.9632 25.1723 23.6158 25.9678C23.0629 24.5186 22.5003 23.0709 21.9734 21.6135C21.918 21.4587 22.011 21.175 22.1333 21.0413C23.6501 19.3867 25.1848 17.7499 26.8452 15.9697Z" fill="transparent"/>
</g>
<defs>
<clipPath id="clip0_1721_1260">
<rect width="53" height="53" fill="white"/>
</clipPath>
</defs>
</svg>
