<svg width="49" height="49" viewBox="0 0 49 49" fill="none" xmlns="http://www.w3.org/2000/svg">
<g clip-path="url(#clip0_1721_1477)">
<path d="M13.8835 7.35156H4.90013C4.44908 7.35156 4.0835 7.71715 4.0835 8.1682C4.0835 8.61925 4.44918 8.98483 4.90013 8.98483H13.8835C14.3345 8.98483 14.7001 8.61915 14.7001 8.1682C14.7001 7.71724 14.3344 7.35156 13.8835 7.35156Z" fill="black"/>
<path d="M20.1775 6.77327C19.8586 6.45448 19.3416 6.45448 19.0227 6.77327L18.7835 7.01253L18.5442 6.77327C18.2238 6.46377 17.7144 6.46817 17.3994 6.78322C17.0844 7.09828 17.08 7.60761 17.3895 7.92802L17.6287 8.16728L17.3895 8.40654C17.1772 8.61154 17.092 8.9152 17.1668 9.20078C17.2415 9.48636 17.4645 9.70925 17.75 9.78399C18.0356 9.85874 18.3391 9.77356 18.5442 9.56129L18.7835 9.32204L19.0227 9.56129C19.3432 9.8708 19.8526 9.86639 20.1675 9.55134C20.4826 9.23629 20.487 8.72695 20.1775 8.40654L19.9382 8.16728L20.1775 7.92802C20.4963 7.60914 20.4963 7.09215 20.1775 6.77327Z" fill="black"/>
<path d="M43.2834 5.71725C43.7344 5.71725 44.1001 5.35163 44.1001 4.90062C44.1001 4.4496 43.7344 4.08398 43.2834 4.08398C42.8324 4.08398 42.4668 4.4496 42.4668 4.90062C42.4668 5.35163 42.8324 5.71725 43.2834 5.71725Z" fill="black"/>
<path d="M40.0168 5.71725C40.4678 5.71725 40.8335 5.35163 40.8335 4.90062C40.8335 4.4496 40.4678 4.08398 40.0168 4.08398C39.5658 4.08398 39.2002 4.4496 39.2002 4.90062C39.2002 5.35163 39.5658 5.71725 40.0168 5.71725Z" fill="black"/>
<path d="M36.7502 5.71725C37.2012 5.71725 37.5669 5.35163 37.5669 4.90062C37.5669 4.4496 37.2012 4.08398 36.7502 4.08398C36.2992 4.08398 35.9336 4.4496 35.9336 4.90062C35.9336 5.35163 36.2992 5.71725 36.7502 5.71725Z" fill="black"/>
<path d="M44.9166 0.000976562H4.08337C1.82927 0.00365625 0.00267969 1.83025 0 4.08434V38.3843C0.00267969 40.6383 1.82927 42.4649 4.08337 42.4677H9.95025C10.2951 43.4431 11.2154 44.0968 12.25 44.1011H18.8486C19.2523 46.9119 21.6603 48.9988 24.5 48.9988C27.3397 48.9988 29.7477 46.9119 30.1514 44.1011H36.75C37.7845 44.0968 38.7049 43.4431 39.0497 42.4677H44.9166C47.1706 42.465 48.9972 40.6384 49 38.3843V4.08434C48.9973 1.83025 47.1707 0.00365625 44.9166 0.000976562ZM1.63337 4.90098H21.2334C21.6844 4.90098 22.05 5.26666 22.05 5.71761V7.35098C22.05 8.70403 23.1469 9.80098 24.5 9.80098H47.3666V11.4343H1.63337V4.90098ZM4.08337 1.63434H44.9167C46.2698 1.63434 47.3667 2.73129 47.3667 4.08434V8.16771H24.5C24.049 8.16771 23.6834 7.80203 23.6834 7.35107V5.71761C23.6834 4.36456 22.5864 3.26761 21.2334 3.26761H1.78362C2.12844 2.2923 3.04881 1.63865 4.08337 1.63434ZM24.5 47.3676C22.5603 47.3651 20.889 46.0009 20.4984 44.101H28.5017C28.111 46.0009 26.4397 47.3652 24.5 47.3676ZM37.5666 41.651C37.5666 42.102 37.201 42.4676 36.75 42.4676H12.25C11.799 42.4676 11.4334 42.102 11.4334 41.651V41.0932C11.4394 40.789 11.6089 40.5115 11.8769 40.3672C13.2366 39.5857 15.5167 37.4395 15.5167 31.851V28.5843C15.5226 23.6254 19.5411 19.6068 24.5001 19.601C29.4343 19.6661 33.4184 23.6502 33.4835 28.5843V31.851C33.4835 37.4395 35.7636 39.5856 37.1233 40.3672C37.3913 40.5115 37.5607 40.789 37.5668 41.0932V41.651H37.5666ZM25.3166 18.0101C25.0463 17.9889 24.7751 17.9676 24.5 17.9676C24.2248 17.9676 23.9536 17.988 23.6834 18.0092V17.1509C23.6834 16.6998 24.049 16.3342 24.5 16.3342C24.9439 16.351 25.2999 16.707 25.3166 17.1509V18.0101ZM44.9166 40.8343H39.164C39.0778 40.049 38.623 39.3515 37.939 38.956C36.8839 38.346 35.1166 36.6171 35.1166 31.851V28.5843C35.0475 23.6941 31.695 19.4632 26.95 18.278V17.151C26.9324 15.8052 25.8458 14.7186 24.5 14.701C23.1469 14.701 22.05 15.7979 22.05 17.151V18.2641C17.2691 19.4023 13.8921 23.6698 13.8834 28.5843V31.851C13.8834 36.6171 12.1161 38.346 11.0626 38.956C10.3786 39.3515 9.92384 40.0489 9.83761 40.8343H4.08337C2.73031 40.8343 1.63337 39.7374 1.63337 38.3843V13.0676H47.3667V38.3842C47.3666 39.7374 46.2698 40.8343 44.9166 40.8343Z" fill="black"/>
<path d="M24.4999 21.2344C20.4427 21.2394 17.1549 24.5271 17.1499 28.5844C17.1499 29.0354 17.5156 29.401 17.9665 29.401C18.4176 29.401 18.7832 29.0353 18.7832 28.5844C18.7868 25.4287 21.3441 22.8713 24.4998 22.8677C24.9509 22.8677 25.3164 22.5021 25.3164 22.0511C25.3165 21.6 24.951 21.2344 24.4999 21.2344Z" fill="black"/>
<path d="M12.0105 25.556C11.8573 25.4026 11.6494 25.3164 11.4327 25.3164C11.216 25.3164 11.0081 25.4025 10.855 25.556C10.13 26.3938 9.75258 27.4771 9.79986 28.5842C9.75277 29.6909 10.1302 30.7739 10.855 31.6116C11.0065 31.7634 11.2121 31.8485 11.4266 31.8484C11.7546 31.8502 12.0517 31.6555 12.1811 31.3541C12.3106 31.0528 12.2473 30.7033 12.0204 30.4666C11.6055 29.9297 11.3971 29.2617 11.4332 28.5842C11.397 27.9111 11.602 27.2471 12.0115 26.7116C12.1647 26.5583 12.2507 26.3504 12.2505 26.1336C12.2502 25.9168 12.1639 25.7091 12.0105 25.556Z" fill="black"/>
<path d="M9.4849 23.5125C9.82924 23.2322 9.88647 22.728 9.61381 22.3777C9.34115 22.0272 8.83833 21.9589 8.48203 22.2239C6.66951 23.8343 5.65802 26.161 5.71678 28.5849C5.65802 31.0088 6.66951 33.3355 8.48203 34.9459C8.62501 35.0581 8.80167 35.1187 8.98342 35.1183C9.33187 35.1192 9.64262 34.899 9.75708 34.5698C9.87154 34.2407 9.76454 33.8751 9.49055 33.6596C8.07328 32.3596 7.29196 30.5072 7.35005 28.5849C7.29129 26.6643 8.07041 24.813 9.4849 23.5125Z" fill="black"/>
<path d="M37.0047 25.5516C36.6853 25.8645 36.6744 26.3753 36.9802 26.7015C37.3951 27.2383 37.6033 27.9064 37.5665 28.5839C37.6018 29.2599 37.3941 29.926 36.981 30.4623C36.6912 30.7875 36.7075 31.283 37.0183 31.5883C37.329 31.8936 37.8248 31.9013 38.1448 31.6056C38.8686 30.7696 39.2459 29.6888 39.1999 28.584C39.2474 27.4772 38.8699 26.3941 38.1448 25.5566C37.83 25.2435 37.3221 25.2413 37.0047 25.5516Z" fill="black"/>
<path d="M40.519 22.2235C40.1639 21.9454 39.6505 22.0079 39.3724 22.3631C39.0944 22.7182 39.1569 23.2316 39.5121 23.5097C40.9285 24.8101 41.7088 26.6625 41.6501 28.5845C41.7088 30.5064 40.9284 32.3588 39.5121 33.6592C39.1569 33.9372 39.0943 34.4506 39.3724 34.8058C39.6504 35.161 40.1638 35.2236 40.519 34.9455C42.3312 33.3349 43.3423 31.0081 43.2834 28.5845C43.3424 26.1607 42.3312 23.834 40.519 22.2235Z" fill="black"/>
</g>
<defs>
<clipPath id="clip0_1721_1477">
<rect width="49" height="49" fill="white"/>
</clipPath>
</defs>
</svg>
