<svg width="54" height="39" viewBox="0 0 54 39" fill="none" xmlns="http://www.w3.org/2000/svg">
<g clip-path="url(#clip0_1721_1466)">
<path d="M54.0003 38.1579C53.3987 38.4287 52.8014 38.9281 52.1957 38.9366C47.7668 39.0043 43.3358 38.9239 38.9048 38.998C37.1701 39.0276 35.5498 38.8498 34.0947 37.8616C33.5652 37.5019 33.0801 37.504 32.5527 37.8616C31.0955 38.8498 29.4752 39.0086 27.7426 38.998C19.2344 38.943 10.724 38.9726 2.21574 38.9726C1.90015 38.9726 1.58032 38.9937 1.26685 38.962C0.19299 38.8562 -0.275102 38.014 0.256532 37.0892C0.692853 36.3296 1.15883 35.5762 1.6947 34.8843C2.2348 34.1902 2.31529 33.6167 1.63115 32.9797C1.27532 32.6475 1.00421 32.2243 0.701325 31.837C-0.217914 30.6605 -0.226386 29.9854 0.671672 28.8237C1.10164 28.2672 1.50407 27.681 1.99546 27.1858C2.58005 26.5975 2.48473 26.1447 1.9531 25.5966C1.41723 25.0422 0.93643 24.4306 0.464102 23.8212C-0.152254 23.0277 -0.141664 22.2087 0.44504 21.394C0.506463 21.3094 0.574241 21.229 0.639901 21.1443C2.31952 18.9774 2.31953 18.9774 0.843235 16.7132C0.671672 16.4487 0.489519 16.1884 0.328546 15.9154C-0.308991 14.8235 0.163337 13.9474 1.44688 13.9326C3.87206 13.9051 6.29936 13.9643 8.72455 13.9009C9.54 13.8797 10.4063 13.721 11.154 13.4036C21.4647 9.02533 31.7564 4.60053 42.0671 0.224408C42.5818 0.00644838 43.4311 -0.120518 43.7742 0.15246C44.1174 0.423323 44.1746 1.27189 44.0941 1.82842C43.7531 4.18154 43.7149 4.18154 45.7631 5.39408C46.6739 5.93157 47.0001 6.66798 46.6951 7.70276C46.4621 8.49842 45.9558 9.44643 46.2037 10.0813C46.4303 10.6653 47.483 10.9552 48.201 11.315C49.2558 11.844 49.5354 12.6883 49.2537 13.9241C50.2852 13.9241 51.2552 13.9643 52.2168 13.9114C52.9942 13.8691 53.5872 14.0977 54.0024 14.7579C54.0024 15.0393 54.0024 15.3208 54.0024 15.6001C53.2589 16.7195 52.5155 17.8411 51.7699 18.9605C52.382 19.7985 52.9921 20.6364 53.6084 21.4702C53.727 21.631 53.8689 21.7728 54.0024 21.923C54.0024 22.3442 54.0024 22.7653 54.0024 23.1885C53.3013 24.0519 52.6256 24.9364 51.8928 25.7723C51.4967 26.223 51.4713 26.5595 51.8695 27.0271C52.6108 27.899 53.2949 28.8216 54.0024 29.723C54.0024 30.0743 54.0024 30.4256 54.0024 30.7769C53.3775 31.6149 52.7231 32.4338 52.1448 33.3035C51.969 33.568 51.8377 34.0695 51.9711 34.2917C52.5939 35.3307 53.3161 36.3105 54.0024 37.3093C54.0003 37.595 54.0003 37.8764 54.0003 38.1579ZM1.86202 37.4299C2.54192 37.4299 2.95494 37.4299 3.36585 37.4299C11.3086 37.4299 19.2534 37.3897 27.1962 37.4596C29.077 37.4765 30.8244 37.2733 32.4024 36.2153C33.0335 35.7921 33.6266 35.7984 34.2536 36.2195C35.8336 37.2776 37.5768 37.5082 39.4619 37.4596C43.2553 37.3622 47.053 37.4321 50.8486 37.4278C51.2023 37.4278 51.556 37.3897 52.0792 37.3601C51.5369 36.5264 51.1112 35.8873 50.7024 35.2398C49.9971 34.1267 50.0289 33.5151 50.8295 32.4592C52.488 30.269 52.488 30.269 50.7342 28.0619C49.6667 26.7182 49.6773 26.0601 50.785 24.7206C52.5155 22.6256 52.5155 22.6256 50.8825 20.537C50.8401 20.482 50.7956 20.427 50.7511 20.3719C50.0543 19.5318 50.0204 18.6685 50.6283 17.7628C51.09 17.075 51.5306 16.3725 52.1258 15.4499C51.5115 15.4499 51.1451 15.4499 50.7766 15.4499C46.981 15.4499 43.1833 15.5112 39.3899 15.4223C37.5789 15.38 35.8993 15.5853 34.3849 16.6179C33.6584 17.1131 32.9637 17.092 32.2435 16.6074C30.7588 15.6064 29.113 15.4096 27.3423 15.4245C19.3297 15.4858 11.3149 15.452 3.30231 15.452C2.90199 15.452 2.50168 15.452 1.86626 15.452C2.40848 16.2921 2.80244 16.9036 3.19428 17.5152C4.04786 18.8441 4.01821 19.3901 3.03119 20.6364C1.45959 22.6214 1.45959 22.6214 3.07991 24.5745C4.36557 26.1235 4.36981 26.6716 3.10956 28.2418C1.46806 30.288 1.46806 30.288 3.03755 32.3089C3.10321 32.3915 3.16463 32.4761 3.23241 32.5586C3.92925 33.4051 3.93772 34.2706 3.33408 35.172C2.88928 35.8323 2.45932 36.5094 1.86202 37.4299Z" fill="black"/>
<path d="M18.3441 30.5951C15.4254 30.5951 12.5067 30.6014 9.59014 30.593C8.05031 30.5887 7.40854 29.9497 7.39583 28.4218C7.38524 27.0866 7.381 25.7513 7.39583 24.4182C7.41277 22.9517 8.05243 22.2999 9.53507 22.2978C15.4423 22.2872 21.3496 22.2851 27.2548 22.2978C28.6718 22.2999 29.3114 22.958 29.3284 24.3631C29.3453 25.7682 29.3474 27.1733 29.3262 28.5784C29.3072 29.9179 28.6527 30.5824 27.3077 30.5887C24.3213 30.6057 21.3327 30.5951 18.3441 30.5951Z" fill="black"/>
<path d="M37.9772 31.1702C37.7739 30.6264 37.5515 30.2518 37.5239 29.8646C37.5091 29.6614 37.8247 29.4202 38.0217 29.2234C40.2732 26.9655 42.531 24.7118 44.7847 22.456C45.1956 22.0455 45.6552 21.5736 46.2059 22.1111C46.7566 22.6486 46.3076 23.1163 45.8924 23.531C43.6091 25.808 41.3301 28.0891 39.0426 30.3618C38.8033 30.5988 38.5046 30.7745 37.9772 31.1702Z" fill="black"/>
<path d="M38.7208 20.8204C40.0255 20.8331 41.0634 21.8848 41.0443 23.1735C41.0274 24.4517 39.945 25.5055 38.6657 25.4886C37.3885 25.4738 36.321 24.384 36.3401 23.1164C36.357 21.8256 37.4118 20.8077 38.7208 20.8204ZM39.8857 23.163C39.2927 22.763 38.9559 22.361 38.6848 22.4033C38.3967 22.4477 38.024 22.8836 37.9689 23.1968C37.935 23.3957 38.4031 23.874 38.6615 23.8846C38.9644 23.8973 39.2842 23.5418 39.8857 23.163Z" fill="black"/>
<path d="M45.3237 32.0681C44.002 32.0808 42.9811 31.082 42.9684 29.7679C42.9557 28.4602 43.9745 27.4169 45.2728 27.4063C46.5691 27.3958 47.6281 28.4284 47.6429 29.7171C47.6578 31.0164 46.6305 32.0575 45.3237 32.0681ZM46.4716 29.7214C45.8828 29.3532 45.5609 28.9934 45.2601 29.0103C44.9996 29.0252 44.5336 29.5076 44.5696 29.7087C44.6268 30.0197 45.0081 30.4493 45.2982 30.4916C45.5672 30.5276 45.8977 30.1192 46.4716 29.7214Z" fill="black"/>
<path d="M34.1158 19.4687C34.101 19.7141 34.1772 20.0252 34.0544 20.1881C33.8489 20.459 33.5185 20.6346 33.2411 20.8526C33.0081 20.4421 32.6438 20.0506 32.5739 19.6147C32.4807 19.0327 32.3409 18.2456 33.205 18.0699C33.4444 18.0212 33.8468 18.3789 34.0417 18.6476C34.1815 18.8359 34.101 19.1872 34.1158 19.4687Z" fill="black"/>
<path d="M34.0845 24.0926C34.0845 24.336 34.1819 24.6598 34.0633 24.8079C33.8367 25.0914 33.4872 25.2755 33.1885 25.4999C32.9725 25.0787 32.6357 24.6767 32.5722 24.2344C32.4896 23.6525 32.3562 22.8632 33.2542 22.7489C33.4978 22.7172 33.8515 23.1044 34.0527 23.3753C34.1756 23.5382 34.1014 23.8472 34.1163 24.0905C34.1057 24.0926 34.0951 24.0926 34.0845 24.0926Z" fill="black"/>
<path d="M32.3359 28.7461C32.5901 28.253 32.7384 27.7938 33.0391 27.4764C33.1429 27.3664 33.8758 27.5843 33.8927 27.707C33.9817 28.4096 33.988 29.1333 33.9054 29.8359C33.8906 29.9649 33.1408 30.1914 33.0624 30.0961C32.7596 29.7322 32.5922 29.256 32.3359 28.7461Z" fill="black"/>
<path d="M34.0905 33.4712C34.0905 33.6807 34.1752 33.9558 34.0736 34.087C33.8469 34.379 33.5292 34.6012 33.2475 34.8509C33.0124 34.4446 32.6396 34.0595 32.5761 33.6278C32.4914 33.0565 32.3198 32.2523 33.1988 32.1C33.4487 32.0555 33.8385 32.4703 34.063 32.756C34.1816 32.9062 34.0842 33.2279 34.0842 33.4733C34.0863 33.4712 34.0884 33.4712 34.0905 33.4712Z" fill="black"/>
</g>
<defs>
<clipPath id="clip0_1721_1466">
<rect width="54" height="39" fill="white"/>
</clipPath>
</defs>
</svg>
