<svg width="95" height="75" viewBox="0 0 95 75" fill="none" xmlns="http://www.w3.org/2000/svg">
<g clip-path="url(#clip0_1721_1519)">
<path d="M0 15.9552C0.990856 14.1337 1.75824 12.1314 3.02738 10.5245C4.94163 8.10158 7.66965 6.97423 10.8024 6.97423C25.9773 6.97003 41.1522 6.97423 56.327 6.96582C57.6974 6.96582 59.0087 7.14249 59.0129 8.85455C59.0171 10.6592 57.6468 10.8947 56.2005 10.8947C41.3756 10.8947 26.5549 10.8905 11.7301 10.8947C6.2192 10.8947 3.8285 13.3135 3.8285 18.8619C3.8285 33.3702 3.8285 47.8785 3.8285 62.3869C3.8285 67.624 6.11801 70.0428 11.359 70.0512C32.7151 70.0848 54.0712 70.089 75.4274 70.0512C80.6557 70.0428 83 67.6072 83.0127 62.4079C83.0295 55.749 83.0127 49.09 83.0127 42.4353C83.0127 41.8758 83.0169 41.3121 83.0169 40.7527C83.0085 39.4276 83.565 38.5653 84.986 38.5821C86.4406 38.5989 86.8749 39.5664 86.8749 40.841C86.8749 46.0277 86.8749 51.2143 86.8749 56.401C86.8749 58.3654 86.8665 60.3257 86.8749 62.2901C86.896 69.3487 82.2875 73.9506 75.1491 73.9548C60.2567 73.9632 45.3601 73.959 30.4678 73.959C24.7756 73.959 19.0793 73.7697 13.3998 74.0095C6.87275 74.2829 2.29373 71.8558 0.00843282 65.5965C0 49.048 0 32.5037 0 15.9552Z" fill="#FFBE00" stroke="white"/>
<path d="M94.0552 16.7254C94.0678 25.7736 86.3771 33.5515 77.3498 33.623C68.3224 33.6945 60.404 25.7568 60.4504 16.6791C60.4968 7.82015 68.2971 0.0464767 77.1853 0.000204859C86.1831 -0.046067 94.0467 7.75284 94.0552 16.7254ZM64.4096 16.5571C64.2705 23.9774 69.5789 29.5174 77.0209 29.7236C84.2056 29.9213 90.0454 24.4065 90.1972 17.2848C90.3532 9.74674 85.0152 4.09737 77.5437 3.89545C70.2409 3.69775 64.5487 9.18727 64.4096 16.5571Z" fill="#FFBE00" stroke="white"/>
<path d="M47.3123 42.4396C47.3123 48.0469 47.2955 53.6542 47.325 59.2615C47.3334 60.7338 47.1226 62.0925 45.3053 62.0252C43.6736 61.9621 43.4079 60.6749 43.4122 59.2825C43.4248 47.9964 43.4206 36.7145 43.4122 25.4284C43.4122 24.0234 43.7832 22.7824 45.3981 22.7572C47.0846 22.732 47.3334 24.015 47.3292 25.4073C47.3123 31.0861 47.3208 36.7607 47.3208 42.4396C47.3166 42.4396 47.3166 42.4396 47.3123 42.4396Z" fill="#FFBE00" stroke="white"/>
<path d="M27.7057 46.2465C27.7057 41.9054 27.7099 37.5601 27.7015 33.2189C27.6973 31.9359 27.8786 30.7202 29.4892 30.6698C31.18 30.6151 31.5637 31.8223 31.5637 33.2147C31.5679 41.9685 31.5637 50.7265 31.5679 59.4803C31.5679 60.9063 31.1336 62.0883 29.4892 62.0337C27.9376 61.9832 27.6804 60.8011 27.6846 59.4803C27.7099 55.0676 27.6931 50.655 27.6931 46.2423C27.6973 46.2465 27.7015 46.2465 27.7057 46.2465Z" fill="#FFBE00" stroke="white"/>
<path d="M39.4027 50.2721C39.4027 53.3513 39.3901 56.4305 39.4111 59.5054C39.4196 60.8347 39.1033 61.9873 37.5686 62.0335C35.8947 62.084 35.5236 60.8557 35.5194 59.4634C35.5152 53.305 35.511 47.1508 35.5278 40.9925C35.532 39.6842 35.9073 38.5695 37.5053 38.5821C39.1118 38.599 39.4069 39.7137 39.4027 41.0345C39.3985 44.1137 39.4027 47.1929 39.4027 50.2721Z" fill="#FFBE00" stroke="white"/>
<path d="M19.7624 50.2514C19.7666 47.168 19.7877 44.0889 19.7539 41.0097C19.7413 39.6426 20.1166 38.6036 21.6808 38.5909C23.2578 38.5783 23.6457 39.651 23.6415 40.9971C23.6373 47.2311 23.6373 53.461 23.6457 59.6951C23.6499 61.1043 23.047 62.0928 21.5881 62.0381C20.2473 61.9919 19.7286 61.0328 19.7455 59.7077C19.7835 56.557 19.7582 53.4021 19.7624 50.2514Z" fill="#FFBE00" stroke="white"/>
<path d="M63.1916 50.239C63.1916 53.3182 63.1789 56.4016 63.2 59.4807C63.2085 60.9278 62.7573 62.072 61.1298 62.0341C59.5866 61.9963 59.2956 60.8226 59.2998 59.5018C59.3167 53.3392 59.3083 47.1766 59.3041 41.0141C59.3041 39.6932 59.6034 38.5869 61.2225 38.5869C62.8205 38.5869 63.1874 39.668 63.1874 40.993C63.1916 44.0764 63.1874 47.1556 63.1916 50.239Z" fill="#FFBE00" stroke="white"/>
<path d="M51.4061 52.1652C51.4061 49.717 51.4314 47.2688 51.3977 44.8206C51.3808 43.5292 51.7772 42.5322 53.1897 42.4818C54.6739 42.4271 55.2684 43.3693 55.2684 44.7869C55.2599 49.7548 55.2515 54.7186 55.2726 59.6865C55.281 61.1167 54.6696 62.059 53.2234 62.0295C51.8657 62.0001 51.3682 61.0494 51.3935 59.7201C51.4441 57.2004 51.4061 54.6807 51.4061 52.1652Z" fill="#FFBE00" stroke="white"/>
<path d="M67.1216 54.1597C67.1216 52.3467 67.1047 50.5337 67.1258 48.7207C67.1426 47.4587 67.6823 46.466 69.0358 46.4197C70.5368 46.3692 71.0681 47.4125 71.0723 48.7712C71.0808 52.4687 71.085 56.1621 71.0681 59.8596C71.0639 61.1468 70.482 62.0722 69.0948 62.0428C67.7287 62.0133 67.1511 61.0753 67.13 59.8049C67.1005 57.9288 67.1216 56.0443 67.1216 54.1597Z" fill="#FFBE00" stroke="white"/>
<path d="M15.6724 54.1718C15.6724 56.0605 15.6513 57.9535 15.6808 59.8422C15.7019 61.2009 15.0357 62.2063 13.7497 61.9665C13.0076 61.8277 11.9409 60.6919 11.9029 59.96C11.7174 56.1867 11.8144 52.4009 11.8144 48.6192C11.8144 47.2857 12.489 46.4024 13.813 46.4192C15.1707 46.436 15.7061 47.3783 15.6766 48.7075C15.6429 50.5332 15.6724 52.3546 15.6724 54.1718Z" fill="#FFBE00" stroke="white"/>
<path d="M78.9309 16.2039C78.9309 18.2104 78.9056 20.2212 78.9393 22.2277C78.9646 23.5275 78.5051 24.5202 77.1305 24.5665C75.6801 24.6128 75.0392 23.6747 75.0476 22.2529C75.0603 20.238 75.0518 18.2231 75.0518 15.6318C74.0061 16.654 73.2809 17.3313 72.5894 18.0422C71.6407 19.0223 70.5529 19.443 69.4651 18.4376C68.3393 17.3986 68.7778 16.3217 69.7476 15.3626C71.6365 13.4907 73.517 11.6104 75.3891 9.72165C76.4896 8.61113 77.5901 8.61533 78.6779 9.70062C80.5627 11.5767 82.4263 13.4739 84.3068 15.35C85.2766 16.3217 85.6645 17.407 84.5598 18.446C83.4593 19.485 82.3504 19.0307 81.465 18.0253C80.8241 17.2934 79.5903 16.2782 79 15.5C79 15.5 78.9309 15.8203 78.9309 16.2039Z" fill="#FFBE00" stroke="white"/>
</g>
<defs>
<clipPath id="clip0_1721_1519">
<rect width="94.0555" height="74.0307" fill="white"/>
</clipPath>
</defs>
</svg>
