<svg width="56" height="62" viewBox="0 0 56 62" fill="none" xmlns="http://www.w3.org/2000/svg">
<g clip-path="url(#clip0_1721_1532)">
<path d="M19.4791 49.2607C19.4791 48.1379 19.3776 47.1495 19.5235 46.1956C19.5933 45.7452 20.1389 45.3636 20.4688 44.9539C20.8209 45.3511 21.4046 45.7139 21.4775 46.1581C21.6329 47.112 21.5251 48.1066 21.5251 49.1888C24.0437 49.1888 26.3847 49.1888 28.8748 49.1888C28.8019 46.3488 29.4775 43.781 30.9557 41.4165C33.7408 36.9658 39.6282 34.373 44.7606 35.3894C50.5655 36.5373 55.0477 41.0005 55.8471 46.4302C56.8875 53.5018 52.4402 60.0324 45.4807 61.6432C38.6036 63.2352 31.7329 59.3819 29.541 52.5823C29.1666 51.4188 28.602 51.2061 27.5267 51.2093C21.6583 51.2311 15.79 51.2124 9.92478 51.1592C9.06831 51.153 8.62422 51.4094 8.20868 52.1663C7.24436 53.921 5.47751 54.7404 3.73286 54.4245C1.85816 54.0836 0.399001 52.7762 0.0944809 51.1623C-0.30203 49.0637 0.532229 47.3685 2.33715 46.2362C2.80344 45.9454 3.30463 45.2667 3.30463 44.7662C3.35221 31.5799 3.33318 18.3936 3.32366 5.20733C3.32366 4.9665 3.26974 4.72567 3.2063 4.18771C2.73366 4.78197 2.48623 5.25112 2.09924 5.52948C1.76934 5.76406 1.07148 5.99551 0.903363 5.83912C0.598843 5.55451 0.294322 4.82263 0.459271 4.56303C1.43945 3.02108 2.48941 1.51354 3.66625 0.118597C3.86609 -0.119106 5.04293 0.0216393 5.33477 0.353173C6.40059 1.56984 7.33953 2.90536 8.19599 4.27841C8.41486 4.62871 8.15158 5.27301 8.11034 5.78283C7.61232 5.67961 7.05404 5.68274 6.63215 5.44504C6.25784 5.23548 6.0358 4.76007 5.54095 4.14705C5.54095 7.16213 5.54095 9.86132 5.54095 12.7075C6.48623 12.7075 7.38711 12.6137 8.24991 12.7513C8.63056 12.8107 9.20154 13.3268 9.20788 13.6458C9.21423 13.9867 8.69718 14.5716 8.33556 14.6342C7.46641 14.7812 6.55285 14.6811 5.53144 14.6811C5.53144 17.3584 5.53144 19.9262 5.53144 22.6973C6.34349 22.6973 7.13968 22.5879 7.88195 22.7349C8.37997 22.8318 8.80503 23.2916 9.26181 23.5887C8.79551 23.939 8.37363 24.4676 7.8534 24.5896C7.11748 24.7616 6.3086 24.6334 5.5695 24.6334C5.36966 27.6516 5.18885 30.4289 4.99218 33.4128C6.19123 33.1375 7.39662 32.8591 8.17378 32.6809C8.64325 33.3783 8.88433 33.7412 9.34746 34.423C7.9676 34.5106 6.77489 34.5856 5.4109 34.6701C5.4109 38.2419 5.01756 41.7824 5.58853 45.1666C5.84547 46.6929 7.8534 48.7884 9.36649 49.073C12.5671 49.6798 15.9644 49.2607 19.4791 49.2607ZM42.3657 59.948C48.7352 59.9761 53.9819 54.8467 53.9914 48.5757C54.0009 42.4455 48.8494 37.3098 42.6353 37.2567C36.1199 37.2004 30.8193 42.3079 30.8352 48.6227C30.8542 54.8061 36.0564 59.9198 42.3657 59.948ZM4.29749 52.4353C5.54412 52.4697 6.6607 51.4751 6.73366 50.2709C6.80979 49.023 5.71542 47.8501 4.41486 47.7876C3.20947 47.7281 1.95015 48.9448 1.96284 50.149C1.9787 51.3594 3.04452 52.4009 4.29749 52.4353Z" fill="#D00053"/>
<path d="M32.5828 30.9045C32.6399 31.3018 32.8778 31.7959 32.7256 32.0806C31.9072 33.5881 30.9492 35.0206 30.1245 36.525C29.6169 37.4508 28.9191 37.5978 28.0118 37.3007C26.4099 36.7815 24.7858 36.3248 23.222 35.7118C22.2038 35.3114 21.5313 35.4303 20.7383 36.2247C17.8865 39.0803 14.9777 41.8796 12.0182 44.6226C11.5455 45.0604 10.6954 45.1042 10.0198 45.3294C10.0388 44.6695 9.86117 43.9282 10.1054 43.3621C12.5828 37.6291 15.1554 31.9398 17.6328 26.2068C18.1974 24.9025 18.9016 24.6148 20.2022 25.1559C22.467 26.1004 24.7763 26.948 27.1776 27.8769C29.6233 22.7726 31.9992 17.8121 34.4258 12.7452C33.5535 12.2667 32.7668 11.8632 32.0087 11.4097C30.7176 10.6372 30.6732 9.83024 31.9357 9.0921C36.1546 6.62436 40.3861 4.18165 44.6367 1.76708C45.9436 1.02269 46.6352 1.42929 46.6447 2.90868C46.6732 7.8035 46.6796 12.6983 46.6669 17.5931C46.6637 18.8411 46.1022 19.1883 44.9762 18.644C43.9865 18.1655 43.0444 17.5963 41.9246 16.9801C40.8651 18.7191 39.812 20.4362 38.7652 22.1596C38.0071 23.4075 37.2838 24.6805 36.494 25.9096C35.7708 27.0356 35.3965 28.5338 33.6708 28.6714L33.7184 28.6339C33.1982 28.1147 33.0079 27.658 33.4805 26.898C35.6375 23.445 37.6962 19.9326 39.8057 16.4547C41.1379 14.259 41.1506 14.2747 43.3965 15.4882C43.7454 15.6759 44.1356 15.7853 44.586 15.9605C44.586 12.0008 44.586 8.18508 44.586 4.10971C40.992 6.199 37.6264 8.15693 34.1181 10.1962C34.5781 10.4902 34.7906 10.6403 35.0158 10.7717C37.0808 11.9664 37.0745 11.9633 36.0467 14.0964C33.7914 18.791 31.4789 23.4638 29.3346 28.2085C28.7731 29.4564 27.7168 29.5127 26.8191 29.6159C25.9817 29.716 25.0491 29.2156 24.1863 28.8997C22.6637 28.3461 21.1633 27.7331 19.6439 27.1419C18.8826 28.1678 17.9817 29.0029 17.5598 30.0288C16.6463 32.2526 15.9992 34.5796 15.1934 36.8471C14.8604 37.7823 14.3941 38.6706 13.9881 39.5807C14.1562 39.7058 14.3243 39.8309 14.4956 39.9561C16.3671 37.9794 18.2482 36.0089 20.1038 34.0166C20.6748 33.4004 21.176 33.0783 22.1276 33.3973C24.199 34.0948 26.3338 34.6171 28.3068 35.1738C29.5789 33.4442 30.7716 31.8241 31.9674 30.2039C32.1673 30.4354 32.3766 30.67 32.5828 30.9045Z" fill="#D00053"/>
<path d="M32.5833 30.9045C32.3772 30.6699 32.1678 30.4353 31.9616 30.2008C31.6508 28.7026 32.8879 28.8903 33.7158 28.6338L33.6682 28.6713C34.9466 28.9059 34.3121 29.6409 33.9442 30.085C33.6301 30.4697 33.0465 30.6418 32.5833 30.9045Z" fill="#D00053"/>
<path d="M42.3663 59.9478C36.057 59.9197 30.8548 54.8059 30.8389 48.6194C30.823 42.3046 36.1236 37.1971 42.6391 37.2534C48.8532 37.3066 54.0046 42.4422 53.9951 48.5725C53.9793 54.8435 48.7358 59.976 42.3663 59.9478ZM42.0808 56.4667C45.8429 56.4886 47.8635 54.6058 47.9047 50.8557C47.9491 46.7021 45.4622 43.6902 42.915 40.7658C42.6962 40.5156 41.5954 40.5719 41.3322 40.8659C39.0007 43.4368 36.8532 46.1954 36.4694 49.7516C36.0411 53.6956 38.0839 56.6825 42.0808 56.4667Z" fill="#F5F5F5"/>
<path d="M4.29867 52.4348C3.0457 52.4004 1.97988 51.3589 1.96402 50.1484C1.94815 48.9443 3.21064 47.7307 4.41604 47.787C5.71659 47.8496 6.81096 49.0193 6.73483 50.2704C6.66187 51.4746 5.5453 52.4692 4.29867 52.4348Z" fill="white"/>
<path d="M33.7155 28.6337C32.8876 28.8902 31.6505 28.7057 31.9613 30.2007C30.7686 31.8208 29.5759 33.4441 28.3007 35.1706C26.3277 34.6138 24.1929 34.0915 22.1215 33.394C21.1731 33.075 20.6687 33.3972 20.0977 34.0133C18.2452 36.0057 16.361 37.9761 14.4895 39.9528C14.3213 39.8277 14.1532 39.7026 13.9819 39.5775C14.388 38.6673 14.8543 37.7791 15.1873 36.8439C15.9962 34.5763 16.6401 32.2462 17.5537 30.0255C17.9756 28.9997 18.8765 28.1646 19.6378 27.1387C21.1572 27.7298 22.6576 28.3428 24.1802 28.8964C25.043 29.2092 25.9724 29.7096 26.813 29.6127C27.7107 29.5063 28.767 29.45 29.3285 28.2052C31.4696 23.4605 33.7821 18.7878 36.0406 14.0931C37.0684 11.9569 37.0747 11.9632 35.0097 10.7684C34.7845 10.637 34.5719 10.49 34.112 10.1929C37.6203 8.15366 40.9859 6.19574 44.5799 4.10645C44.5799 8.18181 44.5799 11.9976 44.5799 15.9572C44.1294 15.7821 43.7393 15.6726 43.3903 15.4849C41.1445 14.2714 41.1318 14.2589 39.7995 16.4514C37.6869 19.9325 35.6282 23.4418 33.4744 26.8947C33.0018 27.6579 33.1953 28.1145 33.7155 28.6337Z" fill="#F5F5F5"/>
<path d="M42.0805 56.4666C38.0837 56.6793 36.0408 53.6923 36.4659 49.7515C36.8497 46.1953 38.9972 43.4367 41.3287 40.8657C41.592 40.5749 42.6927 40.5154 42.9116 40.7656C45.4588 43.69 47.9488 46.7051 47.9013 50.8555C47.8632 54.6056 45.8426 56.4916 42.0805 56.4666ZM42.1154 42.9269C40.3231 45.3727 38.4611 47.6153 38.4326 50.6804C38.4072 53.195 39.7649 54.5681 42.1408 54.5775C44.5293 54.5869 45.887 53.2576 45.868 50.7117C45.8426 47.6059 44.044 45.2977 42.1154 42.9269Z" fill="#D00053"/>
<path d="M42.1162 42.9268C44.0449 45.2975 45.8434 47.6058 45.8688 50.7084C45.8879 53.2544 44.5302 54.5836 42.1416 54.5742C39.7657 54.5649 38.4081 53.1918 38.4335 50.6772C38.462 47.6152 40.324 45.3695 42.1162 42.9268Z" fill="white"/>
</g>
<defs>
<clipPath id="clip0_1721_1532">
<rect width="56" height="62" fill="white"/>
</clipPath>
</defs>
</svg>
