<svg width="63" height="62" viewBox="0 0 63 62" fill="none" xmlns="http://www.w3.org/2000/svg">
<g clip-path="url(#clip0_1721_1511)">
<path d="M10.3583 49.5826C5.21517 48.2556 2.78255 43.6494 5.11356 38.6645C1.96969 37.0998 0.0271805 34.6073 0.000284281 31.0727C-0.026612 27.5204 1.85613 24.9898 5.17632 23.3194C4.03173 21.1058 3.78369 18.8482 4.91035 16.576C6.03102 14.3155 7.90181 12.9944 10.4151 12.4924C10.5735 9.10157 11.9781 6.61793 15.358 5.51997C17.5904 4.79777 17.5934 4.80658 18.8725 2.8778C20.4056 0.564429 23.2028 -0.457211 25.9014 0.309019C28.6089 1.07525 30.4379 3.4532 30.4469 6.34198C30.4678 14.5621 30.4528 22.7792 30.4528 30.9993C30.4528 39.0726 30.4558 47.143 30.4528 55.2163C30.4528 58.8067 28.4535 61.2727 25.0377 61.9098C22.2017 62.4411 19.4074 60.6533 18.1194 57.5443C17.9849 57.2184 17.5875 56.828 17.2617 56.7751C12.6206 56.0089 10.9979 54.3561 10.4241 49.7117C10.4181 49.6677 10.3793 49.6266 10.3583 49.5826ZM28.334 18.5811C28.334 14.1892 28.4207 9.93826 28.2981 5.69611C28.2384 3.64403 26.2032 2.06166 24.1053 2.08221C22.0373 2.10276 20.1426 3.6088 20.029 5.63152C19.9334 7.30784 19.2162 7.49279 17.7309 7.30784C14.6677 6.92619 12.0737 9.69166 12.6535 12.6714C12.8896 13.8898 12.6027 14.3419 11.3206 14.4769C6.79906 14.9525 4.87747 19.2005 7.45354 22.8996C8.30525 24.1238 8.17077 24.5407 6.76619 24.9986C3.79266 25.9674 2.03842 28.2309 2.06233 31.0698C2.08624 33.8352 3.84047 36.0605 6.75125 37.0088C8.16479 37.4697 8.30525 37.8866 7.4625 39.099C4.82966 42.8832 6.77217 47.0461 11.4491 47.551C12.5668 47.6714 12.8866 48.0912 12.6893 49.1745C12.0946 52.4655 14.6318 55.0988 18.0088 54.6702C19.3327 54.5029 19.9244 54.7906 20.0021 56.2144C20.1127 58.2225 21.7952 59.752 23.7885 59.9164C25.7699 60.0808 27.823 58.8448 28.1517 56.8926C28.4356 55.2075 28.2115 53.4401 28.2115 51.6464C25.8416 51.6464 23.5524 51.6464 21.2633 51.6464C18.9681 51.6464 18.8815 51.6053 18.9442 49.3448C18.9771 48.1646 18.8067 47.2809 17.7219 46.4736C16.4488 45.5224 16.3801 43.3412 17.6711 42.4546C19.0159 41.5298 18.9323 40.4142 18.9263 39.1636C18.9173 37.8425 18.9203 36.5214 18.9263 35.2003C18.9323 33.1952 18.9861 33.1424 21.0212 33.1395C23.4419 33.1365 25.8655 33.1395 28.2653 33.1395C28.2653 31.2811 28.2653 29.643 28.2653 28.0019C23.7019 28.0019 19.2431 28.0019 14.6408 28.0019C14.6408 29.0412 14.6587 30.007 14.6348 30.9729C14.605 32.1853 14.5751 33.2363 15.8541 34.1112C17.1721 35.0125 17.0286 37.1614 15.887 38.3064C14.7514 39.4454 12.7521 39.5071 11.5507 38.4414C10.2986 37.3317 10.0087 35.2767 11.2997 34.2756C12.6206 33.251 12.6595 32.0767 12.6087 30.7087C12.5698 29.6342 12.6355 28.5538 12.5937 27.4793C12.5489 26.2904 13.0599 25.8236 14.2882 25.8471C17.175 25.9028 20.0649 25.8647 22.9547 25.8647C24.7269 25.8647 26.5021 25.8647 28.2862 25.8647C28.2862 24.0386 28.2862 22.4005 28.2862 20.6244C24.18 20.6244 20.1575 20.6068 16.138 20.6567C15.8123 20.6596 15.4328 21.0794 15.1758 21.3847C13.8907 22.926 11.8496 23.1579 10.4599 21.8838C9.15697 20.6919 9.148 18.6486 10.439 17.4332C11.8167 16.1356 13.804 16.347 15.1518 17.8941C15.4178 18.1994 15.8033 18.587 16.153 18.6046C17.7279 18.6809 19.3088 18.6369 20.9913 18.6369C20.9465 17.0369 21.5292 15.6072 19.8318 14.4593C18.493 13.5551 18.6603 11.4326 19.8288 10.27C21.0361 9.06635 23.0534 9.0546 24.2577 10.2406C25.4262 11.3915 25.6145 13.5111 24.2996 14.43C22.6051 15.6101 23.0504 17.0281 23.1639 18.5811C24.8853 18.5811 26.52 18.5811 28.334 18.5811ZM20.9316 35.171C20.9316 36.9236 20.9614 38.5765 20.9196 40.2263C20.8987 41.0102 21.081 41.5239 21.8042 42.0348C23.4688 43.2061 23.5853 45.5224 21.9476 46.6762C20.7433 47.5246 20.8329 48.42 21.063 49.5415C23.5196 49.5415 25.8805 49.5415 28.2563 49.5415C28.2563 44.6975 28.2563 39.9445 28.2563 35.171C25.7848 35.171 23.421 35.171 20.9316 35.171ZM14.076 19.7701C13.4275 19.227 13.0509 18.6662 12.6714 18.6662C12.3008 18.6662 11.6762 19.2093 11.6344 19.5675C11.5956 19.8904 12.1514 20.5216 12.522 20.5862C12.8926 20.6479 13.3588 20.1752 14.076 19.7701ZM15.116 36.1134C14.4077 35.6583 13.9624 35.1475 13.6068 35.2033C13.2153 35.2649 12.9075 35.8433 12.5638 36.1956C12.9284 36.5361 13.2661 37.1115 13.6606 37.1497C14.0162 37.1849 14.4316 36.6301 15.116 36.1134ZM21.4276 44.3305C20.6955 43.899 20.2382 43.4116 19.8856 43.4792C19.4941 43.5525 19.2012 44.128 18.8665 44.4861C19.2401 44.8149 19.5987 45.3756 19.9962 45.4079C20.3488 45.4344 20.7493 44.8707 21.4276 44.3305ZM23.5375 12.419C22.8352 11.9434 22.4049 11.4296 22.0492 11.4766C21.6548 11.5265 21.323 12.0872 20.9674 12.4248C21.323 12.7742 21.6458 13.3555 22.0403 13.4083C22.3959 13.4494 22.8292 12.9151 23.5375 12.419Z" fill="#D00053"/>
<path d="M52.6435 12.4177C57.7748 13.733 60.2253 18.348 57.8883 23.327C61.0232 24.9064 62.9807 27.393 63.0016 30.9276C63.0255 34.4769 61.1458 37.0134 57.8256 38.6809C58.9612 40.8945 59.2242 43.1521 58.0915 45.4243C56.9679 47.6819 55.1001 49.0089 52.5868 49.505C52.4254 52.8958 51.0328 55.3883 47.6438 56.4774C45.4085 57.1967 45.4055 57.1908 44.1294 59.1196C42.5993 61.433 39.7991 62.4575 37.1005 61.6884C34.384 60.9133 32.564 58.5471 32.558 55.6554C32.5371 47.1917 32.552 38.725 32.552 30.2612C32.552 22.4316 32.5491 14.6049 32.552 6.77525C32.555 3.19364 34.5693 0.715869 37.9761 0.0876195C40.8182 -0.434943 43.5885 1.34118 44.8885 4.46188C45.0229 4.78481 45.4264 5.17233 45.7521 5.22224C50.2916 5.93856 52.0877 7.74992 52.5389 12.1477C52.5449 12.2416 52.6047 12.3297 52.6435 12.4177ZM34.7127 25.8605C38.5051 25.8605 42.2287 25.8458 45.9524 25.8723C46.831 25.8781 47.4675 25.7754 48.0533 24.9416C49.0484 23.5266 51.1015 23.4268 52.4254 24.5248C53.7015 25.5846 53.9047 27.4752 52.8796 28.7405C51.756 30.1262 49.6491 30.5607 48.5822 29.219C47.3868 27.7189 45.9912 27.9244 44.5089 27.9185C41.6699 27.9067 38.8308 27.9126 35.9888 27.9185C35.5614 27.9185 35.1341 27.9713 34.7575 27.9977C34.7575 29.7651 34.7575 31.3973 34.7575 33.1324C35.415 33.1324 35.9559 33.1324 36.4968 33.1324C40.9317 33.1324 45.3636 33.1647 49.7985 33.1118C51.0447 33.0971 51.5019 33.5404 51.4302 34.7441C51.3585 35.9624 51.3465 37.1954 51.4482 38.4108C51.49 38.9011 51.7948 39.4912 52.1744 39.8083C53.7463 41.1205 54.0123 43.064 52.7063 44.4379C51.484 45.7238 49.41 45.7385 48.1728 44.4732C46.8399 43.111 47.0461 41.1499 48.6241 39.8464C48.9349 39.591 49.3234 39.2182 49.3473 38.8776C49.4369 37.671 49.3801 36.4556 49.3801 35.1551C46.5082 35.1551 43.7947 35.1551 40.9257 35.1551C40.9257 38.5929 40.9497 41.9572 40.9078 45.3186C40.8959 46.1641 41.0901 46.7043 41.8552 47.2386C43.3345 48.2749 43.4241 50.3534 42.2138 51.6452C40.9945 52.9486 38.9504 52.978 37.6892 51.7156C36.3863 50.4122 36.3773 48.4452 37.8805 47.3296C38.7352 46.6955 38.8936 46.0438 38.8697 45.1161C38.8189 43.2078 38.8547 41.2996 38.8547 39.3914C38.8547 37.991 38.8547 36.5907 38.8547 35.1845C37.3396 35.1845 36.0276 35.1845 34.6559 35.1845C34.6559 42.2479 34.6111 49.1968 34.6828 56.1427C34.7037 58.2154 36.6313 59.8594 38.7322 59.921C40.9078 59.9856 42.8503 58.4091 42.9997 56.2367C43.0924 54.8539 43.6064 54.484 44.9662 54.6572C48.3581 55.0947 50.9222 52.4643 50.3215 49.1938C50.1273 48.1282 50.3902 47.6731 51.5259 47.541C56.3104 46.9861 58.1662 42.9407 55.4527 38.998C54.7654 37.9969 54.9148 37.4215 56.0833 37.0281C59.272 35.9536 60.9664 33.8105 60.9425 30.9394C60.9186 28.1387 59.2242 26.0279 56.1042 24.9798C54.9566 24.5952 54.6488 23.9787 55.4557 23.0334C58.486 19.4841 55.7964 14.461 51.4093 14.4287C50.444 14.4229 50.1422 13.9062 50.2827 12.9726C50.8415 9.31173 48.5314 6.99249 44.6942 7.36827C43.6482 7.47102 43.1372 7.20093 43.0296 6.08241C42.7876 3.54886 40.9706 1.95769 38.6097 2.08393C36.2966 2.20723 34.6529 4.03913 34.641 6.56094C34.626 10.1836 34.635 13.8034 34.641 17.4261C34.641 17.8019 34.7037 18.1806 34.7336 18.5241C37.5488 18.5241 40.2593 18.5241 42.9908 18.5241C43.1193 16.8713 43.2956 15.4797 41.7416 14.2702C40.3878 13.2163 40.7703 11.1524 42.166 10.0281C43.4271 9.01229 45.3845 9.18549 46.4694 10.4068C47.599 11.6809 47.5333 13.733 46.0958 14.7047C45.1813 15.3241 45.0469 15.9906 45.1096 16.9036C45.1485 17.4878 45.1186 18.0779 45.1156 18.665C45.1096 20.585 45.0827 20.6144 43.0774 20.6173C40.3041 20.6202 37.5308 20.6173 34.7097 20.6173C34.7127 22.4404 34.7127 24.0785 34.7127 25.8605ZM51.9293 26.7589C51.1702 26.3332 50.704 25.8605 50.3514 25.931C49.9629 26.0073 49.682 26.5857 49.3532 26.9468C49.7328 27.2638 50.0974 27.8069 50.4918 27.8304C50.8475 27.851 51.239 27.302 51.9293 26.7589ZM45.5967 12.3003C44.8616 11.8805 44.3954 11.4049 44.0427 11.4754C43.6572 11.5517 43.3793 12.133 43.0535 12.4941C43.4301 12.817 43.7917 13.3748 44.1862 13.3954C44.5418 13.4159 44.9303 12.8493 45.5967 12.3003ZM51.8994 42.4299C51.233 41.9249 50.8355 41.3877 50.4769 41.4141C50.0824 41.4435 49.7238 41.9836 49.3503 42.3007C49.682 42.6706 49.9719 43.2666 50.3604 43.34C50.71 43.4016 51.1702 42.8908 51.8994 42.4299ZM41.386 49.596C40.6926 49.094 40.2653 48.5509 39.9156 48.592C39.5242 48.639 38.9504 49.2085 38.9265 49.5784C38.9085 49.8984 39.5212 50.4826 39.9097 50.5296C40.2653 50.5766 40.6956 50.0628 41.386 49.596Z" fill="#D00053"/>
<path d="M6.22503 30.0879C6.22503 30.7367 6.22503 31.271 6.22503 31.9139C5.58848 31.9139 4.97585 31.9139 4.26758 31.9139C4.26758 31.3503 4.26758 30.7455 4.26758 30.0879C4.91309 30.0879 5.5586 30.0879 6.22503 30.0879Z" fill="#D00053"/>
<path d="M12.4422 44.3085C11.8266 44.3085 11.2558 44.3085 10.5894 44.3085C10.5894 43.695 10.5894 43.1049 10.5894 42.4385C11.2169 42.4385 11.7818 42.4385 12.4422 42.4385C12.4422 43.055 12.4422 43.648 12.4422 44.3085Z" fill="#D00053"/>
<path d="M49.2072 20.5467C48.5766 20.5467 48.0088 20.5467 47.3633 20.5467C47.3633 19.9331 47.3633 19.3871 47.3633 18.7412C47.9819 18.7412 48.5437 18.7412 49.2072 18.7412C49.2072 19.2961 49.2072 19.845 49.2072 20.5467Z" fill="#D00053"/>
<path d="M57.5967 31.9609C56.9541 31.9609 56.3773 31.9609 55.7617 31.9609C55.7617 31.318 55.7617 30.7397 55.7617 30.0674C56.3475 30.0674 56.9153 30.0674 57.5967 30.0674C57.5967 30.6193 57.5967 31.2211 57.5967 31.9609Z" fill="#D00053"/>
</g>
<defs>
<clipPath id="clip0_1721_1511">
<rect width="63" height="62" fill="white"/>
</clipPath>
</defs>
</svg>
