<svg width="106" height="106" viewBox="0 0 106 106" fill="none" xmlns="http://www.w3.org/2000/svg">
<path fill-rule="evenodd" clip-rule="evenodd" d="M4.22844 13.3158C4.22844 15.8383 7.8107 18.6225 13.8115 20.7613C20.6891 23.2126 29.8802 24.5614 39.6863 24.5614C49.4946 24.5614 58.6837 23.2126 65.561 20.7613C71.5631 18.6225 75.1453 15.8385 75.1453 13.3158C75.1453 10.7934 71.5631 8.009 65.561 5.87037C58.6839 3.41912 49.4946 2.07031 39.6865 2.07031C29.8804 2.07031 20.6891 3.41912 13.8117 5.87037C7.8107 8.00921 4.22844 10.7934 4.22844 13.3158ZM4.22844 33.5217V20.6768C6.25424 22.2263 8.97525 23.6208 12.3641 24.8272C19.6945 27.4403 29.3989 28.8778 39.6865 28.8778C49.9741 28.8778 59.6784 27.4403 67.01 24.8272C70.3979 23.621 73.1189 22.2263 75.1457 20.6768V33.5217C75.1457 36.0441 71.5635 38.8283 65.5614 40.9671C58.6841 43.4184 49.4948 44.7672 39.6867 44.7672C29.8806 44.7672 20.6893 43.4184 13.8119 40.9671C7.8107 38.8283 4.22844 36.0441 4.22844 33.5217ZM4.22844 53.7273C4.22844 56.2498 7.8107 59.0339 13.8115 61.1726C20.6891 63.6217 29.8802 64.9726 39.6863 64.9726C42.5182 64.9726 45.3341 64.8565 48.0743 64.6296C52.928 54.4927 63.2197 47.4412 75.1453 47.2681V40.8804C73.1185 42.4298 70.3975 43.8244 67.0096 45.0326C59.6782 47.6437 49.9739 49.0832 39.6861 49.0832C29.3985 49.0832 19.6941 47.6437 12.3637 45.0326C8.97484 43.8244 6.25383 42.4296 4.22803 40.8804L4.22844 53.7273ZM4.22844 73.9311V61.0862C6.25424 62.6357 8.97525 64.0292 12.3641 65.2387C19.6945 67.8497 29.3989 69.2892 39.6865 69.2892C41.929 69.2892 44.1625 69.218 46.3614 69.0795C45.544 71.8312 45.1032 74.7424 45.1032 77.7558C45.1032 80.2437 45.4055 82.6645 45.9705 84.9824C43.8989 85.1097 41.7967 85.1789 39.6865 85.1789C29.8804 85.1789 20.6891 83.828 13.8117 81.3767C7.8107 79.2377 4.22844 76.4556 4.22844 73.9311ZM57.5141 102.29C53.0249 98.9752 49.4751 94.4584 47.3435 89.2189C44.8271 89.4 42.2607 89.4949 39.6863 89.4949C29.3987 89.4949 19.6943 88.0554 12.3639 85.4422C8.97505 84.236 6.25403 82.8413 4.22823 81.2919V92.684C4.22823 95.2064 7.81049 97.9906 13.8113 100.129C20.6891 102.581 29.8804 103.93 39.6865 103.93C46.0376 103.93 52.1057 103.367 57.5141 102.29Z" fill="black"/>
<path fill-rule="evenodd" clip-rule="evenodd" d="M85.3551 84.6663C85.3551 88.9072 82.1211 92.466 77.7955 93.3832L77.8434 95.3388C77.8719 96.5299 76.9304 97.5203 75.7372 97.5478C75.7199 97.5478 75.7027 97.5478 75.6853 97.5478C74.5178 97.5478 73.5578 96.6164 73.5293 95.4427L73.4794 93.4221C70.9507 92.9345 69.3147 91.5816 67.7543 90.1075C66.8871 89.2889 66.8484 87.924 67.6659 87.0586C68.4825 86.1901 69.8495 86.1495 70.7157 86.9679C72.5388 88.6873 73.5487 89.298 75.5948 89.298C78.5968 89.298 81.0399 87.2205 81.0399 84.6663C81.0399 82.1143 78.5968 80.0355 75.5948 80.0355C70.2147 80.0355 65.8354 76.0236 65.8354 71.0907C65.8354 66.8478 69.0735 63.2879 73.3999 62.3728L73.3479 60.1689C73.3193 58.9758 74.263 57.9875 75.454 57.9589C76.6389 57.9285 77.6334 58.874 77.662 60.065L77.7181 62.3544C79.4752 62.7086 81.0925 63.5057 82.407 64.6795C83.2966 65.4735 83.374 66.8376 82.58 67.7264C81.7861 68.615 80.4219 68.6935 79.5332 67.8995C78.4928 66.9712 77.0941 66.46 75.5948 66.46C72.5928 66.46 70.1517 68.5376 70.1517 71.0909C70.1517 73.644 72.5928 75.7195 75.5948 75.7195C80.9766 75.7193 85.3551 79.7332 85.3551 84.6663ZM101.772 77.7552C101.772 63.3193 90.0294 51.5771 75.5946 51.5771C61.1618 51.5771 49.4194 63.3196 49.4194 77.7552C49.4194 92.188 61.1618 103.929 75.5946 103.929C90.0294 103.929 101.772 92.188 101.772 77.7552Z" fill="#D00053"/>
</svg>
