<svg width="113" height="113" viewBox="0 0 113 113" fill="none" xmlns="http://www.w3.org/2000/svg">
<path d="M56.5001 97.1089C48.2824 97.0988 40.2606 94.5995 33.4914 89.9402C26.7223 85.2809 21.5235 78.6802 18.5799 71.0078L7.48633 76.5552C10.7287 84.4988 15.8544 91.5347 22.4214 97.0563C28.9885 102.578 36.7998 106.419 45.1821 108.25C53.5645 110.08 62.2662 109.845 70.5372 107.564C78.8082 105.282 86.4003 101.024 92.659 95.155L83.9241 86.4201C76.4494 93.3004 66.6593 97.1162 56.5001 97.1089Z" fill="black"/>
<path d="M79.4531 47.6719H72.3906C72.1587 47.6717 71.929 47.7173 71.7147 47.806C71.5005 47.8947 71.3058 48.0247 71.1418 48.1887C70.9778 48.3527 70.8477 48.5474 70.7591 48.7617C70.6704 48.9759 70.6248 49.2056 70.6249 49.4375V72.3906H68.8593V58.2656C68.8595 58.0337 68.8139 57.8041 68.7252 57.5898C68.6365 57.3755 68.5065 57.1808 68.3425 57.0168C68.1785 56.8528 67.9838 56.7228 67.7695 56.6341C67.5553 56.5454 67.3256 56.4999 67.0937 56.5H60.0312C59.7993 56.4999 59.5696 56.5454 59.3554 56.6341C59.1411 56.7228 58.9464 56.8528 58.7824 57.0168C58.6184 57.1808 58.4884 57.3755 58.3997 57.5898C58.311 57.8041 58.2654 58.0337 58.2656 58.2656V72.3906H56.4999V61.7969C56.5001 61.565 56.4545 61.3353 56.3658 61.121C56.2771 60.9068 56.1471 60.7121 55.9831 60.5481C55.8191 60.3841 55.6244 60.254 55.4102 60.1654C55.1959 60.0767 54.9662 60.0311 54.7343 60.0312H47.6718C47.4399 60.0311 47.2103 60.0767 46.996 60.1654C46.7817 60.254 46.587 60.3841 46.423 60.5481C46.259 60.7121 46.129 60.9068 46.0403 61.121C45.9516 61.3353 45.9061 61.565 45.9062 61.7969V72.3906H44.1406V65.3281C44.1407 65.0962 44.0951 64.8666 44.0065 64.6523C43.9178 64.438 43.7877 64.2433 43.6237 64.0793C43.4598 63.9153 43.2651 63.7853 43.0508 63.6966C42.8365 63.6079 42.6069 63.5624 42.3749 63.5625H35.3124C35.0805 63.5624 34.8509 63.6079 34.6366 63.6966C34.4223 63.7853 34.2276 63.9153 34.0636 64.0793C33.8997 64.2433 33.7696 64.438 33.6809 64.6523C33.5923 64.8666 33.5467 65.0962 33.5468 65.3281V72.3906H30.0156C29.5579 72.4065 29.1242 72.5994 28.8061 72.9288C28.4879 73.2582 28.3101 73.6983 28.3101 74.1562C28.3101 74.6142 28.4879 75.0543 28.8061 75.3837C29.1242 75.7131 29.5579 75.906 30.0156 75.9219H82.9843C83.442 75.906 83.8757 75.7131 84.1938 75.3837C84.512 75.0543 84.6898 74.6142 84.6898 74.1562C84.6898 73.6983 84.512 73.2582 84.1938 72.9288C83.8757 72.5994 83.442 72.4065 82.9843 72.3906H81.2187V49.4375C81.2188 49.2056 81.1733 48.9759 81.0846 48.7617C80.9959 48.5474 80.8658 48.3527 80.7019 48.1887C80.5379 48.0247 80.3432 47.8947 80.1289 47.806C79.9146 47.7173 79.685 47.6717 79.4531 47.6719Z" fill="#CB0051"/>
<path d="M15.8906 56.4998C15.8833 46.3405 19.699 36.5505 26.5794 29.0757L17.8445 20.3408C11.3196 27.2889 6.79684 35.8733 4.75598 45.1838C2.71512 54.4942 3.23221 64.1834 6.25242 73.2238L17.452 67.6232C16.4171 64.006 15.8916 60.2621 15.8906 56.4998Z" fill="black"/>
<path d="M54.7341 15.9749V3.57422C41.9164 3.99309 29.6901 9.06594 20.3408 17.8444L29.0757 26.5793C36.1092 20.1274 45.1979 16.3711 54.7341 15.9749Z" fill="black"/>
<path d="M58.2656 3.57617V15.9355C65.9895 16.2664 73.4581 18.7967 79.7925 23.2287C86.127 27.6607 91.0636 33.8098 94.0215 40.9525C96.9794 48.0952 97.8354 55.9342 96.4889 63.547C95.1423 71.1597 91.6492 78.2295 86.4206 83.9241L95.1555 92.659C102.115 85.2362 106.787 75.9643 108.611 65.9543C110.436 55.9442 109.335 45.6203 105.443 36.2195C101.55 26.8186 95.0289 18.7395 86.6616 12.9499C78.2943 7.16029 68.4353 3.90575 58.2656 3.57617Z" fill="black"/>
<path d="M63.5624 44.1404C62.7773 44.1417 62.0152 44.4052 61.3969 44.8889C60.7785 45.3727 60.3395 46.049 60.1493 46.8107L53.6518 48.6668C53.2045 48.2448 52.6553 47.9465 52.0579 47.8009C51.4606 47.6554 50.8356 47.6676 50.2444 47.8365C49.6532 48.0054 49.1161 48.3251 48.6858 48.7643C48.2555 49.2035 47.9467 49.747 47.7899 50.3415L41.2924 52.1977C40.7355 51.6583 40.0163 51.3176 39.2461 51.2284C38.4759 51.1392 37.6979 51.3065 37.0324 51.7043C36.367 52.1022 35.8513 52.7084 35.5654 53.429C35.2794 54.1497 35.2391 54.9445 35.4506 55.6904C35.6622 56.4363 36.1138 57.0916 36.7356 57.5547C37.3573 58.0179 38.1145 58.2631 38.8897 58.2523C39.6649 58.2415 40.415 57.9754 41.0236 57.4951C41.6322 57.0148 42.0655 56.3473 42.2563 55.5958L48.7538 53.7392C49.201 54.1612 49.7502 54.4596 50.3476 54.6052C50.945 54.7508 51.5699 54.7385 52.1612 54.5696C52.7524 54.4007 53.2895 54.081 53.7198 53.6418C54.1501 53.2026 54.4588 52.6591 54.6156 52.0645L61.1131 50.208C61.6348 50.6952 62.2915 51.0134 62.9971 51.1208C63.7027 51.2282 64.4244 51.1199 65.0673 50.81C65.7103 50.5002 66.2447 50.0032 66.6003 49.3843C66.9559 48.7655 67.1162 48.0536 67.0601 47.342L74.4651 42.0527C75.1703 42.3758 75.9624 42.4573 76.7186 42.2844C77.4748 42.1116 78.1529 41.6942 78.6477 41.0969C79.1426 40.4995 79.4266 39.7556 79.4557 38.9805C79.4848 38.2054 79.2574 37.4423 78.8088 36.8095C78.3602 36.1767 77.7154 35.7095 76.9743 35.4805C76.2332 35.2514 75.4372 35.2732 74.7098 35.5424C73.9823 35.8116 73.364 36.3133 72.9506 36.9697C72.5372 37.626 72.3519 38.4004 72.4234 39.1728L65.0183 44.4621C64.5617 44.2517 64.0652 44.142 63.5624 44.1404Z" fill="#CB0051"/>
</svg>
