<svg width="174" height="169" viewBox="0 0 174 169" fill="none" xmlns="http://www.w3.org/2000/svg">
<path d="M163.027 0.606445H14.4962C7.20634 0.606445 4.7764 6.85407 4.47266 9.97788V104.317L170.013 106.191V18.4122C170.985 5.66702 165.76 1.23121 163.027 0.606445Z" fill="#CB0051"/>
<g clip-path="url(#clip0_1721_1292)">
<path d="M39.668 32.9454C40.6588 31.124 41.4262 29.1217 42.6954 27.5148C44.6096 25.0918 47.3376 23.9645 50.4704 23.9645C65.6453 23.9603 80.8201 23.9645 95.995 23.9561C97.3653 23.9561 98.6766 24.1327 98.6808 25.8448C98.6851 27.6494 97.3147 27.885 95.8685 27.885C81.0436 27.885 66.2229 27.8807 51.398 27.885C45.8872 27.885 43.4965 30.3037 43.4965 35.8521C43.4965 50.3605 43.4965 64.8688 43.4965 79.3771C43.4965 84.6142 45.786 87.033 51.027 87.0414C72.3831 87.0751 93.7392 87.0793 115.095 87.0414C120.324 87.033 122.668 84.5974 122.681 79.3981C122.698 72.7392 122.681 66.0803 122.681 59.4255C122.681 58.8661 122.685 58.3024 122.685 57.7429C122.676 56.4179 123.233 55.5555 124.654 55.5723C126.109 55.5892 126.543 56.5567 126.543 57.8312C126.543 63.0179 126.543 68.2046 126.543 73.3912C126.543 75.3557 126.534 77.3159 126.543 79.2804C126.564 86.3389 121.955 90.9409 114.817 90.9451C99.9247 90.9535 85.0281 90.9493 70.1357 90.9493C64.4436 90.9493 58.7472 90.76 53.0677 90.9998C46.5407 91.2732 41.9617 88.846 39.6764 82.5867C39.668 66.0382 39.668 49.4939 39.668 32.9454Z" fill="white"/>
<path d="M133.723 33.7156C133.736 42.7639 126.045 50.5417 117.018 50.6132C107.99 50.6848 100.072 42.747 100.118 33.6693C100.165 24.8104 107.965 17.0367 116.853 16.9904C125.851 16.9442 133.715 24.7431 133.723 33.7156ZM104.078 33.5473C103.938 40.9677 109.247 46.5077 116.689 46.7138C123.874 46.9115 129.713 41.3967 129.865 34.2751C130.021 26.737 124.683 21.0876 117.212 20.8857C109.909 20.688 104.217 26.1775 104.078 33.5473Z" fill="white"/>
<path d="M86.9803 59.4298C86.9803 65.0371 86.9634 70.6444 86.993 76.2517C87.0014 77.724 86.7906 79.0827 84.9733 79.0154C83.3415 78.9523 83.0759 77.6651 83.0801 76.2728C83.0928 64.9866 83.0886 53.7047 83.0801 42.4186C83.0801 41.0136 83.4512 39.7727 85.0661 39.7474C86.7526 39.7222 87.0014 41.0052 86.9972 42.3976C86.9803 48.0764 86.9887 53.751 86.9887 59.4298C86.9845 59.4298 86.9845 59.4298 86.9803 59.4298Z" fill="white"/>
<path d="M67.3737 63.2368C67.3737 58.8956 67.3779 54.5503 67.3695 50.2091C67.3652 48.9262 67.5465 47.7105 69.1572 47.66C70.848 47.6053 71.2317 48.8126 71.2317 50.2049C71.2359 58.9587 71.2317 67.7167 71.2359 76.4705C71.2359 77.8965 70.8016 79.0786 69.1572 79.0239C67.6056 78.9734 67.3484 77.7914 67.3526 76.4705C67.3779 72.0579 67.361 67.6452 67.361 63.2326C67.3652 63.2368 67.3695 63.2368 67.3737 63.2368Z" fill="white"/>
<path d="M79.0707 67.2623C79.0707 70.3415 79.058 73.4207 79.0791 76.4957C79.0875 77.8249 78.7713 78.9775 77.2365 79.0238C75.5626 79.0743 75.1916 77.846 75.1874 76.4536C75.1831 70.2952 75.1789 64.1411 75.1958 57.9827C75.2 56.6745 75.5753 55.5598 77.1733 55.5724C78.7797 55.5892 79.0749 56.7039 79.0707 58.0248C79.0665 61.104 79.0707 64.1831 79.0707 67.2623Z" fill="white"/>
<path d="M59.4303 67.2417C59.4346 64.1583 59.4556 61.0791 59.4219 57.9999C59.4093 56.6328 59.7845 55.5938 61.3488 55.5812C62.9258 55.5685 63.3137 56.6412 63.3094 57.9873C63.3052 64.2214 63.3052 70.4513 63.3137 76.6853C63.3179 78.0945 62.7149 79.0831 61.2561 79.0284C59.9152 78.9821 59.3966 78.023 59.4135 76.698C59.4514 73.5473 59.4261 70.3924 59.4303 67.2417Z" fill="white"/>
<path d="M102.86 67.2292C102.86 70.3084 102.847 73.3918 102.868 76.471C102.876 77.918 102.425 79.0622 100.798 79.0243C99.2545 78.9865 98.9636 77.8129 98.9678 76.492C98.9847 70.3294 98.9762 64.1669 98.972 58.0043C98.972 56.6835 99.2714 55.5771 100.89 55.5771C102.489 55.5771 102.855 56.6582 102.855 57.9833C102.86 61.0667 102.855 64.1458 102.86 67.2292Z" fill="white"/>
<path d="M91.0741 69.1554C91.0741 66.7072 91.0994 64.259 91.0657 61.8108C91.0488 60.5194 91.4452 59.5225 92.8577 59.472C94.3418 59.4173 94.9363 60.3596 94.9363 61.7772C94.9279 66.7451 94.9195 71.7088 94.9406 76.6767C94.949 78.1069 94.3376 79.0492 92.8914 79.0197C91.5337 78.9903 91.0362 78.0396 91.0615 76.7104C91.1121 74.1906 91.0741 71.6709 91.0741 69.1554Z" fill="white"/>
<path d="M106.79 71.15C106.79 69.337 106.773 67.5239 106.794 65.7109C106.811 64.449 107.35 63.4562 108.704 63.41C110.205 63.3595 110.736 64.4027 110.74 65.7614C110.749 69.459 110.753 73.1523 110.736 76.8498C110.732 78.137 110.15 79.0625 108.763 79.033C107.397 79.0036 106.819 78.0655 106.798 76.7951C106.768 74.919 106.79 73.0345 106.79 71.15Z" fill="white"/>
<path d="M55.3404 71.162C55.3404 73.0508 55.3193 74.9437 55.3488 76.8324C55.3699 78.1912 54.7037 79.1965 53.4177 78.9567C52.6756 78.8179 51.6089 77.6822 51.5709 76.9502C51.3854 73.177 51.4824 69.3911 51.4824 65.6094C51.4824 64.276 52.157 63.3926 53.4809 63.4094C54.8386 63.4262 55.3741 64.3685 55.3446 65.6978C55.3109 67.5234 55.3404 69.3448 55.3404 71.162Z" fill="white"/>
<path d="M114.764 34.2424C114.764 32.2359 114.79 30.2251 114.756 28.2186C114.731 26.9188 115.19 25.9261 116.565 25.8798C118.015 25.8335 118.656 26.7716 118.648 28.1934C118.635 30.2083 118.643 32.2232 118.643 34.8145C119.689 33.7923 120.414 33.115 121.106 32.4041C122.055 31.424 123.142 31.0033 124.23 32.0087C125.356 33.0477 124.918 34.1246 123.948 35.0837C122.059 36.9556 120.178 38.8359 118.306 40.7246C117.206 41.8352 116.105 41.831 115.017 40.7457C113.133 38.8696 111.269 36.9724 109.388 35.0963C108.419 34.1246 108.031 33.0393 109.135 32.0003C110.236 30.9613 111.345 31.4156 112.23 32.4209C112.871 33.1529 113.424 33.9689 114.014 34.7472C114.258 34.5789 114.511 34.4106 114.764 34.2424Z" fill="white"/>
</g>
<path d="M105.079 139.478C105.079 142.177 105.079 144.138 105.079 146.744C110.959 145.275 112.337 149.808 114.225 153.729C115.695 156.777 117.298 159.756 118.66 162.845C120.105 166.122 118.693 168.6 115.16 168.617C96.3842 168.711 77.5998 168.711 58.8237 168.617C55.2656 168.6 53.8541 166.139 55.3491 162.854C57.3955 158.372 59.3499 153.78 61.9976 149.672C63.2003 147.805 65.99 146.999 68.763 145.275C68.763 144.231 68.763 142.059 68.763 139.478C67.0842 139.478 65.5891 139.478 64.094 139.478C48.3749 139.478 32.6558 139.521 16.9367 139.461C6.3877 139.419 0.858452 133.622 0.858452 122.833C0.858452 88.33 0.841747 53.8182 0.833395 19.3148C0.833395 17.7615 0.81669 16.1997 0.900214 14.6465C1.30113 6.96489 6.98072 1.07428 14.573 0.760223C19.8517 0.539537 25.1471 0.709296 30.4341 0.675344C32.9649 0.658368 35.0446 1.50716 35.078 4.34212C35.1114 7.21104 32.9816 8.05134 30.4842 8.05983C25.6148 8.06832 20.7454 7.98344 15.876 8.10227C10.7226 8.22959 7.9997 10.776 7.99135 15.9451C7.92453 44.5069 7.983 73.0688 8.00806 101.639C8.00806 101.894 8.20016 102.14 8.41732 102.675C60.6863 102.675 113.055 102.675 165.826 102.675C165.901 101.274 166.051 99.9245 166.051 98.5665C166.068 71.4136 166.076 44.2608 166.051 17.1079C166.043 10.5383 163.487 8.07681 156.772 8.06832C125.751 8.05983 94.7304 8.05983 63.7015 8.05134C62.315 8.05134 60.6612 8.39086 59.6172 7.75427C58.4061 7.00733 57.0948 5.40311 57.0196 4.08749C56.9528 3.05196 58.523 1.63448 59.6756 0.904518C60.4942 0.386755 61.8389 0.700808 62.9498 0.700808C94.246 0.69232 125.551 0.683832 156.847 0.700808C167.513 0.709296 173.117 6.33678 173.126 17.1164C173.159 52.4686 173.167 87.8293 173.159 123.181C173.159 133.63 167.488 139.41 157.122 139.453C141.403 139.512 125.684 139.47 109.965 139.47C108.47 139.478 106.975 139.478 105.079 139.478ZM7.97465 110.433C7.97465 114.413 7.9663 118.191 7.97465 121.968C8.00806 129.912 10.1463 132.145 17.7887 132.153C42.6786 132.17 67.5686 132.179 92.4502 132.179C113.999 132.179 135.557 132.187 157.106 132.153C162.334 132.145 165.375 130.286 165.725 126.118C166.16 120.975 165.826 115.763 165.826 110.441C113.156 110.433 60.8032 110.433 7.97465 110.433ZM64.7038 160.978C79.7463 160.978 94.4882 160.978 109.355 160.978C106.758 154.103 106.758 154.103 100.276 154.103C91.3895 154.103 82.5026 154.103 73.6074 154.103C67.1259 154.103 67.1259 154.103 64.7038 160.978ZM97.5118 146.498C97.5118 143.926 97.5118 141.88 97.5118 139.869C90.2786 139.869 83.3378 139.869 76.4973 139.869C76.4973 142.296 76.4973 144.333 76.4973 146.498C83.6218 146.498 90.4624 146.498 97.5118 146.498Z" fill="#263640"/>
<path d="M51.0055 4.58803C48.5248 6.15829 47.0381 7.83041 45.66 7.73704C44.5241 7.66065 42.4861 5.22462 42.7116 4.31642C43.0624 2.91591 44.8999 1.20135 46.3031 0.99764C47.3973 0.83637 48.7754 2.78859 51.0055 4.58803Z" fill="#263640"/>
<path d="M64.7031 160.979C67.117 154.104 67.1169 154.104 73.6151 154.104C82.502 154.104 91.3888 154.104 100.284 154.104C106.757 154.104 106.757 154.104 109.363 160.979C94.4959 160.979 79.754 160.979 64.7031 160.979Z" fill="white"/>
<path d="M97.5106 146.498C90.4612 146.498 83.6206 146.498 76.4961 146.498C76.4961 144.334 76.4961 142.297 76.4961 139.869C83.3367 139.869 90.2775 139.869 97.5106 139.869C97.5106 141.881 97.5106 143.926 97.5106 146.498Z" fill="white"/>
<path d="M87.0294 124.82C84.2815 124.464 80.1053 125.992 80.0218 121.289C79.9382 116.587 84.0476 117.623 86.9124 117.648C89.7439 117.673 93.8783 116.46 93.9702 121.111C94.0704 125.83 89.9193 124.532 87.0294 124.82Z" fill="#263640"/>
<defs>
<clipPath id="clip0_1721_1292">
<rect width="94.0555" height="74.0307" fill="white" transform="translate(39.668 16.9902)"/>
</clipPath>
</defs>
</svg>
