<svg xmlns="http://www.w3.org/2000/svg" viewBox="0 0 656 514" fill="none">
  <circle cx="330.5" cy="254.5" r="210.5" fill="#fff"/>
  <g filter="url(#a)">
    <rect x="10" y="182" width="123" height="123" rx="20" fill="#fff"/>
  </g>
  <g filter="url(#b)">
    <rect x="523" y="176" width="123" height="123" rx="20" fill="#fff"/>
  </g>
  <g filter="url(#c)">
    <rect x="268" y="10" width="123" height="123" rx="20" fill="#fff"/>
  </g>
  <g filter="url(#d)">
    <rect x="267" y="381" width="123" height="123" rx="20" fill="#fff"/>
  </g>
  <g clip-path="url(#e)">
    <path d="M346.886 431.163c-.174-.945-.477-1.89-.492-2.84a505.12 505.12 0 0 1-.014-12.614c.019-1.757-.626-2.544-2.404-2.539-11.639.04-23.272.035-34.911 0-1.705-.005-2.471.619-2.466 2.459.038 17.568.028 35.126.009 52.688 0 1.653.651 2.42 2.284 2.42 11.715-.015 23.436-.02 35.152.01 1.637.005 2.365-.717 2.341-2.36-.02-1.307-.005-2.608-.005-4.083h3.603c0 3.538.015 7.121-.005 10.709-.033 7.299.906 7.002-6.681 6.982-12.198-.029-24.395-.005-36.597-.015-3.339 0-3.7-.381-3.7-3.859 0-23.412 0-46.824.01-70.241 0-3.484.366-3.875 3.68-3.875 13.243-.005 26.486-.005 39.724 0 3.16 0 3.56.436 3.56 3.746.004 7.898 0 15.801 0 23.892-.829-.084-1.436-.148-2.038-.213l-1.05-.267zm-20.744-20.66c2.081 0 4.177.158 6.229-.079.776-.09 1.45-1.104 2.173-1.698-.689-.633-1.354-1.781-2.062-1.811a136.59 136.59 0 0 0-11.99-.005c-.704.03-1.359 1.188-2.038 1.821.723.589 1.392 1.579 2.182 1.688 1.807.252 3.666.079 5.506.084zm3.531 66.682c.005-.381.015-.762.02-1.138-1.026-.787-1.956-1.93-3.107-2.276-1.47-.441-2.973 1.227-2.862 2.84.116 1.732 1.176 2.969 2.76 2.712 1.142-.183 2.13-1.391 3.189-2.138z" fill="#263640"/>
    <path d="M346.645 437.606c3.926.054 7.852.119 11.778.153 3.613.03 5.005 1.277 5.049 5.013.067 5.597.005 11.194-.101 16.786-.049 2.628-1.527 4.088-4.148 4.098-10.502.044-21.008.044-31.51-.01-2.746-.015-4.119-1.5-4.143-4.345-.048-5.439-.019-10.872-.01-16.311.005-3.652.742-4.572 4.244-5.374l-.053-.094c2.636.099 5.266.292 7.901.282 3.675-.015 7.351-.178 11.027-.277l-.034.079zm-21.408 10.917c0 3.825-.029 7.517.014 11.203.02 1.495.896 2.222 2.341 2.222 10.594 0 21.192.045 31.785-.084.776-.01 2.158-1.212 2.202-1.93.221-3.751.106-7.527.106-11.416-12.232.005-24.227.005-36.448.005zm36.221-5.37c.342-3.008-.106-3.676-2.543-3.681-10.261-.03-20.527-.025-30.788 0-2.553.005-3.097.821-2.572 3.681h35.903z" fill="#D00053"/>
    <path d="m346.885 431.163 1.055.267c5.352 1.663 10.695 3.355 16.056 4.974 3.84 1.162 4.644 2.558 3.556 6.512-1.08 3.929-2.163 7.858-3.44 11.733v-11.713c.862-.703 2.206-1.401 2.124-1.816-.187-1.005-.867-2.48-1.652-2.717-10.14-3.088-20.334-6.003-30.522-8.927-2.187-.629-2.819.856-3.209 2.969 4.5 1.326 9.013 2.627 13.503 3.998.805.248 1.527.772 2.284 1.168l.033-.079h-18.927l.053.094c.564-2.222 1.07-4.464 1.715-6.661.848-2.885 2.467-3.756 5.304-3.004 4.027 1.064 8.045 2.133 12.067 3.202z" fill="#D00053"/>
    <path d="M327.746 437.527h18.927c-3.675.099-7.351.262-11.027.277-2.63.015-5.265-.178-7.9-.277z" fill="#fff"/>
    <path d="M360.967 455.728c.004 3.499-.232 3.761-3.416 3.771-3.632.015-3.786-.129-3.791-3.578-.005-3.558.202-3.791 3.358-3.801 3.545-.01 3.844.268 3.849 3.608z" fill="#D00053"/>
  </g>
  <g clip-path="url(#f)">
    <path d="M78.614 273.356H67.338c1.023 2.972.654 5.56-1.919 7.425-2.054 1.484-4.344 1.629-6.541.313-2.971-1.786-3.408-4.519-2.46-7.689-3.562-.41-6.033-2.014-6.722-5.567-.598-3.08.587-5.064 4.507-7.708-2.07-7.365-4.153-14.771-6.23-22.18-1.207-4.311-2.35-8.636-3.633-12.921-.237-.787-.91-1.551-1.591-2.032-.192-.134-1.245.69-1.715 1.234-2.095 2.42-9.69 2.614-11.807.235-1.276-1.436-1.52-3.102-.896-4.881.651-1.842 2.092-2.823 3.965-2.972 1.866-.149 3.761-.078 5.635.015.654.033 1.666.246 1.873.678 1.343 2.79 5.111 1.992 6.53 4.419.83 1.421 1.233 3.092 1.877 4.777h4.6c0-1.309-.12-2.554.034-3.762.154-1.205.587-2.376.797-3.181-1.644-2.294-3.351-4.337-4.657-6.608-1.358-2.364-.56-3.412 2.246-3.375 1.113.015 2.227.142 3.303.213 2.219-4.792 2.538-4.855 5.995-1.216 1.257-.596 2.502-1.294 3.826-1.79 1.76-.66 2.546-.048 2.651 1.85.162 2.938-.571 5.649-2.102 8.081.997.868 1.93 1.678 2.558 2.226 1.068-.921 2.396-2.025 3.66-3.2.316-.291.522-.79.598-1.227.139-.79.116-1.61.214-2.412.263-2.144 1.478-3.192 3.679-3.091 1.689.074 3.377.205 5.059.395 2.189.25 3.306 1.618 3.186 3.822-.042.805-.215 1.607-.233 2.409-.012.395.056 1.014.304 1.156 2.724 1.54 3.156 3.971 2.644 6.813.204.071.41.141.614.208.545-.924 1.328-1.789 1.58-2.785.428-1.674.568-3.427.722-5.157.049-.567-.38-1.171-.35-1.749.12-2.297.192-4.613.617-6.858.101-.529 1.538-1.174 2.336-1.141 2.245.086 4.502.384 6.703.843.714.149 1.824 1.067 1.801 1.6-.083 2.23-.447 4.456-.872 6.656-.185.966-.907 1.823-1.125 2.789-.316 1.387-.44 2.827-.56 4.248-.181 2.155 1.218 3.937 3.373 4.396 2.088.444 3.021 2.055 2.385 4.452-1.256 4.744-2.603 9.464-3.923 14.193-.986 3.527-2.069 7.033-2.96 10.586-.568 2.271-1.873 3.259-4.198 3.491-11.224 1.111-22.437 2.326-33.654 3.509-1.12.119-2.253.19-3.362.38-1.858.321-3.036 1.753-2.983 3.516.049 1.675 1.215 3.08 3.017 3.267 1.737.183 3.501.127 5.258.127 10.408.003 20.816-.004 31.22-.008.376 0 .861-.141 1.106.038.624.454 1.143 1.059 1.704 1.599-.553.481-1.05 1.268-1.67 1.38-1.2.22-2.472.063-3.905.063.997 3.383.527 6.176-2.573 7.936-2.144 1.215-4.378 1.074-6.371-.388-2.55-1.88-3.025-4.419-1.889-7.44zm-6.857-32.658c.11.108.218.22.328.328.146.534.218 1.104.45 1.596 1.434 3.036 3.977 5.068 6.606 6.996.27.198.936.235 1.185.045 2.697-2.036 5.409-4.098 6.737-7.35.658-1.607.285-3.118-1.14-4.162-1.396-1.021-3.04-1.156-4.33.038-1.346 1.245-2.219 1.122-3.69.085-.917-.648-2.693-.745-3.784-.328-.993.384-1.587 1.794-2.362 2.752zm11.397-14.177c.136-1.675.301-3.263.388-4.855.071-1.313-.59-2.156-1.93-2.275-2.922-.265-5.849-.571-8.775-.619-.674-.011-1.825.865-1.952 1.495-.414 2.021-.452 4.121-.64 6.254h12.91zm-34.217 3.218c.79 2.726 1.448 5.105 2.2 7.458.113.35.65.798 1 .805 3.111.064 6.222.037 9.54.037-.252-2.632-.437-5.03-.753-7.409-.045-.339-.726-.843-1.117-.85-3.494-.067-6.989-.041-10.87-.041zm51.964.004c-3.803 0-7.297-.034-10.792.044-.41.011-1.08.608-1.158 1.018-.279 1.458-.49 2.954-.46 4.43.031 1.425.716 2.689 2.356 2.775 2.181.115 4.378.085 6.563-.03.52-.026 1.313-.53 1.46-.981.74-2.282 1.312-4.616 2.031-7.256zM61.993 241.25h-9.791c.73 2.595 1.399 5.03 2.125 7.451.082.276.5.641.77.645 2.536.048 5.075.03 7.75.03-.305-2.861-.572-5.43-.855-8.126zm2.11-11.422c.23 2.379.511 4.531.613 6.69.056 1.234.56 1.54 1.726 1.563 1.798.029 3.472.093 4.54-1.768.313-.544 1.095-.805 1.595-1.268.32-.298.711-.712.737-1.1.09-1.339.034-2.685.034-4.117h-9.245zm22.738 19.07.613.504c2.306 0 4.611.029 6.913-.026.406-.012 1.072-.303 1.166-.605.764-2.438 1.418-4.911 2.14-7.502h-6.868c-.617 1.484-1.076 2.83-1.73 4.079-.643 1.235-1.482 2.372-2.234 3.55zm-20.568-22.377c-.617-2.584-.632-5.43-3.167-6.75-1.979-1.029-4.307-.417-6.015.977-1.877 1.533-1.154 3.703-.872 5.769 3.366.004 6.597.004 10.054.004zm-2.475 32.695c-.226-2.301-.433-4.426-.643-6.589h-7.738c.621 2.252 1.136 4.344 1.813 6.38.125.373.918.769 1.385.746 1.613-.067 3.22-.313 5.183-.537zm22.016-29.324h-9.295c0 1.018-.007 1.879.004 2.74.015 1.231 2.362 3.013 3.558 2.689 1.704-.462 3.397-.955 5.35-1.503.097-1.014.228-2.356.383-3.926zm-20.56 11.496c.24 2.599.481 5.217.73 7.894h7.161c-1.264-2.013-2.685-3.833-3.622-5.877-1.159-2.52-.982-2.599-4.27-2.017zm1.704 17.433c1.937-.179 3.723-.298 5.488-.541.334-.044.838-.574.857-.902.09-1.574.041-3.151.041-4.736h-7.018c.218 2.107.413 4.042.632 6.179zm29.03-32.278c-2.403-3.554-.203-7.081-.567-10.56a976.24 976.24 0 0 1-2.615-.224c-.816 3.844-.128 8.021-4.235 10.784h7.417zM63.61 210.527c-1.129.791-2.001 1.865-2.949 1.939-.91.067-1.903-.898-2.633-1.29-.613.716-1.181 1.961-2.054 2.23-.944.291-2.178-.324-3.472-.585 1.768 3.02 3.544 4.843 7.655 3.613 1.87-.556 3.348-2.815 3.453-5.907zm13.048 47.354c1.986-.22 3.837-.402 5.68-.656.29-.041.741-.38.771-.626.207-1.66.324-3.33.47-4.997-.112-.12-.225-.235-.334-.355-2.001 2.163-4.085 3.245-6.587.325v6.309zm17.638-5.396h-3.863c-3.863-.003-3.867-.003-3.942 3.867-.004.105.101.209.214.426 1.366-.138 2.78-.25 4.183-.433 3.01-.395 3.01-.41 3.408-3.86zm-29.599 23.489c-.049-1.48-1.302-2.692-2.776-2.692-1.553 0-2.862 1.331-2.81 2.853.053 1.536 1.433 2.785 2.972 2.688 1.482-.093 2.663-1.38 2.614-2.849zm19.338-2.692a2.759 2.759 0 0 0-2.791 2.696c-.042 1.562 1.271 2.89 2.832 2.856 1.44-.029 2.75-1.372 2.735-2.8-.012-1.436-1.34-2.748-2.776-2.752zm-48.99-53.615v-.019c-.684 0-1.47-.212-2.023.052-.711.34-1.238 1.059-1.843 1.615.583.518 1.113 1.391 1.76 1.488 1.456.22 2.994.198 4.45-.022.59-.09 1.47-.963 1.467-1.473-.004-.549-.794-1.332-1.418-1.578-.692-.276-1.588-.063-2.393-.063zm45.597-7.111c-1.971-.176-3.619-.321-5.428-.478-.128 1.257-.24 2.327-.365 3.532 1.922.16 3.63.306 5.522.462.094-1.215.177-2.286.27-3.516zm17.04-2.663-5.357-.723c-.14 1.152-.252 2.107-.384 3.203 1.892.216 3.589.41 5.364.615.132-1.085.237-1.935.376-3.095z" fill="#263640"/>
    <path d="M83.153 226.52H70.236c.188-2.136.226-4.232.64-6.253.128-.63 1.282-1.507 1.952-1.495 2.93.044 5.853.354 8.775.619 1.343.123 2.002.962 1.93 2.274-.079 1.593-.245 3.181-.38 4.855zM66.272 226.521h-10.05c-.286-2.066-1.005-4.24.872-5.769 1.708-1.395 4.036-2.006 6.015-.977 2.531 1.32 2.546 4.161 3.163 6.746zM95.988 226.543H88.57c4.108-2.763 3.42-6.94 4.236-10.784l2.614.223c.368 3.48-1.836 7.007.568 10.561zM63.61 210.527c-.106 3.095-1.584 5.351-3.45 5.907-4.107 1.226-5.886-.597-7.654-3.614 1.294.258 2.527.877 3.472.586.872-.269 1.44-1.518 2.053-2.23.73.391 1.72 1.357 2.633 1.29.948-.075 1.817-1.148 2.946-1.939z" fill="#D00053"/>
    <path d="M35.045 219.667c.808 0 1.7-.213 2.396.063.62.246 1.414 1.029 1.418 1.577.003.511-.88 1.384-1.467 1.473-1.46.22-2.994.243-4.45.023-.647-.097-1.177-.966-1.76-1.488.605-.556 1.132-1.279 1.843-1.615.556-.265 1.343-.052 2.023-.052-.003.007-.003.015-.003.019z" fill="#263640"/>
    <path d="M80.642 212.555c-.094 1.231-.176 2.305-.267 3.517-1.892-.16-3.6-.302-5.522-.462.125-1.209.234-2.275.365-3.532 1.802.157 3.453.302 5.424.477zM97.681 209.893c-.139 1.16-.24 2.01-.372 3.095-1.779-.205-3.475-.399-5.364-.615l.384-3.203c1.813.246 3.506.473 5.353.723z" fill="#D00053"/>
  </g>
  <g clip-path="url(#g)">
    <path d="M291.929 93.52v-.767l-.001-31.646c0-4.038-.001-8.076 0-12.114 0-1.648 1.29-2.974 2.93-2.974 8.955-.003 17.91.004 26.865.005 5.712 0 11.423-.006 17.135-.007 9.012-.001 18.025.017 27.037-.017 1.714-.006 3.198 1.296 3.192 3.184-.034 10.302-.015 20.603-.017 30.906-.001 4.374-.007 8.749-.01 13.123 0 .088.013.174.024.31h.644c2.439-.001 4.879-.003 7.319-.002.672 0 .932.28.948.968.022.98-.127 1.893-.87 2.619-.603.59-1.319.891-2.163.891h-12.447c-25.027 0-50.053 0-75.08-.002-.54 0-1.082.01-1.621-.018-1.549-.08-2.753-1.323-2.807-2.88-.05-1.464.061-1.58 1.515-1.58h6.882l.525.001zm2.973-2.976h71.181V49.013h-71.181v41.531zm27.428 2.993c.055.526.221.944.66 1.117.452.177.945.346 1.421.35 4.043.026 8.086.02 12.129.008a3.98 3.98 0 0 0 1.115-.18c.662-.197 1.001-.678.956-1.294H322.33z" fill="#263640"/>
    <path d="M322.332 93.538h16.281c.044.615-.295 1.097-.956 1.295a3.984 3.984 0 0 1-1.115.179c-4.043.012-8.086.018-12.129-.009-.476-.003-.969-.171-1.421-.35-.439-.172-.606-.589-.66-1.115z" fill="#fff"/>
    <path d="M322.259 74.77c.231.927.439 1.773.652 2.618.046.182.107.36.169.565h.444l14.944.001c.321 0 .641.001.962.006.638.012 1.057.42 1.064 1.03.008.606-.444 1.08-1.071 1.087-1.049.011-2.099.002-3.148.002l-13.796.001c-.852 0-1.168-.274-1.369-1.096-.616-2.508-1.249-5.01-1.872-7.515-.32-1.288-.628-2.58-.95-3.867-.619-2.476-1.246-4.95-1.866-7.424-.163-.651-.342-1.3-.467-1.959-.066-.347-.211-.436-.55-.43-1.257.018-2.513.01-3.769 0-.54-.006-.96-.355-1.04-.824-.099-.571.145-1.025.676-1.226.132-.05.283-.065.425-.066 1.635-.005 3.272-.005 4.908-.002.594.001.958.286 1.103.855.254.99.526 1.974.747 2.971.073.328.198.414.52.413 2.687-.013 5.374-.007 8.062-.007h16.122c1.081 0 1.513.548 1.248 1.607-.985 3.947-1.999 7.887-2.956 11.84-.34 1.406-.696 1.424-1.866 1.423-5.581-.005-11.161-.003-16.741-.004l-.585.001zm15.095-8.5c1.2 0 2.333.006 3.467-.01.084 0 .217-.141.243-.239.338-1.308.661-2.62.993-3.954h-4.173l-.53 4.203zm-18.248-4.21c.331 1.355.653 2.654.963 3.958.061.255.231.257.429.256.992-.003 1.984 0 2.976-.003.094 0 .188-.032.318-.057l-.513-4.154h-4.173zm6.853 4.217c1.129 0 2.221-.002 3.312 0 .259.001.26-.165.259-.354-.004-.716-.001-1.432 0-2.148v-1.694h-4.107l.536 4.196zm9.763-4.197h-4.06v4.163h3.55l.51-4.163zm-11.129 10.546-.515-4.188h-3.326c-.012.043-.022.058-.019.072.314 1.3.624 2.602.951 3.9.023.089.172.206.265.207.856.015 1.714.01 2.644.01zm14.832-.017 1.039-4.172h-3.384l-.515 4.172h2.86zm-13.198-4.177.519 4.168h2.748v-4.168h-3.267zm8.185 4.169.513-4.16h-3.254v4.16h2.741zM324.058 85.357c-1.205-.01-2.11-.944-2.093-2.157.017-1.169.962-2.079 2.147-2.067a2.104 2.104 0 0 1 2.098 2.122c-.006 1.2-.941 2.114-2.152 2.102zM337.069 85.36c-1.2-.002-2.111-.904-2.114-2.089-.003-1.221.9-2.13 2.118-2.133 1.215-.002 2.109.905 2.107 2.137-.004 1.186-.918 2.088-2.111 2.086z" fill="#D00053"/>
    <path d="m337.354 66.27.53-4.203h4.173c-.333 1.333-.655 2.646-.994 3.954-.025.098-.157.238-.242.239-1.133.016-2.267.01-3.467.01zM319.105 62.06h4.174l.514 4.154c-.131.025-.225.056-.318.057-.993.004-1.984.001-2.977.003-.198 0-.368-.002-.428-.256-.311-1.303-.633-2.603-.965-3.958zM325.96 66.277l-.536-4.196h4.107v1.694c0 .716-.004 1.432 0 2.148.001.189 0 .355-.259.355-1.092-.003-2.183-.001-3.312-.001z" fill="#FDECDD"/>
    <path d="m335.722 62.08-.512 4.163h-3.55V62.08h4.062z" fill="#fff"/>
    <path d="M324.593 72.626c-.93 0-1.788.006-2.644-.01-.092-.001-.242-.118-.265-.207-.328-1.298-.638-2.599-.951-3.9-.003-.013.007-.028.019-.071h3.326l.515 4.188zM339.426 72.609h-2.86l.516-4.172h3.384l-1.04 4.172zM326.227 68.432h3.267V72.6h-2.748l-.519-4.168zM334.411 72.6h-2.741v-4.159h3.254l-.513 4.16z" fill="#FDECDD"/>
  </g>
  <g clip-path="url(#h)">
    <path d="M592.554 263.833v3.026c2.456-.612 3.032 1.276 3.821 2.909.614 1.269 1.284 2.51 1.853 3.796.603 1.365.014 2.397-1.462 2.404-7.845.039-15.693.039-23.537 0-1.487-.007-2.077-1.032-1.452-2.4.855-1.866 1.671-3.779 2.778-5.49.502-.777 1.668-1.113 2.826-1.831v-2.414h-1.951c-6.567 0-13.134.018-19.702-.007-4.407-.018-6.717-2.432-6.717-6.925 0-14.369-.007-28.741-.01-43.11 0-.647-.007-1.298.027-1.945.168-3.199 2.541-5.652 5.713-5.783 2.205-.091 4.418-.021 6.627-.035 1.057-.007 1.926.347 1.94 1.527.014 1.195-.876 1.545-1.92 1.548-2.034.004-4.068-.031-6.103.018-2.153.053-3.29 1.114-3.294 3.266-.028 11.895-.003 23.79.007 35.688 0 .106.08.208.171.431h65.764c.032-.583.094-1.145.094-1.711.007-11.308.011-22.616 0-33.923-.003-2.736-1.071-3.761-3.876-3.765-12.961-.004-25.921-.004-38.885-.007-.579 0-1.27.141-1.706-.124-.506-.311-1.054-.979-1.085-1.527-.028-.431.628-1.021 1.109-1.325.342-.216.904-.085 1.368-.085 13.076-.004 26.155-.007 39.23 0 4.456.003 6.798 2.347 6.801 6.836.014 14.723.018 29.449.014 44.171 0 4.352-2.369 6.759-6.7 6.776-6.567.025-13.135.007-19.702.007-.625.004-1.249.004-2.041.004zm-40.57-12.096c0 1.658-.003 3.231 0 4.804.014 3.308.907 4.238 4.1 4.241 10.399.008 20.798.011 31.194.011 9.003 0 18.009.004 27.012-.011 2.185-.003 3.455-.777 3.601-2.513.182-2.142.042-4.312.042-6.529-22.005-.003-43.877-.003-65.949-.003zm23.701 21.05h18.655c-1.085-2.863-1.085-2.863-3.793-2.863h-11.142c-2.708 0-2.708 0-3.72 2.863zm13.707-6.031v-2.76h-8.78v2.76h8.78z" fill="#263640"/>
    <path d="M585.09 242.508c-7.453.063-13.571-6.056-13.605-13.613-.035-7.462 5.977-13.637 13.344-13.708 7.492-.071 13.623 5.988 13.693 13.531.069 7.544-5.95 13.722-13.432 13.79zm-1.779-11.174 8.776-10.198c-4.247-3.955-10.549-3.814-14.475.173-4.041 4.108-4.152 10.626-.251 14.825 3.905 4.203 10.336 4.49 14.614.654 3.769-3.379 4.711-9.597 1.916-13.086-2.952 3.418-5.915 6.808-8.836 10.237-1.015 1.195-1.95 1.308-3.049.131-1.239-1.322-2.635-2.513-3.755-3.927-.412-.52-.586-1.739-.265-2.245.638-1.004 1.612-.622 2.345.163.956 1.025 1.891 2.075 2.98 3.273zM569.963 207.658c-1.037.654-1.658 1.35-2.234 1.311-.474-.032-1.326-1.046-1.232-1.424.147-.584.915-1.298 1.501-1.382.457-.068 1.033.745 1.965 1.495z" fill="#263640"/>
    <path d="M575.686 272.787c1.008-2.863 1.008-2.863 3.723-2.863h11.142c2.704 0 2.704 0 3.793 2.863h-18.658zM589.393 266.756h-8.78v-2.76h8.78v2.76z" fill="#fff"/>
    <path d="M583.31 231.334c-1.089-1.198-2.02-2.245-2.976-3.27-.733-.784-1.71-1.166-2.345-.162-.321.505-.147 1.725.265 2.244 1.124 1.414 2.516 2.602 3.755 3.928 1.099 1.177 2.034 1.06 3.05-.131 2.92-3.429 5.879-6.819 8.835-10.237 2.795 3.489 1.853 9.707-1.916 13.086-4.281 3.839-10.709 3.549-14.614-.654-3.901-4.2-3.79-10.718.251-14.825 3.926-3.987 10.228-4.132 14.475-.173a7640.91 7640.91 0 0 0-8.78 10.194z" fill="#D00053"/>
    <path d="M585.012 257.729c-1.148-.149-2.893.487-2.927-1.471-.035-1.958 1.681-1.527 2.878-1.516 1.183.01 2.911-.495 2.949 1.442.042 1.965-1.692 1.424-2.9 1.545z" fill="#263640"/>
  </g>
  <defs>
    <clipPath id="e">
      <path fill="#fff" transform="translate(303 404)" d="M0 0h65v78H0z"/>
    </clipPath>
    <clipPath id="f">
      <path fill="#fff" transform="translate(28 206)" d="M0 0h76v76H0z"/>
    </clipPath>
    <clipPath id="g">
      <path fill="#fff" transform="translate(283 46)" d="M0 0h95v52H0z"/>
    </clipPath>
    <clipPath id="h">
      <path fill="#fff" transform="translate(549 206)" d="M0 0h72v70H0z"/>
    </clipPath>
    <filter id="a" x="0" y="172" width="143" height="143" filterUnits="userSpaceOnUse" color-interpolation-filters="sRGB">
      <feFlood flood-opacity="0" result="BackgroundImageFix"/>
      <feColorMatrix in="SourceAlpha" values="0 0 0 0 0 0 0 0 0 0 0 0 0 0 0 0 0 0 127 0" result="hardAlpha"/>
      <feOffset/>
      <feGaussianBlur stdDeviation="5"/>
      <feComposite in2="hardAlpha" operator="out"/>
      <feColorMatrix values="0 0 0 0 0 0 0 0 0 0 0 0 0 0 0 0 0 0 0.1 0"/>
      <feBlend in2="BackgroundImageFix" result="effect1_dropShadow_1261_829"/>
      <feBlend in="SourceGraphic" in2="effect1_dropShadow_1261_829" result="shape"/>
    </filter>
    <filter id="b" x="513" y="166" width="143" height="143" filterUnits="userSpaceOnUse" color-interpolation-filters="sRGB">
      <feFlood flood-opacity="0" result="BackgroundImageFix"/>
      <feColorMatrix in="SourceAlpha" values="0 0 0 0 0 0 0 0 0 0 0 0 0 0 0 0 0 0 127 0" result="hardAlpha"/>
      <feOffset/>
      <feGaussianBlur stdDeviation="5"/>
      <feComposite in2="hardAlpha" operator="out"/>
      <feColorMatrix values="0 0 0 0 0 0 0 0 0 0 0 0 0 0 0 0 0 0 0.1 0"/>
      <feBlend in2="BackgroundImageFix" result="effect1_dropShadow_1261_829"/>
      <feBlend in="SourceGraphic" in2="effect1_dropShadow_1261_829" result="shape"/>
    </filter>
    <filter id="c" x="258" y="0" width="143" height="143" filterUnits="userSpaceOnUse" color-interpolation-filters="sRGB">
      <feFlood flood-opacity="0" result="BackgroundImageFix"/>
      <feColorMatrix in="SourceAlpha" values="0 0 0 0 0 0 0 0 0 0 0 0 0 0 0 0 0 0 127 0" result="hardAlpha"/>
      <feOffset/>
      <feGaussianBlur stdDeviation="5"/>
      <feComposite in2="hardAlpha" operator="out"/>
      <feColorMatrix values="0 0 0 0 0 0 0 0 0 0 0 0 0 0 0 0 0 0 0.1 0"/>
      <feBlend in2="BackgroundImageFix" result="effect1_dropShadow_1261_829"/>
      <feBlend in="SourceGraphic" in2="effect1_dropShadow_1261_829" result="shape"/>
    </filter>
    <filter id="d" x="257" y="371" width="143" height="143" filterUnits="userSpaceOnUse" color-interpolation-filters="sRGB">
      <feFlood flood-opacity="0" result="BackgroundImageFix"/>
      <feColorMatrix in="SourceAlpha" values="0 0 0 0 0 0 0 0 0 0 0 0 0 0 0 0 0 0 127 0" result="hardAlpha"/>
      <feOffset/>
      <feGaussianBlur stdDeviation="5"/>
      <feComposite in2="hardAlpha" operator="out"/>
      <feColorMatrix values="0 0 0 0 0 0 0 0 0 0 0 0 0 0 0 0 0 0 0.1 0"/>
      <feBlend in2="BackgroundImageFix" result="effect1_dropShadow_1261_829"/>
      <feBlend in="SourceGraphic" in2="effect1_dropShadow_1261_829" result="shape"/>
    </filter>
  </defs>
</svg>