<svg xmlns="http://www.w3.org/2000/svg" width="90" height="90" viewBox="0 0 90 90" fill="none">
<rect width="90" height="90" rx="14" fill="#CB0051"/>
<g clip-path="url(#clip0_0_1)">
<path d="M48.2852 48.8633C47.1029 49.7208 45.9874 50.8225 44.6488 51.4429C41.5083 52.8981 38.2556 53.0798 35.0995 51.3889C33.4056 50.4818 32.408 48.9826 31.895 47.1526C31.2698 44.9194 31.355 42.709 32.1864 40.5454C33.1882 37.9402 35.1847 36.3814 37.7056 35.3763C39.9296 34.489 42.2728 34.2022 44.6246 33.9481C45.4673 33.8572 46.3143 33.799 47.2337 33.7195C47.2578 32.3112 47.4028 30.9185 46.8542 29.5925C46.3214 28.3006 44.7454 27.5098 43.1112 27.7412C41.1985 28.0124 39.8116 28.9465 39.2986 30.9284C39.0613 31.8441 38.6819 32.0258 37.727 31.8938C36.3685 31.705 35.0057 31.5446 33.6429 31.3941C32.5402 31.272 32.2617 30.9327 32.499 29.875C33.1186 27.1123 34.6163 24.9544 37.1614 23.6894C41.524 21.523 45.9959 21.4378 50.4424 23.4353C53.1864 24.669 54.5776 26.9334 54.6628 29.8935C54.7751 33.7465 54.8063 37.6052 54.7424 41.4582C54.7069 43.5551 55.2383 45.3553 56.6025 46.9453C57.2647 47.7176 57.1937 48.1166 56.4135 48.8008C55.2568 49.8131 54.0916 50.8168 52.9206 51.8148C52.1575 52.4651 51.619 52.4934 50.9355 51.7935C49.999 50.8338 49.1322 49.806 48.2852 48.8633ZM47.2408 37.9473C46.0883 38.0439 44.9813 38.0694 43.8957 38.2398C40.7651 38.7324 39.121 40.8108 39.3214 43.9285C39.4691 46.2113 41.0522 47.5402 43.2164 47.1455C44.3646 46.9354 45.2101 46.244 45.8908 45.3056C47.4909 43.1008 47.2507 40.578 47.2408 37.9473Z" fill="white"/>
<path d="M43.5732 64C38.9009 64.0199 34.6762 62.5519 30.8536 59.9752C28.6822 58.5115 26.6658 56.8192 24.5968 55.2065C23.9531 54.7039 23.8479 54.1644 24.1918 53.6789C24.5328 53.1962 25.0629 53.1266 25.7762 53.4943C28.1053 54.6954 30.4074 55.9546 32.7649 57.0989C38.6451 59.9539 44.7925 60.4323 51.0805 58.8366C53.7052 58.1708 56.2488 57.1926 58.828 56.3522C59.0738 56.2726 59.3055 56.1435 59.5541 56.0767C60.2064 55.9021 60.7279 56.1009 61.0562 56.6971C61.3887 57.3005 61.1613 57.8258 60.6839 58.2063C60.0742 58.6904 59.4206 59.122 58.7612 59.5365C54.4654 62.2311 48.5653 63.9602 43.5732 64Z" fill="white"/>
<path d="M62.8993 54.5023C61.5621 54.5804 60.4182 54.6414 59.2757 54.7195C58.9474 54.7422 58.6163 54.7891 58.2966 54.8657C57.785 54.9878 57.3829 54.826 57.1655 54.3788C56.9239 53.8805 57.1214 53.4077 57.5719 53.1593C58.3918 52.7078 59.2203 52.2081 60.1098 51.9582C61.5735 51.5465 63.0969 51.5337 64.596 51.8489C65.6135 52.0619 66.0341 52.5389 65.9958 53.5795C65.9105 55.9106 65.1915 58.0203 63.5942 59.7764C63.4209 59.9667 63.2247 60.2151 63.0031 60.262C62.6421 60.3386 62.1419 60.4082 61.9046 60.2222C61.673 60.0405 61.555 59.4982 61.636 59.1759C61.8705 58.2432 62.257 57.3488 62.5313 56.4246C62.6933 55.8922 62.7473 55.3286 62.8993 54.5023Z" fill="white"/>
</g>
<defs>
<clipPath id="clip0_0_1">
<rect width="42" height="42" fill="white" transform="translate(24 22)"/>
</clipPath>
</defs>
</svg>