<svg xmlns="http://www.w3.org/2000/svg" viewBox="0 0 279 279" fill="none">
  <circle cx="139.5" cy="139.5" r="139.5" fill="white"/>
  <g filter="url(#filter0_d_1045_74)">
    <rect x="28" y="107" width="59" height="60" rx="20" fill="white"/>
  </g>
  <g filter="url(#filter1_d_1045_74)">
    <rect x="190" y="104" width="60" height="61" rx="20" fill="white"/>
  </g>
  <g filter="url(#filter2_d_1045_74)">
    <rect x="111" y="35" width="60" height="60" rx="20" fill="white"/>
  </g>
  <g filter="url(#filter3_d_1045_74)">
    <rect x="111" y="174" width="60" height="60" rx="20" fill="white"/>
  </g>
  <g clip-path="url(#clip0_1045_74)">
    <path d="M149.605 199.234C149.52 198.773 149.37 198.313 149.363 197.85C149.335 195.803 149.333 193.754 149.356 191.704C149.366 190.849 149.048 190.465 148.173 190.468C142.443 190.487 136.716 190.485 130.986 190.468C130.146 190.465 129.769 190.769 129.772 191.666C129.791 200.224 129.786 208.778 129.776 217.334C129.776 218.14 130.096 218.513 130.9 218.513C136.668 218.506 142.438 218.504 148.206 218.518C149.012 218.52 149.37 218.169 149.359 217.368C149.349 216.732 149.356 216.098 149.356 215.379C149.952 215.379 150.447 215.379 151.13 215.379C151.13 217.103 151.137 218.848 151.128 220.596C151.111 224.152 151.574 224.008 147.838 223.998C141.834 223.984 135.829 223.996 129.821 223.991C128.178 223.991 128 223.805 128 222.11C128 210.704 128 199.299 128.005 187.89C128.005 186.193 128.185 186.003 129.817 186.003C136.336 186 142.856 186 149.373 186.003C150.929 186.003 151.125 186.215 151.125 187.828C151.128 191.676 151.125 195.526 151.125 199.467C150.718 199.426 150.419 199.395 150.122 199.364C149.952 199.32 149.778 199.277 149.605 199.234ZM139.393 189.168C140.418 189.168 141.449 189.245 142.46 189.13C142.841 189.086 143.173 188.592 143.529 188.303C143.19 187.994 142.863 187.435 142.514 187.42C140.548 187.334 138.577 187.334 136.611 187.418C136.265 187.432 135.942 187.997 135.608 188.305C135.964 188.592 136.293 189.074 136.682 189.127C137.572 189.25 138.487 189.166 139.393 189.168ZM141.132 221.655C141.134 221.469 141.139 221.283 141.141 221.1C140.636 220.717 140.178 220.16 139.611 219.991C138.888 219.777 138.148 220.589 138.203 221.375C138.26 222.219 138.781 222.821 139.562 222.696C140.124 222.607 140.61 222.019 141.132 221.655Z" fill="#263640"/>
    <path d="M149.487 202.372C151.419 202.399 153.352 202.43 155.285 202.447C157.064 202.461 157.749 203.069 157.771 204.889C157.804 207.616 157.773 210.342 157.721 213.067C157.697 214.347 156.969 215.058 155.679 215.063C150.509 215.085 145.336 215.085 140.166 215.058C138.814 215.051 138.138 214.328 138.127 212.941C138.103 210.292 138.117 207.645 138.122 204.995C138.124 203.216 138.487 202.768 140.211 202.377L140.185 202.331C141.482 202.379 142.777 202.473 144.075 202.469C145.884 202.461 147.694 202.382 149.503 202.334L149.487 202.372ZM138.947 207.691C138.947 209.554 138.933 211.353 138.954 213.149C138.964 213.877 139.395 214.231 140.107 214.231C145.322 214.231 150.54 214.253 155.755 214.19C156.137 214.185 156.817 213.6 156.839 213.25C156.948 211.423 156.891 209.583 156.891 207.688C150.869 207.691 144.964 207.691 138.947 207.691ZM156.779 205.075C156.948 203.609 156.727 203.283 155.527 203.281C150.476 203.267 145.422 203.269 140.37 203.281C139.113 203.283 138.845 203.681 139.104 205.075C144.964 205.075 150.836 205.075 156.779 205.075Z" fill="#D00053"/>
    <path d="M149.606 199.233C149.779 199.277 149.952 199.32 150.125 199.363C152.76 200.173 155.39 200.998 158.03 201.786C159.92 202.353 160.316 203.033 159.78 204.959C159.249 206.873 158.715 208.787 158.087 210.675C158.087 208.698 158.087 206.724 158.087 204.969C158.511 204.626 159.173 204.286 159.133 204.084C159.04 203.595 158.706 202.876 158.319 202.76C153.327 201.256 148.309 199.836 143.293 198.411C142.216 198.105 141.905 198.828 141.713 199.858C143.928 200.504 146.151 201.138 148.361 201.806C148.757 201.926 149.113 202.182 149.485 202.375L149.502 202.336C146.395 202.336 143.29 202.336 140.184 202.336L140.21 202.382C140.487 201.299 140.736 200.207 141.054 199.137C141.471 197.731 142.268 197.307 143.665 197.673C145.648 198.192 147.626 198.713 149.606 199.233Z" fill="#D00053"/>
    <path d="M140.184 202.334C143.29 202.334 146.395 202.334 149.502 202.334C147.692 202.382 145.883 202.461 144.073 202.469C142.778 202.476 141.481 202.382 140.184 202.334Z" fill="white"/>
    <path d="M156.538 211.201C156.541 212.905 156.424 213.033 154.857 213.038C153.069 213.045 152.993 212.975 152.99 211.295C152.988 209.561 153.09 209.448 154.643 209.443C156.389 209.438 156.536 209.573 156.538 211.201Z" fill="#D00053"/>
  </g>
  <g clip-path="url(#clip1_1045_74)">
    <path d="M61.6422 151.792C59.7377 151.792 57.9761 151.792 56.1522 151.792C56.6503 153.239 56.4708 154.499 55.2182 155.407C54.2184 156.129 53.1032 156.2 52.0337 155.559C50.5871 154.69 50.3746 153.359 50.8361 151.816C49.1019 151.616 47.8988 150.835 47.5637 149.105C47.2725 147.606 47.8494 146.64 49.7575 145.353C48.7503 141.767 47.7358 138.162 46.725 134.555C46.1372 132.456 45.5805 130.35 44.956 128.264C44.8407 127.881 44.5129 127.509 44.1814 127.275C44.088 127.21 43.5753 127.611 43.3464 127.876C42.3264 129.054 38.6291 129.148 37.5981 127.99C36.9774 127.291 36.8583 126.48 37.1623 125.614C37.4791 124.717 38.1805 124.24 39.0924 124.167C40.0007 124.094 40.9237 124.129 41.8356 124.174C42.1542 124.191 42.6468 124.294 42.7476 124.505C43.4013 125.863 45.2362 125.474 45.9266 126.656C46.3313 127.348 46.5272 128.161 46.8404 128.981C47.5509 128.981 48.2944 128.981 49.08 128.981C49.08 128.344 49.0214 127.738 49.0964 127.15C49.1715 126.563 49.3821 125.993 49.4847 125.601C48.6844 124.485 47.853 123.49 47.2176 122.384C46.5565 121.233 46.9447 120.723 48.3108 120.741C48.8529 120.749 49.3949 120.81 49.9187 120.845C50.9991 118.512 51.1547 118.481 52.8376 120.253C53.4493 119.962 54.0554 119.623 54.7 119.382C55.557 119.06 55.9397 119.358 55.991 120.282C56.0698 121.713 55.7127 123.032 54.9674 124.216C55.4526 124.639 55.9068 125.033 56.2126 125.3C56.7327 124.851 57.3791 124.314 57.9944 123.742C58.1482 123.601 58.2489 123.357 58.2855 123.145C58.3533 122.76 58.3423 122.361 58.3899 121.97C58.5181 120.926 59.1096 120.416 60.1809 120.465C61.0031 120.502 61.8253 120.565 62.6439 120.658C63.7096 120.779 64.2535 121.446 64.1949 122.519C64.1748 122.911 64.0905 123.301 64.0814 123.691C64.0759 123.884 64.1089 124.185 64.2297 124.254C65.5555 125.004 65.7661 126.188 65.5171 127.571C65.616 127.605 65.7167 127.64 65.8156 127.673C66.0811 127.222 66.462 126.801 66.5847 126.316C66.7934 125.501 66.8612 124.648 66.9363 123.806C66.9601 123.53 66.7513 123.236 66.766 122.954C66.8246 121.836 66.8594 120.709 67.0663 119.616C67.1157 119.358 67.8153 119.044 68.2035 119.06C69.2967 119.102 70.3955 119.247 71.4667 119.471C71.8147 119.543 72.3549 119.99 72.3439 120.249C72.3036 121.335 72.126 122.419 71.919 123.49C71.8293 123.96 71.4777 124.378 71.3715 124.848C71.2177 125.523 71.1573 126.224 71.0987 126.916C71.0108 127.965 71.692 128.833 72.7413 129.056C73.7576 129.272 74.2117 130.056 73.9023 131.224C73.2906 133.533 72.6351 135.831 71.9923 138.133C71.5125 139.85 70.9851 141.557 70.5511 143.287C70.2746 144.393 69.6392 144.874 68.5075 144.986C63.0431 145.527 57.5842 146.119 52.1235 146.694C51.5777 146.753 51.0265 146.787 50.4863 146.88C49.5817 147.036 49.0085 147.733 49.0342 148.592C49.058 149.407 49.6257 150.091 50.5028 150.182C51.3488 150.271 52.2077 150.244 53.0629 150.244C58.1299 150.245 63.1969 150.242 68.2621 150.24C68.4452 150.24 68.6814 150.171 68.8005 150.258C69.1044 150.48 69.3572 150.774 69.63 151.037C69.3608 151.271 69.1191 151.654 68.8169 151.709C68.2328 151.816 67.6138 151.74 66.9161 151.74C67.4014 153.386 67.1725 154.746 65.6636 155.603C64.6198 156.195 63.532 156.126 62.5615 155.414C61.3199 154.499 61.0892 153.263 61.6422 151.792ZM58.3039 135.893C58.357 135.945 58.4101 136 58.4632 136.053C58.5346 136.312 58.5694 136.59 58.6829 136.83C59.3806 138.307 60.6185 139.297 61.8986 140.235C62.0304 140.331 62.3545 140.35 62.4754 140.257C63.7884 139.266 65.1087 138.262 65.7551 136.679C66.0756 135.896 65.8943 135.161 65.2003 134.653C64.5209 134.155 63.7206 134.09 63.0925 134.671C62.4369 135.277 62.0121 135.217 61.2961 134.713C60.8493 134.397 59.9849 134.35 59.4539 134.553C58.9704 134.74 58.6811 135.426 58.3039 135.893ZM63.8525 128.991C63.9184 128.175 63.999 127.402 64.0411 126.627C64.0759 125.988 63.7536 125.578 63.1017 125.519C61.6788 125.391 60.2541 125.242 58.8294 125.218C58.5016 125.213 57.9413 125.639 57.879 125.946C57.6776 126.93 57.6593 127.952 57.5677 128.991C59.7231 128.991 61.7447 128.991 63.8525 128.991ZM47.1938 130.557C47.5783 131.884 47.8988 133.043 48.2651 134.188C48.32 134.359 48.5819 134.577 48.7522 134.58C50.2666 134.611 51.781 134.598 53.3962 134.598C53.2735 133.317 53.1837 132.149 53.0299 130.991C53.0079 130.826 52.6765 130.581 52.486 130.577C50.7848 130.545 49.0836 130.557 47.1938 130.557ZM72.4922 130.559C70.6409 130.559 68.9396 130.543 67.2384 130.581C67.0388 130.586 66.7129 130.877 66.6744 131.076C66.5389 131.786 66.4363 132.514 66.451 133.233C66.4656 133.927 66.7989 134.542 67.5973 134.584C68.6595 134.64 69.7289 134.626 70.7928 134.569C71.0456 134.557 71.4319 134.312 71.5034 134.092C71.8641 132.981 72.1425 131.844 72.4922 130.559ZM53.55 136.161C51.9202 136.161 50.4094 136.161 48.7833 136.161C49.1385 137.425 49.4645 138.61 49.8179 139.789C49.8582 139.923 50.0615 140.101 50.1933 140.103C51.4276 140.126 52.6637 140.117 53.9657 140.117C53.8173 138.725 53.6873 137.474 53.55 136.161ZM54.5773 130.601C54.689 131.759 54.8264 132.807 54.8758 133.858C54.9033 134.459 55.1486 134.607 55.7163 134.618C56.5917 134.633 57.4066 134.664 57.9266 133.758C58.0786 133.493 58.4595 133.366 58.7031 133.141C58.8587 132.995 59.0492 132.794 59.062 132.605C59.1059 131.953 59.0785 131.298 59.0785 130.601C57.5384 130.601 56.1155 130.601 54.5773 130.601ZM65.6471 139.885C65.746 139.967 65.8467 140.048 65.9456 140.13C67.0681 140.13 68.1907 140.144 69.3114 140.117C69.5092 140.112 69.8333 139.97 69.8791 139.823C70.2508 138.636 70.5694 137.432 70.921 136.171C69.652 136.171 68.5734 136.171 67.5772 136.171C67.2769 136.893 67.0535 137.548 66.7348 138.157C66.4217 138.757 66.0133 139.311 65.6471 139.885ZM55.6339 128.991C55.3336 127.732 55.3263 126.347 54.092 125.705C53.1288 125.204 51.9953 125.501 51.1639 126.18C50.2501 126.926 50.6017 127.983 50.739 128.989C52.378 128.991 53.951 128.991 55.6339 128.991ZM54.429 144.908C54.3191 143.788 54.2184 142.753 54.1158 141.7C52.8212 141.7 51.6272 141.7 50.349 141.7C50.6511 142.797 50.902 143.815 51.2316 144.806C51.2921 144.988 51.6785 145.18 51.9055 145.17C52.6911 145.137 53.4731 145.017 54.429 144.908ZM65.1472 130.632C63.5796 130.632 62.1385 130.632 60.6222 130.632C60.6222 131.127 60.6185 131.547 60.624 131.966C60.6313 132.565 61.774 133.433 62.3564 133.275C63.1859 133.05 64.01 132.81 64.9604 132.543C65.008 132.05 65.0721 131.396 65.1472 130.632ZM55.1377 136.229C55.2549 137.494 55.3721 138.768 55.4929 140.072C56.718 140.072 57.8515 140.072 58.9796 140.072C58.3643 139.092 57.6721 138.206 57.2161 137.211C56.6521 135.984 56.7382 135.945 55.1377 136.229ZM55.9672 144.716C56.9103 144.629 57.7801 144.57 58.639 144.452C58.802 144.431 59.0473 144.173 59.0565 144.013C59.1004 143.247 59.0766 142.479 59.0766 141.708C57.8735 141.708 56.8041 141.708 55.6596 141.708C55.7658 142.733 55.861 143.675 55.9672 144.716ZM70.1006 129.001C68.9305 127.271 70.0018 125.554 69.8241 123.86C69.3517 123.82 68.9708 123.788 68.5514 123.751C68.154 125.623 68.4892 127.656 66.4895 129.001C67.8098 129.001 68.8627 129.001 70.1006 129.001ZM54.3374 121.204C53.788 121.589 53.3632 122.112 52.9017 122.148C52.4586 122.181 51.9751 121.711 51.6199 121.52C51.3214 121.869 51.0449 122.475 50.62 122.606C50.1604 122.747 49.5597 122.448 48.9298 122.321C49.7905 123.791 50.6548 124.679 52.6563 124.08C53.5665 123.809 54.2861 122.709 54.3374 121.204ZM60.6899 144.258C61.6568 144.151 62.5578 144.062 63.4551 143.939C63.5961 143.919 63.8159 143.754 63.8305 143.634C63.9312 142.826 63.988 142.013 64.0594 141.201C64.0045 141.143 63.9495 141.087 63.8964 141.029C62.9222 142.082 61.9077 142.608 60.6899 141.187C60.6899 142.343 60.6899 143.251 60.6899 144.258ZM69.2766 141.631C68.643 141.631 68.0204 141.631 67.3959 141.631C65.5152 141.629 65.5134 141.629 65.4768 143.514C65.475 143.565 65.5262 143.616 65.5812 143.721C66.2459 143.654 66.9344 143.599 67.6175 143.51C69.0825 143.318 69.0825 143.311 69.2766 141.631ZM54.8666 153.067C54.8428 152.346 54.233 151.756 53.5152 151.756C52.7589 151.756 52.1216 152.404 52.1473 153.145C52.1729 153.893 52.845 154.501 53.5939 154.454C54.3154 154.408 54.8904 153.782 54.8666 153.067ZM64.281 151.756C63.5375 151.754 62.9424 152.33 62.9222 153.068C62.9021 153.829 63.5412 154.475 64.3011 154.459C65.0025 154.444 65.6398 153.791 65.6324 153.096C65.6269 152.397 64.9805 151.758 64.281 151.756ZM40.4311 125.654C40.4311 125.65 40.4311 125.648 40.4311 125.645C40.0978 125.645 39.715 125.541 39.4459 125.67C39.0997 125.835 38.8434 126.186 38.5485 126.456C38.8324 126.709 39.0906 127.133 39.4056 127.181C40.1143 127.288 40.8632 127.277 41.5719 127.17C41.8594 127.126 42.2879 126.701 42.2861 126.453C42.2843 126.186 41.8997 125.804 41.5957 125.685C41.2588 125.55 40.8229 125.654 40.4311 125.654ZM62.6292 122.192C61.6697 122.106 60.8676 122.036 59.9868 121.959C59.9245 122.571 59.8696 123.092 59.8091 123.679C60.7449 123.757 61.5763 123.828 62.4974 123.904C62.5432 123.312 62.5834 122.791 62.6292 122.192ZM70.9247 120.896C70.0256 120.774 69.2015 120.663 68.317 120.543C68.2493 121.104 68.1943 121.569 68.1302 122.103C69.0513 122.208 69.8772 122.303 70.7416 122.402C70.8057 121.874 70.8569 121.46 70.9247 120.896Z" fill="#263640"/>
    <path d="M63.8509 128.99C61.745 128.99 59.7215 128.99 57.5625 128.99C57.6541 127.95 57.6724 126.93 57.8738 125.946C57.9361 125.639 58.4983 125.212 58.8242 125.218C60.2507 125.24 61.6736 125.39 63.0965 125.519C63.7502 125.579 64.0707 125.988 64.0359 126.627C63.9974 127.402 63.9169 128.175 63.8509 128.99Z" fill="#D00053"/>
    <path d="M55.6326 128.99C53.9497 128.99 52.3767 128.99 50.7396 128.99C50.6004 127.984 50.2506 126.926 51.1644 126.182C51.9958 125.503 53.1293 125.205 54.0926 125.706C55.325 126.349 55.3323 127.732 55.6326 128.99Z" fill="#D00053"/>
    <path d="M70.0995 129.001C68.8616 129.001 67.8086 129.001 66.4883 129.001C68.488 127.656 68.1529 125.623 68.5502 123.751C68.9696 123.787 69.3505 123.82 69.823 123.86C70.0024 125.554 68.9293 127.271 70.0995 129.001Z" fill="#D00053"/>
    <path d="M54.3355 121.204C54.2842 122.711 53.5645 123.809 52.6562 124.08C50.6565 124.677 49.7904 123.789 48.9297 122.32C49.5596 122.446 50.1603 122.747 50.6199 122.605C51.0448 122.475 51.3213 121.867 51.6198 121.52C51.975 121.71 52.4566 122.181 52.9016 122.148C53.3631 122.112 53.7861 121.589 54.3355 121.204Z" fill="#D00053"/>
    <path d="M40.4295 125.654C40.8232 125.654 41.2572 125.55 41.596 125.684C41.8981 125.804 42.2845 126.185 42.2864 126.452C42.2882 126.701 41.8579 127.126 41.5722 127.169C40.8617 127.277 40.1145 127.287 39.4058 127.18C39.0909 127.133 38.8327 126.71 38.5488 126.456C38.8437 126.185 39.1 125.833 39.4461 125.67C39.7172 125.541 40.0999 125.644 40.4313 125.644C40.4295 125.648 40.4295 125.652 40.4295 125.654Z" fill="#263640"/>
    <path d="M62.6288 122.191C62.583 122.791 62.5427 123.313 62.4988 123.903C61.5777 123.825 60.7463 123.756 59.8105 123.678C59.871 123.09 59.9241 122.571 59.9882 121.959C60.8653 122.035 61.6692 122.106 62.6288 122.191Z" fill="#D00053"/>
    <path d="M70.9254 120.895C70.8577 121.46 70.8082 121.874 70.7441 122.402C69.878 122.302 69.0521 122.208 68.1328 122.103C68.1969 121.567 68.2518 121.104 68.3196 120.543C69.2023 120.663 70.0263 120.774 70.9254 120.895Z" fill="#D00053"/>
  </g>
  <g clip-path="url(#clip2_1045_74)">
    <path d="M122.324 75.76C122.324 75.6098 122.324 75.4935 122.324 75.3767C122.324 70.1025 122.324 64.8278 122.324 59.5536C122.324 57.5345 122.324 55.5153 122.324 53.4962C122.324 52.6726 122.949 52.0096 123.743 52.0096C128.079 52.0079 132.415 52.0114 136.751 52.0118C139.517 52.0118 142.282 52.0092 145.048 52.0087C149.412 52.0079 153.776 52.0171 158.14 51.9999C158.969 51.9969 159.688 52.648 159.685 53.5919C159.669 58.7427 159.678 63.8936 159.677 69.0448C159.677 71.2321 159.674 73.4194 159.672 75.6067C159.672 75.6502 159.678 75.6937 159.684 75.7613C159.79 75.7613 159.893 75.7613 159.995 75.7613C161.177 75.7608 162.358 75.76 163.539 75.7604C163.865 75.7604 163.991 75.9009 163.999 76.2442C164.009 76.7342 163.937 77.1908 163.578 77.5539C163.285 77.8494 162.939 77.9995 162.53 77.9995C160.521 77.9991 158.512 77.9991 156.503 77.9991C144.385 77.9991 132.267 77.9991 120.149 77.9986C119.887 77.9986 119.625 78.0035 119.364 77.9894C118.614 77.9499 118.03 77.3278 118.005 76.5498C117.98 75.8175 118.034 75.7595 118.738 75.7595C119.849 75.7595 120.959 75.7595 122.07 75.7595C122.147 75.76 122.223 75.76 122.324 75.76ZM123.764 74.2721C135.267 74.2721 146.745 74.2721 158.23 74.2721C158.23 67.3383 158.23 60.4243 158.23 53.5063C146.733 53.5063 135.258 53.5063 123.764 53.5063C123.764 60.4322 123.764 67.34 123.764 74.2721ZM137.045 75.7687C137.071 76.0317 137.152 76.2403 137.365 76.3268C137.583 76.4154 137.822 76.4997 138.053 76.5015C140.01 76.5151 141.968 76.512 143.926 76.5059C144.106 76.5055 144.292 76.4699 144.466 76.4163C144.786 76.3175 144.95 76.0769 144.928 75.7687C142.31 75.7687 139.691 75.7687 137.045 75.7687Z" fill="#263640"/>
    <path d="M137.047 75.7687C139.693 75.7687 142.312 75.7687 144.93 75.7687C144.951 76.0765 144.788 76.3175 144.467 76.4163C144.294 76.4699 144.108 76.5054 143.928 76.5059C141.97 76.512 140.012 76.5151 138.055 76.5015C137.824 76.4997 137.585 76.4159 137.367 76.3268C137.154 76.2403 137.073 76.0322 137.047 75.7687Z" fill="white"/>
    <path d="M137.011 66.3851C137.123 66.8483 137.224 67.2716 137.327 67.6939C137.349 67.7852 137.379 67.8744 137.409 67.9767C137.485 67.9767 137.554 67.9767 137.624 67.9767C140.036 67.9767 142.448 67.9767 144.86 67.9771C145.015 67.9771 145.17 67.9775 145.326 67.9802C145.635 67.9859 145.837 68.1896 145.841 68.4952C145.845 68.7981 145.626 69.0347 145.323 69.0383C144.814 69.044 144.306 69.0396 143.798 69.0396C141.571 69.0396 139.345 69.04 137.118 69.04C136.705 69.04 136.553 68.903 136.455 68.4921C136.157 67.2382 135.851 65.9869 135.549 64.7343C135.394 64.0903 135.244 63.4449 135.089 62.8008C134.789 61.5631 134.485 60.3264 134.185 59.0892C134.106 58.7634 134.019 58.4389 133.959 58.1097C133.927 57.9358 133.857 57.8914 133.692 57.8941C133.084 57.9037 132.476 57.8998 131.868 57.8941C131.606 57.8914 131.403 57.7171 131.364 57.4823C131.316 57.1969 131.434 56.9699 131.692 56.8694C131.755 56.8443 131.828 56.8369 131.897 56.8364C132.689 56.8342 133.482 56.8342 134.274 56.8356C134.561 56.836 134.738 56.9787 134.808 57.2627C134.931 57.7575 135.062 58.2501 135.17 58.7485C135.205 58.9122 135.265 58.9557 135.421 58.9548C136.722 58.9487 138.023 58.9513 139.325 58.9513C141.927 58.9513 144.529 58.9513 147.131 58.9517C147.655 58.9517 147.864 59.2253 147.736 59.7552C147.259 61.7287 146.768 63.6982 146.304 65.6752C146.14 66.3781 145.967 66.3869 145.401 66.3864C142.699 66.3838 139.997 66.3851 137.295 66.3847C137.21 66.3851 137.126 66.3851 137.011 66.3851ZM144.32 62.1352C144.902 62.1352 145.45 62.1379 145.999 62.1299C146.04 62.1295 146.104 62.0593 146.117 62.0105C146.281 61.3564 146.437 60.7004 146.598 60.0335C145.917 60.0335 145.25 60.0335 144.577 60.0335C144.492 60.7312 144.408 61.4156 144.32 62.1352ZM135.485 60.03C135.645 60.7075 135.801 61.3572 135.951 62.0088C135.98 62.1365 136.063 62.1374 136.159 62.137C136.639 62.1357 137.119 62.1374 137.6 62.1357C137.645 62.1357 137.691 62.1194 137.754 62.1071C137.67 61.4082 137.588 60.7237 137.505 60.03C136.828 60.03 136.168 60.03 135.485 60.03ZM138.803 62.1383C139.349 62.1383 139.878 62.1374 140.407 62.1387C140.532 62.1392 140.532 62.0558 140.532 61.9614C140.53 61.6035 140.532 61.2453 140.532 60.8875C140.532 60.6052 140.532 60.3233 140.532 60.0406C139.854 60.0406 139.203 60.0406 138.543 60.0406C138.63 60.7435 138.714 61.4231 138.803 62.1383ZM143.53 60.0401C142.853 60.0401 142.211 60.0401 141.564 60.0401C141.564 60.743 141.564 61.4262 141.564 62.1216C142.142 62.1216 142.709 62.1216 143.283 62.1216C143.366 61.427 143.446 60.7478 143.53 60.0401ZM138.141 65.313C138.056 64.5925 137.974 63.9085 137.892 63.2192C137.342 63.2192 136.81 63.2192 136.282 63.2192C136.276 63.2407 136.271 63.2482 136.272 63.2548C136.424 63.9054 136.575 64.5561 136.733 65.205C136.744 65.2493 136.816 65.3077 136.861 65.3086C137.276 65.3161 137.691 65.313 138.141 65.313ZM145.323 65.3042C145.492 64.6079 145.658 63.9177 145.826 63.2183C145.271 63.2183 144.738 63.2183 144.188 63.2183C144.104 63.9195 144.022 64.6101 143.938 65.3042C144.41 65.3042 144.861 65.3042 145.323 65.3042ZM138.933 63.2161C139.019 63.93 139.101 64.6145 139.184 65.2998C139.642 65.2998 140.076 65.2998 140.515 65.2998C140.515 64.5969 140.515 63.9081 140.515 63.2161C139.984 63.2161 139.471 63.2161 138.933 63.2161ZM142.896 65.3003C142.979 64.6026 143.061 63.919 143.144 63.2205C142.603 63.2205 142.086 63.2205 141.569 63.2205C141.569 63.9243 141.569 64.6127 141.569 65.3003C142.019 65.3003 142.453 65.3003 142.896 65.3003Z" fill="#D00053"/>
    <path d="M137.881 71.6787C137.297 71.6734 136.859 71.2067 136.867 70.6C136.875 70.0156 137.333 69.5608 137.907 69.5665C138.476 69.5722 138.925 70.0415 138.923 70.6276C138.92 71.2273 138.467 71.6844 137.881 71.6787Z" fill="#D00053"/>
    <path d="M144.182 71.6804C143.601 71.6791 143.159 71.2278 143.158 70.6355C143.157 70.0248 143.594 69.5704 144.184 69.5691C144.772 69.5678 145.205 70.0217 145.204 70.6377C145.202 71.2304 144.759 71.6818 144.182 71.6804Z" fill="#D00053"/>
    <path d="M144.32 62.1352C144.408 61.4156 144.492 60.7311 144.577 60.0335C145.25 60.0335 145.917 60.0335 146.598 60.0335C146.437 60.7 146.281 61.3563 146.117 62.0105C146.104 62.0592 146.04 62.1295 145.999 62.1299C145.451 62.1378 144.901 62.1352 144.32 62.1352Z" fill="#FDECDD"/>
    <path d="M135.484 60.03C136.167 60.03 136.828 60.03 137.505 60.03C137.588 60.7237 137.67 61.4082 137.754 62.1071C137.691 62.1194 137.645 62.1352 137.6 62.1357C137.119 62.1374 136.639 62.1361 136.159 62.137C136.063 62.1374 135.981 62.1361 135.951 62.0088C135.801 61.3573 135.645 60.7075 135.484 60.03Z" fill="#FDECDD"/>
    <path d="M138.803 62.1383C138.714 61.4231 138.63 60.7434 138.543 60.0405C139.203 60.0405 139.853 60.0405 140.532 60.0405C140.532 60.3233 140.532 60.6051 140.532 60.8874C140.532 61.2453 140.53 61.6035 140.532 61.9613C140.532 62.0557 140.532 62.1387 140.406 62.1387C139.878 62.1374 139.349 62.1383 138.803 62.1383Z" fill="#FDECDD"/>
    <path d="M143.531 60.0401C143.447 60.7483 143.366 61.4275 143.284 62.1216C142.709 62.1216 142.143 62.1216 141.564 62.1216C141.564 61.4262 141.564 60.743 141.564 60.0401C142.211 60.0401 142.854 60.0401 143.531 60.0401Z" fill="white"/>
    <path d="M138.143 65.313C137.692 65.313 137.277 65.316 136.862 65.3081C136.818 65.3073 136.745 65.2489 136.734 65.2045C136.575 64.5556 136.425 63.905 136.274 63.2543C136.272 63.2482 136.277 63.2403 136.283 63.2188C136.811 63.2188 137.343 63.2188 137.893 63.2188C137.975 63.9085 138.056 64.5925 138.143 65.313Z" fill="#FDECDD"/>
    <path d="M145.324 65.3042C144.861 65.3042 144.411 65.3042 143.939 65.3042C144.023 64.6101 144.105 63.9195 144.189 63.2183C144.738 63.2183 145.272 63.2183 145.828 63.2183C145.659 63.9177 145.492 64.6079 145.324 65.3042Z" fill="#FDECDD"/>
    <path d="M138.934 63.2161C139.472 63.2161 139.985 63.2161 140.516 63.2161C140.516 63.9081 140.516 64.5969 140.516 65.2998C140.077 65.2998 139.643 65.2998 139.185 65.2998C139.102 64.6145 139.02 63.93 138.934 63.2161Z" fill="#FDECDD"/>
    <path d="M142.896 65.3003C142.452 65.3003 142.018 65.3003 141.568 65.3003C141.568 64.6127 141.568 63.9243 141.568 63.2205C142.086 63.2205 142.603 63.2205 143.144 63.2205C143.061 63.919 142.979 64.6026 142.896 65.3003Z" fill="#FDECDD"/>
  </g>
  <g clip-path="url(#clip3_1045_74)">
    <path d="M223.777 147.09C223.777 147.636 223.777 148.033 223.777 148.56C225.005 148.263 225.293 149.18 225.687 149.973C225.994 150.589 226.329 151.192 226.614 151.817C226.916 152.48 226.621 152.981 225.883 152.984C221.961 153.003 218.037 153.003 214.114 152.984C213.371 152.981 213.076 152.483 213.388 151.819C213.816 150.912 214.224 149.983 214.777 149.152C215.029 148.774 215.611 148.611 216.191 148.263C216.191 148.052 216.191 147.612 216.191 147.09C215.84 147.09 215.528 147.09 215.215 147.09C211.932 147.09 208.648 147.099 205.364 147.087C203.161 147.078 202.006 145.905 202.006 143.723C202.006 136.744 202.002 129.763 202 122.784C202 122.47 201.997 122.154 202.014 121.84C202.098 120.286 203.284 119.094 204.87 119.031C205.973 118.986 207.079 119.02 208.184 119.014C208.712 119.01 209.147 119.182 209.154 119.755C209.161 120.336 208.716 120.506 208.194 120.507C207.177 120.509 206.16 120.492 205.143 120.516C204.066 120.542 203.497 121.057 203.496 122.102C203.482 127.88 203.494 133.657 203.499 139.436C203.499 139.488 203.539 139.537 203.585 139.646C214.503 139.646 225.443 139.646 236.467 139.646C236.482 139.362 236.514 139.089 236.514 138.815C236.517 133.322 236.519 127.83 236.514 122.337C236.512 121.009 235.978 120.511 234.575 120.509C228.095 120.507 221.615 120.507 215.133 120.506C214.844 120.506 214.498 120.574 214.28 120.445C214.027 120.294 213.753 119.97 213.737 119.704C213.723 119.494 214.051 119.208 214.292 119.06C214.463 118.955 214.744 119.019 214.976 119.019C221.514 119.017 228.053 119.015 234.591 119.019C236.819 119.02 237.99 120.159 237.992 122.339C237.999 129.49 238 136.643 237.999 143.794C237.999 145.907 236.814 147.076 234.649 147.085C231.365 147.097 228.081 147.088 224.798 147.088C224.485 147.09 224.173 147.09 223.777 147.09ZM203.492 141.215C203.492 142.02 203.49 142.784 203.492 143.548C203.499 145.155 203.946 145.607 205.542 145.608C210.742 145.612 215.941 145.614 221.139 145.614C225.64 145.614 230.144 145.615 234.645 145.608C235.737 145.607 236.372 145.231 236.446 144.388C236.536 143.347 236.467 142.293 236.467 141.217C225.464 141.215 214.528 141.215 203.492 141.215ZM215.343 151.439C218.485 151.439 221.564 151.439 224.67 151.439C224.128 150.048 224.128 150.048 222.774 150.048C220.917 150.048 219.061 150.048 217.203 150.048C215.849 150.048 215.849 150.048 215.343 151.439ZM222.196 148.51C222.196 147.99 222.196 147.576 222.196 147.169C220.685 147.169 219.235 147.169 217.806 147.169C217.806 147.66 217.806 148.072 217.806 148.51C219.295 148.51 220.723 148.51 222.196 148.51Z" fill="#263640"/>
    <path d="M220.045 136.732C216.318 136.763 213.26 133.791 213.242 130.12C213.225 126.496 216.231 123.497 219.914 123.462C223.66 123.428 226.726 126.371 226.761 130.035C226.796 133.698 223.786 136.7 220.045 136.732ZM219.155 131.305C220.703 129.557 222.125 127.954 223.543 126.352C221.42 124.431 218.269 124.499 216.306 126.436C214.286 128.431 214.23 131.597 216.18 133.637C218.133 135.678 221.348 135.817 223.488 133.954C225.372 132.313 225.843 129.293 224.445 127.598C222.969 129.259 221.488 130.905 220.028 132.57C219.52 133.151 219.052 133.206 218.503 132.634C217.883 131.992 217.185 131.413 216.625 130.726C216.42 130.474 216.332 129.882 216.493 129.636C216.812 129.149 217.299 129.334 217.665 129.715C218.143 130.213 218.611 130.723 219.155 131.305Z" fill="#263640"/>
    <path d="M212.482 119.805C211.964 120.123 211.653 120.461 211.366 120.442C211.128 120.427 210.703 119.934 210.75 119.75C210.823 119.467 211.207 119.12 211.5 119.079C211.729 119.046 212.016 119.441 212.482 119.805Z" fill="#263640"/>
    <path d="M215.344 151.439C215.848 150.049 215.848 150.049 217.205 150.049C219.062 150.049 220.918 150.049 222.777 150.049C224.129 150.049 224.129 150.049 224.673 151.439C221.567 151.439 218.488 151.439 215.344 151.439Z" fill="white"/>
    <path d="M222.197 148.51C220.724 148.51 219.295 148.51 217.807 148.51C217.807 148.072 217.807 147.66 217.807 147.169C219.236 147.169 220.686 147.169 222.197 147.169C222.197 147.576 222.197 147.99 222.197 148.51Z" fill="white"/>
    <path d="M219.156 131.305C218.612 130.723 218.146 130.215 217.668 129.717C217.301 129.336 216.813 129.15 216.495 129.638C216.335 129.883 216.422 130.476 216.628 130.728C217.19 131.415 217.886 131.992 218.505 132.636C219.055 133.207 219.522 133.151 220.03 132.572C221.491 130.907 222.97 129.26 224.448 127.6C225.846 129.295 225.374 132.315 223.49 133.956C221.349 135.821 218.135 135.68 216.183 133.638C214.232 131.599 214.288 128.433 216.309 126.438C218.271 124.501 221.423 124.431 223.546 126.354C222.126 127.952 220.704 129.557 219.156 131.305Z" fill="#D00053"/>
    <path d="M220.007 144.125C219.433 144.053 218.561 144.362 218.543 143.411C218.526 142.46 219.384 142.669 219.983 142.674C220.574 142.68 221.438 142.434 221.457 143.375C221.478 144.33 220.611 144.067 220.007 144.125Z" fill="#263640"/>
  </g>
  <defs>
    <filter id="filter0_d_1045_74" x="18" y="97" width="79" height="80" filterUnits="userSpaceOnUse" color-interpolation-filters="sRGB">
      <feFlood flood-opacity="0" result="BackgroundImageFix"/>
      <feColorMatrix in="SourceAlpha" type="matrix" values="0 0 0 0 0 0 0 0 0 0 0 0 0 0 0 0 0 0 127 0" result="hardAlpha"/>
      <feOffset/>
      <feGaussianBlur stdDeviation="5"/>
      <feComposite in2="hardAlpha" operator="out"/>
      <feColorMatrix type="matrix" values="0 0 0 0 0 0 0 0 0 0 0 0 0 0 0 0 0 0 0.1 0"/>
      <feBlend mode="normal" in2="BackgroundImageFix" result="effect1_dropShadow_1045_74"/>
      <feBlend mode="normal" in="SourceGraphic" in2="effect1_dropShadow_1045_74" result="shape"/>
    </filter>
    <filter id="filter1_d_1045_74" x="180" y="94" width="80" height="81" filterUnits="userSpaceOnUse" color-interpolation-filters="sRGB">
      <feFlood flood-opacity="0" result="BackgroundImageFix"/>
      <feColorMatrix in="SourceAlpha" type="matrix" values="0 0 0 0 0 0 0 0 0 0 0 0 0 0 0 0 0 0 127 0" result="hardAlpha"/>
      <feOffset/>
      <feGaussianBlur stdDeviation="5"/>
      <feComposite in2="hardAlpha" operator="out"/>
      <feColorMatrix type="matrix" values="0 0 0 0 0 0 0 0 0 0 0 0 0 0 0 0 0 0 0.1 0"/>
      <feBlend mode="normal" in2="BackgroundImageFix" result="effect1_dropShadow_1045_74"/>
      <feBlend mode="normal" in="SourceGraphic" in2="effect1_dropShadow_1045_74" result="shape"/>
    </filter>
    <filter id="filter2_d_1045_74" x="101" y="25" width="80" height="80" filterUnits="userSpaceOnUse" color-interpolation-filters="sRGB">
      <feFlood flood-opacity="0" result="BackgroundImageFix"/>
      <feColorMatrix in="SourceAlpha" type="matrix" values="0 0 0 0 0 0 0 0 0 0 0 0 0 0 0 0 0 0 127 0" result="hardAlpha"/>
      <feOffset/>
      <feGaussianBlur stdDeviation="5"/>
      <feComposite in2="hardAlpha" operator="out"/>
      <feColorMatrix type="matrix" values="0 0 0 0 0 0 0 0 0 0 0 0 0 0 0 0 0 0 0.1 0"/>
      <feBlend mode="normal" in2="BackgroundImageFix" result="effect1_dropShadow_1045_74"/>
      <feBlend mode="normal" in="SourceGraphic" in2="effect1_dropShadow_1045_74" result="shape"/>
    </filter>
    <filter id="filter3_d_1045_74" x="101" y="164" width="80" height="80" filterUnits="userSpaceOnUse" color-interpolation-filters="sRGB">
      <feFlood flood-opacity="0" result="BackgroundImageFix"/>
      <feColorMatrix in="SourceAlpha" type="matrix" values="0 0 0 0 0 0 0 0 0 0 0 0 0 0 0 0 0 0 127 0" result="hardAlpha"/>
      <feOffset/>
      <feGaussianBlur stdDeviation="5"/>
      <feComposite in2="hardAlpha" operator="out"/>
      <feColorMatrix type="matrix" values="0 0 0 0 0 0 0 0 0 0 0 0 0 0 0 0 0 0 0.1 0"/>
      <feBlend mode="normal" in2="BackgroundImageFix" result="effect1_dropShadow_1045_74"/>
      <feBlend mode="normal" in="SourceGraphic" in2="effect1_dropShadow_1045_74" result="shape"/>
    </filter>
    <clipPath id="clip0_1045_74">
      <rect width="32" height="38" fill="white" transform="translate(128 186)"/>
    </clipPath>
    <clipPath id="clip1_1045_74">
      <rect width="37" height="37" fill="white" transform="translate(37 119)"/>
    </clipPath>
    <clipPath id="clip2_1045_74">
      <rect width="46" height="26" fill="white" transform="translate(118 52)"/>
    </clipPath>
    <clipPath id="clip3_1045_74">
      <rect width="36" height="34" fill="white" transform="translate(202 119)"/>
    </clipPath>
  </defs>
</svg>