<svg width="36" height="33" viewBox="0 0 36 33" fill="none" xmlns="http://www.w3.org/2000/svg">
<path d="M27.6191 15.3677C25.2032 15.3677 23.2266 17.1691 23.2266 19.3708C23.2266 21.5725 25.2032 23.3739 27.6191 23.3739C30.035 23.3739 32.0116 21.5725 32.0116 19.3708C32.0116 17.1691 30.035 15.3677 27.6191 15.3677Z" fill="#CB0051"/>
<path d="M31.6473 25.3755H23.5936C21.3688 25.3755 19.5679 27.0168 19.5679 29.0443V31.0459C19.5679 31.5923 20.0664 32.0467 20.666 32.0467H34.5749C35.1745 32.0467 35.6731 31.5923 35.6731 31.0459V29.0443C35.6731 27.0168 33.8721 25.3755 31.6473 25.3755Z" fill="#CB0051"/>
<path d="M6.39002 20.0374C4.78016 20.0374 3.4624 21.2383 3.4624 22.7054C3.4624 24.1726 4.78016 25.3735 6.39002 25.3735C7.99988 25.3735 9.31764 24.1726 9.31764 22.7054C9.31764 21.2383 7.99988 20.0374 6.39002 20.0374Z" fill="#CB0051"/>
<path d="M8.21963 26.7086H4.55846C2.33365 26.7086 0.532715 28.3499 0.532715 30.3795V31.046C0.532715 31.5924 1.03127 32.0468 1.63085 32.0468H11.1472C11.7468 32.0468 12.2454 31.5924 12.2454 31.046V30.3795C12.2454 28.3499 10.4444 26.7086 8.21963 26.7086Z" fill="#CB0051"/>
<path d="M17.0052 20.0373C16.645 20.0373 16.287 19.9152 16.0125 19.683L11.6748 16.0342H3.46082C1.84657 16.0342 0.533203 14.8373 0.533203 13.3661V2.68981C0.533203 1.21866 1.84657 0.0217285 3.46082 0.0217285H21.0309C22.6452 0.0217285 23.9585 1.21866 23.9585 2.68981V13.3641C23.9585 14.8353 22.6452 16.0322 21.0309 16.0322H18.4679V18.7003C18.4679 19.2307 18.1231 19.7111 17.5916 19.9232C17.4049 20.0013 17.2028 20.0373 17.0052 20.0373ZM3.46082 2.68981V13.3641H12.2459C12.6126 13.3641 12.9684 13.4902 13.2386 13.7184L15.5403 15.6539V14.6992C15.5403 13.9626 16.1947 13.3641 17.0052 13.3641H21.0309V2.68981H3.46082Z" fill="#CB0051"/>
<path d="M15.2485 9.62921C15.097 9.62921 14.9442 9.58238 14.819 9.4851C14.5424 9.26893 14.5108 8.89063 14.7479 8.63843L15.6978 7.62724L14.7479 6.61724C14.5108 6.36504 14.5424 5.98675 14.819 5.77058C15.0957 5.55561 15.5107 5.58323 15.7478 5.83543L17.0653 7.23693C17.2774 7.46271 17.2774 7.79417 17.0653 8.01875L15.7478 9.42025C15.6187 9.55716 15.4343 9.62921 15.2485 9.62921Z" fill="#3030FF" fill-opacity="0.2"/>
<path d="M8.6593 9.62921C8.47354 9.62921 8.28909 9.55837 8.15867 9.42028L6.84121 8.01894C6.6291 7.79319 6.6291 7.46177 6.84121 7.23722L8.15867 5.83589C8.39581 5.58372 8.8108 5.5549 9.08747 5.77105C9.36414 5.98719 9.39575 6.36544 9.15861 6.61761L8.20873 7.62748L9.15861 8.63735C9.39575 8.88952 9.36414 9.26777 9.08747 9.48392C8.96363 9.58118 8.81081 9.62921 8.6593 9.62921Z" fill="#3030FF" fill-opacity="0.2"/>
<path d="M11.6605 10.4258C11.2991 10.3824 11.038 10.0363 11.0789 9.6524L11.518 5.44885C11.5576 5.06493 11.882 4.78889 12.246 4.82953C12.6073 4.87297 12.8684 5.21906 12.8275 5.60298L12.3884 9.80653C12.3501 10.1792 12.0363 10.4679 11.6605 10.4258Z" fill="#3030FF" fill-opacity="0.2"/>
</svg>
