<svg width="64" height="64" viewBox="0 0 64 64" fill="none" xmlns="http://www.w3.org/2000/svg">
<path d="M32.0001 38.6538C37.9309 38.6538 42.7389 33.8458 42.7389 27.915C42.7389 21.9841 37.9309 17.1761 32.0001 17.1761C26.0692 17.1761 21.2612 21.9841 21.2612 27.915C21.2676 33.8432 26.0719 38.6474 32.0001 38.6538ZM32.0001 19.3549C36.7277 19.3549 40.5602 23.1873 40.5602 27.915C40.5602 32.6426 36.7277 36.4751 32.0001 36.4751C27.2724 36.4751 23.44 32.6426 23.44 27.915C23.4453 23.1894 27.2745 19.3602 32.0001 19.3549Z" fill="#D00053"/>
<path d="M62.9106 9.80432H1.08936C0.487234 9.80539 0 10.2937 0 10.8958V53.1043C0 53.7065 0.487234 54.1948 1.08936 54.1958H62.9106C63.5128 54.1948 64 53.7065 64 53.1043V10.8958C64 10.2937 63.5128 9.80539 62.9106 9.80432ZM2.17872 46.0256H61.8213V47.932H2.17872V46.0256ZM2.17872 11.983H61.8213V43.8469H2.17872V11.983ZM2.17872 52.0171V50.1107H61.8213V52.0171H2.17872Z" fill="#D00053"/>
<path d="M13.7529 33.1888C16.6657 33.1888 19.0269 30.8277 19.0269 27.9149C19.0269 25.0022 16.6657 22.641 13.7529 22.641C10.8402 22.641 8.479 25.0022 8.479 27.9149C8.48273 30.8261 10.8418 33.1851 13.7529 33.1888ZM13.7529 24.8197C15.4625 24.8197 16.8482 26.2053 16.8482 27.9149C16.8482 29.6245 15.4625 31.0101 13.7529 31.0101C12.0434 31.0101 10.6577 29.6245 10.6577 27.9149C10.6599 26.2064 12.0444 24.8218 13.7529 24.8197Z" fill="#D00053"/>
<path d="M50.2471 33.1888C53.1599 33.1888 55.521 30.8277 55.521 27.9149C55.521 25.0022 53.1599 22.641 50.2471 22.641C47.3343 22.641 44.9731 25.0022 44.9731 27.9149C44.9769 30.8261 47.3359 33.1851 50.2471 33.1888ZM50.2471 24.8197C51.9567 24.8197 53.3423 26.2053 53.3423 27.9149C53.3423 29.6245 51.9567 31.0101 50.2471 31.0101C48.5375 31.0101 47.1519 29.6245 47.1519 27.9149C47.154 26.2064 48.5386 24.8218 50.2471 24.8197Z" fill="#D00053"/>
<path d="M7.9696 41.7634C8.17438 42.0458 8.50204 42.2129 8.85098 42.2129H55.7388C56.0877 42.2129 56.4154 42.0458 56.6201 41.7634L60.1154 36.9522C60.2505 36.7661 60.3233 36.5421 60.3233 36.3118V19.7448C60.3233 19.515 60.2505 19.2911 60.1154 19.1049L56.6201 14.3161C56.4127 14.04 56.0845 13.881 55.7388 13.8895H8.85098C8.50524 13.881 8.17704 14.0395 7.9696 14.3161L4.45204 19.1161C4.31002 19.2959 4.22917 19.5161 4.22119 19.7448V36.3123C4.22917 36.5442 4.31002 36.7682 4.45204 36.9522L7.9696 41.7634ZM6.39992 20.0991L9.4063 16.0682H55.184L58.1446 20.0991V35.9581L55.184 40.0341H9.4063L6.39992 35.9581V20.0991Z" fill="#D00053"/>
<path d="M31.9999 31.8909C31.186 31.8904 30.527 31.2308 30.5259 30.4175C30.5259 29.8154 30.0381 29.3281 29.4365 29.3281C28.8349 29.3281 28.3472 29.8154 28.3472 30.4175C28.3493 31.9616 29.3201 33.3382 30.7743 33.8579V34.451C30.7743 35.0526 31.2621 35.5404 31.8637 35.5404C32.4653 35.5404 32.9531 35.0526 32.9531 34.451V33.943C34.7211 33.4654 35.8616 31.7521 35.6206 29.9366C35.3797 28.1212 33.8313 26.7648 31.9999 26.7654C31.219 26.7654 30.5733 26.1563 30.528 25.3765C30.4834 24.5968 31.0546 23.9175 31.8307 23.8281C31.8419 23.8281 31.8525 23.8297 31.8637 23.8297C31.9137 23.8292 31.9637 23.8255 32.0137 23.818C32.8217 23.8265 33.4727 24.4835 33.4738 25.2914C33.4738 25.893 33.9616 26.3808 34.5632 26.3808C35.1648 26.3808 35.6525 25.893 35.6525 25.2914C35.6504 23.642 34.5446 22.1983 32.9531 21.7659V21.3787C32.9531 20.7771 32.4653 20.2893 31.8637 20.2893C31.2621 20.2893 30.7743 20.7771 30.7743 21.3787V21.851C29.0998 22.4473 28.0977 24.1622 28.4004 25.9132C28.703 27.6648 30.2227 28.9441 31.9999 28.9441C32.8137 28.9441 33.4738 29.6037 33.4738 30.4175C33.4738 31.2313 32.8137 31.8914 31.9999 31.8914V31.8909Z" fill="#D00053"/>
</svg>
