<svg xmlns="http://www.w3.org/2000/svg" width="46" height="52" viewBox="0 0 46 52" fill="none">
<g clip-path="url(#clip0_150_485)">
<path d="M40.5456 32.4105C38.4296 30.5548 36.3789 28.8423 34.4481 27.0055C33.9361 26.5158 33.563 25.6583 33.5194 24.9468C33.3968 22.88 33.5303 20.7997 33.4404 18.7275C33.4159 18.1594 33.0728 17.4858 32.6643 17.0719C31.5477 15.9438 31.4251 14.4289 32.5063 13.3468C33.5357 12.3188 35.1534 12.3377 36.1556 13.3928C37.2041 14.4965 37.0461 15.9817 35.8942 17.1125C35.5074 17.4912 35.2079 18.1242 35.1752 18.6626C35.0799 20.191 35.1425 21.7276 35.1425 23.2587C35.1425 25.6285 35.1425 25.6285 37.2095 27.0569C38.8626 26.2291 40.2706 25.2282 39.7368 23.0613C39.6115 22.5527 39.3828 21.9846 39.0178 21.6329C37.8359 20.4886 37.6752 19.0305 38.7183 17.9159C39.7014 16.8663 41.3517 16.8311 42.3757 17.8402C43.4977 18.9439 43.3725 20.4913 42.117 21.6437C41.8174 21.917 41.4253 22.3606 41.4634 22.6825C41.7602 25.1416 41.1911 27.1272 38.4105 28.1309C39.5543 29.1535 40.4775 29.9785 41.4035 30.8118C45.5893 25.3472 45.7363 14.4667 38.672 7.6766C38.5903 7.70907 38.4704 7.71989 38.4378 7.7794C37.1877 10.0653 35.3468 11.1258 32.6779 10.6497C32.362 10.5928 31.8745 10.9391 31.6131 11.2286C30.4692 12.4838 28.9033 12.6813 27.7868 11.6479C26.7546 10.6902 26.7274 9.00487 27.7296 8.00935C28.8489 6.8975 30.4692 7.07063 31.6321 8.42054C32.3238 9.224 35.118 9.25646 35.777 8.44759C36.289 7.81998 36.7547 7.15449 37.2368 6.51335C30.4801 -0.268666 16.4331 0.307549 10.1313 9.01299C10.262 9.05898 10.39 9.15366 10.5017 9.13472C13.2332 8.68025 15.4092 9.86784 17.5034 11.3936C18.4893 12.1105 19.5677 12.7002 20.6053 13.3495C21.5721 13.9554 22.3646 14.6994 23.7698 13.996C24.9109 13.4252 26.3761 14.6182 26.6484 15.9736C26.9153 17.2964 26.0302 18.622 24.6794 18.9304C23.3749 19.228 21.8662 18.3596 21.7164 17.0097C21.6157 16.1061 21.1826 15.6841 20.5018 15.2702C18.9931 14.3558 17.3645 13.5605 16.0491 12.4162C13.9549 10.5983 11.5366 10.8553 9.11279 10.8985C8.81594 10.9039 8.39382 11.1339 8.25493 11.3828C7.62856 12.5082 7.08117 13.6768 6.34587 15.1485C8.38565 15.1485 10.0823 15.2026 11.7735 15.1268C12.7348 15.0835 13.2822 15.4433 13.688 16.2711C14.2027 17.3235 14.8046 18.3352 15.3738 19.3578C15.8857 20.2749 16.2371 21.1784 17.6314 21.3245C18.9658 21.4625 19.6412 23.1181 19.2164 24.4247C18.7698 25.7963 17.3101 26.5104 15.9429 26.0262C14.6493 25.569 13.8351 24.0838 14.4396 22.8611C14.859 22.0116 14.6303 21.4462 14.2354 20.7726C13.481 19.4904 13.0535 17.6779 11.9369 17.0421C10.7659 16.3739 8.94121 16.8825 7.4107 16.7716C6.33225 16.6931 5.79031 17.0286 5.79848 18.1486C5.81209 20.1667 5.81482 22.1848 5.7658 24.2002C5.74946 24.8413 5.69499 25.5474 5.41176 26.0992C4.37417 28.1471 3.23581 30.1409 2.04571 32.3186C3.4101 32.8542 4.66284 33.4575 5.98094 33.8335C7.30721 34.2122 7.86549 34.9237 7.67214 36.2736C7.61767 36.6605 7.70209 37.0663 7.73205 37.6127C9.11006 37.6127 10.4145 37.656 11.7163 37.5802C12.0322 37.5613 12.3726 37.1961 12.6177 36.9202C13.7397 35.6568 15.322 35.5189 16.4386 36.6172C17.4816 37.6425 17.4707 39.2413 16.4141 40.2422C15.3029 41.2945 13.6907 41.1214 12.5878 39.8851C12.3291 39.5956 11.8988 39.3089 11.5311 39.2873C10.3165 39.2115 9.09372 39.2602 7.7266 39.2602C7.7266 40.3152 7.60405 41.3027 7.75656 42.2495C7.96353 43.5399 8.92488 44.1269 10.1994 44.1513C11.8334 44.181 13.4674 44.1864 15.1014 44.1486C16.0274 44.1269 16.4331 44.4975 16.4222 45.42C16.4005 47.1784 16.474 48.9395 16.3732 50.6925C16.3487 51.1199 15.8013 51.5176 15.4963 51.9288C15.2539 51.5149 14.8209 51.1091 14.7991 50.6817C14.7147 49.1154 14.7664 47.5436 14.7664 45.7879C13.2223 45.7879 11.7898 45.7987 10.3546 45.7852C7.59861 45.7609 5.95643 44.1648 5.89379 41.4217C5.85839 39.8445 5.84205 38.2647 5.89924 36.6875C5.92647 35.8949 5.6841 35.4729 4.90522 35.2105C3.57623 34.7614 2.30443 34.1527 0.978157 33.6982C-0.0730537 33.3384 -0.233731 32.8082 0.297321 31.8722C1.47653 29.7919 2.62578 27.6953 3.72329 25.5744C3.97111 25.0983 4.09094 24.4653 4.0283 23.9351C3.0479 15.6246 5.79848 8.83985 12.7893 4.14357C19.9762 -0.685272 27.7976 -1.56988 35.3767 2.95056C48.86 10.9905 49.6579 29.194 36.9372 38.1862C36.142 38.7489 35.8125 39.29 35.8315 40.2611C35.8914 43.686 35.886 47.1162 35.8206 50.541C35.8125 51.0307 35.3331 51.5122 35.0744 51.9991C34.7857 51.5311 34.252 51.0685 34.2438 50.5951C34.1757 46.8078 34.1621 43.0205 34.2492 39.2331C34.2629 38.6488 34.7231 37.8697 35.2188 37.5397C37.2749 36.1627 39.0314 34.5179 40.5456 32.4105ZM41.782 19.5959C41.251 19.2198 40.8452 18.7356 40.5974 18.8059C40.2352 18.906 39.9846 19.4065 39.6878 19.7338C40.0064 19.9962 40.3223 20.4588 40.6464 20.4642C40.9568 20.4697 41.2782 20.0044 41.782 19.5959ZM30.7007 9.70012C30.1806 9.31056 29.8456 8.86961 29.5433 8.89125C29.2329 8.9129 28.9523 9.38631 28.6609 9.66224C28.9632 9.97064 29.222 10.4441 29.5787 10.5333C29.8156 10.5928 30.1887 10.1005 30.7007 9.70012ZM25.4474 16.3117C24.9027 15.9411 24.5024 15.4704 24.2464 15.5407C23.8896 15.6381 23.6418 16.1332 23.3477 16.4605C23.6663 16.7121 23.9822 17.1584 24.3063 17.1639C24.6168 17.1693 24.9354 16.7175 25.4474 16.3117ZM34.3854 13.8337C34.0014 14.3585 33.5711 14.6886 33.5848 14.9997C33.6011 15.3189 34.0477 15.6192 34.3064 15.9276C34.6223 15.6165 35.0962 15.3513 35.1997 14.9834C35.2623 14.7454 34.7803 14.3612 34.3854 13.8337ZM15.864 38.4026C15.3356 38.0185 14.9925 37.5775 14.682 37.5965C14.3607 37.6181 14.0693 38.0888 13.7643 38.3648C14.0774 38.6732 14.3525 39.152 14.7147 39.2304C14.9707 39.2845 15.3465 38.7949 15.864 38.4026ZM16.6483 24.8413C17.0758 24.3327 17.5688 23.9838 17.5197 23.7403C17.4489 23.3832 16.9941 23.1018 16.7027 22.788C16.425 23.0667 15.9565 23.3237 15.9211 23.6294C15.8857 23.9296 16.2888 24.2813 16.6483 24.8413Z" fill="#D00053"/>
<path d="M19.6238 43.6651C18.5916 39.867 20.2774 36.0634 23.5154 32.809C25.3374 30.9776 24.4305 28.7349 24.5912 26.6573C24.6075 26.4355 24.1445 26.1677 23.8858 25.9404C22.712 24.9097 22.6086 23.292 23.6598 22.2316C24.6865 21.1955 26.3096 21.2117 27.3063 22.2667C28.3085 23.3272 28.1315 24.9314 27.0068 25.9972C26.6446 26.3381 26.266 26.9576 26.3232 27.3958C26.7453 30.5637 25.8357 33.2337 23.5454 35.452C21.5873 37.3484 21.0372 39.637 21.2387 42.3125C21.4375 44.9582 21.2905 47.631 21.2741 50.2902C21.2714 50.9368 21.4266 51.8431 20.4108 51.743C20.1031 51.7132 19.681 50.8529 19.6592 50.3552C19.572 48.4182 19.6238 46.4786 19.6238 43.6651ZM26.6446 24.0197C26.1462 23.6085 25.7785 23.0999 25.5471 23.1567C25.1848 23.246 24.918 23.714 24.6075 24.0197C24.8962 24.3011 25.1658 24.7799 25.479 24.8096C25.7785 24.8367 26.1217 24.3957 26.6446 24.0197Z" fill="#D00053"/>
<path d="M26.1294 46.5326C26.1294 46.4866 26.1349 46.4406 26.1294 46.3974C25.6556 43.4974 26.4454 41.1357 28.9536 39.3881C29.3702 39.0986 29.6017 38.3466 29.6562 37.7812C29.7651 36.6666 29.6671 35.5331 29.6943 34.4078C29.7215 33.2851 29.727 32.3004 28.6322 31.4618C27.6109 30.68 27.8043 28.9784 28.7466 28.0775C29.7188 27.1442 31.3256 27.1686 32.3142 28.1289C33.2837 29.0676 33.4389 30.661 32.3632 31.4915C31.361 32.2652 31.2847 33.139 31.3474 34.1859C31.3637 34.4565 31.312 34.7324 31.3555 34.9948C31.8348 37.9841 31.056 40.4431 28.4525 42.2421C28.0685 42.5072 27.8424 43.2268 27.8234 43.7435C27.7526 45.813 27.807 47.8852 27.7852 49.9574C27.7771 50.5959 27.965 51.4913 26.9301 51.4643C25.9007 51.4372 26.1567 50.531 26.1376 49.906C26.1022 48.7861 26.1294 47.658 26.1294 46.5326ZM31.7232 29.8468C31.1758 29.4707 30.7755 29.0027 30.5222 29.0703C30.1654 29.1677 29.9149 29.6628 29.6208 29.9874C29.9394 30.2417 30.2526 30.6881 30.5739 30.6935C30.8871 30.6989 31.2058 30.2525 31.7232 29.8468Z" fill="#D00053"/>
</g>
<defs>
<clipPath id="clip0_150_485">
<rect width="46" height="52" fill="white"/>
</clipPath>
</defs>
</svg>