<svg xmlns="http://www.w3.org/2000/svg" width="50" height="53" viewBox="0 0 50 53" fill="none">
<path d="M43.5507 44.1491C42.2582 41.9397 41.915 42.291 44.7774 41.0306C44.8139 40.9183 44.9015 40.7915 44.876 40.6973C43.9486 37.1659 43.945 37.1659 47.6398 37.0572C47.8187 37.0536 47.994 37.0029 48.4211 36.934C47.3879 34.1922 46.4204 31.501 45.3506 28.8497C44.8687 27.6544 44.8979 26.6294 45.3835 25.4051C45.8727 24.1736 45.891 22.7611 46.1465 21.2326C44.719 21.2326 43.6127 21.2326 42.3057 21.2326C42.8205 23.9781 41.3162 26.1114 40.0968 28.2883C39.7499 28.9113 38.7568 29.5198 38.0412 29.5379C33.9083 29.6574 29.768 29.5379 25.635 29.6429C24.7843 29.6646 23.8643 30.179 23.1304 30.6897C22.298 31.2728 21.7211 32.2073 20.896 32.8049C18.4425 34.5725 17.5589 36.8725 17.9678 39.828C18.1248 40.9617 18.0299 41.9433 19.1836 42.78C20.5017 43.7362 20.3447 45.6595 19.1544 46.7715C18.0482 47.8074 16.2701 47.7712 15.2004 46.6918C14.1306 45.6124 13.9517 43.6602 15.1894 42.8271C16.533 41.9252 16.5841 40.7915 16.3942 39.5709C15.8831 36.2821 16.9017 33.6923 19.6546 31.7799C19.8992 31.6097 20.0891 31.3597 20.3045 31.146C22.13 29.3459 23.6854 27.0169 26.9603 28.1724C27.1539 25.4776 27.665 23.0689 24.9158 21.5767C24.5105 21.3557 24.233 20.577 24.2075 20.0445C24.1198 18.2987 24.1965 16.5457 24.1673 14.7962C24.149 13.8038 24.5835 13.2858 25.5803 13.3909C27.4861 13.5901 29.6073 12.652 31.2175 14.5535C31.4584 14.8397 32.342 14.5753 32.9298 14.5934C34.4413 14.6441 35.7155 15.9372 35.7155 17.4041C35.7192 18.9072 34.4851 20.1423 32.9371 20.193C31.3525 20.2437 30.1185 19.1608 29.998 17.6069C29.7899 14.923 29.7899 14.923 27.121 14.9556C26.818 14.9592 26.5149 14.9846 25.9636 15.0135C26.1279 17.5091 24.8683 20.1749 27.8512 22.0801C29.5307 23.1522 28.5266 25.0973 28.669 26.6439C28.7676 27.6906 28.9246 28.2991 30.3595 27.7884C30.3595 26.8539 30.4544 25.8362 30.3376 24.8437C30.1331 23.1051 30.9144 22.6053 32.5391 22.7212C34.047 22.8263 35.5658 22.7429 37.3475 22.7429C37.3475 20.3452 37.3987 18.0742 37.3001 15.8104C37.2818 15.4083 36.6867 15.0027 36.3143 14.6477C35.1204 13.514 35.0145 11.7537 36.0989 10.5983C37.1869 9.43562 39.1694 9.269 40.126 10.5584C41.0278 11.7754 42.0391 11.8153 43.2732 11.6233C41.9479 5.76288 31.5935 0.945587 22.6485 2.10101C22.6156 4.70525 21.754 7.46524 24.6164 9.38491C25.5803 10.0296 28.8771 10.5729 29.7461 9.84491C30.1514 9.50444 30.4434 8.77279 30.4215 8.2331C30.3376 6.2917 31.3343 4.91533 33.0795 4.81029C34.7298 4.70887 36.1792 6.10335 36.1135 7.72602C36.0441 9.43924 34.664 10.5005 32.6998 10.3918C32.3018 10.3701 31.7176 10.3049 31.5278 10.5222C29.6475 12.6737 27.1867 11.5473 25.007 11.5907C23.5612 11.6197 20.9471 7.89626 20.9434 6.35689C20.9398 4.78856 20.8777 3.21298 20.9909 1.65188C21.0238 1.20275 21.5057 0.496455 21.8964 0.405904C29.8155 -1.42322 40.3779 3.12967 44.5949 10.0405C47.3404 14.5427 48.297 19.5809 47.293 24.4924C46.6942 27.4226 47.4755 29.5668 48.3116 31.9864C48.7643 33.2975 49.312 34.5725 49.7538 35.8837C50.3927 37.7744 49.8049 38.5966 47.8005 38.7125C47.2674 38.7451 46.738 38.7813 46.194 38.8175C46.7417 41.965 46.7417 41.965 44.8541 43.0335C45.8435 44.1781 46.2232 45.2538 44.5876 46.2571C44.248 46.4672 44.2444 47.3365 44.2225 47.9088C44.1056 50.8897 42.229 52.7297 39.2716 52.324C33.7367 51.5598 28.7311 49.5025 24.62 45.6269C22.517 43.642 21.5422 41.1718 21.8197 38.2851C21.8635 37.8468 22.2688 37.4411 22.5061 37.021C22.8018 37.452 23.3823 37.9011 23.3531 38.3104C23.0975 42.1389 25.1677 44.7468 28.209 46.3984C31.3708 48.1152 34.7809 49.4771 38.2201 50.5637C41.2615 51.5272 42.4663 50.3355 42.6416 47.1771C42.689 46.2463 43.1746 45.3444 43.5507 44.1491ZM46.0261 19.4397C45.5843 17.5381 45.2922 15.8901 44.7811 14.3109C44.6387 13.869 43.8756 13.3872 43.3608 13.3402C40.5605 13.0758 38.9869 14.5608 38.9832 17.3172C38.9832 19.0666 38.9321 20.816 38.9978 22.5655C39.0489 23.8694 38.5999 24.4381 37.2125 24.3584C35.5366 24.2642 33.8535 24.3366 32.1777 24.3366C32.1777 25.6877 32.1777 26.7887 32.1777 28.0021C33.1671 28.0021 34.0105 28.0021 34.8539 28.0021C38.87 28.0021 38.9321 28.0239 40.3012 24.3475C40.6627 23.3768 40.6079 22.2178 40.586 21.1493C40.5568 19.9105 41.0241 19.3672 42.2947 19.4324C43.4229 19.4831 44.562 19.4397 46.0261 19.4397Z" fill="#D00053"/>
<path d="M7.38328 14.8905C7.38328 12.2645 7.37233 9.85587 7.38693 7.45085C7.40154 5.42251 7.69362 5.24866 9.42056 6.19763C10.5341 6.80975 11.6075 7.51242 12.7503 8.05935C14.0464 8.67871 14.9884 9.39588 14.7657 11.0511C14.7182 11.4133 15.2476 11.9241 15.6127 12.2537C17.0804 13.5829 17.2411 15.2382 15.9669 16.5204C14.8314 17.6613 13.0168 17.6541 11.8887 16.5023C10.6875 15.278 10.8664 13.4888 12.3231 12.2319C13.5645 11.1598 13.4988 10.3666 12.0676 9.52265C11.1913 9.0047 10.2895 8.53383 9.17959 7.91809C9.10657 8.62801 9.00799 9.12785 9.00799 9.62769C8.99704 14.5102 8.97879 19.3963 9.02625 24.2788C9.03355 24.9561 9.14673 25.8725 9.58486 26.26C11.3228 27.7922 11.5637 29.6792 11.4651 31.809C11.3775 33.7069 11.0088 35.6411 13.0095 37.1442C14.0939 37.9592 13.5535 39.9368 12.4071 40.8133C11.2315 41.7116 9.60676 41.5957 8.59908 40.5344C7.54028 39.4225 7.39424 37.5137 8.65019 36.677C9.93901 35.8186 9.85138 34.7754 9.86599 33.5838C9.8952 31.0665 10.2201 28.5093 7.8068 26.6657C7.44535 26.3904 7.41979 25.561 7.40154 24.9851C7.35042 23.2393 7.23724 21.4717 7.41979 19.744C7.62425 17.8207 6.97437 16.4806 5.30949 15.5895C2.95092 14.3255 2.13674 12.4239 2.45073 9.78343C2.66979 7.95793 2.83044 6.1107 0.950156 4.62567C-0.221827 3.69843 0.263761 2.16269 1.31891 1.09419C2.29374 0.105377 4.1156 0.0764005 5.1379 1.03624C6.25511 2.083 6.66768 3.70205 5.58697 4.57496C3.72129 6.08172 4.2726 7.92533 4.00972 9.74359C3.63002 12.3768 4.9955 13.7314 7.38328 14.8905Z" fill="#D00053"/>
<path d="M15.0006 30.9613C16.8773 29.1285 18.7868 27.3211 20.605 25.434C20.9117 25.1153 20.9226 24.4344 20.9263 23.92C20.9555 20.9645 20.8861 18.0053 20.9664 15.0497C20.9993 13.8073 20.7656 12.7859 19.7178 12.0506C17.9434 10.8119 17.3811 9.12405 17.6257 7.0269C17.7572 5.89683 17.5783 4.72691 17.6915 3.59322C17.7353 3.17668 18.2209 2.80361 18.502 2.40881C18.7685 2.82172 19.1482 3.20566 19.2687 3.65479C19.4038 4.16187 19.3636 4.7414 19.2943 5.27384C18.9474 7.93965 19.4549 10.2288 21.8171 11.9311C22.2845 12.268 22.5145 13.1843 22.5254 13.8399C22.5912 17.4583 22.6021 21.084 22.5181 24.7024C22.4999 25.3942 22.1275 26.2273 21.6419 26.7343C19.5133 28.9728 17.2971 31.1279 15.0773 33.2757C14.7232 33.6162 14.1755 33.7611 13.7191 33.9965C13.5293 33.4822 13.2043 32.9715 13.1788 32.4463C13.1021 31.0011 13.1605 29.5487 13.1496 28.1035C13.1386 26.7597 13.3686 25.4666 11.8462 24.4851C10.6888 23.7389 10.9005 21.7794 11.8936 20.758C12.883 19.7366 14.6319 19.6134 15.7126 20.49C16.9613 21.5005 17.4103 23.3948 16.1982 24.3003C13.6498 26.2092 15.154 28.6468 15.0006 30.9613Z" fill="#D00053"/>
<path d="M2.88566 18.469C3.94081 19.4469 5.13835 20.0554 5.39028 20.932C5.64585 21.823 5.25884 23.2175 4.63451 23.9709C3.29093 25.5863 3.19235 29.3206 4.7623 30.8165C5.94888 31.9466 6 33.7069 4.88278 34.8587C3.78382 35.9887 1.91814 35.9851 0.808224 34.8514C-0.316295 33.7032 -0.26153 31.9647 0.936011 30.8165C2.60453 29.2156 2.44754 25.6913 0.950615 23.8658C0.351845 23.1342 0.0999232 21.7107 0.3701 20.8052C0.61837 19.9794 1.79035 19.4288 2.88566 18.469Z" fill="#D00053"/>
</svg>