<svg width="71" height="71" viewBox="0 0 71 71" fill="none" xmlns="http://www.w3.org/2000/svg">
<g clip-path="url(#clip0_32_108)">
<path d="M0.00540962 35.3519C0.00540962 26.1619 0.00263673 16.9719 0.00540962 7.77912C0.00818252 2.92769 2.91695 0.00850947 7.74734 0.00573723C16.8036 0.000192735 25.8571 -0.00257951 34.9106 0.00573723C40.2041 0.0112817 43.6536 4.26114 42.5472 9.48682C42.4557 9.91929 41.7957 10.2353 41.3992 10.604C41.0082 10.1799 40.3954 9.81117 40.2762 9.31771C40.0821 8.53317 40.2485 7.66545 40.2041 6.83655C40.0849 4.60212 38.4156 2.79462 36.2777 2.45086C35.4292 2.31502 34.9106 2.49244 34.5446 3.34352C33.9817 4.65479 33.2802 5.90785 32.6479 7.18863C31.9048 8.6995 30.7346 9.47019 29.0127 9.46187C23.8856 9.43692 18.7585 9.43692 13.6286 9.46187C11.9178 9.47019 10.7227 8.75218 9.97674 7.22467C9.30848 5.85795 8.67071 4.46905 7.90539 3.15778C7.69188 2.79185 7.07075 2.45363 6.64372 2.46195C4.60842 2.50908 2.79494 4.20292 2.48715 6.25161C2.39287 6.88645 2.3901 7.5407 2.3901 8.18664C2.38733 26.3837 2.38733 44.5807 2.38733 62.7777C2.38733 66.9222 4.04275 68.5939 8.15218 68.5967C16.9284 68.5994 25.7074 68.5994 34.4836 68.5967C38.1882 68.5967 39.4582 67.5072 40.2762 63.8728C40.3788 63.4153 41.0997 63.0938 41.5351 62.7112C41.8845 63.2268 42.5333 63.7397 42.5333 64.2553C42.5333 67.7622 39.4859 70.9115 35.8784 70.942C26.1788 71.0224 16.4764 71.0224 6.77682 70.9448C2.95577 70.9143 0.022047 67.7012 0.0109554 63.7563C-0.0112278 54.2863 0.00540962 44.8191 0.00540962 35.3519ZM32.3429 2.48413C24.8922 2.48413 17.6826 2.48413 10.2679 2.48413C10.9778 3.90074 11.549 5.20924 12.2866 6.41517C12.5167 6.78942 13.1961 7.08051 13.6702 7.08605C18.753 7.13318 23.8357 7.13318 28.9184 7.08605C29.3953 7.08051 30.0775 6.79497 30.3076 6.41794C31.048 5.22033 31.6192 3.91738 32.3429 2.48413Z" fill="black"/>
<path d="M47.3999 13.0241C52.7571 13.0241 58.1144 13.013 63.4716 13.0268C68.0303 13.0379 70.9889 16.0125 70.9917 20.5923C71 31.3042 71 42.0162 70.9917 52.7282C70.9889 57.3135 68.0719 60.3241 63.4966 60.3408C52.735 60.3796 41.9761 60.3768 31.2145 60.3435C26.6309 60.3297 23.6944 57.3467 23.6445 52.7808C23.6223 50.8874 23.5807 48.9912 23.6639 47.1033C23.711 46.0498 23.4033 45.4621 22.4189 44.9631C18.6782 43.0613 15.0014 41.0348 11.2857 39.0804C10.2902 38.5564 9.47222 37.9133 9.46945 36.6907C9.4639 35.4737 10.2542 34.8195 11.2607 34.29C15.0568 32.2967 18.8252 30.2452 22.6296 28.2631C23.3866 27.8694 23.6833 27.4092 23.6584 26.5498C23.5974 24.5206 23.614 22.4857 23.6445 20.4564C23.711 15.9765 26.6947 13.0379 31.1868 13.0268C36.5939 13.013 41.9983 13.0213 47.3999 13.0241ZM11.8514 36.6769C16.3518 39.0749 20.5777 41.3453 24.8285 43.5714C25.7159 44.0372 26.0957 44.636 26.0708 45.6506C26.0153 48.0514 26.0431 50.4549 26.0569 52.8585C26.0736 56.041 27.9674 57.9483 31.148 57.9511C41.9151 57.9622 52.6823 57.9594 63.4494 57.9511C66.6632 57.9483 68.5932 56.1075 68.6015 52.9194C68.6292 42.1077 68.6264 31.2987 68.6042 20.4869C68.5959 17.2684 66.7325 15.4415 63.5049 15.3888C61.611 15.3583 59.7171 15.3805 57.8205 15.3805C48.9943 15.3805 40.1682 15.3694 31.3421 15.386C27.9259 15.3943 26.0708 17.2434 26.0569 20.5757C26.0458 22.9321 26.0098 25.2885 26.0736 27.6449C26.1041 28.7233 25.6937 29.3526 24.7453 29.8155C23.2535 30.5447 21.8061 31.368 20.342 32.1498C17.5829 33.6218 14.8211 35.0939 11.8514 36.6769Z" fill="black"/>
<path d="M21.2515 66.2539C18.2956 66.2539 15.3424 66.2428 12.3865 66.2595C11.5158 66.265 10.7228 66.0987 10.7006 65.0785C10.6812 64.0417 11.4909 63.8559 12.3505 63.8559C18.3067 63.8559 24.2628 63.8531 30.2162 63.8587C31.0481 63.8587 31.8938 63.9779 31.8911 65.0452C31.8883 66.2012 30.9982 66.2595 30.1136 66.2595C27.1605 66.2511 24.2074 66.2539 21.2515 66.2539Z" fill="black"/>
<path d="M11.8513 36.677C14.8211 35.094 17.5829 33.6219 20.342 32.1499C21.8088 31.3681 23.2535 30.5448 24.7453 29.8157C25.6909 29.3527 26.1013 28.7234 26.0735 27.645C26.007 25.2913 26.0458 22.9322 26.0569 20.5758C26.0708 17.2435 27.9258 15.3944 31.342 15.3861C40.1682 15.3667 48.9943 15.3806 57.8204 15.3806C59.7143 15.3806 61.611 15.3556 63.5049 15.3889C66.7325 15.4443 68.5959 17.2712 68.6042 20.487C68.6292 31.2988 68.6319 42.1078 68.6014 52.9196C68.5931 56.1049 66.6632 57.9484 63.4494 57.9512C52.6822 57.9595 41.9151 57.9595 31.1479 57.9512C27.9674 57.9484 26.0763 56.0411 26.0569 52.8586C26.043 50.455 26.0153 48.0543 26.0708 45.6507C26.0957 44.6361 25.7158 44.0373 24.8285 43.5715C20.5804 41.3454 16.3545 39.075 11.8513 36.677ZM40.2208 37.8607C39.1117 37.8607 38.1523 37.8773 37.1928 37.8552C35.9894 37.8274 34.9634 38.1546 34.5004 39.366C34.0706 40.4888 34.5031 41.4036 35.3322 42.2242C38.6791 45.5371 41.9927 48.8832 45.3341 52.2015C46.7372 53.596 47.9101 53.6209 49.2827 52.2625C52.6601 48.9164 56.0069 45.5371 59.3788 42.1826C60.2051 41.3593 60.6016 40.4278 60.1413 39.3078C59.6727 38.174 58.7022 37.8385 57.5487 37.8552C56.5477 37.8718 55.5439 37.8579 54.4098 37.8579C54.4098 37.1704 54.4098 36.6742 54.4098 36.1752C54.4098 31.881 54.4125 27.5895 54.4098 23.2953C54.407 20.8059 53.711 20.1211 51.1793 20.1128C48.595 20.1072 46.0079 20.1045 43.4235 20.1128C40.9418 20.1211 40.2264 20.8502 40.2236 23.348C40.2208 28.1052 40.2208 32.8568 40.2208 37.8607Z" fill="#D00053"/>
<path d="M40.2209 37.8607C40.2209 32.8568 40.2181 28.1051 40.2209 23.3535C40.2236 20.8557 40.939 20.1266 43.4208 20.1183C46.0051 20.11 48.5922 20.11 51.1766 20.1183C53.7082 20.1238 54.4042 20.8114 54.407 23.3008C54.4125 27.595 54.407 31.8865 54.407 36.1807C54.407 36.6769 54.407 37.1759 54.407 37.8635C55.5411 37.8635 56.5421 37.8745 57.5459 37.8607C58.6994 37.844 59.6699 38.1767 60.1386 39.3133C60.5989 40.4333 60.2051 41.3648 59.376 42.1882C56.0042 45.5426 52.6573 48.9192 49.2799 52.268C47.9073 53.6264 46.7316 53.6015 45.3313 52.2071C41.99 48.8887 38.6764 45.5426 35.3295 42.2297C34.5004 41.4092 34.0678 40.4943 34.4976 39.3716C34.9607 38.1601 35.9866 37.8357 37.1901 37.8607C38.1523 37.8773 39.1145 37.8607 40.2209 37.8607ZM42.697 22.5385C42.6665 22.9488 42.6277 23.226 42.6277 23.5004C42.6222 28.4434 42.6333 33.3863 42.6194 38.3292C42.6139 39.8927 42.2894 40.2032 40.7616 40.2143C39.5332 40.2254 38.3048 40.2171 37.154 40.2171C40.6229 43.6824 44.0613 47.1172 47.3333 50.3857C50.6248 47.095 54.0631 43.6574 57.5043 40.2171C56.3952 40.2171 55.164 40.2254 53.9328 40.2143C52.3218 40.2005 52.0916 39.9814 52.0888 38.3541C52.0805 33.597 52.0861 28.837 52.0861 24.0798C52.0861 23.5864 52.0861 23.0957 52.0861 22.5412C48.8806 22.5385 45.8498 22.5385 42.697 22.5385Z" fill="black"/>
<path d="M42.6971 22.5386C45.8499 22.5386 48.8806 22.5386 52.0833 22.5386C52.0833 23.093 52.0833 23.5865 52.0833 24.0772C52.0833 28.8343 52.0778 33.5943 52.0861 38.3515C52.0889 39.9788 52.319 40.2006 53.9301 40.2116C55.1612 40.22 56.3924 40.2144 57.5016 40.2144C54.0632 43.6548 50.622 47.0924 47.3306 50.383C44.0586 47.1145 40.6202 43.6797 37.1513 40.2144C38.2993 40.2144 39.5304 40.2227 40.7588 40.2116C42.2867 40.1978 42.6111 39.8873 42.6167 38.3265C42.6305 33.3836 42.6222 28.4407 42.625 23.4978C42.6277 23.2233 42.6666 22.9489 42.6971 22.5386Z" fill="white"/>
</g>
<defs>
<clipPath id="clip0_32_108">
<rect width="71" height="71" fill="white"/>
</clipPath>
</defs>
</svg>
