<svg width="75" height="76" viewBox="0 0 75 76" fill="none" xmlns="http://www.w3.org/2000/svg">
<g clip-path="url(#clip0_105_191)">
<path d="M3.58252 58.6358C4.05744 59.0828 4.80421 59.0622 5.25379 58.5897L21.0804 41.9582C21.2248 41.8064 21.4261 41.722 21.6355 41.7253L31.2146 41.8764C31.8274 41.8861 32.3568 41.4501 32.4648 40.8469L36.191 20.0341C36.3114 19.3617 37.1948 19.1872 37.5618 19.7633L43.648 29.3158C44.0981 30.0221 45.1018 30.0947 45.6488 29.4605L53.139 20.7763C53.1772 20.732 53.2204 20.6924 53.2678 20.6582L70.6855 8.07938C71.2175 7.69521 71.3355 6.95163 70.9485 6.42165C70.5644 5.89552 69.8274 5.77858 69.2993 6.15998L51.7841 18.8097C51.7059 18.8662 51.6345 18.9315 51.5714 19.0043L45.4982 26.0109C45.1696 26.39 44.5686 26.3458 44.299 25.9227L36.9823 14.4409C36.3705 13.4808 34.8983 13.7717 34.6977 14.8923L30.4051 38.87C30.3403 39.232 30.0226 39.4936 29.655 39.4878L20.8473 39.3479C20.4981 39.3424 20.1626 39.4831 19.9219 39.7361L3.5362 56.9553C3.08309 57.4314 3.10387 58.1853 3.58252 58.6358Z" fill="#D00053" stroke="white" stroke-width="0.5"/>
<path d="M71.626 14.5876C72.2818 14.5876 72.8134 14.0559 72.8134 13.4001V5.09656C72.8134 4.4062 72.2538 3.84656 71.5634 3.84656H63.1941C62.5414 3.84656 62.0122 4.37571 62.0122 5.02846C62.0122 5.68121 62.5414 6.21037 63.1941 6.21037H69.6885C70.1027 6.21037 70.4385 6.54615 70.4385 6.96037V13.4001C70.4385 14.0559 70.9701 14.5876 71.626 14.5876Z" fill="#D00053" stroke="white" stroke-width="0.5"/>
<path d="M70.3181 67.2316H4.68191C4.08439 67.2316 3.6 67.716 3.6 68.3135C3.6 68.911 4.08439 69.3954 4.68191 69.3954H70.3181C70.9156 69.3954 71.4 68.911 71.4 68.3135C71.4 67.716 70.9156 67.2316 70.3181 67.2316Z" fill="#D00053" stroke="white" stroke-width="0.3"/>
<path d="M33.3347 62.2343H19.1248C18.5273 62.2343 18.0429 62.7187 18.0429 63.3162C18.0429 63.9137 18.5273 64.3981 19.1248 64.3981H33.3347C33.9322 64.3981 34.4166 63.9137 34.4166 63.3162C34.4166 62.7187 33.9322 62.2343 33.3347 62.2343Z" fill="#D00053" stroke="white" stroke-width="0.3"/>
<path d="M51.8205 62.234H37.6219C37.0243 62.234 36.5399 62.7184 36.5399 63.3159C36.5399 63.9135 37.0243 64.3979 37.6219 64.3979H51.8205C52.4181 64.3979 52.9024 63.9135 52.9024 63.3159C52.9024 62.7184 52.4181 62.234 51.8205 62.234Z" fill="#D00053" stroke="white" stroke-width="0.3"/>
<path d="M51.8205 57.2317H37.6219C37.0243 57.2317 36.5399 57.7161 36.5399 58.3136C36.5399 58.9111 37.0243 59.3955 37.6219 59.3955H51.8205C52.4181 59.3955 52.9024 58.9111 52.9024 58.3136C52.9024 57.7161 52.4181 57.2317 51.8205 57.2317Z" fill="#D00053" stroke="white" stroke-width="0.3"/>
<path d="M70.3181 62.2339H56.1082C55.5107 62.2339 55.0263 62.7183 55.0263 63.3158C55.0263 63.9133 55.5107 64.3977 56.1082 64.3977H70.3181C70.9156 64.3977 71.4 63.9133 71.4 63.3158C71.4 62.7183 70.9156 62.2339 70.3181 62.2339Z" fill="#D00053" stroke="white" stroke-width="0.3" stroke-linecap="round" stroke-linejoin="round"/>
<path d="M70.3181 57.2315H56.1082C55.5107 57.2315 55.0263 57.7159 55.0263 58.3134C55.0263 58.9109 55.5107 59.3953 56.1082 59.3953H70.3181C70.9156 59.3953 71.4 58.9109 71.4 58.3134C71.4 57.7159 70.9156 57.2315 70.3181 57.2315Z" fill="#D00053" stroke="white" stroke-width="0.3" stroke-linecap="round" stroke-linejoin="round"/>
<path d="M70.3181 52.2263H56.1082C55.5107 52.2263 55.0263 52.7107 55.0263 53.3083C55.0263 53.9058 55.5107 54.3902 56.1082 54.3902H70.3181C70.9156 54.3902 71.4 53.9058 71.4 53.3083C71.4 52.7107 70.9156 52.2263 70.3181 52.2263Z" fill="#D00053" stroke="white" stroke-width="0.3" stroke-linecap="round" stroke-linejoin="round"/>
<path d="M70.3181 47.2302H56.1082C55.5107 47.2302 55.0263 47.7146 55.0263 48.3121C55.0263 48.9097 55.5107 49.394 56.1082 49.394H70.3181C70.9156 49.394 71.4 48.9097 71.4 48.3121C71.4 47.7146 70.9156 47.2302 70.3181 47.2302Z" fill="#D00053" stroke="white" stroke-width="0.3" stroke-linecap="round" stroke-linejoin="round"/>
</g>
<defs>
<clipPath id="clip0_105_191">
<rect width="75" height="76" fill="white"/>
</clipPath>
</defs>
</svg>
