<svg xmlns="http://www.w3.org/2000/svg" width="89" height="104" viewBox="0 0 89 104" fill="none">
<path d="M36.3623 41.7042C35.5766 45.5557 34.7883 49.4045 34.0103 53.2585C33.6289 55.1508 33.2988 57.0507 32.8944 58.9378C32.4951 60.7915 30.9954 61.829 29.36 61.4505C27.7501 61.0772 26.8518 59.5815 27.2101 57.7742C28.9812 48.8639 30.7599 39.9562 32.5463 31.0484C32.943 29.0712 33.9053 28.2834 35.9323 28.2809C41.4349 28.268 46.9374 28.2654 52.44 28.2731C54.2418 28.2757 55.245 29.0429 55.6059 30.8142C56.8932 37.1551 58.1319 43.5064 59.3988 49.8499C59.9184 52.4553 60.4737 55.0529 61.0009 57.6583C61.3848 59.5506 60.5275 61.0618 58.8665 61.4531C57.1952 61.8444 55.698 60.7606 55.3039 58.8117C54.252 53.6061 53.2231 48.3927 52.1815 43.1846C52.0919 42.7392 51.9742 42.2964 51.6466 41.8844C51.6466 42.5075 51.662 43.1331 51.644 43.7561C51.2601 57.4627 52.4861 71.1023 53.3383 84.7573C53.6198 89.2524 53.9346 93.7474 54.2008 98.2425C54.3595 100.91 52.7829 102.856 50.436 102.98C47.9868 103.111 46.2541 101.368 46.0801 98.6338C45.4914 89.3863 44.8951 80.1413 44.3013 70.8937C44.2757 70.4818 44.2245 70.0725 44.0147 69.6606C43.7664 73.4193 43.5131 77.1781 43.275 80.9368C42.8963 86.8864 42.5328 92.8387 42.1464 98.7883C42.0082 100.905 40.9358 102.328 39.1699 102.838C37.5856 103.296 35.7224 102.789 34.8804 101.345C34.3558 100.444 34.0282 99.2491 34.0819 98.2116C34.453 91.1009 34.8983 83.9927 35.4153 76.8897C36.242 65.5491 36.846 54.2034 36.5875 42.8241C36.5798 42.456 36.5491 42.0904 36.5312 41.7223C36.4723 41.7145 36.4186 41.7094 36.3623 41.7042Z" fill="#D00053"/>
<path d="M16.847 57.8308C16.5143 62.9618 16.1816 68.0953 15.8463 73.2262C15.5392 77.935 15.2782 82.6463 14.8917 87.3473C14.7049 89.6308 12.8954 91.1086 10.7277 91.0133C8.43962 90.9129 6.75303 89.0593 6.88355 86.6058C7.13948 81.8096 7.47476 77.0159 7.78188 72.2222C8.6674 58.4435 9.8319 44.6752 9.43776 30.8451C9.42752 30.5078 9.43776 30.168 9.19719 29.7947C8.68532 32.3357 8.16833 34.8741 7.65903 37.4177C7.02687 40.5689 6.41775 43.7252 5.76768 46.8738C5.36331 48.8356 3.91985 49.8473 2.1795 49.4509C0.538973 49.0801 -0.292809 47.5792 0.0936494 45.6406C1.85447 36.8127 3.62041 27.9874 5.3889 19.1595C5.80607 17.0767 6.74023 16.2812 8.82096 16.276C14.2365 16.2632 19.6546 16.2658 25.0701 16.276C27.1483 16.2812 28.1004 17.0484 28.5278 19.1312C29.3801 23.2889 30.1939 27.4519 31.018 31.6148C31.0743 31.9057 31.1562 32.2198 31.0999 32.5005C30.1914 37.1191 29.2598 41.7351 28.0774 46.3744C26.9666 40.8572 25.8559 35.3401 24.7451 29.8256C24.6888 29.8281 24.6351 29.8281 24.5788 29.8307C24.5557 29.9723 24.5122 30.1165 24.5097 30.2581C24.4534 39.1375 24.4585 48.0117 25.1316 56.8783C25.8789 66.7154 26.4394 76.5653 27.0562 86.4102C27.2149 88.9512 25.5795 90.8846 23.2761 91.0133C20.8908 91.1446 19.1069 89.412 18.938 86.7783C18.3442 77.5333 17.753 68.2858 17.1618 59.0408C17.1337 58.616 17.1004 58.1938 17.0697 57.769C16.9955 57.7922 16.9212 57.8102 16.847 57.8308Z" fill="black"/>
<path d="M78.3528 29.877C78.5653 37.5876 78.6471 45.3059 79.0259 53.0088C79.5045 62.7326 80.2263 72.4436 80.8405 82.1623C80.9352 83.6606 81.0683 85.159 81.1118 86.6573C81.1835 89.0516 79.5787 90.8717 77.3393 91.0134C75.1306 91.1524 73.27 89.6489 73.0908 87.2984C72.6276 81.2689 72.2795 75.2318 71.8854 69.1972C71.6371 65.3946 71.3863 61.5921 70.9205 57.7896C70.7516 60.2302 70.5725 62.6734 70.4163 65.114C69.9582 72.3046 69.5078 79.4977 69.0599 86.6908C68.891 89.394 67.0918 91.1781 64.6809 91.0185C62.3391 90.864 60.7702 88.9048 60.9417 86.2505C61.6865 74.6499 62.5618 63.057 63.1606 51.4487C63.5317 44.2633 63.4908 37.0573 63.6341 29.859C63.5087 29.8462 63.3807 29.8333 63.2553 29.8204C62.183 35.129 61.1081 40.435 60.0357 45.7436C59.9589 45.7462 59.8821 45.7513 59.8054 45.7539C59.3652 43.5965 58.9224 41.4365 58.4822 39.2791C58.3542 38.6483 58.3082 37.9893 58.0855 37.392C56.1711 32.2276 57.8756 27.2536 58.8379 22.2385C59.0632 21.0594 59.2884 19.8803 59.5622 18.7115C59.9231 17.1771 60.9008 16.3018 62.4543 16.2915C68.1693 16.258 73.8842 16.2529 79.5992 16.2941C81.2909 16.3069 82.22 17.2466 82.586 19.0797C84.1472 26.8546 85.6981 34.6321 87.2516 42.4071C87.4794 43.5424 87.7251 44.6726 87.935 45.8131C88.2702 47.6307 87.3719 49.1265 85.7672 49.4637C84.0601 49.8216 82.6295 48.8433 82.2456 46.9562C81.1655 41.6656 80.1213 36.3648 79.0618 31.069C78.9799 30.6571 78.8724 30.2529 78.7751 29.8436C78.6318 29.8539 78.491 29.8668 78.3528 29.877Z" fill="black"/>
<path d="M51.0039 18.9303C50.9937 22.7946 47.9481 25.8376 44.0886 25.8427C40.2803 25.8479 37.1861 22.7173 37.2091 18.8839C37.2321 15.0325 40.3443 11.9251 44.1398 11.9688C48.0095 12.01 51.0167 15.0608 51.0039 18.9303Z" fill="#D00053"/>
<path d="M17.0207 0.000131C20.852 0.0233014 23.9053 3.14873 23.8592 6.99501C23.8106 10.8773 20.742 13.9229 16.9132 13.8869C13.0947 13.8509 10.0082 10.6997 10.0542 6.88688C10.0977 3.0303 13.1894 -0.0230394 17.0207 0.000131Z" fill="black"/>
<path d="M71.0076 0.000136532C74.8363 -0.00758692 77.9229 3.07922 77.9357 6.9255C77.9485 10.7563 74.8671 13.8689 71.0409 13.8869C67.2172 13.9075 64.1588 10.8413 64.1281 6.95897C64.1 3.11784 67.1737 0.00785999 71.0076 0.000136532Z" fill="black"/>
</svg>