<svg width="72" height="80" viewBox="0 0 72 80" fill="none" xmlns="http://www.w3.org/2000/svg">
<g clip-path="url(#clip0_1_62)">
<path d="M29.6608 18.8915C26.1126 20.918 22.7155 22.8571 19.3184 24.7994C17.549 25.8111 15.7985 26.8634 14.0039 27.8314C11.4538 29.2084 8.94767 28.5589 7.27904 26.1608C5.97246 24.2841 6.43842 21.8766 8.53209 20.078C9.52067 19.2287 10.6132 18.498 11.6647 17.7236C17.4325 13.4738 23.2192 9.25213 28.9618 4.96797C30.9327 3.50037 33.061 2.79779 35.5293 2.81653C42.3424 2.86961 49.1555 2.83527 55.9465 2.83527C56.4943 0.299746 56.8658 0.00622539 59.4349 0.00622539C62.7407 0.00622539 66.0433 -0.00626485 69.3491 0.00934795C71.3042 0.0187156 71.9843 0.683821 71.9874 2.64791C72.0032 9.04916 72.0032 15.4504 71.9843 21.8517C71.978 23.7189 71.2916 24.3841 69.4184 24.3934C66.0087 24.4122 62.599 24.3466 59.1893 24.4215C57.5931 24.4559 56.4093 24.078 56.0284 22.2951C53.9662 23.7658 51.7529 24.1436 49.379 24.0999C45.3932 24.025 41.401 23.9594 37.4215 24.1124C33.5238 24.2654 30.5518 23.2755 29.6608 18.8915ZM56.148 5.33956C49.1082 5.33956 42.2952 5.36766 35.4853 5.32082C33.6151 5.30833 32.0189 5.82668 30.5266 6.93519C24.0189 11.7627 17.4797 16.5496 10.9595 21.3583C10.4998 21.6987 9.95515 22.0453 9.71272 22.5199C9.40733 23.1132 9.03897 24.0374 9.29714 24.4652C9.69698 25.1303 10.5407 25.6924 11.3121 25.9235C11.8442 26.0796 12.6281 25.708 13.1948 25.3895C18.7926 22.2232 24.3715 19.0257 29.9473 15.8189C30.344 15.5909 30.7281 15.2912 31.0272 14.9477C32.2834 13.5113 33.8827 12.8899 35.7623 12.8868C38.6997 12.8805 41.6372 12.8837 44.5746 12.8837C45.6765 12.8837 46.8005 12.7619 47.8678 12.9555C48.3715 13.046 48.7619 13.7549 49.2058 14.1826C48.7462 14.5823 48.3306 15.0663 47.808 15.3474C47.4805 15.5222 46.9862 15.388 46.5675 15.388C42.95 15.388 39.3294 15.363 35.7119 15.4004C33.6749 15.4223 32.2708 16.7369 32.2676 18.4918C32.2645 20.2685 33.6624 21.5425 35.6993 21.5675C37.9032 21.5925 40.1039 21.5737 42.3078 21.5737C45.1413 21.5737 47.9717 21.605 50.8052 21.5613C53.3176 21.5207 56.1008 19.7127 56.1322 17.9984C56.2015 13.8454 56.148 9.69241 56.148 5.33956ZM69.3428 21.836C69.3428 15.3193 69.3428 8.96173 69.3428 2.61356C65.7348 2.61356 62.2527 2.61356 58.7895 2.61356C58.7895 9.08039 58.7895 15.4442 58.7895 21.836C62.344 21.836 65.7883 21.836 69.3428 21.836Z" fill="black"/>
<path d="M42.4589 61.0524C47.6505 58.0797 52.7194 55.1538 57.8103 52.2655C60.1653 50.929 62.5895 51.3037 64.2172 53.1773C65.8009 54.9946 65.9488 56.7651 64.5195 58.7104C63.9465 59.4942 63.1751 60.1718 62.388 60.7557C55.9213 65.552 49.4136 70.2951 42.95 75.0976C41.0201 76.5309 38.9264 77.1991 36.5179 77.1835C29.7017 77.1398 22.8886 77.1679 16.0945 77.1679C15.3987 79.8002 15.1405 79.9969 12.4518 79.9969C9.19954 79.9969 5.94728 80.0063 2.69501 79.9938C0.705246 79.9845 0.0157532 79.3381 0.0094565 77.399C-0.0094337 70.9977 -0.0094337 64.5965 0.0094565 58.1952C0.0157532 56.2436 0.683207 55.6129 2.68872 55.6066C6.0984 55.5941 9.50808 55.6004 12.9178 55.6035C14.9233 55.6066 15.1688 55.7721 16.0283 57.6675C18.0307 56.2061 20.3007 55.8564 22.7281 55.9001C26.7643 55.9751 30.8068 55.922 34.8461 55.922C39.5939 55.9189 40.7178 56.6589 42.4589 61.0524ZM15.852 74.6605C16.5573 74.6605 17.0736 74.6605 17.5868 74.6605C23.8835 74.6605 30.1834 74.6293 36.4801 74.6792C38.4132 74.6948 40.0409 74.1297 41.5773 72.9899C48.0032 68.2155 54.4636 63.4911 60.9052 58.7385C61.4058 58.367 61.9945 57.9954 62.281 57.4833C62.6021 56.9056 62.9642 55.9688 62.7092 55.541C62.3125 54.8759 61.4656 54.2795 60.7005 54.0828C60.1118 53.9329 59.2901 54.3389 58.6761 54.6823C54.5266 57.0149 50.3739 59.3506 46.2841 61.7862C44.1464 63.0602 42.1535 64.5715 40.0441 65.8986C39.2664 66.3888 38.3503 66.9321 37.4813 66.9603C33.0264 67.0976 28.5651 67.0727 24.1071 67.1008C24.0032 67.1008 23.8583 67.1008 23.8048 67.0383C23.4585 66.6324 22.8666 66.2046 22.8792 65.7955C22.8918 65.4021 23.4711 64.9087 23.9182 64.6839C24.2991 64.4934 24.8438 64.6121 25.316 64.6121C29.0437 64.6058 32.7682 64.6496 36.4959 64.5871C38.4132 64.5559 39.767 63.1507 39.7293 61.4489C39.6915 59.7253 38.3251 58.4825 36.3888 58.4294C35.6553 58.4107 34.9185 58.4263 34.185 58.4263C29.8812 58.4263 25.5773 58.4013 21.2735 58.4388C18.6572 58.4606 15.9024 60.303 15.8772 62.1015C15.808 66.2077 15.852 70.317 15.852 74.6605ZM13.2169 77.4396C13.2169 70.929 13.2169 64.5652 13.2169 58.2108C9.62457 58.2108 6.13933 58.2108 2.65408 58.2108C2.65408 64.6714 2.65408 71.0289 2.65408 77.4396C6.21804 77.4396 9.66235 77.4396 13.2169 77.4396Z" fill="black"/>
<path d="M20.2724 35.9344C19.6679 35.9344 19.2177 36.0406 18.8524 35.9126C18.0685 35.6347 17.0169 35.4223 16.6612 34.8322C16.3589 34.3326 16.6769 33.2178 17.0736 32.5964C18.248 30.751 19.5388 28.968 20.9146 27.2662C21.3334 26.7479 22.1771 26.2826 22.832 26.2795C31.5939 26.2139 40.3589 26.2108 49.1208 26.2826C49.8103 26.2888 50.6919 26.8072 51.1484 27.3599C52.4738 28.968 53.7175 30.6604 54.8099 32.4309C55.2444 33.1335 55.5592 34.2795 55.2664 34.9383C55.024 35.4879 53.8308 35.6534 53.0343 35.9157C52.7068 36.0219 52.3133 35.9344 51.7277 35.9344C51.7277 36.5558 51.7277 37.1054 51.7277 37.6581C51.7277 41.8236 51.7371 45.9891 51.7245 50.1514C51.7151 52.6589 50.6006 53.7549 48.0661 53.758C40.0378 53.7642 32.0095 53.7642 23.9811 53.758C21.3522 53.7549 20.2818 52.6807 20.2755 50.039C20.2661 45.4145 20.2724 40.7869 20.2724 35.9344ZM34.6069 51.2537C34.6069 44.6589 34.6069 38.267 34.6069 31.5878C33.8135 32.6776 33.124 33.4738 32.6077 34.37C31.8961 35.6003 30.939 36.0437 29.5065 35.9657C27.3278 35.8501 25.1366 35.9344 22.8068 35.9344C22.8068 40.8743 22.7879 45.6456 22.8509 50.4169C22.854 50.701 23.4931 51.2131 23.8457 51.2162C27.4034 51.2756 30.9642 51.2537 34.6069 51.2537ZM37.3743 31.7627C37.3743 38.3388 37.3743 44.7525 37.3743 51.2537C41.0421 51.2537 44.5998 51.2756 48.1606 51.2162C48.5101 51.21 49.1492 50.6979 49.1523 50.4137C49.2153 45.6425 49.1964 40.8712 49.1964 35.9344C48.0724 35.9344 47.0744 35.822 46.111 35.9532C42.3896 36.459 39.3105 35.719 37.645 31.9688C37.623 31.9282 37.5632 31.9063 37.3743 31.7627ZM19.6805 33.4301C20.2157 33.4301 20.562 33.4301 20.9115 33.4301C23.7891 33.4301 26.6698 33.4426 29.5474 33.4083C29.856 33.4052 30.2684 33.2116 30.4542 32.9711C31.4491 31.6659 32.3873 30.3201 33.5207 28.7432C31.3703 28.7432 29.5569 28.7432 27.7403 28.7432C22.6242 28.7432 22.6242 28.7432 19.8662 33.0086C19.841 33.0523 19.8284 33.1054 19.6805 33.4301ZM38.5297 28.7463C39.0083 29.4489 39.364 29.8423 39.575 30.3013C40.7997 32.9493 42.8273 33.8236 45.7175 33.4801C47.8458 33.2272 50.0307 33.4301 52.4644 33.4301C51.3499 31.8751 50.4746 30.5886 49.5207 29.3677C49.2783 29.0554 48.7745 28.7775 48.3841 28.7713C45.198 28.7244 42.015 28.7463 38.5297 28.7463Z" fill="black"/>
<path d="M34.6069 51.2536C30.9611 51.2536 27.4034 51.2755 23.8457 51.2161C23.4963 51.2099 22.854 50.6978 22.8509 50.4168C22.7879 45.6455 22.8068 40.8742 22.8068 35.9343C25.1366 35.9343 27.3278 35.8469 29.5065 35.9656C30.939 36.0436 31.8961 35.6002 32.6076 34.3699C33.124 33.4769 33.8135 32.6806 34.6069 31.5877C34.6069 38.2669 34.6069 44.6588 34.6069 51.2536Z" fill="#D00053"/>
<path d="M37.3743 31.7627C37.5632 31.9063 37.6261 31.9282 37.6419 31.9688C39.3074 35.7221 42.3865 36.4622 46.1078 35.9532C47.0712 35.822 48.0693 35.9345 49.1932 35.9345C49.1932 40.8712 49.2121 45.6425 49.1492 50.4138C49.146 50.6979 48.5069 51.21 48.1574 51.2163C44.5998 51.2756 41.039 51.2537 37.3711 51.2537C37.3743 44.7526 37.3743 38.3419 37.3743 31.7627ZM44.8516 50.623C44.8516 50.6198 44.8516 50.6167 44.8516 50.6105C45.6356 50.6105 46.4668 50.7635 47.1909 50.5543C47.6442 50.4231 48.1763 49.7768 48.2298 49.3146C48.2708 48.9711 47.6222 48.2467 47.235 48.2124C45.73 48.0812 44.1968 48.0656 42.695 48.2124C42.2889 48.2529 41.6592 49.0305 41.6781 49.4458C41.697 49.8517 42.3455 50.42 42.8304 50.573C43.4443 50.7729 44.1716 50.623 44.8516 50.623ZM44.5557 44.3997C43.9292 44.3997 43.3751 44.2405 43.013 44.4372C42.4652 44.7338 42.0559 45.2772 41.5868 45.7174C42.0433 46.1109 42.4463 46.6074 42.9721 46.8603C43.353 47.0445 43.8945 46.9383 44.3605 46.8946C45.4058 46.7978 47.002 47.363 46.9642 45.5988C46.9327 43.9813 45.4058 44.5121 44.5557 44.3997Z" fill="#D00053"/>
<path d="M19.6805 33.4301C19.8253 33.1054 19.841 33.0523 19.8694 33.0086C22.6273 28.7431 22.6273 28.7431 27.7434 28.7431C29.56 28.7431 31.3735 28.7431 33.5238 28.7431C32.3904 30.32 31.4522 31.6659 30.4573 32.9711C30.2747 33.2115 29.8591 33.4051 29.5506 33.4082C26.673 33.4426 23.7922 33.4301 20.9146 33.4301C20.5651 33.4301 20.2157 33.4301 19.6805 33.4301Z" fill="white"/>
<path d="M38.5297 28.7463C42.015 28.7463 45.2011 28.7245 48.3841 28.7744C48.7714 28.7807 49.2751 29.0586 49.5207 29.3709C50.4778 30.5949 51.353 31.8783 52.4644 33.4333C50.0307 33.4333 47.8489 33.2303 45.7174 33.4833C42.8272 33.8267 40.7997 32.9524 39.575 30.3045C39.364 29.8424 39.0083 29.4489 38.5297 28.7463Z" fill="white"/>
<path d="M64.0189 6.2951C63.1594 6.87277 62.6179 7.49728 62.2621 7.40673C61.7615 7.2787 61.3994 6.61984 60.9807 6.18581C61.39 5.79549 61.7898 5.10228 62.2054 5.09603C62.6777 5.08979 63.1625 5.69244 64.0189 6.2951Z" fill="black"/>
<path d="M9.82607 71.9532C10.3865 72.8431 10.9658 73.3583 10.9406 73.8423C10.9186 74.2452 10.1818 74.6043 9.75995 74.9852C9.36011 74.5418 8.72099 74.139 8.64228 73.6456C8.57931 73.2616 9.22158 72.7682 9.82607 71.9532Z" fill="black"/>
<path d="M44.8517 50.623C44.1716 50.623 43.4443 50.7729 42.8273 50.5762C42.3424 50.4231 41.6907 49.8548 41.675 49.4489C41.6561 49.0336 42.2889 48.2561 42.6919 48.2155C44.1937 48.0687 45.7269 48.0812 47.2318 48.2155C47.6191 48.2499 48.2676 48.9743 48.2267 49.3178C48.1732 49.783 47.6411 50.4294 47.1878 50.5574C46.4636 50.7666 45.6356 50.6136 44.8485 50.6136C44.8517 50.6167 44.8517 50.6199 44.8517 50.623Z" fill="black"/>
<path d="M44.5557 44.3997C45.4058 44.5121 46.9327 43.9813 46.9642 45.5987C46.9988 47.3599 45.4058 46.7978 44.3605 46.8946C43.8977 46.9383 43.353 47.0445 42.9721 46.8603C42.4463 46.6073 42.0433 46.1108 41.5868 45.7174C42.0559 45.2771 42.4652 44.7338 43.013 44.4371C43.3751 44.2404 43.9292 44.3997 44.5557 44.3997Z" fill="black"/>
</g>
<defs>
<clipPath id="clip0_1_62">
<rect width="72" height="80" fill="white"/>
</clipPath>
</defs>
</svg>
