<svg width="94" height="75" viewBox="0 0 94 75" fill="none" xmlns="http://www.w3.org/2000/svg">
<g clip-path="url(#clip0_32_129)">
<path d="M47.0018 67.1945C43.9569 69.4352 41.0991 71.5465 38.2229 73.6392C35.908 75.3253 33.7546 75.4214 31.8029 73.9683C29.8696 72.5263 29.3156 70.4187 30.1924 67.6863C31.1682 64.6432 32.1184 61.5891 33.1786 58.5756C33.5125 57.6254 33.307 57.1262 32.5403 56.5827C29.8916 54.7044 27.2722 52.7817 24.6565 50.8516C22.4113 49.1951 21.6923 47.265 22.4003 44.9467C23.1084 42.6283 24.961 41.3786 27.7675 41.3675C30.8271 41.3527 33.8867 41.3009 36.9389 41.3934C38.2376 41.434 38.8869 41.0828 39.2611 39.748C40.1086 36.7308 41.1174 33.7617 42.1079 30.7853C42.9664 28.197 44.6943 26.877 47.0642 26.9103C49.3607 26.9399 51.0263 28.234 51.8627 30.7483C52.8936 33.8394 53.9024 36.9379 54.8452 40.0549C55.1424 41.0347 55.579 41.4156 56.6355 41.3934C59.8749 41.3194 63.1179 41.349 66.3609 41.3712C69.0316 41.3897 70.8696 42.6579 71.5776 44.9097C72.3003 47.2169 71.5886 49.1877 69.3691 50.8368C66.9589 52.6264 64.5853 54.4825 62.065 56.1057C60.6269 57.0338 60.5205 57.9434 61.0635 59.4261C62.1017 62.2509 62.9785 65.135 63.881 68.0079C64.677 70.5444 64.0094 72.6964 62.0723 74.0607C60.1904 75.3882 58.0736 75.3105 55.9495 73.7686C52.9853 71.6167 50.0394 69.4278 47.0018 67.1945ZM33.7399 45.0687C31.8469 45.0687 29.9429 44.9762 28.061 45.1131C27.3346 45.1648 26.6449 45.7379 25.9405 46.0707C26.3441 46.7473 26.5972 47.62 27.1768 48.0674C29.9943 50.2304 32.8521 52.3417 35.787 54.3457C37.3498 55.4106 37.801 56.542 37.1334 58.3834C35.9007 61.7888 34.8148 65.2533 33.7949 68.729C33.5968 69.4056 33.971 70.2523 34.0811 71.0214C34.7928 70.8587 35.6366 70.892 36.1869 70.5038C39.1951 68.3962 42.174 66.2405 45.0758 63.9851C46.4882 62.8832 47.6108 62.9572 48.9902 64.0294C51.8957 66.2812 54.8673 68.4443 57.8792 70.5444C58.4184 70.9216 59.2769 70.8439 59.9849 70.977C60.084 70.256 60.4252 69.4648 60.2381 68.8288C59.1742 65.2385 58.0479 61.6593 56.8043 58.1245C56.232 56.4976 56.6172 55.4808 57.9929 54.5306C60.7627 52.6153 63.4811 50.6223 66.1591 48.5813C67.0029 47.9379 68.5511 47.5645 67.9971 46.0115C67.4615 44.503 66.0161 45.1168 64.9448 45.0946C61.7679 45.028 58.5835 44.9541 55.4139 45.1131C53.3485 45.2166 52.2992 44.5104 51.7416 42.473C50.8171 39.1009 49.6836 35.7806 48.528 32.4787C48.2822 31.7762 47.5558 31.2474 47.0532 30.6374C46.5066 31.2733 45.7142 31.8206 45.4537 32.5564C44.2284 36.0283 43.0985 39.5409 42.0346 43.0683C41.587 44.5584 40.7616 45.1611 39.2391 45.0909C37.4085 45.0058 35.5742 45.0687 33.7399 45.0687Z" fill="black"/>
<path d="M80.3162 71.2248C78.8267 72.3082 77.5024 73.2954 76.156 74.2456C74.817 75.1922 73.4119 75.2883 72.0692 74.3011C70.6825 73.2843 70.0478 71.7979 70.8476 70.2523C72.7442 66.5992 71.9995 64.0775 68.2392 62.2916C66.7681 61.5928 66.4233 60.0066 66.8525 58.4351C67.2927 56.8193 68.5327 55.7471 70.0955 55.9948C74.274 56.653 76.5192 55.1185 77.1208 50.8405C77.3373 49.3023 78.735 48.5332 80.2685 48.5074C81.8937 48.4778 83.3317 49.2949 83.5739 50.8923C84.1975 55.0334 86.2519 56.7158 90.4415 55.9874C92.0886 55.7027 93.3433 56.8304 93.8349 58.5017C94.3081 60.1175 93.7835 61.6113 92.3711 62.3286C88.8199 64.1293 87.8588 66.5068 89.7884 70.1673C90.5442 71.6019 90.0783 73.2214 88.6512 74.2715C87.1617 75.366 85.6833 75.1478 84.2599 74.0866C83.6216 73.6097 82.9796 73.1438 82.3339 72.6779C81.6919 72.2083 81.0462 71.7498 80.3162 71.2248ZM74.4611 70.9068C76.1487 69.6718 77.451 68.7733 78.6947 67.7935C79.8356 66.895 80.8665 66.9209 82.0037 67.8231C83.1997 68.7696 84.4763 69.6127 86.1676 70.8255C85.5146 68.7955 85.067 67.3387 84.5681 65.8967C84.1058 64.5582 84.3516 63.5414 85.5989 62.7279C86.8829 61.8923 88.0826 60.9199 89.3189 60.0103C87.7597 59.6146 86.3657 59.5444 84.9826 59.6331C83.2437 59.7478 82.2312 59.097 81.8093 57.3296C81.4754 55.9282 80.9105 54.5824 80.3052 52.7854C79.6778 54.7007 79.1312 56.1242 78.7497 57.5921C78.3572 59.1118 77.451 59.6886 75.9506 59.6257C74.4501 59.5629 72.9423 59.6109 71.4382 59.6109C72.6011 60.942 73.8521 61.8923 75.1361 62.7945C76.2367 63.5673 76.6109 64.4732 76.101 65.8043C75.536 67.298 75.1178 68.8399 74.4611 70.9068Z" fill="black"/>
<path d="M13.6838 71.2099C12.3154 72.2119 11.0277 73.14 9.75472 74.0829C8.32765 75.1441 6.84921 75.3585 5.35977 74.2714C3.92902 73.2287 3.45577 71.6129 4.2115 70.1746C6.12283 66.5252 5.20935 64.1292 1.63983 62.3322C0.223757 61.6186 -0.304519 60.1322 0.16506 58.5127C0.649312 56.8378 1.85627 55.9984 3.56216 55.9356C4.90486 55.8875 6.26224 56.0243 7.58659 55.8542C8.14422 55.784 8.86326 55.2478 9.09805 54.7302C9.652 53.51 9.92348 52.1641 10.3784 50.8922C10.936 49.3355 12.1026 48.4814 13.7278 48.5036C15.2613 48.5258 16.659 49.2875 16.8791 50.8293C17.4881 55.0888 19.7039 56.6677 23.8971 55.991C25.4636 55.7396 26.7036 56.8119 27.1475 58.424C27.5767 59.9917 27.2465 61.5816 25.7717 62.2842C22.0298 64.0701 21.2447 66.577 23.1524 70.2449C23.9521 71.7793 23.3248 73.2768 21.9381 74.2973C20.5183 75.34 19.0766 75.1441 17.6972 74.1457C16.3728 73.1844 15.0522 72.2119 13.6838 71.2099ZM19.5021 70.8771C18.8858 68.899 18.4969 67.3719 17.932 65.9188C17.3927 64.5285 17.7339 63.5746 18.9188 62.7611C20.1955 61.8848 21.4171 60.9346 22.6608 60.0139C20.9035 59.6146 19.2747 59.6072 17.6458 59.6146C16.4609 59.6183 15.7162 59.1117 15.3713 57.9174C14.9164 56.3497 14.3588 54.8152 13.6874 52.7927C13.0821 54.5971 12.5208 55.943 12.187 57.3443C11.7688 59.1117 10.7452 59.7477 9.01734 59.6368C7.61227 59.5443 6.1962 59.6183 4.78747 59.6183C5.94674 60.9383 7.12802 61.8959 8.39735 62.7242C9.63733 63.5302 9.89046 64.547 9.43556 65.8855C8.92929 67.3682 8.47806 68.8694 7.84706 70.8587C9.5236 69.6459 10.7966 68.8102 11.9705 67.8526C13.1738 66.8691 14.2451 66.9356 15.4227 67.8748C16.6076 68.8139 17.8586 69.6755 19.5021 70.8771Z" fill="black"/>
<path d="M30.3501 18.7943C29.8952 19.3711 29.576 20.1661 29.0881 20.2955C28.4425 20.4656 27.4409 20.3657 26.9714 19.9479C25.1481 18.3173 23.4715 16.5204 21.7436 14.7825C20.3166 13.3479 18.8968 11.9133 17.4734 10.4749C16.6333 9.62452 16.3435 8.63729 17.2129 7.70552C18.1558 6.69241 19.1903 6.97342 20.0928 7.87561C23.1634 10.9556 26.234 14.0393 29.2752 17.1489C29.6788 17.5594 29.9246 18.1325 30.3501 18.7943Z" fill="black"/>
<path d="M77.5758 8.885C77.0548 9.63559 76.7467 10.242 76.2954 10.7005C73.3826 13.677 70.433 16.6202 67.5055 19.5856C66.6067 20.4951 65.6235 21.1348 64.5046 20.0588C63.393 18.994 63.8956 17.9661 64.8201 17.0343C67.8467 13.9949 70.8256 10.9112 73.9219 7.94214C74.4318 7.45407 75.459 7.22113 76.167 7.33945C76.677 7.42449 77.0658 8.28971 77.5758 8.885Z" fill="black"/>
<path d="M48.8251 13.91C48.8251 15.0747 48.8764 16.2394 48.8104 17.4004C48.7444 18.543 48.0437 19.3897 46.9394 19.1124C46.2571 18.9423 45.3106 18.0549 45.2556 17.4189C45.0538 15.1117 45.1345 12.7712 45.1895 10.4455C45.2152 9.29554 45.9673 8.4636 47.0568 8.72982C47.7392 8.89621 48.5646 9.74294 48.748 10.4418C49.0342 11.5288 48.8251 12.7453 48.8251 13.91Z" fill="black"/>
<path d="M47.4384 0.0110925C47.9006 0.732104 48.8031 1.52337 48.7041 2.15564C48.5977 2.83228 47.5998 3.73077 46.8955 3.82691C46.4075 3.89346 45.329 2.77682 45.3033 2.15564C45.2739 1.45681 46.1324 0.721012 46.6056 0C46.8844 0.0036975 47.1633 0.00739499 47.4384 0.0110925Z" fill="black"/>
<path d="M33.7399 45.0688C35.5742 45.0688 37.4085 45.006 39.2391 45.0873C40.7615 45.1576 41.587 44.5512 42.0345 43.0648C43.0948 39.5374 44.2247 36.0247 45.4537 32.5528C45.7141 31.817 46.5065 31.2698 47.0532 30.6338C47.5594 31.2439 48.2821 31.7726 48.5279 32.4751C49.6835 35.777 50.8171 39.0974 51.7416 42.4695C52.2992 44.5068 53.3484 45.213 55.4138 45.1095C58.5835 44.9505 61.7678 45.0244 64.9448 45.091C66.016 45.1132 67.4578 44.5031 67.9971 46.008C68.551 47.5646 67.0029 47.9381 66.1591 48.5777C63.481 50.6188 60.7626 52.6154 57.9929 54.527C56.6171 55.4773 56.2319 56.4941 56.8042 58.121C58.0442 61.6558 59.1741 65.2313 60.238 68.8252C60.4251 69.4575 60.0839 70.2525 59.9849 70.9735C59.2732 70.8404 58.4184 70.918 57.8791 70.5409C54.8672 68.437 51.892 66.274 48.9902 64.0259C47.6108 62.9573 46.4882 62.8833 45.0758 63.9815C42.1776 66.237 39.1951 68.3926 36.1868 70.5002C35.6329 70.8884 34.7891 70.8552 34.0811 71.0178C33.971 70.2488 33.5968 69.402 33.7949 68.7254C34.8148 65.2497 35.9007 61.7852 37.1333 58.3798C37.801 56.5384 37.3498 55.4107 35.787 54.3421C32.8558 52.3418 29.9943 50.2305 27.1768 48.0638C26.5972 47.6201 26.344 46.7438 25.9405 46.0671C26.6449 45.7307 27.3345 45.1613 28.0609 45.1095C29.9466 44.9764 31.8469 45.0688 33.7399 45.0688Z" fill="#D00053"/>
</g>
<defs>
<clipPath id="clip0_32_129">
<rect width="94" height="75" fill="white"/>
</clipPath>
</defs>
</svg>
