<svg xmlns="http://www.w3.org/2000/svg" width="33" height="60" viewBox="0 0 33 60" fill="none">
<path d="M18.9638 12.8756C19.2773 12.8756 19.4937 12.8756 19.7112 12.8756C23.8418 12.8756 27.9713 12.8746 32.1019 12.8756C32.7876 12.8756 32.9869 13.0663 32.9869 13.7309C32.9838 23.9238 33.0354 34.1167 32.9494 44.3086C32.912 48.6983 31.3676 52.5972 28.2181 55.7613C25.8069 58.1835 22.8577 59.5738 19.4371 59.8348C16.9207 60.0276 14.3801 60.155 11.89 59.5969C6.67424 58.4295 3.23244 55.2001 1.25009 50.3546C0.424789 48.3369 0.0131482 46.2219 0.0111254 44.0425C0 33.936 0.0010114 23.8264 0 13.7178C0 13.0653 0.206326 12.8766 0.899136 12.8766C4.8436 12.8756 8.78908 12.8776 12.7335 12.8736C13.6529 12.8726 13.5508 12.9961 13.5558 12.0324C13.5619 10.9442 13.5679 9.85608 13.5528 8.76893C13.5467 8.33427 13.6681 8.04015 14.1171 7.88054C14.2456 7.83437 14.3629 7.56132 14.3639 7.39168C14.3791 5.28263 14.374 3.17358 14.371 1.06553C14.37 0.144016 14.4994 0.00749509 15.4067 0.00548742C16.0135 0.00448359 16.6204 -0.00254322 17.2272 0.00649126C17.8118 0.0155257 18.009 0.215288 18.01 0.805541C18.0141 2.93065 18.011 5.05677 18.011 7.18188C18.011 7.38063 18.011 7.57939 18.011 7.76209C18.9496 8.13752 18.9526 8.13752 18.9577 9.15541C18.9628 10.1934 18.9607 11.2303 18.9618 12.2683C18.9638 12.448 18.9638 12.6277 18.9638 12.8756ZM31.6781 29.5914C31.6781 24.6546 31.671 19.7167 31.6892 14.7799C31.6912 14.292 31.5517 14.1635 31.0692 14.1645C21.3598 14.1776 11.6493 14.1786 1.93987 14.1635C1.42304 14.1625 1.29763 14.3041 1.29864 14.81C1.31482 24.3665 1.31078 33.9229 1.30976 43.4794C1.30976 45.727 1.65162 47.9193 2.53457 49.9933C4.75156 55.1991 8.61714 58.2086 14.3882 58.5911C15.3106 58.6523 16.2401 58.577 17.1655 58.6071C21.997 58.7627 25.9131 57.006 28.7602 53.0881C30.8002 50.2804 31.6528 47.0781 31.671 43.6511C31.6963 38.9642 31.6771 34.2773 31.6781 29.5914ZM17.6004 9.94542C16.7569 9.94542 15.9093 9.9404 15.0628 9.95646C14.9971 9.95747 14.8787 10.108 14.8777 10.1904C14.8646 11.0667 14.8696 11.944 14.8696 12.8435C15.8153 12.8435 16.6942 12.8435 17.6014 12.8435C17.6004 11.8828 17.6004 10.9553 17.6004 9.94542ZM16.7073 7.85645C16.7073 7.63761 16.7073 7.45793 16.7073 7.27824C16.7073 5.55467 16.7063 3.83109 16.7073 2.10751C16.7073 1.22414 16.7083 1.22313 15.8042 1.33356C15.7758 1.33657 15.7516 1.3707 15.7192 1.39479C15.7192 3.53897 15.7192 5.68717 15.7192 7.85645C16.0428 7.85645 16.326 7.85645 16.7073 7.85645Z" fill="black"/>
<path d="M17.5999 9.94495C17.5999 10.9548 17.5999 11.8824 17.5999 12.842C16.6927 12.842 15.8138 12.842 14.8681 12.842C14.8681 11.9426 14.8631 11.0662 14.8762 10.1889C14.8772 10.1066 14.9956 9.956 15.0613 9.95499C15.9089 9.93893 16.7564 9.94495 17.5999 9.94495Z" fill="#F5F5F5"/>
<path d="M16.7069 7.856C16.3266 7.856 16.0434 7.856 15.7188 7.856C15.7188 5.68672 15.7188 3.53852 15.7188 1.39434C15.7511 1.37025 15.7754 1.33612 15.8037 1.33311C16.7079 1.22369 16.7079 1.22369 16.7069 2.10706C16.7059 3.83064 16.7069 5.55422 16.7069 7.2778C16.7069 7.45648 16.7069 7.63616 16.7069 7.856Z" fill="#F5F5F5"/>
<path d="M16.7551 42.5976C13.5358 42.5976 10.3165 42.6016 7.09719 42.5956C5.30701 42.5925 3.98916 41.3046 3.99219 39.5289C4.00534 33.3703 4.02759 27.2118 4.06198 21.0543C4.07108 19.401 5.40209 18.1021 7.07292 18.1051C13.5965 18.1161 20.12 18.1362 26.6425 18.1643C28.4367 18.1723 29.7212 19.4653 29.7182 21.2561C29.7071 27.3474 29.6858 33.4396 29.6575 39.5309C29.6484 41.405 28.3518 42.6638 26.4635 42.6648C23.227 42.6668 19.9905 42.6658 16.754 42.6658C16.7551 42.6427 16.7551 42.6207 16.7551 42.5976ZM16.8602 41.2956C16.8602 41.3076 16.8602 41.3197 16.8602 41.3307C20.0634 41.3307 23.2654 41.3337 26.4686 41.3287C27.6782 41.3267 28.3407 40.6632 28.3437 39.4636C28.3487 37.1207 28.3477 34.7777 28.3538 32.4348C28.3639 28.7527 28.3811 25.0717 28.3902 21.3896C28.3932 20.19 27.7358 19.4773 26.6112 19.4733C20.1716 19.4492 13.733 19.4291 7.2934 19.4141C6.03725 19.4111 5.36163 20.0947 5.35961 21.3444C5.34949 27.3353 5.34039 33.3272 5.33331 39.3181C5.33129 40.6582 5.96544 41.2936 7.30251 41.2946C10.4884 41.2976 13.6743 41.2956 16.8602 41.2956Z" fill="black"/>
<path d="M16.5197 54.9316C13.6666 54.9206 11.3434 52.5465 11.3555 49.6535C11.3677 46.7273 13.6999 44.3924 16.5986 44.4045C19.4437 44.4155 21.7457 46.7936 21.7325 49.7067C21.7194 52.6007 19.383 54.9426 16.5197 54.9316ZM20.4015 49.6374C20.3884 47.4601 18.6255 45.6743 16.5167 45.7024C14.3735 45.7305 12.6906 47.4912 12.7007 49.6956C12.7098 51.882 14.4565 53.6577 16.5744 53.6347C18.6973 53.6106 20.4147 51.8167 20.4015 49.6374Z" fill="black"/>
<path d="M16.859 41.2956C13.6731 41.2956 10.4871 41.2966 7.30123 41.2946C5.96416 41.2936 5.33102 40.6591 5.33203 39.318C5.34012 33.3272 5.34923 27.3363 5.35934 21.3444C5.36136 20.0947 6.03698 19.4111 7.29314 19.4141C13.7327 19.4301 20.1713 19.4502 26.6109 19.4733C27.7366 19.4773 28.393 20.19 28.39 21.3896C28.3798 25.0717 28.3637 28.7527 28.3535 32.4348C28.3465 34.7777 28.3485 37.1206 28.3434 39.4636C28.3404 40.6622 27.6779 41.3267 26.4683 41.3287C23.2652 41.3337 20.0631 41.3307 16.86 41.3307C16.859 41.3197 16.859 41.3076 16.859 41.2956ZM15.8233 23.4706C15.7434 24.0959 15.799 24.7534 15.5644 25.2845C15.0081 26.5473 14.3446 27.7669 13.665 28.9715C13.1906 29.8138 12.5484 30.5656 12.1054 31.4209C11.4015 32.7791 11.5269 34.1573 12.3967 35.4101C13.5699 37.1006 15.2144 37.8775 17.2747 37.5422C20.4636 37.0233 22.1526 33.808 20.5182 31.0786C20.1926 30.5345 19.8365 30.0035 19.4471 29.5016C18.3387 28.0731 17.5892 26.4881 17.2352 24.7193C17.1381 24.2335 17.0542 23.7456 16.9682 23.2788C16.5293 23.3541 16.1368 23.4184 15.8233 23.4706Z" fill="#F5F5F5"/>
<path d="M15.8248 23.4706C16.1383 23.4184 16.5307 23.3542 16.9697 23.2809C17.0556 23.7467 17.1396 24.2355 17.2367 24.7214C17.5907 26.4901 18.3401 28.0752 19.4486 29.5036C19.838 30.0046 20.194 30.5366 20.5197 31.0807C22.1531 33.8101 20.4651 37.0254 17.2761 37.5444C15.2159 37.8796 13.5714 37.1017 12.3981 35.4122C11.5293 34.1594 11.4029 32.7822 12.1068 31.423C12.5509 30.5677 13.1921 29.8148 13.6664 28.9736C14.3461 27.769 15.0086 26.5494 15.5658 25.2865C15.8005 24.7535 15.7449 24.096 15.8248 23.4706ZM16.463 26.7782C16.3284 27.0202 16.2617 27.1487 16.1868 27.2721C15.5618 28.3 14.9408 29.33 14.3066 30.3529C14.0508 30.7655 13.6968 31.1319 13.5137 31.5705C13.2811 32.1287 13.0515 32.738 13.0434 33.3293C13.0272 34.5288 14.075 35.7003 15.3757 36.1259C16.7269 36.5686 18.3098 36.1279 19.1816 35.0659C19.9978 34.0721 20.0807 32.8906 19.3262 31.6549C18.3624 30.0758 17.0425 28.7106 16.463 26.7782Z" fill="black"/>
<path d="M16.4627 26.7782C17.0432 28.7106 18.3621 30.0758 19.326 31.6548C20.0805 32.8905 19.9975 34.0721 19.1813 35.0658C18.3095 36.1279 16.7267 36.5686 15.3754 36.1259C14.0758 35.7003 13.027 34.5288 13.0432 33.3292C13.0512 32.739 13.2808 32.1296 13.5135 31.5705C13.6965 31.1308 14.0505 30.7644 14.3064 30.3528C14.9405 29.3299 15.5615 28.3 16.1866 27.2721C16.2614 27.1486 16.3272 27.0201 16.4627 26.7782Z" fill="white"/>
</svg>