<svg xmlns="http://www.w3.org/2000/svg" width="49" height="54" viewBox="0 0 49 54" fill="none">
<g clip-path="url(#clip0_485_122)">
<path d="M17.0444 42.9048C17.0444 41.9268 16.9556 41.066 17.0833 40.2352C17.1443 39.8429 17.6217 39.5106 17.9104 39.1537C18.2185 39.4997 18.7292 39.8157 18.793 40.2025C18.929 41.0333 18.8346 41.8996 18.8346 42.8421C21.0384 42.8421 23.0868 42.8421 25.2656 42.8421C25.2018 40.3686 25.793 38.1322 27.0864 36.0727C29.5234 32.1963 34.6748 29.938 39.1657 30.8234C44.245 31.8231 48.1669 35.7104 48.8664 40.4395C49.7768 46.5987 45.8854 52.2866 39.7958 53.6895C33.7783 55.0761 27.7664 51.72 25.8485 45.7978C25.521 44.7844 25.0269 44.5992 24.086 44.6019C18.9512 44.621 13.8164 44.6046 8.68436 44.5583C7.93496 44.5529 7.54638 44.7763 7.18278 45.4355C6.339 46.9637 4.79301 47.6774 3.26644 47.4023C1.62607 47.1054 0.349309 45.9667 0.0828539 44.5611C-0.264093 42.7332 0.465883 41.2567 2.04519 40.2706C2.4532 40.0172 2.89174 39.4261 2.89174 38.9902C2.93337 27.5054 2.91672 16.0206 2.90839 4.53572C2.90839 4.32597 2.8612 4.11621 2.80569 3.64766C2.39213 4.16525 2.17564 4.57386 1.83702 4.81631C1.54836 5.02062 0.937731 5.2222 0.790626 5.08599C0.52417 4.8381 0.257715 4.20066 0.402045 3.97456C1.2597 2.63157 2.17841 1.31855 3.20815 0.1036C3.38301 -0.103433 4.41275 0.0191523 4.6681 0.307908C5.6007 1.36759 6.42227 2.53078 7.17167 3.72666C7.36319 4.03176 7.13282 4.59293 7.09673 5.03696C6.66097 4.94706 6.17247 4.94979 5.80331 4.74276C5.4758 4.56024 5.28151 4.14618 4.84852 3.61225C4.84852 6.23829 4.84852 8.5892 4.84852 11.0681C5.67564 11.0681 6.4639 10.9864 7.21886 11.1063C7.55193 11.158 8.05153 11.6075 8.05708 11.8854C8.06263 12.1823 7.61021 12.6917 7.2938 12.7462C6.53329 12.8742 5.73393 12.787 4.84019 12.787C4.84019 15.1189 4.84019 17.3554 4.84019 19.7689C5.55074 19.7689 6.24741 19.6736 6.89689 19.8016C7.33266 19.8861 7.70458 20.2865 8.10427 20.5453C7.69626 20.8504 7.32711 21.3108 6.87191 21.417C6.22798 21.5668 5.52021 21.4552 4.8735 21.4552C4.69864 24.0839 4.54043 26.5029 4.36834 29.1017C5.41751 28.862 6.47223 28.6196 7.15224 28.4643C7.56303 29.0718 7.77397 29.3878 8.17921 29.9816C6.97183 30.0579 5.92822 30.1233 4.73472 30.1968C4.73472 33.3078 4.39055 36.3915 4.89015 39.3389C5.11497 40.6683 6.87191 42.4935 8.19586 42.7413C10.9964 43.2698 13.9691 42.9048 17.0444 42.9048ZM37.0702 52.2131C42.6435 52.2376 47.2343 47.77 47.2427 42.3082C47.251 36.969 42.7434 32.496 37.3061 32.4497C31.6051 32.4006 26.9671 36.8491 26.981 42.3491C26.9976 47.7346 31.5496 52.1886 37.0702 52.2131ZM3.76049 45.6698C4.85129 45.6997 5.82829 44.8335 5.89213 43.7847C5.95875 42.6978 5.00117 41.6762 3.86319 41.6217C2.80847 41.57 1.70657 42.6297 1.71767 43.6784C1.73155 44.7327 2.66414 45.6398 3.76049 45.6698Z" fill="black"/>
<path d="M28.5103 26.9168C28.5602 27.2628 28.7684 27.6932 28.6352 27.9411C27.9191 29.2541 27.0809 30.5018 26.3592 31.8121C25.9151 32.6184 25.3045 32.7464 24.5107 32.4876C23.109 32.0354 21.6879 31.6377 20.3196 31.1038C19.4286 30.7551 18.8402 30.8586 18.1463 31.5506C15.651 34.0377 13.1058 36.4757 10.5162 38.8648C10.1027 39.2462 9.35881 39.2843 8.76761 39.4804C8.78426 38.9056 8.62883 38.26 8.84255 37.767C11.0103 32.7737 13.2613 27.8185 15.429 22.8252C15.923 21.6893 16.5392 21.4387 17.6772 21.9099C19.659 22.7326 21.6796 23.4708 23.7807 24.2799C25.9207 19.8342 27.9996 15.5137 30.1229 11.1007C29.3596 10.6839 28.6713 10.3325 28.0079 9.93748C26.8782 9.26462 26.8394 8.5618 27.9441 7.91891C31.6356 5.76959 35.3382 3.64206 39.0575 1.53905C40.201 0.890712 40.8061 1.24485 40.8144 2.53335C40.8394 6.79658 40.8449 11.0598 40.8338 15.323C40.831 16.41 40.3398 16.7123 39.3544 16.2383C38.4885 15.8216 37.6641 15.3258 36.6843 14.7891C35.7573 16.3037 34.8358 17.7993 33.9199 19.3002C33.2565 20.3872 32.6237 21.4959 31.9326 22.5664C31.2997 23.5471 30.9722 24.852 29.4623 24.9718L29.5039 24.9391C29.0487 24.4869 28.8822 24.0892 29.2958 23.4273C31.1832 20.4198 32.9845 17.3607 34.8303 14.3315C35.996 12.4191 36.0071 12.4328 37.9722 13.4897C38.2775 13.6532 38.6189 13.7485 39.013 13.9011C39.013 10.4523 39.013 7.12892 39.013 3.57941C35.8683 5.39911 32.9234 7.1044 29.8536 8.88052C30.2561 9.13659 30.4421 9.26735 30.6391 9.38176C32.446 10.4224 32.4405 10.4196 31.5412 12.2775C29.5678 16.3664 27.5444 20.4362 25.6681 24.5687C25.1768 25.6556 24.2525 25.7046 23.4671 25.7945C22.7343 25.8817 21.9183 25.4458 21.1633 25.1707C19.831 24.6885 18.5182 24.1546 17.1887 23.6397C16.5226 24.5333 15.7343 25.2606 15.3652 26.1541C14.5658 28.0909 13.9996 30.1177 13.2946 32.0927C13.0031 32.9072 12.5951 33.6808 12.2399 34.4735C12.387 34.5825 12.5341 34.6915 12.6839 34.8004C14.3215 33.0788 15.9675 31.3626 17.5912 29.6273C18.0908 29.0907 18.5293 28.8101 19.362 29.088C21.1744 29.6954 23.0424 30.1504 24.7688 30.6353C25.8818 29.1288 26.9254 27.7177 27.9718 26.3066C28.1467 26.5082 28.3299 26.7125 28.5103 26.9168Z" fill="black"/>
<path d="M28.5107 26.9169C28.3303 26.7126 28.1471 26.5083 27.9667 26.304C27.6947 24.9991 28.7772 25.1626 29.5016 24.9392L29.46 24.9719C30.5785 25.1762 30.0234 25.8164 29.7015 26.2032C29.4267 26.5383 28.916 26.6881 28.5107 26.9169Z" fill="black"/>
<path d="M37.0708 52.213C31.5502 52.1885 26.9983 47.7346 26.9844 42.3463C26.9705 36.8463 31.6085 32.3978 37.3095 32.4469C42.7469 32.4932 47.2544 36.9662 47.2461 42.3054C47.2322 47.7673 42.6442 52.2375 37.0708 52.213ZM36.821 49.1811C40.1129 49.2001 41.8809 47.5602 41.917 44.294C41.9559 40.6764 39.7798 38.0531 37.551 35.506C37.3595 35.2881 36.3964 35.3372 36.166 35.5932C34.126 37.8324 32.2469 40.2351 31.9111 43.3324C31.5363 46.7675 33.3238 49.369 36.821 49.1811Z" fill="#F5F5F5"/>
<path d="M3.7617 45.6697C2.66535 45.6398 1.73276 44.7326 1.71888 43.6784C1.705 42.6296 2.80968 41.5727 3.8644 41.6217C5.00238 41.6762 5.95996 42.695 5.89334 43.7846C5.82951 44.8334 4.8525 45.6997 3.7617 45.6697Z" fill="white"/>
<path d="M29.5012 24.9392C28.7768 25.1626 27.6943 25.0018 27.9663 26.304C26.9227 27.715 25.8791 29.1289 24.7633 30.6326C23.0369 30.1477 21.169 29.6928 19.3565 29.0853C18.5266 28.8074 18.0853 29.088 17.5857 29.6246C15.9647 31.3599 14.3161 33.0761 12.6785 34.7977C12.5314 34.6888 12.3843 34.5798 12.2344 34.4708C12.5896 33.6781 12.9977 32.9045 13.2891 32.09C13.9969 30.115 14.5603 28.0855 15.3597 26.1514C15.7288 25.2579 16.5171 24.5306 17.1832 23.6371C18.5127 24.1519 19.8256 24.6858 21.1578 25.168C21.9128 25.4404 22.726 25.8763 23.4616 25.7918C24.2471 25.6992 25.1713 25.6502 25.6626 24.566C27.5361 20.4335 29.5595 16.3637 31.5357 12.2748C32.435 10.4142 32.4406 10.4197 30.6337 9.37907C30.4366 9.26466 30.2506 9.13663 29.8482 8.87784C32.918 7.10172 35.8628 5.39643 39.0076 3.57672C39.0076 7.12623 39.0076 10.4496 39.0076 13.8984C38.6134 13.7458 38.272 13.6505 37.9667 13.487C36.0016 12.4301 35.9905 12.4192 34.8248 14.3288C32.9762 17.3607 31.1749 20.4172 29.2903 23.4246C28.8767 24.0893 29.046 24.487 29.5012 24.9392Z" fill="#F5F5F5"/>
<path d="M36.8205 49.1811C33.3233 49.3663 31.5358 46.7648 31.9077 43.3324C32.2436 40.2351 34.1226 37.8324 36.1627 35.5932C36.393 35.3399 37.3562 35.2881 37.5477 35.506C39.7765 38.0531 41.9553 40.6791 41.9137 44.294C41.8804 47.5602 40.1123 49.2028 36.8205 49.1811ZM36.851 37.3884C35.2828 39.5186 33.6535 41.4718 33.6286 44.1415C33.6064 46.3316 34.7943 47.5275 36.8732 47.5357C38.9632 47.5439 40.1512 46.3861 40.1345 44.1687C40.1123 41.4637 38.5386 39.4533 36.851 37.3884Z" fill="black"/>
<path d="M36.8517 37.3884C38.5392 39.4532 40.113 41.4636 40.1352 44.166C40.1518 46.3834 38.9639 47.5411 36.8739 47.533C34.795 47.5248 33.607 46.3289 33.6292 44.1387C33.6542 41.4718 35.2835 39.5159 36.8517 37.3884Z" fill="white"/>
</g>
<defs>
<clipPath id="clip0_485_122">
<rect width="49" height="54" fill="white"/>
</clipPath>
</defs>
</svg>