<svg xmlns="http://www.w3.org/2000/svg" width="94" height="75" viewBox="0 0 94 75" fill="none">
  <g clip-path="url(#clip0_1081_407)">
    <path d="M47.0016 67.1945C43.9567 69.4352 41.0989 71.5465 38.2227 73.6392C35.9079 75.3253 33.7544 75.4214 31.8027 73.9683C29.8694 72.5263 29.3154 70.4187 30.1922 67.6863C31.1681 64.6432 32.1182 61.5891 33.1784 58.5756C33.5123 57.6254 33.3068 57.1262 32.5401 56.5827C29.8914 54.7044 27.272 52.7817 24.6563 50.8516C22.4112 49.1951 21.6921 47.265 22.4002 44.9467C23.1082 42.6283 24.9608 41.3786 27.7673 41.3675C30.8269 41.3527 33.8865 41.3009 36.9387 41.3934C38.2374 41.434 38.8867 41.0828 39.2609 39.748C40.1084 36.7308 41.1172 33.7617 42.1078 30.7853C42.9662 28.197 44.6941 26.877 47.064 26.9103C49.3605 26.9399 51.0261 28.234 51.8625 30.7483C52.8934 33.8394 53.9022 36.9379 54.8451 40.0549C55.1422 41.0347 55.5788 41.4156 56.6353 41.3934C59.8747 41.3194 63.1177 41.349 66.3607 41.3712C69.0315 41.3897 70.8694 42.6579 71.5774 44.9097C72.3002 47.2169 71.5885 49.1877 69.369 50.8368C66.9587 52.6264 64.5851 54.4825 62.0648 56.1057C60.6267 57.0338 60.5204 57.9434 61.0633 59.4261C62.1015 62.2509 62.9783 65.135 63.8808 68.0079C64.6769 70.5444 64.0092 72.6964 62.0722 74.0607C60.1902 75.3882 58.0734 75.3105 55.9493 73.7686C52.9851 71.6167 50.0392 69.4278 47.0016 67.1945ZM33.7397 45.0687C31.8467 45.0687 29.9428 44.9762 28.0608 45.1131C27.3344 45.1648 26.6447 45.7379 25.9403 46.0707C26.3439 46.7473 26.597 47.62 27.1766 48.0674C29.9941 50.2304 32.8519 52.3417 35.7868 54.3457C37.3496 55.4106 37.8008 56.542 37.1332 58.3834C35.9005 61.7888 34.8146 65.2533 33.7948 68.729C33.5967 69.4056 33.9709 70.2523 34.0809 71.0214C34.7926 70.8587 35.6364 70.892 36.1867 70.5038C39.1949 68.3962 42.1738 66.2405 45.0756 63.9851C46.488 62.8832 47.6106 62.9572 48.99 64.0294C51.8955 66.2812 54.8671 68.4443 57.879 70.5444C58.4183 70.9216 59.2767 70.8439 59.9847 70.977C60.0838 70.256 60.425 69.4648 60.2379 68.8288C59.174 65.2385 58.0477 61.6593 56.8041 58.1245C56.2318 56.4976 56.617 55.4808 57.9927 54.5306C60.7625 52.6153 63.4809 50.6223 66.159 48.5813C67.0027 47.9379 68.5509 47.5645 67.9969 46.0115C67.4613 44.503 66.0159 45.1168 64.9447 45.0946C61.7677 45.028 58.5833 44.9541 55.4137 45.1131C53.3483 45.2166 52.2991 44.5104 51.7414 42.473C50.817 39.1009 49.6834 35.7806 48.5278 32.4787C48.282 31.7762 47.5556 31.2474 47.053 30.6374C46.5064 31.2733 45.714 31.8206 45.4535 32.5564C44.2282 36.0283 43.0983 39.5409 42.0344 43.0683C41.5868 44.5584 40.7614 45.1611 39.2389 45.0909C37.4083 45.0058 35.574 45.0687 33.7397 45.0687Z" fill="black"/>
    <path d="M83.5 58L81 51L77 58L69 59L74 65.5V73.5L81 69.5L88.5 72.5L87 64.5L92.5 60L83.5 58Z" fill="#FFBE00"/>
    <path d="M80.3162 71.2248C78.8268 72.3082 77.5024 73.2954 76.1561 74.2456C74.817 75.1922 73.412 75.2883 72.0693 74.3011C70.6825 73.2843 70.0479 71.7979 70.8476 70.2523C72.7443 66.5992 71.9996 64.0775 68.2393 62.2916C66.7682 61.5928 66.4233 60.0066 66.8525 58.4351C67.2928 56.8193 68.5328 55.7471 70.0956 55.9948C74.2741 56.653 76.5193 55.1185 77.1209 50.8405C77.3373 49.3023 78.7351 48.5332 80.2685 48.5074C81.8937 48.4778 83.3318 49.2949 83.5739 50.8923C84.1976 55.0334 86.252 56.7158 90.4415 55.9874C92.0887 55.7027 93.3434 56.8304 93.835 58.5017C94.3082 60.1175 93.7836 61.6113 92.3712 62.3286C88.82 64.1293 87.8588 66.5068 89.7885 70.1673C90.5442 71.6019 90.0783 73.2214 88.6512 74.2715C87.1618 75.366 85.6834 75.1478 84.26 74.0866C83.6216 73.6097 82.9796 73.1438 82.3339 72.6779C81.6919 72.2083 81.0463 71.7498 80.3162 71.2248ZM74.4612 70.9068C76.1487 69.6718 77.4511 68.7733 78.6947 67.7935C79.8356 66.895 80.8665 66.9209 82.0038 67.8231C83.1997 68.7696 84.4764 69.6127 86.1676 70.8255C85.5146 68.7955 85.067 67.3387 84.5681 65.8967C84.1059 64.5582 84.3517 63.5414 85.599 62.7279C86.883 61.8923 88.0826 60.9199 89.3189 60.0103C87.7598 59.6146 86.3657 59.5444 84.9827 59.6331C83.2438 59.7478 82.2312 59.097 81.8093 57.3296C81.4755 55.9282 80.9105 54.5824 80.3052 52.7854C79.6779 54.7007 79.1313 56.1242 78.7497 57.5921C78.3572 59.1118 77.4511 59.6886 75.9506 59.6257C74.4502 59.5629 72.9424 59.6109 71.4383 59.6109C72.6012 60.942 73.8522 61.8923 75.1362 62.7945C76.2368 63.5673 76.611 64.4732 76.101 65.8043C75.5361 67.298 75.1179 68.8399 74.4612 70.9068Z" fill="black"/>
    <path d="M16.5 57.5L14 50.5L10 57.5L2 58.5L7 65V73L14 69L21.5 72L20 64L25.5 59.5L16.5 57.5Z" fill="#FFBE00"/>
    <path d="M13.6837 71.2099C12.3153 72.2119 11.0277 73.14 9.75466 74.0829C8.32759 75.1441 6.84915 75.3585 5.35971 74.2714C3.92896 73.2287 3.45571 71.6129 4.21144 70.1746C6.12277 66.5252 5.20929 64.1292 1.63977 62.3322C0.223696 61.6186 -0.30458 60.1322 0.164999 58.5127C0.649251 56.8378 1.85621 55.9984 3.5621 55.9356C4.9048 55.8875 6.26218 56.0243 7.58653 55.8542C8.14416 55.784 8.8632 55.2478 9.09799 54.7302C9.65194 53.51 9.92342 52.1641 10.3783 50.8922C10.9359 49.3355 12.1026 48.4814 13.7277 48.5036C15.2612 48.5258 16.6589 49.2875 16.879 50.8293C17.488 55.0888 19.7038 56.6677 23.897 55.991C25.4635 55.7396 26.7035 56.8119 27.1474 58.424C27.5766 59.9917 27.2464 61.5816 25.7717 62.2842C22.0297 64.0701 21.2447 66.577 23.1523 70.2449C23.9521 71.7793 23.3247 73.2768 21.938 74.2973C20.5183 75.34 19.0765 75.1441 17.6971 74.1457C16.3728 73.1844 15.0521 72.2119 13.6837 71.2099ZM19.5021 70.8771C18.8858 68.899 18.4969 67.3719 17.9319 65.9188C17.3926 64.5285 17.7338 63.5746 18.9188 62.7611C20.1954 61.8848 21.4171 60.9346 22.6607 60.0139C20.9035 59.6146 19.2746 59.6072 17.6458 59.6146C16.4608 59.6183 15.7161 59.1117 15.3713 57.9174C14.9164 56.3497 14.3587 54.8152 13.6874 52.7927C13.0821 54.5971 12.5208 55.943 12.1869 57.3443C11.7687 59.1117 10.7452 59.7477 9.01728 59.6368C7.61221 59.5443 6.19614 59.6183 4.78741 59.6183C5.94668 60.9383 7.12796 61.8959 8.39729 62.7242C9.63727 63.5302 9.8904 64.547 9.4355 65.8855C8.92923 67.3682 8.478 68.8694 7.847 70.8587C9.52354 69.6459 10.7965 68.8102 11.9705 67.8526C13.1738 66.8691 14.245 66.9356 15.4226 67.8748C16.6076 68.8139 17.8586 69.6755 19.5021 70.8771Z" fill="black"/>
    <path d="M30.3501 18.7943C29.8952 19.3711 29.576 20.1661 29.0881 20.2955C28.4425 20.4656 27.4409 20.3657 26.9714 19.9479C25.1481 18.3173 23.4715 16.5204 21.7436 14.7825C20.3166 13.3479 18.8968 11.9133 17.4734 10.4749C16.6333 9.62452 16.3435 8.63729 17.2129 7.70552C18.1558 6.69241 19.1903 6.97342 20.0928 7.87561C23.1634 10.9556 26.234 14.0393 29.2752 17.1489C29.6788 17.5594 29.9246 18.1325 30.3501 18.7943Z" fill="black"/>
    <path d="M77.5758 8.885C77.0548 9.63559 76.7467 10.242 76.2954 10.7005C73.3826 13.677 70.433 16.6202 67.5055 19.5856C66.6067 20.4951 65.6235 21.1348 64.5046 20.0588C63.393 18.994 63.8956 17.9661 64.8201 17.0343C67.8467 13.9949 70.8256 10.9112 73.9219 7.94214C74.4318 7.45407 75.459 7.22113 76.167 7.33945C76.677 7.42449 77.0658 8.28971 77.5758 8.885Z" fill="black"/>
    <path d="M48.8251 13.91C48.8251 15.0747 48.8765 16.2394 48.8105 17.4004C48.7444 18.543 48.0437 19.3897 46.9395 19.1124C46.2571 18.9423 45.3106 18.0549 45.2556 17.4189C45.0538 15.1117 45.1346 12.7712 45.1896 10.4455C45.2153 9.29554 45.9673 8.4636 47.0569 8.72982C47.7392 8.89621 48.5647 9.74294 48.7481 10.4418C49.0343 11.5288 48.8251 12.7453 48.8251 13.91Z" fill="black"/>
    <path d="M47.4383 0.0110925C47.9006 0.732104 48.8031 1.52337 48.704 2.15564C48.5976 2.83228 47.5998 3.73077 46.8954 3.82691C46.4075 3.89346 45.3289 2.77682 45.3032 2.15564C45.2739 1.45681 46.1323 0.721012 46.6056 0C46.8844 0.0036975 47.1632 0.00739499 47.4383 0.0110925Z" fill="black"/>
    <path d="M33.7398 45.0688C35.5741 45.0688 37.4084 45.006 39.239 45.0873C40.7615 45.1576 41.5869 44.5512 42.0345 43.0648C43.0947 39.5374 44.2246 36.0247 45.4536 32.5528C45.7141 31.817 46.5065 31.2698 47.0531 30.6338C47.5594 31.2439 48.2821 31.7726 48.5279 32.4751C49.6835 35.777 50.8171 39.0974 51.7415 42.4695C52.2992 44.5068 53.3484 45.213 55.4138 45.1095C58.5834 44.9505 61.7678 45.0244 64.9448 45.091C66.016 45.1132 67.4577 44.5031 67.997 46.008C68.551 47.5646 67.0028 47.9381 66.159 48.5777C63.481 50.6188 60.7626 52.6154 57.9928 54.527C56.6171 55.4773 56.2319 56.4941 56.8042 58.121C58.0442 61.6558 59.1741 65.2313 60.238 68.8252C60.4251 69.4575 60.0839 70.2525 59.9848 70.9735C59.2731 70.8404 58.4184 70.918 57.8791 70.5409C54.8672 68.437 51.8919 66.274 48.9901 64.0259C47.6107 62.9573 46.4881 62.8833 45.0757 63.9815C42.1776 66.237 39.195 68.3926 36.1868 70.5002C35.6328 70.8884 34.789 70.8552 34.081 71.0178C33.9709 70.2488 33.5968 69.402 33.7949 68.7254C34.8147 65.2497 35.9006 61.7852 37.1333 58.3798C37.8009 56.5384 37.3497 55.4107 35.7869 54.3421C32.8557 52.3418 29.9942 50.2305 27.1767 48.0638C26.5971 47.6201 26.344 46.7438 25.9404 46.0671C26.6448 45.7307 27.3345 45.1613 28.0609 45.1095C29.9465 44.9764 31.8468 45.0688 33.7398 45.0688Z" fill="#D00053"/>
  </g>
  <defs>
    <clipPath id="clip0_1081_407">
      <rect width="94" height="75" fill="white"/>
    </clipPath>
  </defs>
</svg>