<svg xmlns="http://www.w3.org/2000/svg" width="90" height="90" viewBox="0 0 90 90" fill="none">
<rect width="90" height="90" rx="14" fill="#F5F5F5"/>
<path d="M44.4733 17C57.769 17.1842 68.6606 26.54 70.6912 39.6812C71.3223 43.7665 70.9798 47.8111 69.662 51.7448C69.5462 52.0888 69.5348 52.2241 69.3701 52.573C69.2429 52.8436 69.0814 53.3506 69.008 53.6359C68.8596 54.226 68.4893 54.7412 68.2186 55.2596C63.8558 63.6422 57.0057 68.6208 47.6113 69.793C33.7464 71.5243 21.0868 62.1554 18.461 48.3931C15.7046 33.951 25.6111 19.786 40.1072 17.4695C41.5506 17.2396 43.0185 17.1532 44.4733 17ZM68.4763 50.9607C69.4973 47.5878 69.8365 44.1529 69.432 40.6528C67.788 26.439 54.507 16.4571 40.3682 18.7998C23.5675 21.5825 14.3118 40.0431 22.3019 55.134C26.8898 63.7987 34.3483 68.422 44.1341 68.5687C53.9965 68.717 61.4517 64.1426 66.4604 55.6573" fill="black"/>
<path d="M66.2453 51.797C66.3285 52.6235 65.177 54.4657 64.7301 55.2221C61.509 60.6605 56.8884 64.3529 50.7902 66.0158C37.126 69.7424 23.6721 61.0273 21.4067 47.0726C19.3158 34.2004 28.6824 21.8792 41.691 20.3876C53.9462 18.9823 64.9976 26.9655 67.418 39.034C68.2922 43.39 67.917 47.6823 66.3301 51.8492C65.9794 52.7719 64.8949 51.8263 64.996 51.5345C67.9187 43.09 66.4834 35.4687 60.6152 28.5387C58.0154 31.1617 55.4988 33.7016 52.948 36.2773C52.5451 35.8469 52.2597 35.5405 51.9254 35.1834C54.4403 32.7071 56.9863 30.1999 59.6285 27.5964C54.1549 22.7433 47.954 20.6794 40.9294 21.9249C32.2086 23.472 26.2572 28.5974 23.5791 37.0452C21.0511 45.0153 22.974 52.1882 28.397 58.5575C31.3931 55.5286 34.3256 52.5648 37.3494 49.5082C37.7947 49.9516 38.0931 50.2483 38.4699 50.6249C35.4249 53.631 32.4728 56.5458 29.4555 59.5259C32.008 61.9353 34.872 63.5753 38.1111 64.56C41.36 65.5479 44.6741 65.7647 48.0257 65.2235C51.3774 64.6822 54.4534 63.4335 57.2162 61.4528C59.9286 59.5096 62.1499 57.1148 63.7793 54.1315L65.0139 51.4856L66.198 51.5753L66.2453 51.797Z" fill="black"/>
<path d="M56.9799 53.5837C56.3422 53.7272 56.246 53.8071 55.4958 53.8625C53.625 54.3401 51.7038 54.7135 49.8673 55.3378C48.4304 55.8253 47.4045 55.5612 46.2938 54.5602C44.7232 53.1452 43.0188 51.8736 41.3161 50.6167C40.5447 50.0478 40.2478 49.4576 40.6066 48.5545C40.7029 48.3132 40.7143 48.0393 40.7795 47.7019C38.8664 47.5079 37.0381 47.2275 35.2032 47.1672C33.6913 47.1183 32.8269 46.6455 32.3572 45.0772C31.633 42.6661 30.6267 40.3382 29.7101 37.9874C29.472 37.3794 29.5372 36.9473 30.02 36.4681C31.8891 34.6112 33.7027 32.699 35.5784 30.8503C35.8638 30.5683 36.3808 30.3564 36.7755 30.3776C39.4323 30.5292 42.0843 30.7753 44.7395 30.94C45.4294 30.9824 45.7328 31.3003 45.9513 31.9035C46.6331 33.7912 47.3719 35.6595 48.0569 37.5473C48.233 38.0331 48.4222 38.3118 48.9817 38.0689C51.0057 37.187 52.6595 37.7087 54.2578 39.1889C55.6458 40.4735 57.2572 41.5201 58.7919 42.6417C59.2454 42.9726 59.4297 43.3329 59.3106 43.8839C58.6631 46.8525 58.0303 49.8244 57.3844 52.7931C57.3469 52.9626 57.2523 53.1191 57.1838 53.2805L56.9799 53.5837ZM57.771 44.3844C55.3816 45.0006 53.1569 45.563 50.9453 46.1679C50.7676 46.2168 50.6045 46.5542 50.5539 46.7841C50.1967 48.3686 49.8705 49.9597 49.5362 51.5476C49.3666 52.3513 49.2002 53.155 49.0061 54.0875C51.3661 53.4843 53.5435 52.9365 55.7127 52.3562C55.8953 52.3073 56.1139 52.0611 56.1563 51.872C56.6961 49.4479 57.2083 47.0156 57.771 44.3844ZM47.5709 53.7272C47.6557 53.5104 47.7209 53.393 47.747 53.2675C48.2347 50.99 48.7403 48.7175 49.1774 46.4303C49.2296 46.1548 49.0045 45.7114 48.768 45.5158C47.3898 44.3746 45.9725 43.2824 44.565 42.1787C44.2584 41.9374 43.9403 41.7092 43.5489 41.4174C43.0025 44.0078 42.4708 46.4662 41.9864 48.936C41.9473 49.1397 42.174 49.4707 42.3681 49.6321C43.5195 50.5776 44.6971 51.4938 45.8698 52.4148C46.4145 52.842 46.9674 53.2626 47.5709 53.7272ZM41.1791 46.3374C41.1041 45.9168 41.0927 45.5989 40.9899 45.3136C40.5104 43.9899 40.0064 42.6759 39.5057 41.3587C39.1975 40.5485 39.0964 39.4628 38.5108 39.0096C37.8992 38.5368 36.8179 38.6477 35.9372 38.5515C34.435 38.3885 32.928 38.2613 31.3965 38.1162C31.3965 38.2809 31.3753 38.3656 31.3998 38.4325C32.2528 40.7148 33.1025 42.9987 33.9816 45.2712C34.0485 45.4457 34.3127 45.6331 34.5035 45.6543C36.6564 45.8956 38.8126 46.1026 41.1791 46.3374ZM44.6824 40.4882C46.5792 41.988 48.2934 43.3476 50.019 44.6909C50.1462 44.7903 50.3827 44.836 50.5425 44.7968C52.6579 44.2687 54.7667 43.7209 56.918 43.1666C56.8413 43.0215 56.8234 42.9319 56.7679 42.8895C55.106 41.6293 53.4424 40.3692 51.769 39.1237C51.6336 39.0226 51.402 38.9574 51.2422 38.9916C49.1284 39.4611 47.0212 39.9502 44.6824 40.4882ZM43.5978 32.2556C41.3438 32.0893 39.3198 31.91 37.2909 31.8154C36.8978 31.7975 36.3922 32.0094 36.1052 32.2866C34.7955 33.5483 33.5462 34.8721 32.2773 36.1763C32.1403 36.3164 32.0277 36.4795 31.8027 36.755C34.1415 36.9783 36.3253 37.1919 38.5108 37.3842C38.6707 37.3989 38.8892 37.2995 39.0018 37.1788C40.4908 35.6008 41.9636 34.0113 43.5978 32.2556ZM44.8455 32.9696C43.1852 34.7498 41.6505 36.3866 40.132 38.0412C40.0097 38.1749 39.9167 38.4586 39.9722 38.6134C40.499 40.0725 41.0617 41.5185 41.6146 42.9677C41.962 42.1722 42.1626 41.3929 42.2784 40.6007C42.3925 39.8198 42.7726 39.4367 43.5652 39.2997C44.6726 39.1106 45.7605 38.8025 46.9397 38.527C46.2367 36.6604 45.5729 34.8998 44.8455 32.9696Z" fill="black"/>
<path d="M57.7704 44.3844C57.2077 47.0139 56.6956 49.4478 56.1541 51.8736C56.1117 52.0627 55.8931 52.3089 55.7105 52.3578C53.5413 52.9381 51.3639 53.4859 49.0039 54.0891C49.198 53.155 49.3644 52.3513 49.534 51.5492C49.8683 49.9597 50.1945 48.3686 50.5517 46.7857C50.6039 46.5558 50.767 46.2184 50.9431 46.1695C53.1564 45.563 55.381 45.0022 57.7704 44.3844Z" fill="#F5F5F5"/>
<path d="M47.5707 53.7272C46.9672 53.2609 46.4143 52.842 45.8696 52.4116C44.6969 51.4905 43.521 50.5743 42.3679 49.6288C42.1722 49.469 41.9455 49.1365 41.9862 48.9327C42.4706 46.4646 43.0023 44.0046 43.5487 41.4141C43.9402 41.7076 44.2582 41.9342 44.5648 42.1755C45.9723 43.2807 47.3913 44.3714 48.7678 45.5125C49.0043 45.7081 49.231 46.1532 49.1772 46.4271C48.7385 48.7143 48.2345 50.9868 47.7468 53.2642C47.7207 53.393 47.6555 53.5104 47.5707 53.7272Z" fill="#F5F5F5"/>
<path d="M41.1788 46.3374C38.8122 46.101 36.6561 45.8956 34.5032 45.6576C34.3124 45.6364 34.0482 45.4473 33.9813 45.2745C33.1022 43.002 32.2525 40.718 31.3995 38.4357C31.375 38.3689 31.3962 38.2841 31.3962 38.1195C32.9277 38.2646 34.4347 38.3901 35.9368 38.5547C36.8176 38.6509 37.8989 38.5401 38.5105 39.0128C39.0977 39.466 39.1988 40.5518 39.5054 41.362C40.0045 42.6776 40.5085 43.9931 40.9896 45.3169C41.0923 45.5989 41.1038 45.9168 41.1788 46.3374Z" fill="#F5F5F5"/>
<path d="M44.6816 40.4882C47.0204 39.9502 49.1277 39.4611 51.2398 38.9933C51.3996 38.9574 51.6296 39.0226 51.7666 39.1253C53.4399 40.3708 55.1035 41.631 56.7655 42.8911C56.8209 42.9319 56.8389 43.0215 56.9155 43.1683C54.7659 43.7209 52.6554 44.2687 50.5401 44.7985C50.3819 44.8376 50.1454 44.792 50.0165 44.6925C48.291 43.3476 46.5785 41.988 44.6816 40.4882Z" fill="#F5F5F5"/>
<path d="M43.5973 32.2556C41.963 34.0113 40.4903 35.6008 39.0028 37.1772C38.8903 37.2978 38.6701 37.3973 38.5119 37.3826C36.3264 37.1902 34.1425 36.9767 31.8037 36.7533C32.0272 36.4778 32.1413 36.3148 32.2783 36.1746C33.5472 34.8704 34.7965 33.5483 36.1062 32.2849C36.3933 32.0078 36.8989 31.7959 37.2919 31.8138C39.3192 31.91 41.3449 32.0893 43.5973 32.2556Z" fill="#F5F5F5"/>
<path d="M44.8452 32.9696C45.5726 34.8998 46.2364 36.6604 46.941 38.527C45.7601 38.8042 44.6739 39.1106 43.5665 39.2997C42.7738 39.4351 42.3922 39.8182 42.2796 40.6007C42.1638 41.3929 41.9632 42.1722 41.6158 42.9677C41.0629 41.5185 40.5003 40.0708 39.9734 38.6134C39.918 38.4586 40.011 38.1749 40.1333 38.0412C41.6501 36.3866 43.1848 34.7498 44.8452 32.9696Z" fill="#F5F5F5"/>
</svg>