<svg xmlns="http://www.w3.org/2000/svg" width="73" height="73" viewBox="0 0 73 73" fill="none">
<g clip-path="url(#clip0_150_477)">
<path d="M12.0025 58.3793C6.04297 56.8169 3.22423 51.3935 5.92524 45.5242C2.28234 43.6818 0.0314949 40.7471 0.000329404 36.5854C-0.0308361 32.4029 2.15075 29.4233 5.99796 27.4565C4.67169 24.8502 4.38428 22.1921 5.68977 19.5167C6.98833 16.8551 9.15606 15.2996 12.0683 14.7085C12.2518 10.7162 13.8794 7.79187 17.7958 6.4991C20.3826 5.64878 20.386 5.65915 21.8681 3.38816C23.6446 0.664357 26.8858 -0.538541 30.0127 0.363632C33.15 1.26581 35.2693 4.06565 35.2797 7.46695C35.3039 17.1454 35.2866 26.8205 35.2866 36.499C35.2866 46.0046 35.2901 55.5068 35.2866 65.0125C35.2866 69.2399 32.97 72.1435 29.012 72.8935C25.7257 73.5192 22.488 71.4141 20.9955 67.7536C20.8397 67.3699 20.3791 66.9102 20.0017 66.8479C14.6239 65.9458 12.7436 63.9997 12.0787 58.5313C12.0718 58.4795 12.0268 58.4311 12.0025 58.3793ZM32.8315 21.8775C32.8315 16.7065 32.9319 11.7013 32.7899 6.7065C32.7206 4.29033 30.3625 2.42722 27.9316 2.45142C25.5353 2.47562 23.3398 4.24885 23.2082 6.63045C23.0974 8.60417 22.2664 8.82194 20.5453 8.60417C16.9959 8.15481 13.9902 11.4109 14.662 14.9194C14.9355 16.3539 14.6031 16.8862 13.1175 17.0452C7.87828 17.6052 5.65168 22.6069 8.63664 26.9622C9.62355 28.4036 9.46772 28.8944 7.84019 29.4337C4.39467 30.5743 2.36198 33.2394 2.38968 36.5819C2.41739 39.838 4.45007 42.4581 7.82287 43.5746C9.46079 44.1173 9.62355 44.6082 8.64703 46.0357C5.59627 50.4913 7.84711 55.3928 13.2664 55.9873C14.5615 56.129 14.9321 56.6233 14.7035 57.8988C14.0144 61.7736 16.9544 64.8742 20.8674 64.3696C22.4014 64.1725 23.087 64.5113 23.1771 66.1877C23.3052 68.552 25.2548 70.3529 27.5645 70.5465C29.8603 70.7401 32.2393 69.2848 32.6202 66.9862C32.9492 65.0021 32.6895 62.9212 32.6895 60.8092C29.9435 60.8092 27.2909 60.8092 24.6384 60.8092C21.9789 60.8092 21.8785 60.7609 21.9512 58.0993C21.9893 56.7097 21.7919 55.6693 20.5349 54.7187C19.0598 53.5988 18.9801 51.0305 20.4761 49.9866C22.0343 48.8978 21.9374 47.5843 21.9305 46.1118C21.9201 44.5563 21.9235 43.0008 21.9305 41.4454C21.9374 39.0845 21.9997 39.0223 24.3579 39.0188C27.1628 39.0154 29.9712 39.0188 32.7518 39.0188C32.7518 36.8308 32.7518 34.902 32.7518 32.9698C27.4641 32.9698 22.2975 32.9698 16.9648 32.9698C16.9648 34.1934 16.9855 35.3306 16.9578 36.4678C16.9232 37.8954 16.8886 39.1329 18.3707 40.163C19.8978 41.2241 19.7316 43.7544 18.4088 45.1024C17.0929 46.4436 14.7762 46.5162 13.3842 45.2615C11.9333 43.9549 11.5974 41.5352 13.0933 40.3565C14.6239 39.1502 14.6689 37.7675 14.61 36.1568C14.565 34.8916 14.6412 33.6196 14.5927 32.3545C14.5408 30.9546 15.1329 30.405 16.5561 30.4326C19.9012 30.4983 23.2498 30.4534 26.5984 30.4534C28.6518 30.4534 30.7087 30.4534 32.7761 30.4534C32.7761 28.3034 32.7761 26.3746 32.7761 24.2833C28.0181 24.2833 23.3571 24.2626 18.6996 24.3213C18.3222 24.3248 17.8824 24.8191 17.5846 25.1786C16.0956 26.9933 13.7305 27.2664 12.1202 25.7662C10.6105 24.3628 10.6001 21.957 12.096 20.526C13.6924 18.9982 15.9952 19.2471 17.5569 21.0687C17.8651 21.4282 18.3118 21.8844 18.7169 21.9052C20.5419 21.9951 22.3737 21.9432 24.3233 21.9432C24.2713 20.0594 24.9466 18.376 22.9797 17.0245C21.4283 15.9598 21.6223 13.4607 22.9762 12.0919C24.3752 10.6747 26.7126 10.6609 28.1082 12.0573C29.4621 13.4123 29.6803 15.908 28.1566 16.9899C26.1932 18.3794 26.7092 20.049 26.8408 21.8775C28.8354 21.8775 30.7295 21.8775 32.8315 21.8775ZM24.254 41.4108C24.254 43.4744 24.2886 45.4205 24.2402 47.3631C24.2159 48.286 24.4272 48.8909 25.2652 49.4923C27.194 50.8715 27.329 53.5988 25.4314 54.9572C24.0359 55.9562 24.1397 57.0104 24.4064 58.3309C27.2528 58.3309 29.9885 58.3309 32.7414 58.3309C32.7414 52.6275 32.7414 47.0312 32.7414 41.4108C29.8777 41.4108 27.1386 41.4108 24.254 41.4108ZM16.3103 23.2775C15.5588 22.638 15.1225 21.9778 14.6827 21.9778C14.2534 21.9778 13.5296 22.6172 13.4811 23.0389C13.4361 23.4192 14.0802 24.1623 14.5096 24.2384C14.939 24.311 15.4792 23.7545 16.3103 23.2775ZM17.5153 42.5204C16.6947 41.9846 16.1787 41.3831 15.7666 41.4488C15.313 41.5214 14.9563 42.2024 14.5581 42.6171C14.9805 43.0181 15.3718 43.6956 15.8289 43.7405C16.241 43.782 16.7224 43.1287 17.5153 42.5204ZM24.8288 52.1954C23.9805 51.6873 23.4506 51.1135 23.042 51.193C22.5884 51.2794 22.249 51.9569 21.8612 52.3786C22.2941 52.7657 22.7096 53.4259 23.1702 53.464C23.5788 53.4951 24.0428 52.8314 24.8288 52.1954ZM27.2736 14.6221C26.4598 14.0621 25.9612 13.4572 25.5491 13.5126C25.092 13.5713 24.7077 14.2315 24.2956 14.629C24.7077 15.0404 25.0816 15.7248 25.5387 15.787C25.9508 15.8354 26.4529 15.2063 27.2736 14.6221Z" fill="#FFBE00"/>
<path d="M60.9985 14.6214C66.9442 16.17 69.7837 21.6038 67.0758 27.4662C70.7083 29.3258 72.9765 32.2535 73.0007 36.4153C73.0284 40.5943 70.8503 43.5808 67.0031 45.5442C68.319 48.1505 68.6237 50.8086 67.3113 53.484C66.0093 56.1421 63.845 57.7045 60.9327 58.2887C60.7457 62.2811 59.1321 65.2157 55.2052 66.4981C52.615 67.345 52.6116 67.3381 51.1329 69.6091C49.36 72.3329 46.1153 73.5392 42.9883 72.6336C39.8406 71.721 37.7318 68.935 37.7248 65.5303C37.7006 55.5649 37.7179 45.596 37.7179 35.6306C37.7179 26.4119 37.7144 17.1966 37.7179 7.97783C37.7214 3.76077 40.0553 0.843398 44.0029 0.103685C47.2961 -0.511591 50.5061 1.57965 52.0125 5.25402C52.1683 5.63425 52.6358 6.09052 53.0132 6.14928C58.2733 6.99269 60.3544 9.12542 60.8773 14.3034C60.8843 14.414 60.9535 14.5177 60.9985 14.6214ZM40.2215 30.4492C44.6159 30.4492 48.9306 30.4319 53.2452 30.463C54.2633 30.4699 55.0009 30.349 55.6796 29.3673C56.8327 27.7012 59.2117 27.5837 60.7457 28.8764C62.2244 30.1243 62.4598 32.3503 61.2721 33.8401C59.9701 35.4716 57.5288 35.9832 56.2925 34.4036C54.9074 32.6372 53.2903 32.8792 51.5727 32.8723C48.283 32.8585 44.9933 32.8654 41.7002 32.8723C41.205 32.8723 40.7098 32.9345 40.2735 32.9656C40.2735 35.0465 40.2735 36.9684 40.2735 39.0112C41.0353 39.0112 41.6621 39.0112 42.2888 39.0112C47.4277 39.0112 52.5631 39.0492 57.7019 38.987C59.1459 38.9697 59.6757 39.4917 59.5926 40.9089C59.5095 42.3434 59.4957 43.7951 59.6134 45.2262C59.6619 45.8034 60.0151 46.4982 60.4549 46.8715C62.2763 48.4166 62.5845 50.7049 61.0713 52.3226C59.655 53.8366 57.2517 53.8539 55.8181 52.3641C54.2737 50.7602 54.5126 48.4512 56.341 46.9165C56.7012 46.6157 57.1513 46.1767 57.179 45.7758C57.2829 44.3551 57.2171 42.9241 57.2171 41.3928C53.8893 41.3928 50.7451 41.3928 47.4208 41.3928C47.4208 45.4405 47.4485 49.4018 47.4 53.3596C47.3861 54.3551 47.6112 54.9911 48.4977 55.6202C50.2118 56.8404 50.3157 59.2876 48.9132 60.8085C47.5004 62.3433 45.1318 62.3778 43.6705 60.8915C42.1607 59.3568 42.1503 57.0409 43.8921 55.7273C44.8825 54.9807 45.066 54.2133 45.0383 53.1211C44.9795 50.8743 45.021 48.6275 45.021 46.3807C45.021 44.7319 45.021 43.0831 45.021 41.4274C43.2654 41.4274 41.7452 41.4274 40.1557 41.4274C40.1557 49.744 40.1038 57.9257 40.1869 66.1041C40.2111 68.5444 42.4447 70.4801 44.879 70.5527C47.4 70.6288 49.6508 68.7726 49.824 66.2147C49.9313 64.5866 50.5269 64.1511 52.1025 64.355C56.0328 64.8701 59.0039 61.7729 58.3079 57.9223C58.0828 56.6675 58.3876 56.1318 59.7034 55.9762C65.2474 55.3229 67.3978 50.5597 64.2536 45.9175C63.4571 44.7388 63.6303 44.0613 64.9843 43.5981C68.6791 42.333 70.6425 39.8097 70.6148 36.4291C70.5871 33.1315 68.6237 30.6462 65.0085 29.4122C63.6788 28.9594 63.3221 28.2335 64.2571 27.1205C67.7684 22.9415 64.6518 17.0272 59.5684 16.9892C58.4499 16.9823 58.1001 16.3739 58.2629 15.2747C58.9104 10.9643 56.2337 8.23361 51.7874 8.67606C50.5754 8.79704 49.9833 8.47903 49.8586 7.16207C49.5781 4.17902 47.4727 2.30554 44.7371 2.45417C42.0568 2.59935 40.1523 4.75627 40.1384 7.72549C40.1211 11.9909 40.1315 16.2529 40.1384 20.5184C40.1384 20.9608 40.2111 21.4067 40.2458 21.8112C43.5078 21.8112 46.6486 21.8112 49.8136 21.8112C49.9625 19.8651 50.1668 18.2267 48.3661 16.8025C46.7975 15.5616 47.2407 13.1316 48.8578 11.8077C50.3192 10.6118 52.5873 10.8157 53.8443 12.2536C55.1533 13.7538 55.0771 16.17 53.4115 17.3141C52.3518 18.0435 52.196 18.8281 52.2687 19.9031C52.3137 20.591 52.2791 21.2857 52.2757 21.9771C52.2687 24.2377 52.2376 24.2723 49.914 24.2757C46.7005 24.2792 43.487 24.2757 40.2181 24.2757C40.2215 26.4223 40.2215 28.351 40.2215 30.4492ZM60.1709 31.5069C59.2914 31.0057 58.7512 30.4492 58.3425 30.5322C57.8924 30.622 57.5669 31.303 57.186 31.7281C57.6257 32.1015 58.0482 32.7409 58.5053 32.7686C58.9174 32.7928 59.371 32.1464 60.1709 31.5069ZM52.8332 14.4832C51.9813 13.9889 51.4411 13.4289 51.0325 13.5118C50.5858 13.6017 50.2637 14.2861 49.8863 14.7113C50.3226 15.0915 50.7416 15.7483 51.1987 15.7725C51.6108 15.7967 52.061 15.1295 52.8332 14.4832ZM60.1363 49.9583C59.3641 49.3637 58.9035 48.7312 58.488 48.7623C58.0309 48.7969 57.6153 49.4329 57.1825 49.8062C57.5669 50.2417 57.9028 50.9434 58.3529 51.0298C58.7581 51.1024 59.2914 50.501 60.1363 49.9583ZM47.954 58.3958C47.1507 57.8048 46.6555 57.1653 46.2503 57.2137C45.7967 57.269 45.1318 57.9396 45.1041 58.3751C45.0834 58.7519 45.7932 59.4397 46.2434 59.495C46.6555 59.5503 47.1541 58.9454 47.954 58.3958Z" fill="#FFBE00"/>
<path d="M7.21347 35.4266C7.21347 36.1905 7.21347 36.8196 7.21347 37.5766C6.47589 37.5766 5.766 37.5766 4.94531 37.5766C4.94531 36.913 4.94531 36.2009 4.94531 35.4266C5.69329 35.4266 6.44126 35.4266 7.21347 35.4266Z" fill="#FFBE00"/>
<path d="M14.4165 52.1704C13.7031 52.1704 13.0417 52.1704 12.2695 52.1704C12.2695 51.4479 12.2695 50.7532 12.2695 49.9685C12.9967 49.9685 13.6512 49.9685 14.4165 49.9685C14.4165 50.6944 14.4165 51.3926 14.4165 52.1704Z" fill="#FFBE00"/>
<path d="M57.0194 24.1927C56.2887 24.1927 55.6308 24.1927 54.8828 24.1927C54.8828 23.4703 54.8828 22.8273 54.8828 22.0669C55.5996 22.0669 56.2506 22.0669 57.0194 22.0669C57.0194 22.7202 57.0194 23.3666 57.0194 24.1927Z" fill="#FFBE00"/>
<path d="M66.7395 37.632C65.995 37.632 65.3266 37.632 64.6133 37.632C64.6133 36.875 64.6133 36.194 64.6133 35.4025C65.292 35.4025 65.9499 35.4025 66.7395 35.4025C66.7395 36.0523 66.7395 36.7609 66.7395 37.632Z" fill="#FFBE00"/>
</g>
<defs>
<clipPath id="clip0_150_477">
<rect width="73" height="73" fill="white"/>
</clipPath>
</defs>
</svg>