<svg xmlns="http://www.w3.org/2000/svg" width="90" height="90" viewBox="0 0 90 90" fill="none">
<rect width="90" height="90" rx="14" fill="#F5F5F5"/>
<g clip-path="url(#clip0_0_1)">
<path d="M41.556 60.353C41.602 61.2453 41.6671 61.942 41.6709 62.6425C41.6824 66.4232 41.7284 70.2078 41.6518 73.9885C41.6211 75.5306 42.1383 76.0981 43.6514 75.9846C45.1759 75.8671 46.7197 75.8671 48.2442 75.9846C49.8225 76.1059 50.3817 75.5345 50.3587 73.8946C50.2783 68.8732 50.2975 63.8519 50.3664 58.8305C50.3779 58.1417 50.9027 57.4568 51.2091 56.7758C51.3547 56.4509 51.7416 55.9578 51.6611 55.8639C51.4045 55.5664 50.9831 55.2533 50.6192 55.2494C47.5547 55.2024 44.4903 55.2024 41.4258 55.2494C41.0504 55.2533 40.6826 55.6017 40.3111 55.7895C40.5179 56.1339 40.7248 56.4783 40.9278 56.8267C41.1615 57.218 41.3913 57.6094 41.6211 58.0008C41.1691 58.2356 40.7248 58.6622 40.2689 58.6779C38.0357 58.7483 35.7986 58.7444 33.5654 58.6974C30.9797 58.6426 29.639 57.3354 29.6314 54.7054C29.6045 42.8936 29.6275 31.0897 29.6199 19.2858C29.6199 17.4894 30.4396 16.7223 32.217 16.7301C41.4105 16.7653 50.6077 16.7653 59.8012 16.7301C61.5786 16.7223 62.3868 17.5089 62.3868 19.3014C62.3792 31.1054 62.3983 42.9093 62.3677 54.7132C62.36 57.3315 61.0231 58.6074 58.4183 58.6974C57.4607 58.7288 56.4954 58.6426 55.5492 58.7522C55.1432 58.7992 54.7793 59.218 54.3962 59.4645C54.7984 59.7581 55.1776 60.2512 55.6105 60.3099C56.5528 60.4391 57.522 60.3647 58.4796 60.3491C61.9731 60.3021 63.9765 58.3139 63.9842 54.7876C64.0034 42.9171 63.9995 31.0506 63.9842 19.1801C63.9804 16.3231 62.6933 15.0198 59.8548 15.0159C50.5962 14.9963 41.3377 14.9963 32.0791 15.0159C29.2866 15.0198 28.011 16.3622 28.0072 19.2467C27.9957 31.0506 27.9919 42.8545 28.0072 54.6584C28.011 58.3335 29.9723 60.3177 33.5807 60.3491C36.1855 60.3725 38.7903 60.353 41.556 60.353ZM45.9612 43.512C49.7267 43.512 53.4922 43.4651 57.2577 43.5355C58.9393 43.5668 59.7246 42.9719 59.7092 41.1677C59.6633 34.7139 59.6709 28.2601 59.7092 21.8063C59.7207 20.1546 59.0466 19.4149 57.4339 19.4189C49.8378 19.4345 42.2417 19.4423 34.6456 19.4149C32.9295 19.4071 32.2706 20.182 32.2821 21.9158C32.3319 28.3031 32.3281 34.6943 32.2821 41.0816C32.2706 42.8232 32.9142 43.5668 34.6571 43.5355C38.4264 43.4651 42.1957 43.512 45.9612 43.512ZM45.7429 53.4373C47.4092 52.815 49.1253 52.4589 50.5273 51.5783C52.3238 50.4472 52.2051 48.3807 50.535 47.0305C48.2174 45.1519 43.3641 45.1323 40.9967 46.9874C39.2385 48.369 39.1466 50.4746 41.0427 51.6566C42.3988 52.498 44.0574 52.8229 45.7429 53.4373Z" fill="white"/>
<path d="M41.5571 60.353C38.7914 60.353 36.1866 60.3725 33.5856 60.349C29.9772 60.3177 28.0159 58.3335 28.0121 54.6584C27.9967 42.8545 28.0006 31.0506 28.0121 19.2467C28.0121 16.3622 29.2876 15.0198 32.0802 15.0159C41.3387 14.9963 50.5973 14.9963 59.8559 15.0159C62.6943 15.0198 63.9814 16.3231 63.9852 19.1801C64.0006 31.0506 64.0044 42.9171 63.9852 54.7876C63.9814 58.3139 61.9742 60.3021 58.4807 60.349C57.523 60.3608 56.5539 60.4391 55.6115 60.3099C55.1749 60.2512 54.7995 59.7581 54.3972 59.4645C54.7803 59.2141 55.1442 58.7992 55.5503 58.7522C56.4964 58.6426 57.4617 58.7287 58.4194 58.6974C61.0204 58.6113 62.3611 57.3354 62.3687 54.7132C62.3994 42.9093 62.3802 31.1054 62.3879 19.3014C62.3879 17.5089 61.5796 16.7262 59.8022 16.7301C50.6088 16.7653 41.4115 16.7653 32.2181 16.7301C30.4407 16.7223 29.6209 17.4894 29.6209 19.2858C29.6286 31.0897 29.6056 42.8936 29.6362 54.6976C29.6439 57.3276 30.9846 58.6348 33.5703 58.6896C35.8035 58.7366 38.0406 58.7405 40.2738 58.67C40.7297 58.6544 41.174 58.2317 41.626 57.993C41.3962 57.6016 41.1625 57.2102 40.9327 56.8188C40.7258 56.4744 40.519 56.1261 40.316 55.7817C40.6875 55.5938 41.0553 55.2494 41.4307 55.2416C44.4951 55.1985 47.5596 55.1946 50.6241 55.2416C50.988 55.2455 51.4094 55.5625 51.666 55.856C51.7465 55.95 51.3596 56.4431 51.214 56.7679C50.9114 57.4489 50.3828 58.1339 50.3713 58.8227C50.2985 63.844 50.2832 68.8654 50.3636 73.8868C50.3904 75.5266 49.8273 76.098 48.2491 75.9767C46.7246 75.8593 45.1808 75.8632 43.6562 75.9767C42.1393 76.0902 41.6222 75.5227 41.6567 73.9807C41.7333 70.2 41.6873 66.4154 41.6758 62.6347C41.672 61.9419 41.603 61.2414 41.5571 60.353ZM48.5709 74.1529C48.5709 68.3018 48.5709 62.6777 48.5709 57.0302C46.7552 57.0302 45.0851 57.0302 43.4647 57.0302C43.4647 62.846 43.4647 68.4701 43.4647 74.1529C45.2191 74.1529 46.805 74.1529 48.5709 74.1529Z" fill="black"/>
<path d="M45.9616 43.5118C42.1961 43.5118 38.4306 43.4648 34.6652 43.5314C32.9222 43.5627 32.2787 42.8191 32.2902 41.0774C32.3362 34.6902 32.34 28.299 32.2902 21.9117C32.2787 20.174 32.9376 19.403 34.6537 19.4108C42.2498 19.4382 49.8458 19.4304 57.4419 19.4147C59.0546 19.4108 59.725 20.1505 59.7173 21.8021C59.679 28.2559 59.6713 34.7097 59.7173 41.1635C59.7288 42.9639 58.9473 43.5627 57.2657 43.5314C53.4926 43.4648 49.7271 43.5118 45.9616 43.5118ZM57.9054 21.2777C49.8382 21.2777 42.0161 21.2777 34.1289 21.2777C34.1289 28.1581 34.1289 34.9015 34.1289 41.6919C42.131 41.6919 49.9952 41.6919 57.9054 41.6919C57.9054 34.8076 57.9054 28.1111 57.9054 21.2777Z" fill="black"/>
<path d="M45.743 53.4371C44.0575 52.8227 42.3951 52.4978 41.0429 51.6564C39.1467 50.4744 39.2386 48.3688 40.9969 46.9872C43.3642 45.1321 48.2176 45.1517 50.5351 47.0303C52.2052 48.3805 52.324 50.4509 50.5274 51.5781C49.1293 52.4587 47.4093 52.8148 45.743 53.4371ZM45.7507 47.3512C45.7353 47.2964 45.7238 47.2416 45.7085 47.1868C44.6704 47.4569 43.594 47.6252 42.6172 48.0439C42.1192 48.2592 41.4757 48.9402 41.4987 49.3825C41.5178 49.8443 42.1882 50.4861 42.7015 50.6662C43.7626 51.038 44.9194 51.3628 46.0226 51.3276C47.5702 51.2728 49.3744 51.2454 50.0256 49.3864C50.3627 48.4275 48.2252 47.3943 45.946 47.3512C45.8771 47.3473 45.812 47.3512 45.7507 47.3512Z" fill="black"/>
<path d="M48.571 74.1527C46.8051 74.1527 45.2231 74.1527 43.4648 74.1527C43.4648 68.4699 43.4648 62.8458 43.4648 57.03C45.0852 57.03 46.7553 57.03 48.571 57.03C48.571 62.6775 48.571 68.3016 48.571 74.1527ZM47.1844 71.7262C46.8971 70.3055 46.7017 69.0609 46.3569 67.8594C46.2842 67.601 45.6789 67.4054 45.3074 67.3819C45.1771 67.374 44.9052 67.9572 44.8822 68.286C44.817 69.19 44.6753 70.1489 44.8975 70.9982C45.0775 71.6949 45.7364 72.2663 46.1807 72.8925C46.4834 72.5402 46.7821 72.1919 47.1844 71.7262Z" fill="white"/>
<path d="M57.9055 21.2777C57.9055 28.1111 57.9055 34.8076 57.9055 41.6919C49.9953 41.6919 42.131 41.6919 34.1289 41.6919C34.1289 34.9015 34.1289 28.1581 34.1289 21.2777C42.0161 21.2777 49.842 21.2777 57.9055 21.2777ZM51.0602 33.3399C50.4626 30.3655 48.1987 27.7119 46.5477 24.757C46.4711 24.624 45.387 24.7609 45.2147 25.0506C43.828 27.3753 42.3762 29.6923 41.2921 32.1658C40.4226 34.1579 40.9895 36.1539 42.6099 37.6607C44.234 39.1675 46.1532 39.3984 48.1183 38.51C50.0374 37.649 50.9682 36.0169 51.0602 33.3399Z" fill="white"/>
<path d="M45.7513 47.3512C45.8165 47.3512 45.8777 47.3512 45.9429 47.3512C48.2221 47.3943 50.3596 48.4236 50.0225 49.3864C49.3713 51.2493 47.567 51.2767 46.0195 51.3276C44.9163 51.3667 43.7594 51.038 42.6983 50.6662C42.185 50.4861 41.5185 49.8443 41.4955 49.3825C41.4764 48.9402 42.1161 48.2592 42.6141 48.044C43.5909 47.6252 44.6673 47.4569 45.7054 47.1868C45.7207 47.2377 45.736 47.2964 45.7513 47.3512Z" fill="white"/>
<path d="M47.1834 71.7262C46.7812 72.1919 46.4824 72.5402 46.1798 72.8886C45.7354 72.2624 45.0765 71.6949 44.8965 70.9943C44.6743 70.1489 44.8161 69.1861 44.8812 68.282C44.9042 67.9533 45.1761 67.3701 45.3064 67.378C45.6779 67.4015 46.2832 67.5971 46.356 67.8555C46.7007 69.0609 46.8961 70.3055 47.1834 71.7262Z" fill="black"/>
<path d="M51.0599 33.3399C50.9679 36.0169 50.0371 37.649 48.118 38.5139C46.1567 39.3984 44.2337 39.1714 42.6096 37.6646C40.9892 36.1578 40.4223 34.1579 41.2918 32.1697C42.3759 29.6923 43.8277 27.3793 45.2144 25.0545C45.3868 24.7688 46.4708 24.6279 46.5474 24.7609C48.1984 27.7119 50.4623 30.3655 51.0599 33.3399ZM46.0073 26.98C44.8466 29.023 43.8354 30.659 42.9696 32.3732C42.1537 33.9857 42.6096 35.4612 43.935 36.561C45.2182 37.6294 46.6508 37.6138 47.9992 36.6353C49.3591 35.6451 49.7958 33.8839 48.9875 32.2871C48.1448 30.6159 47.1603 29.0191 46.0073 26.98Z" fill="black"/>
<path d="M46.0081 26.98C47.1612 29.0191 48.1456 30.6159 48.9884 32.2871C49.7928 33.8839 49.3599 35.6451 48.0001 36.6353C46.6517 37.6177 45.219 37.6294 43.9358 36.561C42.6104 35.4612 42.1546 33.9857 42.9705 32.3732C43.8362 30.659 44.8475 29.023 46.0081 26.98Z" fill="white"/>
</g>
<defs>
<clipPath id="clip0_0_1">
<rect width="36" height="61" fill="white" transform="translate(28 15)"/>
</clipPath>
</defs>
</svg>