<svg xmlns="http://www.w3.org/2000/svg" width="59" height="43" viewBox="0 0 59 43" fill="none">
<g clip-path="url(#clip0_485_133)">
<path d="M59.0004 42.0713C58.3432 42.37 57.6906 42.9206 57.0288 42.9299C52.1898 43.0046 47.3485 42.9159 42.5073 42.9976C40.612 43.0302 38.8416 42.8343 37.2518 41.7447C36.6732 41.348 36.1433 41.3504 35.5671 41.7447C33.9749 42.8343 32.2046 43.0092 30.3116 42.9976C21.0155 42.9369 11.7171 42.9696 2.42107 42.9696C2.07626 42.9696 1.72682 42.9929 1.38432 42.9579C0.211031 42.8413 -0.300402 41.9127 0.280457 40.8931C0.757178 40.0555 1.2663 39.2249 1.85178 38.4619C2.4419 37.6967 2.52984 37.0644 1.78236 36.3621C1.39358 35.9958 1.09736 35.5292 0.766434 35.1022C-0.237919 33.805 -0.247176 33.0607 0.734036 31.7798C1.20381 31.1662 1.64351 30.5199 2.1804 29.9739C2.81911 29.3253 2.71497 28.826 2.13411 28.2217C1.54863 27.6104 1.02331 26.9362 0.507246 26.2642C-0.16618 25.3893 -0.154609 24.4864 0.486419 23.5881C0.55353 23.4948 0.627584 23.4061 0.699323 23.3128C2.53447 20.9236 2.53447 20.9236 0.921485 18.4272C0.734036 18.1355 0.535017 17.8485 0.359139 17.5476C-0.337429 16.3437 0.178633 15.3777 1.58103 15.3614C4.23076 15.3311 6.88281 15.3964 9.53255 15.3264C10.4235 15.3031 11.37 15.1281 12.1869 14.7781C23.4523 9.95082 34.6969 5.0722 45.9624 0.247237C46.5247 0.00692195 47.4527 -0.133067 47.8276 0.167909C48.2025 0.466553 48.265 1.40215 48.177 2.01577C47.8044 4.61023 47.7628 4.61023 50.0006 5.94713C50.9957 6.53975 51.3521 7.35169 51.0188 8.4926C50.7643 9.36986 50.2112 10.4151 50.482 11.1151C50.7296 11.759 51.8797 12.0787 52.6642 12.4753C53.8167 13.0586 54.1222 13.9895 53.8144 15.3521C54.9414 15.3521 56.0013 15.3964 57.0519 15.3381C57.9012 15.2914 58.5492 15.5434 59.0028 16.2713C59.0028 16.5816 59.0028 16.8919 59.0028 17.1999C58.1905 18.4342 57.3782 19.6707 56.5636 20.905C57.2324 21.8289 57.8989 22.7528 58.5723 23.6721C58.7019 23.8494 58.857 24.0057 59.0028 24.1714C59.0028 24.6357 59.0028 25.1 59.0028 25.5666C58.2368 26.5185 57.4985 27.4938 56.6978 28.4154C56.2651 28.9123 56.2373 29.2833 56.6724 29.7989C57.4823 30.7602 58.2298 31.7775 59.0028 32.7714C59.0028 33.1587 59.0028 33.546 59.0028 33.9333C58.3201 34.8572 57.605 35.7601 56.9732 36.7191C56.7811 37.0107 56.6377 37.5637 56.7835 37.8087C57.4638 38.9542 58.253 40.0345 59.0028 41.1357C59.0004 41.4507 59.0004 41.761 59.0004 42.0713ZM2.0346 41.2687C2.77746 41.2687 3.22872 41.2687 3.67767 41.2687C12.3558 41.2687 21.0363 41.2244 29.7145 41.3014C31.7695 41.32 33.6787 41.0961 35.4028 39.9295C36.0924 39.4629 36.7404 39.4699 37.4254 39.9342C39.1517 41.1007 41.0563 41.355 43.1159 41.3014C47.2606 41.1941 51.4099 41.271 55.5569 41.2664C55.9434 41.2664 56.3299 41.2244 56.9015 41.1917C56.3091 40.2725 55.8439 39.5678 55.3973 38.8539C54.6266 37.6267 54.6614 36.9524 55.5361 35.7881C57.3481 33.3733 57.3481 33.3733 55.432 30.9399C54.2656 29.4583 54.2772 28.7327 55.4875 27.2558C57.3782 24.946 57.3782 24.946 55.594 22.6432C55.5477 22.5825 55.4991 22.5218 55.4505 22.4612C54.6891 21.5349 54.6521 20.583 55.3163 19.5844C55.8208 18.8261 56.3021 18.0515 56.9524 17.0343C56.2813 17.0343 55.8809 17.0343 55.4783 17.0343C51.3313 17.0343 47.1819 17.1019 43.0372 17.0039C41.0586 16.9573 39.2235 17.1836 37.5688 18.3222C36.7751 18.8681 36.016 18.8448 35.2292 18.3105C33.607 17.2069 31.8088 16.9899 29.8742 17.0063C21.1196 17.0739 12.3628 17.0366 3.60825 17.0366C3.17087 17.0366 2.73349 17.0366 2.03923 17.0366C2.63166 17.9629 3.0621 18.6371 3.49022 19.3114C4.42284 20.7766 4.39044 21.3786 3.31203 22.7528C1.59491 24.9413 1.59491 24.9413 3.36526 27.0948C4.76997 28.8027 4.77459 29.407 3.39766 31.1382C1.60417 33.3943 1.60417 33.3943 3.31897 35.6225C3.39071 35.7135 3.45783 35.8068 3.53188 35.8978C4.29324 36.8311 4.3025 37.7853 3.64296 38.7792C3.15698 39.5072 2.6872 40.2538 2.0346 41.2687Z" fill="black"/>
<path d="M20.0428 33.7328C16.8539 33.7328 13.6649 33.7398 10.4783 33.7304C8.79588 33.7258 8.09468 33.0211 8.0808 31.3366C8.06923 29.8644 8.0646 28.3922 8.0808 26.9223C8.09931 25.3054 8.79819 24.5868 10.4181 24.5845C16.8724 24.5728 23.3266 24.5705 29.7785 24.5845C31.3267 24.5868 32.0256 25.3124 32.0441 26.8616C32.0626 28.4108 32.065 29.9601 32.0418 31.5093C32.021 32.9861 31.3059 33.7188 29.8364 33.7258C26.5734 33.7444 23.3081 33.7328 20.0428 33.7328Z" fill="black"/>
<path d="M41.4938 34.3673C41.2717 33.7677 41.0287 33.3548 40.9986 32.9278C40.9824 32.7038 41.3272 32.4378 41.5424 32.2208C44.0024 29.7314 46.4693 27.2466 48.9316 24.7594C49.3806 24.3068 49.8827 23.7865 50.4844 24.3791C51.0861 24.9717 50.5955 25.4874 50.1419 25.9447C47.6472 28.4551 45.1572 30.9703 42.6579 33.4761C42.3964 33.7374 42.0701 33.931 41.4938 34.3673Z" fill="black"/>
<path d="M42.3065 22.9559C43.732 22.9699 44.866 24.1295 44.8451 25.5504C44.8266 26.9596 43.6441 28.1215 42.2463 28.1029C40.8509 28.0865 39.6845 26.885 39.7054 25.4874C39.7239 24.0642 40.8763 22.9419 42.3065 22.9559ZM43.5793 25.5387C42.9313 25.0978 42.5634 24.6545 42.2672 24.7011C41.9524 24.7501 41.5451 25.2308 41.485 25.5761C41.4479 25.7954 41.9594 26.3227 42.2417 26.3343C42.5726 26.3483 42.9221 25.9564 43.5793 25.5387Z" fill="black"/>
<path d="M49.5208 35.3567C48.0767 35.3707 46.9613 34.2694 46.9474 32.8206C46.9335 31.3787 48.0466 30.2284 49.4652 30.2168C50.8815 30.2051 52.0386 31.3437 52.0548 32.7646C52.071 34.1971 50.9486 35.345 49.5208 35.3567ZM50.775 32.7692C50.1317 32.3633 49.7799 31.9666 49.4513 31.9853C49.1667 32.0016 48.6576 32.5336 48.6969 32.7552C48.7594 33.0982 49.1759 33.5718 49.493 33.6185C49.7869 33.6582 50.1479 33.2079 50.775 32.7692Z" fill="black"/>
<path d="M37.2748 21.4651C37.2586 21.7357 37.3419 22.0787 37.2077 22.2583C36.9832 22.557 36.6222 22.7506 36.3191 22.9909C36.0645 22.5383 35.6665 22.1067 35.5901 21.6261C35.4883 20.9844 35.3355 20.1165 36.2797 19.9229C36.5412 19.8692 36.9809 20.2635 37.1938 20.5598C37.3466 20.7675 37.2586 21.1548 37.2748 21.4651Z" fill="black"/>
<path d="M37.2408 26.563C37.2408 26.8314 37.3472 27.1883 37.2176 27.3516C36.97 27.6643 36.5882 27.8673 36.2619 28.1146C36.0258 27.6503 35.6579 27.207 35.5884 26.7194C35.4982 26.0777 35.3524 25.2075 36.3336 25.0815C36.5997 25.0465 36.9862 25.4735 37.2061 25.7721C37.3403 25.9518 37.2593 26.2924 37.2755 26.5607C37.2639 26.563 37.2523 26.563 37.2408 26.563Z" fill="black"/>
<path d="M35.3301 31.6936C35.6078 31.15 35.7698 30.6437 36.0984 30.2937C36.2118 30.1724 37.0125 30.4127 37.031 30.548C37.1282 31.3226 37.1351 32.1205 37.0449 32.8952C37.0287 33.0375 36.2095 33.2871 36.1238 33.1821C35.7929 32.7808 35.6101 32.2559 35.3301 31.6936Z" fill="black"/>
<path d="M37.2472 36.9036C37.2472 37.1346 37.3398 37.4379 37.2287 37.5825C36.9811 37.9045 36.6339 38.1495 36.3261 38.4248C36.0693 37.9768 35.662 37.5522 35.5926 37.0762C35.5 36.4463 35.3125 35.5597 36.2729 35.3917C36.546 35.3427 36.9718 35.8 37.2171 36.115C37.3467 36.2806 37.2402 36.6353 37.2402 36.9059C37.2426 36.9036 37.2449 36.9036 37.2472 36.9036Z" fill="black"/>
</g>
<defs>
<clipPath id="clip0_485_133">
<rect width="59" height="43" fill="white"/>
</clipPath>
</defs>
</svg>