<svg width="68" height="72" viewBox="0 0 68 72" fill="none" xmlns="http://www.w3.org/2000/svg">
<g clip-path="url(#clip0_1_28)">
<path d="M53 48.5L52.5 13.5L45.5 13C42.3 13.8 41.8333 11.3333 42 10V1H21C15.8 1 15.1667 4.66667 15.5 6.5V50H53V48.5Z" fill="#D00053"/>
<path d="M44.8602 61.7451C45.5543 64.2971 46.172 66.6776 46.8803 69.03C46.954 69.2773 47.5348 69.491 47.8947 69.5134C48.977 69.5809 50.065 69.5219 51.1502 69.5612C51.9435 69.5921 52.666 69.9659 52.4422 70.8231C52.3232 71.2841 51.6262 71.8405 51.1275 71.9108C49.9715 72.0738 48.7758 71.967 47.5943 71.967C37.6833 71.967 27.7695 71.967 17.8585 71.967C17.4335 71.967 16.9377 72.0879 16.6033 71.9108C16.167 71.6803 15.5408 71.1745 15.5777 70.8456C15.6258 70.3987 16.1698 69.713 16.5835 69.6483C17.7367 69.4685 18.9352 69.6062 20.1082 69.5106C20.485 69.4797 21.0743 69.1902 21.1622 68.8979C21.8535 66.6214 22.4457 64.314 23.1427 61.748C22.4967 61.748 22.0093 61.748 21.522 61.748C15.9998 61.748 10.4777 61.7536 4.9555 61.7451C1.41383 61.7367 0.00283333 60.3146 0 56.7789C0 43.9967 0 31.2144 0 18.435C0 14.8319 1.411 13.4351 5.04617 13.4294C7.95883 13.4266 10.8715 13.4294 13.94 13.4294C13.94 11.0264 13.9372 8.79207 13.94 6.55489C13.9485 2.03557 15.9715 0.00918 20.4765 0.00918C27.2255 0.00918 33.9745 -0.0217358 40.7235 0.0513379C41.5083 0.0597694 42.5028 0.453243 43.0298 1.01535C46.6593 4.89106 50.1755 8.86795 53.7682 12.7774C54.0883 13.1259 54.689 13.3901 55.1678 13.4013C57.9502 13.4603 60.7382 13.4126 63.5205 13.4351C66.4077 13.4603 67.9858 15.0174 67.9887 17.8785C68 31.0346 68 44.1906 67.9887 57.3467C67.9858 60.1712 66.4048 61.717 63.4582 61.7339C57.8425 61.7648 52.224 61.7451 46.6083 61.7451C46.104 61.7451 45.594 61.7451 44.8602 61.7451ZM51.5072 48.5638C51.5072 36.9929 51.5072 25.5849 51.5072 14.0337C49.2263 14.0337 47.022 14.0365 44.8148 14.0337C41.6982 14.0309 40.5223 12.8786 40.5195 9.81791C40.5167 7.39805 40.5195 4.97538 40.5195 2.51336C39.9812 2.47963 39.6128 2.43747 39.2417 2.43747C32.8213 2.43466 26.401 2.42342 19.9807 2.44028C17.4307 2.4459 16.4192 3.49142 16.4192 6.07148C16.4135 19.7925 16.4163 33.5106 16.4163 47.2316C16.4163 47.6757 16.4163 48.1197 16.4163 48.5638C28.2342 48.5638 39.831 48.5638 51.5072 48.5638ZM65.5095 51.1523C44.3927 51.1523 23.5025 51.1523 2.46217 51.1523C2.46217 53.0128 2.45933 54.7779 2.46217 56.5457C2.465 59.0555 2.71433 59.3112 5.18217 59.3112C24.395 59.3112 43.605 59.3112 62.8178 59.3112C63.1947 59.3112 63.5743 59.3253 63.9512 59.2972C64.8777 59.2297 65.484 58.7519 65.4982 57.8048C65.535 55.6182 65.5095 53.4288 65.5095 51.1523ZM13.8635 15.7959C10.8375 15.7959 7.96733 15.7931 5.09717 15.7959C2.86733 15.7987 2.46217 16.195 2.46217 18.4097C2.45933 28.0048 2.46217 37.5971 2.465 47.1894C2.465 47.6363 2.51883 48.086 2.55 48.5582C6.375 48.5582 10.081 48.5582 13.8635 48.5582C13.8635 37.6561 13.8635 26.8216 13.8635 15.7959ZM54.162 15.8184C54.162 26.8103 54.162 37.673 54.162 48.5554C57.9757 48.5554 61.6817 48.5554 65.535 48.5554C65.535 47.937 65.535 47.3862 65.535 46.8381C65.535 37.4791 65.535 28.12 65.535 18.7638C65.535 18.3422 65.5265 17.9206 65.518 17.5019C65.4953 16.4873 64.9145 15.8605 63.9568 15.8437C60.7155 15.7818 57.4713 15.8184 54.162 15.8184ZM44.4097 69.446C43.7438 66.9924 43.1318 64.6484 42.4405 62.3297C42.3612 62.0655 41.8228 61.7732 41.497 61.7704C36.5047 61.7339 31.5095 61.7367 26.5143 61.7648C26.197 61.7676 25.6643 61.9672 25.602 62.1836C24.8965 64.5697 24.2647 66.9755 23.5932 69.446C30.6453 69.446 37.4567 69.446 44.4097 69.446ZM49.2915 11.5661C47.1098 9.11247 45.2002 6.96242 42.9958 4.48353C42.9958 6.82189 42.9477 8.7218 43.0412 10.6133C43.0582 10.9449 43.6362 11.5042 43.979 11.5239C45.611 11.6195 47.2543 11.5661 49.2915 11.5661Z" fill="black"/>
<path d="M21.726 28.4593C21.726 26.1631 21.7657 23.8697 21.709 21.5735C21.6807 20.4633 22.083 19.8703 23.1767 19.5359C26.4662 18.5325 29.7188 17.4195 33.0083 16.419C33.6005 16.2391 34.34 16.2251 34.9293 16.4049C38.2642 17.4195 41.5622 18.5466 44.8942 19.5668C45.9368 19.8872 46.2938 20.469 46.2882 21.5117C46.2542 26.149 46.2542 30.7864 46.291 35.4209C46.2995 36.4777 45.9057 37.0511 44.8857 37.363C41.5537 38.3889 38.25 39.4962 34.9123 40.5024C34.3315 40.6766 33.6005 40.6541 33.0168 40.4771C29.7273 39.4822 26.469 38.3832 23.1795 37.3827C22.0943 37.0539 21.6835 36.458 21.7118 35.3423C21.7685 33.0517 21.726 30.7555 21.726 28.4593ZM35.0908 37.9279C37.9355 37.0201 40.579 36.1938 43.2055 35.3142C43.4803 35.2214 43.843 34.8307 43.8458 34.575C43.8855 30.6571 43.8742 26.7392 43.8742 22.5825C40.9643 23.5212 38.2387 24.384 35.5385 25.3059C35.3147 25.3818 35.1107 25.8792 35.1078 26.1828C35.0795 30.0163 35.0908 33.8499 35.0908 37.9279ZM24.123 22.5825C24.123 26.742 24.1145 30.6599 24.1457 34.5778C24.1485 34.8139 24.4318 35.1849 24.6642 35.2636C27.2425 36.1264 29.835 36.9443 32.606 37.8324C32.606 33.7009 32.6117 29.7774 32.589 25.8539C32.589 25.6319 32.3878 25.275 32.2008 25.2103C29.5828 24.3334 26.9507 23.4931 24.123 22.5825ZM41.14 20.913C39.27 20.3144 37.7995 19.8338 36.3233 19.3757C35.5187 19.1255 34.6205 18.569 33.9093 18.7377C31.6342 19.2801 29.427 20.098 26.8628 20.9158C29.257 21.6887 31.2602 22.3604 33.2803 22.9703C33.7053 23.0968 34.2323 23.1137 34.6517 22.9872C36.7172 22.3689 38.7628 21.6831 41.14 20.913Z" fill="black"/>
<path d="M35.0908 37.9281C35.0908 33.85 35.0823 30.0137 35.1107 26.1801C35.1135 25.8766 35.3147 25.3791 35.5413 25.3032C38.2443 24.3814 40.9672 23.5185 43.877 22.5798C43.877 26.7366 43.8883 30.6545 43.8487 34.5723C43.8458 34.8281 43.4832 35.2216 43.2083 35.3115C40.579 36.194 37.9355 37.0203 35.0908 37.9281Z" fill="white"/>
<path d="M24.123 22.5828C26.9507 23.4962 29.5828 24.3337 32.2008 25.2134C32.3878 25.2752 32.589 25.635 32.589 25.857C32.6117 29.7805 32.606 33.7012 32.606 37.8355C29.835 36.9473 27.2425 36.1295 24.6642 35.2667C24.4318 35.188 24.1457 34.8198 24.1457 34.5809C24.1145 30.6602 24.123 26.7395 24.123 22.5828Z" fill="white"/>
<path d="M41.14 20.9132C38.7628 21.6804 36.7172 22.3662 34.6517 22.9873C34.2323 23.1138 33.7025 23.0969 33.2803 22.9705C31.2602 22.3606 29.257 21.6889 26.8628 20.916C29.427 20.0981 31.6342 19.2803 33.9093 18.7378C34.6233 18.5692 35.5187 19.1257 36.3233 19.3758C37.7995 19.8367 39.27 20.3145 41.14 20.9132Z" fill="white"/>
</g>
<defs>
<clipPath id="clip0_1_28">
<rect width="68" height="72" fill="white"/>
</clipPath>
</defs>
</svg>
