<svg xmlns="http://www.w3.org/2000/svg" width="55" height="53" viewBox="0 0 55 53" fill="none">
<g clip-path="url(#clip0_485_160)">
<path d="M7.27157 16.2216C5.06935 14.8861 3.04821 13.6673 1.03292 12.4338C-0.258039 11.6436 -0.284325 11.1712 1.00371 10.3985C6.62317 7.02768 12.2689 3.69477 17.8767 0.300619C18.6332 -0.157183 19.1501 -0.0551253 19.8365 0.376433C21.8518 1.64195 23.8846 2.88414 25.9642 4.03301C26.3935 4.2692 27.1792 4.2692 27.6056 4.03301C29.729 2.85789 31.7647 1.51948 33.8939 0.356021C34.3612 0.102335 35.2199 0.0877555 35.6726 0.353105C41.333 3.66269 46.9524 7.03934 52.5748 10.4102C53.8424 11.1712 53.8249 11.6465 52.5164 12.4484C50.5011 13.6848 48.4712 14.9036 46.2777 16.2333C48.4303 17.5367 50.4105 18.7293 52.3879 19.9307C53.9359 20.8725 53.93 21.2429 52.3382 22.2022C50.3843 23.3802 48.3923 24.5029 46.488 25.7567C46.0324 26.0571 45.6644 26.7656 45.6031 27.3255C45.4687 28.5239 45.5622 29.7457 45.5622 31.0083C51.5379 32.5013 55.0691 36.0879 54.999 42.3979C54.9464 47.1684 51.7891 51.0845 47.3204 52.4812C42.5889 53.9596 38.3013 52.315 34.4547 47.4658C32.3196 48.7518 30.1437 50.0173 28.0203 51.3615C27.1704 51.8981 26.4899 51.8981 25.6224 51.3732C20.1811 48.0782 14.7252 44.8094 9.23721 41.5932C8.3055 41.0479 8.01927 40.4122 8.03388 39.377C8.08645 35.4434 8.01343 31.5099 8.07769 27.5763C8.09229 26.6082 7.77685 26.0891 6.95321 25.6313C4.9642 24.5116 3.02193 23.3073 1.07089 22.1264C-0.369026 21.2574 -0.357343 20.8288 1.10886 19.9394C3.09202 18.7381 5.07811 17.5454 7.27157 16.2216ZM10.3062 16.207C15.7767 19.4787 21.0106 22.6367 26.2884 25.7246C26.6388 25.9288 27.3865 25.7305 27.813 25.4826C31.3762 23.4006 34.9103 21.2662 38.4502 19.1405C40.004 18.2103 41.5491 17.2655 43.2606 16.2304C37.8193 12.9703 32.5854 9.82114 27.3252 6.71276C27.0331 6.54072 26.4548 6.5553 26.154 6.73317C20.9376 9.81822 15.7446 12.9441 10.3062 16.207ZM44.0259 51.4403C49.2715 51.4753 53.5007 47.2996 53.5386 42.0539C53.5737 36.916 49.3649 32.6033 44.2654 32.5567C39.0256 32.5071 34.7584 36.674 34.7 41.9022C34.6358 47.1801 38.7715 51.4082 44.0259 51.4403ZM25.932 28.3898C24.7258 29.11 23.6159 29.5737 22.7543 30.3231C20.0439 32.685 17.5087 32.65 14.7252 30.3493C13.2357 29.1188 11.3927 28.3169 9.5176 27.2118C9.5176 31.4282 9.49131 35.356 9.55557 39.2837C9.56141 39.6774 10.0375 40.1906 10.4289 40.4297C15.2422 43.3485 20.0789 46.2266 24.9156 49.1075C25.2135 49.2854 25.5494 49.402 25.9291 49.5741C25.932 42.4796 25.932 35.5484 25.932 28.3898ZM33.7595 46.0574C31.3091 38.8988 35.6931 31.5594 43.9061 30.9208C43.9061 29.7574 43.9061 28.5939 43.9061 27.2613C41.1606 28.9001 38.5554 30.3931 36.0202 31.9997C35.0885 32.5917 34.3992 32.5363 33.5113 31.9647C31.6566 30.7663 29.7348 29.6699 27.6757 28.4365C27.6757 35.6213 27.6757 42.5321 27.6757 49.6907C29.7932 48.4281 31.7355 47.2676 33.7595 46.0574ZM25.3011 5.421C23.3267 4.23421 21.5276 3.20197 19.781 2.08225C19.0742 1.63028 18.5426 1.62154 17.8212 2.06184C13.8432 4.49665 9.83012 6.87896 5.83166 9.27878C4.70134 9.95819 3.57102 10.6376 2.28591 11.4132C4.40342 12.6817 6.29605 13.8626 8.25001 14.9357C8.59173 15.1252 9.2635 15.0057 9.64319 14.7899C11.9622 13.4631 14.2433 12.0693 16.5361 10.693C19.3896 8.97844 22.2432 7.25804 25.3011 5.421ZM51.2838 11.4074C45.8455 8.13865 40.6495 5.00694 35.436 1.90147C35.1556 1.73526 34.6474 1.63903 34.3992 1.78191C32.3927 2.92496 30.4212 4.12924 28.2657 5.41808C33.7566 8.70142 39.0344 11.8681 44.3296 15.0057C44.5604 15.1427 45.0043 15.1486 45.2321 15.0173C47.2007 13.8772 49.143 12.6933 51.2838 11.4074ZM2.4407 20.9425C2.56629 21.1233 2.60426 21.2341 2.67728 21.2778C7.8265 24.3775 12.9757 27.48 18.1483 30.5447C18.4492 30.7226 19.0158 30.7721 19.302 30.6088C21.2647 29.4979 23.1866 28.314 25.2924 27.0485C19.8336 23.7739 14.5675 20.6043 9.27518 17.4755C8.98895 17.3063 8.42525 17.3413 8.12442 17.5134C6.23763 18.6039 4.3859 19.7586 2.4407 20.9425ZM28.289 27.0135C30.3803 28.2644 32.2379 29.4133 34.1422 30.4776C34.4722 30.6613 35.0885 30.6555 35.4185 30.466C38.0705 28.9438 40.6904 27.3605 43.3074 25.7771C43.579 25.6138 43.9674 25.3252 43.9704 25.089C44.02 22.6571 43.9996 20.2223 43.9996 17.56C38.6547 20.7763 33.5872 23.8264 28.289 27.0135ZM45.641 17.6125C45.641 19.9803 45.641 22.0797 45.641 24.3979C47.5716 23.2344 49.3503 22.1643 51.2897 20.995C49.3124 19.8111 47.5775 18.7731 45.641 17.6125Z" fill="black"/>
<path d="M44.0267 51.4399C38.7723 51.4049 34.6366 47.1768 34.6979 41.9019C34.7593 36.6736 39.0235 32.5068 44.2633 32.5563C49.3629 32.6059 53.5745 36.9186 53.5366 42.0535C53.5015 47.2993 49.2723 51.4749 44.0267 51.4399ZM44.0413 41.1321C43.317 40.3215 42.8292 39.6479 42.2129 39.123C41.6668 38.6565 41.1936 37.3793 40.2911 38.2803C39.4616 39.1114 40.6766 39.5867 41.1323 40.0794C41.7164 40.7093 42.4612 41.1875 43.3579 41.9077C42.21 42.94 41.3338 43.6369 40.5832 44.4533C40.3057 44.7537 40.3262 45.331 40.2123 45.7801C40.6737 45.6897 41.2696 45.7451 41.5762 45.4768C42.3999 44.7479 43.1008 43.8789 44.088 42.8088C45.0694 43.9022 45.8288 44.8441 46.705 45.6576C46.9416 45.8792 47.5374 45.713 47.9697 45.7276C47.8937 45.3573 47.9405 44.8616 47.7156 44.6371C46.8627 43.7856 45.9252 43.0216 44.7744 42.0127C45.9252 40.9892 46.8364 40.2602 47.6338 39.4234C47.8733 39.1697 47.7915 38.6127 47.8587 38.1958C47.4352 38.2687 46.8803 38.2016 46.6086 38.4436C45.7821 39.1813 45.0636 40.0415 44.0413 41.1321Z" fill="#F5F5F5"/>
<path d="M25.9324 28.3895C25.9324 35.5481 25.9324 42.4793 25.9324 49.5737C25.5528 49.3988 25.2169 49.2821 24.919 49.1072C20.0823 46.2262 15.2455 43.3453 10.4322 40.4294C10.0408 40.1902 9.56476 39.677 9.55892 39.2834C9.49466 35.3585 9.52095 31.4308 9.52095 27.2114C11.396 28.3195 13.2419 29.1184 14.7286 30.349C17.5091 32.6467 20.0443 32.6846 22.7576 30.3227C23.6163 29.5733 24.7262 29.1097 25.9324 28.3895Z" fill="#F5F5F5"/>
<path d="M33.7587 46.0571C31.7317 47.2672 29.7923 48.4277 27.6777 49.6903C27.6777 42.5317 27.6777 35.621 27.6777 28.4361C29.7368 29.6725 31.6587 30.7659 33.5133 31.9644C34.4012 32.5388 35.0905 32.5913 36.0222 31.9994C38.5545 30.3898 41.1627 28.8997 43.9082 27.261C43.9082 28.5965 43.9082 29.757 43.9082 30.9205C35.6922 31.562 31.3111 38.8985 33.7587 46.0571Z" fill="#F5F5F5"/>
<path d="M25.3014 5.42071C22.2434 7.26066 19.3898 8.97815 16.5334 10.6956C14.2406 12.072 11.9595 13.4658 9.64049 14.7925C9.26079 15.0112 8.58903 15.1278 8.24731 14.9383C6.29627 13.8653 4.40364 12.6843 2.2832 11.4159C3.57124 10.6402 4.69864 9.9579 5.82895 9.2814C9.82741 6.88159 13.8405 4.49927 17.8185 2.06447C18.5428 1.62124 19.0744 1.62999 19.7783 2.08488C21.5278 3.19876 23.327 4.23392 25.3014 5.42071Z" fill="#F5F5F5"/>
<path d="M51.2838 11.4071C49.1429 12.693 47.2006 13.8769 45.2321 15.017C45.0042 15.1482 44.5574 15.1424 44.3296 15.0053C39.0343 11.8678 33.7566 8.7011 28.2656 5.41776C30.4182 4.12892 32.3897 2.92172 34.3991 1.78159C34.6474 1.63871 35.1556 1.73494 35.436 1.90114C40.6495 5.00661 45.8483 8.13832 51.2838 11.4071Z" fill="#F5F5F5"/>
<path d="M2.44141 20.9422C4.3866 19.7584 6.23542 18.6036 8.12512 17.5131C8.42595 17.341 8.99257 17.3061 9.27588 17.4752C14.5682 20.604 19.8372 23.7765 25.2931 27.0482C23.1873 28.3137 21.2654 29.4976 19.3027 30.6085C19.0165 30.7718 18.4499 30.7223 18.149 30.5444C12.9793 27.4768 7.83013 24.3772 2.68091 21.2776C2.60497 21.2309 2.567 21.123 2.44141 20.9422Z" fill="#F5F5F5"/>
<path d="M28.2891 27.0131C33.5872 23.826 38.6547 20.7789 44.0025 17.5597C44.0025 20.2219 44.02 22.6567 43.9733 25.0886C43.9675 25.3248 43.5819 25.6135 43.3103 25.7768C40.6933 27.3601 38.0735 28.9435 35.4215 30.4656C35.0914 30.6551 34.4751 30.661 34.1451 30.4773C32.2379 29.41 30.3803 28.2641 28.2891 27.0131Z" fill="#F5F5F5"/>
<path d="M45.6406 17.6122C47.5771 18.7698 49.3149 19.8108 51.2893 20.9917C49.347 22.161 47.5712 23.2312 45.6406 24.3946C45.6406 22.0794 45.6406 19.9799 45.6406 17.6122Z" fill="white"/>
<path d="M44.0408 41.1321C45.063 40.0387 45.7815 39.1785 46.6081 38.4407C46.8797 38.1958 47.4346 38.2658 47.8581 38.1929C47.7939 38.6098 47.8757 39.1697 47.6332 39.4205C46.8359 40.2603 45.9246 40.9893 44.7739 42.0098C45.9246 43.0187 46.8622 43.7827 47.715 44.6342C47.9399 44.8587 47.8903 45.3544 47.9691 45.7247C47.5369 45.7131 46.941 45.8764 46.7045 45.6547C45.8282 44.8412 45.0689 43.8993 44.0875 42.8059C43.1003 43.876 42.3993 44.745 41.5757 45.474C41.2719 45.7422 40.6761 45.6868 40.2117 45.7772C40.3256 45.3252 40.3052 44.7508 40.5826 44.4505C41.3333 43.6369 42.2095 42.9371 43.3573 41.9049C42.4607 41.1846 41.713 40.7064 41.1317 40.0766C40.6761 39.5838 39.4611 39.1085 40.2906 38.2774C41.1931 37.3764 41.6662 38.6536 42.2124 39.1201C42.8257 39.6479 43.3164 40.3215 44.0408 41.1321Z" fill="black"/>
</g>
<defs>
<clipPath id="clip0_485_160">
<rect width="55" height="53" fill="white"/>
</clipPath>
</defs>
</svg>