<svg width="34" height="33" viewBox="0 0 34 33" fill="none" xmlns="http://www.w3.org/2000/svg">
<path d="M16.7336 2.78331C24.4228 2.78331 30.679 8.76997 30.679 16.1277C30.679 23.4854 24.4228 29.4721 16.7336 29.4721C9.04453 29.4721 2.78824 23.4854 2.78824 16.1277C2.78824 8.76997 9.04453 2.78331 16.7336 2.78331ZM16.7336 0.115234C7.50295 0.115234 0 7.29482 0 16.1277C0 24.9606 7.50295 32.1402 16.7336 32.1402C25.9643 32.1402 33.4673 24.9606 33.4673 16.1277C33.4673 7.29482 25.9643 0.115234 16.7336 0.115234Z" fill="#CB0051"/>
<g opacity="0.2">
<path d="M11.1013 19.1841C11.6451 19.7045 11.6451 20.5592 11.1013 21.0796C10.8231 21.3338 10.4738 21.4659 10.1119 21.4659C9.75005 21.4659 9.40074 21.3318 9.12254 21.0796L4.93913 17.0765C4.39529 16.5561 4.39529 15.7014 4.93913 15.181L9.12254 11.1779C9.66639 10.6575 10.5595 10.6575 11.1034 11.1779C11.6472 11.6983 11.6472 12.553 11.1034 13.0734L7.89262 16.1278L11.1013 19.1841Z" fill="#CB0051"/>
<path d="M19.8146 10.8297L16.3278 22.1725C16.0956 22.9271 15.2568 23.2894 14.5979 23.0792C13.8595 22.8651 13.4266 22.1325 13.6504 21.4239L17.1373 10.0811C17.3611 9.37457 18.1266 8.97426 18.8671 9.17442C19.6055 9.38858 20.0384 10.1232 19.8146 10.8297Z" fill="#CB0051"/>
<path d="M28.531 17.0745L24.3476 21.0777C24.0694 21.3319 23.7201 21.464 23.3582 21.464C22.9963 21.464 22.647 21.3298 22.3688 21.0777C21.825 20.5572 21.825 19.7026 22.3688 19.1822L25.5754 16.1278L22.3688 13.0714C21.825 12.551 21.825 11.6964 22.3688 11.1759C22.9127 10.6555 23.8058 10.6555 24.3497 11.1759L28.5331 15.1791C29.0748 15.7015 29.0748 16.5541 28.531 17.0745Z" fill="#CB0051"/>
</g>
</svg>
