<svg xmlns="http://www.w3.org/2000/svg" width="72" height="80" viewBox="0 0 72 80" fill="none">
  <g clip-path="url(#clip0_1081_179)">
    <path d="M29.6608 18.8914C26.1126 20.918 22.7155 22.8571 19.3184 24.7993C17.549 25.811 15.7985 26.8633 14.004 27.8313C11.4538 29.2084 8.9477 28.5589 7.27906 26.1608C5.97249 24.2841 6.43845 21.8766 8.53211 20.078C9.5207 19.2287 10.6132 18.498 11.6647 17.7236C17.4325 13.4738 23.2192 9.2521 28.9619 4.96794C30.9327 3.50034 33.061 2.79776 35.5294 2.8165C42.3424 2.86958 49.1555 2.83523 55.9465 2.83523C56.4943 0.299715 56.8658 0.00619488 59.4349 0.00619488C62.7407 0.00619488 66.0433 -0.00629537 69.3491 0.00931744C71.3043 0.0186851 71.9843 0.68379 71.9874 2.64788C72.0032 9.04913 72.0032 15.4504 71.9843 21.8516C71.978 23.7189 71.2917 24.384 69.4184 24.3934C66.0087 24.4121 62.599 24.3466 59.1893 24.4215C57.5931 24.4558 56.4093 24.078 56.0284 22.295C53.9662 23.7658 51.7529 24.1436 49.379 24.0999C45.3932 24.0249 41.4011 23.9594 37.4215 24.1124C33.5238 24.2654 30.5518 23.2755 29.6608 18.8914ZM56.148 5.33953C49.1083 5.33953 42.2952 5.36763 35.4853 5.32079C33.6152 5.3083 32.0189 5.82665 30.5266 6.93516C24.0189 11.7626 17.4798 16.5495 10.9595 21.3583C10.4998 21.6986 9.95518 22.0452 9.71275 22.5199C9.40736 23.1131 9.039 24.0374 9.29717 24.4652C9.69701 25.1303 10.5408 25.6924 11.3121 25.9234C11.8442 26.0796 12.6281 25.708 13.1948 25.3895C18.7926 22.2232 24.3715 19.0257 29.9473 15.8188C30.344 15.5909 30.7281 15.2911 31.0272 14.9476C32.2834 13.5113 33.8828 12.8899 35.7623 12.8868C38.6998 12.8805 41.6372 12.8836 44.5746 12.8836C45.6765 12.8836 46.8005 12.7619 47.8678 12.9555C48.3715 13.046 48.7619 13.7548 49.2059 14.1826C48.7462 14.5823 48.3306 15.0663 47.808 15.3473C47.4806 15.5222 46.9863 15.3879 46.5675 15.3879C42.9501 15.3879 39.3294 15.3629 35.712 15.4004C33.675 15.4223 32.2708 16.7369 32.2677 18.4918C32.2645 20.2685 33.6624 21.5425 35.6994 21.5675C37.9032 21.5925 40.1039 21.5737 42.3078 21.5737C45.1413 21.5737 47.9717 21.6049 50.8052 21.5612C53.3176 21.5206 56.1008 19.7127 56.1323 17.9984C56.2015 13.8454 56.148 9.69238 56.148 5.33953ZM69.3428 21.836C69.3428 15.3192 69.3428 8.9617 69.3428 2.61353C65.7348 2.61353 62.2527 2.61353 58.7895 2.61353C58.7895 9.08035 58.7895 15.4441 58.7895 21.836C62.344 21.836 65.7883 21.836 69.3428 21.836Z" fill="black"/>
    <path d="M42.459 61.0524C47.6506 58.0797 52.7195 55.1538 57.8104 52.2655C60.1654 50.929 62.5896 51.3037 64.2173 53.1772C65.8009 54.9946 65.9489 56.7651 64.5196 58.7104C63.9466 59.4942 63.1752 60.1718 62.3881 60.7557C55.9214 65.552 49.4137 70.2951 42.9501 75.0976C41.0202 76.5309 38.9265 77.1991 36.518 77.1835C29.7018 77.1398 22.8887 77.1679 16.0945 77.1679C15.3987 79.8002 15.1406 79.9969 12.4519 79.9969C9.19961 79.9969 5.94735 80.0063 2.69509 79.9938C0.705318 79.9844 0.0158257 79.3381 0.00952898 77.399C-0.00936122 70.9977 -0.00936122 64.5965 0.00952898 58.1952C0.0158257 56.2436 0.68328 55.6128 2.68879 55.6066C6.09847 55.5941 9.50815 55.6004 12.9178 55.6035C14.9233 55.6066 15.1689 55.7721 16.0284 57.6675C18.0308 56.2061 20.3008 55.8564 22.7281 55.9001C26.7644 55.9751 30.8069 55.922 34.8462 55.922C39.5939 55.9189 40.7179 56.6589 42.459 61.0524ZM15.8521 74.6605C16.5573 74.6605 17.0737 74.6605 17.5869 74.6605C23.8836 74.6605 30.1835 74.6292 36.4802 74.6792C38.4133 74.6948 40.041 74.1296 41.5774 72.9899C48.0032 68.2155 54.4637 63.4911 60.9052 58.7385C61.4058 58.3669 61.9946 57.9954 62.2811 57.4833C62.6022 56.9056 62.9643 55.9688 62.7093 55.541C62.3126 54.8759 61.4656 54.2795 60.7006 54.0828C60.1119 53.9329 59.2901 54.3388 58.6762 54.6823C54.5266 57.0149 50.374 59.3506 46.2842 61.7861C44.1465 63.0602 42.1536 64.5715 40.0442 65.8986C39.2665 66.3888 38.3503 66.9321 37.4814 66.9602C33.0265 67.0976 28.5652 67.0726 24.1071 67.1008C24.0032 67.1008 23.8584 67.1008 23.8049 67.0383C23.4586 66.6324 22.8667 66.2046 22.8793 65.7955C22.8919 65.4021 23.4712 64.9087 23.9182 64.6839C24.2992 64.4934 24.8438 64.6121 25.3161 64.6121C29.0438 64.6058 32.7683 64.6495 36.496 64.5871C38.4133 64.5559 39.7671 63.1507 39.7293 61.4489C39.6915 59.7253 38.3252 58.4825 36.3889 58.4294C35.6553 58.4107 34.9186 58.4263 34.1851 58.4263C29.8812 58.4263 25.5774 58.4013 21.2736 58.4388C18.6573 58.4606 15.9025 60.3029 15.8773 62.1015C15.808 66.2077 15.8521 70.317 15.8521 74.6605ZM13.2169 77.4396C13.2169 70.929 13.2169 64.5652 13.2169 58.2108C9.62464 58.2108 6.1394 58.2108 2.65416 58.2108C2.65416 64.6714 2.65416 71.0289 2.65416 77.4396C6.21811 77.4396 9.66242 77.4396 13.2169 77.4396Z" fill="black"/>
    <path d="M20.2723 35.9344C19.6679 35.9344 19.2176 36.0406 18.8524 35.9126C18.0685 35.6346 17.0169 35.4223 16.6612 34.8321C16.3589 34.3325 16.6769 33.2178 17.0736 32.5964C18.2479 30.751 19.5388 28.968 20.9146 27.2662C21.3333 26.7478 22.1771 26.2826 22.832 26.2795C31.5939 26.2139 40.3589 26.2108 49.1208 26.2826C49.8103 26.2888 50.6919 26.8072 51.1484 27.3599C52.4738 28.968 53.7174 30.6604 54.8099 32.4309C55.2444 33.1335 55.5592 34.2795 55.2664 34.9383C55.024 35.4879 53.8308 35.6534 53.0342 35.9157C52.7068 36.0218 52.3133 35.9344 51.7277 35.9344C51.7277 36.5558 51.7277 37.1054 51.7277 37.6581C51.7277 41.8236 51.7371 45.9891 51.7245 50.1514C51.7151 52.6588 50.6006 53.7549 48.0661 53.758C40.0378 53.7642 32.0095 53.7642 23.9811 53.758C21.3522 53.7549 20.2818 52.6807 20.2755 50.039C20.266 45.4145 20.2723 40.7869 20.2723 35.9344ZM34.6069 51.2537C34.6069 44.6588 34.6069 38.267 34.6069 31.5878C33.8135 32.6776 33.124 33.4738 32.6076 34.37C31.8961 35.6003 30.939 36.0437 29.5065 35.9656C27.3278 35.8501 25.1366 35.9344 22.8068 35.9344C22.8068 40.8743 22.7879 45.6456 22.8509 50.4168C22.854 50.701 23.4931 51.2131 23.8457 51.2162C27.4034 51.2755 30.9642 51.2537 34.6069 51.2537ZM37.3743 31.7627C37.3743 38.3388 37.3743 44.7525 37.3743 51.2537C41.0421 51.2537 44.5998 51.2755 48.1606 51.2162C48.51 51.21 49.1492 50.6979 49.1523 50.4137C49.2153 45.6424 49.1964 40.8712 49.1964 35.9344C48.0724 35.9344 47.0744 35.822 46.111 35.9531C42.3896 36.459 39.3105 35.719 37.645 31.9688C37.623 31.9282 37.5632 31.9063 37.3743 31.7627ZM19.6804 33.4301C20.2157 33.4301 20.562 33.4301 20.9115 33.4301C23.7891 33.4301 26.6698 33.4426 29.5474 33.4083C29.856 33.4051 30.2684 33.2115 30.4542 32.9711C31.449 31.6659 32.3873 30.32 33.5207 28.7432C31.3703 28.7432 29.5569 28.7432 27.7403 28.7432C22.6242 28.7432 22.6242 28.7432 19.8662 33.0086C19.841 33.0523 19.8284 33.1054 19.6804 33.4301ZM38.5297 28.7463C39.0083 29.4489 39.364 29.8423 39.575 30.3013C40.7997 32.9492 42.8272 33.8236 45.7174 33.4801C47.8457 33.2272 50.0307 33.4301 52.4644 33.4301C51.3499 31.8751 50.4746 30.5886 49.5207 29.3677C49.2782 29.0554 48.7745 28.7775 48.3841 28.7713C45.198 28.7244 42.015 28.7463 38.5297 28.7463Z" fill="black"/>
    <path d="M54.5 34L50.5 27.5H22L18 35H31L36 28L43.5 35L54.5 34Z" fill="black"/>
    <path d="M34.6069 51.2535C30.9611 51.2535 27.4035 51.2754 23.8458 51.2161C23.4963 51.2098 22.8541 50.6977 22.8509 50.4167C22.788 45.6454 22.8069 40.8741 22.8069 35.9342C25.1366 35.9342 27.3279 35.8468 29.5066 35.9655C30.9391 36.0435 31.8962 35.6001 32.6077 34.3698C33.1241 33.4768 33.8135 32.6805 34.6069 31.5876C34.6069 38.2668 34.6069 44.6587 34.6069 51.2535Z" fill="#D00053"/>
    <path d="M37.3742 31.7627C37.5631 31.9063 37.6261 31.9282 37.6419 31.9688C39.3073 35.7221 42.3864 36.4621 46.1078 35.9532C47.0712 35.822 48.0692 35.9344 49.1932 35.9344C49.1932 40.8712 49.2121 45.6425 49.1491 50.4137C49.146 50.6979 48.5069 51.21 48.1574 51.2162C44.5997 51.2756 41.0389 51.2537 37.3711 51.2537C37.3742 44.7525 37.3742 38.3419 37.3742 31.7627ZM44.8516 50.623C44.8516 50.6198 44.8516 50.6167 44.8516 50.6105C45.6356 50.6105 46.4667 50.7635 47.1909 50.5543C47.6442 50.4231 48.1763 49.7767 48.2298 49.3146C48.2707 48.9711 47.6222 48.2467 47.2349 48.2123C45.73 48.0812 44.1968 48.0656 42.695 48.2123C42.2888 48.2529 41.6592 49.0305 41.6781 49.4458C41.697 49.8517 42.3455 50.42 42.8304 50.573C43.4443 50.7728 44.1716 50.623 44.8516 50.623ZM44.5557 44.3997C43.9291 44.3997 43.375 44.2404 43.013 44.4372C42.4652 44.7338 42.0559 45.2771 41.5868 45.7174C42.0433 46.1109 42.4463 46.6073 42.972 46.8603C43.353 47.0445 43.8945 46.9383 44.3605 46.8946C45.4057 46.7978 47.0019 47.363 46.9642 45.5988C46.9327 43.9813 45.4057 44.5121 44.5557 44.3997Z" fill="#D00053"/>
    <path d="M19.6804 33.4301C19.8252 33.1054 19.841 33.0523 19.8693 33.0086C22.6273 28.7432 22.6273 28.7432 27.7434 28.7432C29.56 28.7432 31.3735 28.7432 33.5238 28.7432C32.3904 30.3201 31.4522 31.6659 30.4573 32.9711C30.2747 33.2115 29.8591 33.4051 29.5506 33.4083C26.6729 33.4426 23.7922 33.4301 20.9146 33.4301C20.5651 33.4301 20.2156 33.4301 19.6804 33.4301Z" fill="#FFBE00"/>
    <path d="M38.5298 28.7462C42.015 28.7462 45.2012 28.7244 48.3842 28.7743C48.7714 28.7806 49.2752 29.0585 49.5207 29.3707C50.4778 30.5948 51.3531 31.8781 52.4645 33.4332C50.0308 33.4332 47.8489 33.2302 45.7175 33.4831C42.8273 33.8266 40.7998 32.9523 39.575 30.3044C39.3641 29.8422 39.0083 29.4488 38.5298 28.7462Z" fill="#FFBE00"/>
    <path d="M64.0189 6.29506C63.1594 6.87273 62.6179 7.49724 62.2621 7.40669C61.7615 7.27867 61.3994 6.61981 60.9807 6.18577C61.39 5.79545 61.7898 5.10224 62.2054 5.096C62.6777 5.08975 63.1625 5.6924 64.0189 6.29506Z" fill="black"/>
    <path d="M9.82625 71.9531C10.3867 72.8431 10.966 73.3583 10.9408 73.8423C10.9187 74.2451 10.182 74.6042 9.76014 74.9851C9.3603 74.5417 8.72118 74.1389 8.64247 73.6456C8.5795 73.2615 9.22177 72.7681 9.82625 71.9531Z" fill="black"/>
    <path d="M44.8517 50.623C44.1716 50.623 43.4444 50.7729 42.8273 50.5762C42.3424 50.4232 41.6907 49.8549 41.675 49.449C41.6561 49.0337 42.2889 48.2561 42.6919 48.2155C44.1937 48.0688 45.7269 48.0813 47.2319 48.2155C47.6191 48.2499 48.2677 48.9743 48.2267 49.3178C48.1732 49.7831 47.6411 50.4294 47.1878 50.5575C46.4636 50.7667 45.6356 50.6137 44.8485 50.6137C44.8517 50.6168 44.8517 50.6199 44.8517 50.623Z" fill="black"/>
    <path d="M44.5558 44.3997C45.4059 44.5121 46.9328 43.9813 46.9643 45.5988C46.999 47.3599 45.4059 46.7978 44.3606 46.8946C43.8978 46.9384 43.3531 47.0445 42.9722 46.8603C42.4464 46.6074 42.0434 46.1109 41.5869 45.7174C42.056 45.2772 42.4653 44.7338 43.0131 44.4372C43.3752 44.2405 43.9293 44.3997 44.5558 44.3997Z" fill="black"/>
  </g>
  <defs>
    <clipPath id="clip0_1081_179">
      <rect width="72" height="80" fill="white"/>
    </clipPath>
  </defs>
</svg>