<svg xmlns="http://www.w3.org/2000/svg" width="166" height="160" viewBox="0 0 166 160" fill="none">
<path d="M155.372 0H13.9821C7.04269 0 4.72957 5.94726 4.44043 8.92089V98.7245L162.022 100.509V16.9497C162.947 4.81728 157.974 0.594726 155.372 0Z" fill="#CB0051"/>
<g clip-path="url(#clip0_150_384)">
<path d="M37.9434 30.7845C38.8866 29.0506 39.6171 27.1446 40.8252 25.6149C42.6474 23.3085 45.2443 22.2353 48.2265 22.2353C62.6718 22.2313 77.117 22.2353 91.5623 22.2273C92.8668 22.2273 94.1151 22.3955 94.1191 24.0252C94.1231 25.7431 92.8186 25.9673 91.4419 25.9673C77.3298 25.9673 63.2216 25.9633 49.1095 25.9673C43.8636 25.9673 41.5878 28.2698 41.5878 33.5514C41.5878 47.3622 41.5878 61.1731 41.5878 74.9839C41.5878 79.9692 43.7672 82.2717 48.7563 82.2797C69.0856 82.3117 89.415 82.3157 109.744 82.2797C114.721 82.2717 116.953 79.9532 116.965 75.0039C116.981 68.6651 116.965 62.3263 116.965 55.9915C116.965 55.4589 116.969 54.9224 116.969 54.3898C116.961 53.1284 117.491 52.3076 118.843 52.3236C120.228 52.3396 120.642 53.2606 120.642 54.4739C120.642 59.4112 120.642 64.3485 120.642 69.2858C120.642 71.1558 120.634 73.0218 120.642 74.8918C120.662 81.611 116.275 85.9917 109.479 85.9957C95.3031 86.0037 81.1227 85.9997 66.9463 85.9997C61.5278 85.9997 56.1053 85.8195 50.6989 86.0477C44.4857 86.308 40.1268 83.9975 37.9514 78.0391C37.9434 62.2863 37.9434 46.5374 37.9434 30.7845Z" fill="white"/>
<path d="M127.477 31.5172C127.489 40.1305 120.168 47.5344 111.574 47.6025C102.981 47.6705 95.4433 40.1144 95.4875 31.4732C95.5316 23.0401 102.957 15.6402 111.418 15.5961C119.983 15.5521 127.469 22.9761 127.477 31.5172ZM99.2564 31.357C99.1239 38.4206 104.177 43.6943 111.261 43.8905C118.101 44.0787 123.66 38.8291 123.804 32.0498C123.953 24.8741 118.871 19.4963 111.759 19.3041C104.807 19.1159 99.3888 24.3415 99.2564 31.357Z" fill="white"/>
<path d="M82.9813 55.9955C82.9813 61.3332 82.9652 66.6709 82.9933 72.0086C83.0013 73.4102 82.8007 74.7035 81.0708 74.6395C79.5174 74.5794 79.2646 73.3541 79.2686 72.0287C79.2806 61.2851 79.2766 50.5456 79.2686 39.8021C79.2686 38.4647 79.6218 37.2834 81.1591 37.2594C82.7645 37.2354 83.0013 38.4567 82.9973 39.7821C82.9813 45.1879 82.9893 50.5897 82.9893 55.9955C82.9853 55.9955 82.9853 55.9955 82.9813 55.9955Z" fill="white"/>
<path d="M64.317 59.6194C64.317 55.487 64.321 51.3505 64.313 47.2181C64.309 45.9968 64.4816 44.8395 66.0148 44.7915C67.6243 44.7394 67.9895 45.8887 67.9895 47.2141C67.9935 55.547 67.9895 63.884 67.9935 72.2169C67.9935 73.5744 67.5801 74.6996 66.0148 74.6475C64.5377 74.5995 64.2929 73.4743 64.2969 72.2169C64.321 68.0164 64.3049 63.8159 64.3049 59.6154C64.309 59.6194 64.313 59.6194 64.317 59.6194Z" fill="white"/>
<path d="M75.4512 63.4515C75.4512 66.3826 75.4391 69.3137 75.4592 72.2409C75.4672 73.5062 75.1662 74.6034 73.7052 74.6475C72.1118 74.6955 71.7586 73.5263 71.7546 72.2008C71.7506 66.3386 71.7465 60.4803 71.7626 54.618C71.7666 53.3726 72.1238 52.3115 73.645 52.3235C75.1742 52.3395 75.4552 53.4007 75.4512 54.658C75.4472 57.5892 75.4512 60.5203 75.4512 63.4515Z" fill="white"/>
<path d="M56.7557 63.4314C56.7597 60.4963 56.7798 57.5651 56.7477 54.634C56.7356 53.3326 57.0928 52.3435 58.5819 52.3315C60.083 52.3195 60.4523 53.3406 60.4483 54.622C60.4443 60.5563 60.4443 66.4867 60.4523 72.4211C60.4563 73.7625 59.8824 74.7035 58.4936 74.6515C57.2173 74.6074 56.7236 73.6944 56.7396 72.4331C56.7758 69.4339 56.7517 66.4306 56.7557 63.4314Z" fill="white"/>
<path d="M98.0963 63.4195C98.0963 66.3506 98.0842 69.2858 98.1043 72.2169C98.1123 73.5944 97.6829 74.6835 96.1336 74.6475C94.6646 74.6115 94.3876 73.4943 94.3916 72.2369C94.4077 66.3706 94.3997 60.5043 94.3957 54.6381C94.3957 53.3807 94.6806 52.3276 96.2219 52.3276C97.7431 52.3276 98.0923 53.3567 98.0923 54.618C98.0963 57.5532 98.0923 60.4843 98.0963 63.4195Z" fill="white"/>
<path d="M86.8781 65.2534C86.8781 62.9229 86.9022 60.5924 86.8701 58.2619C86.8541 57.0326 87.2314 56.0836 88.5759 56.0355C89.9888 55.9835 90.5547 56.8804 90.5547 58.2299C90.5467 62.959 90.5386 67.684 90.5587 72.4131C90.5667 73.7746 89.9848 74.6715 88.6081 74.6435C87.3156 74.6155 86.842 73.7105 86.8661 72.4451C86.9143 70.0466 86.8781 67.648 86.8781 65.2534Z" fill="white"/>
<path d="M101.837 67.1514C101.837 65.4256 101.821 63.6997 101.841 61.9739C101.857 60.7726 102.371 59.8276 103.659 59.7835C105.088 59.7355 105.594 60.7285 105.598 62.0219C105.606 65.5417 105.61 69.0575 105.594 72.5773C105.59 73.8026 105.036 74.6835 103.715 74.6555C102.415 74.6275 101.865 73.7345 101.845 72.5252C101.817 70.7393 101.837 68.9454 101.837 67.1514Z" fill="white"/>
<path d="M52.8627 67.1635C52.8627 68.9614 52.8426 70.7633 52.8707 72.5612C52.8908 73.8546 52.2566 74.8117 51.0324 74.5834C50.326 74.4513 49.3105 73.3701 49.2744 72.6734C49.0978 69.0815 49.1901 65.4777 49.1901 61.8778C49.1901 60.6084 49.8323 59.7675 51.0926 59.7836C52.385 59.7996 52.8948 60.6965 52.8667 61.9619C52.8346 63.6997 52.8627 65.4336 52.8627 67.1635Z" fill="white"/>
<path d="M113.079 31.0207C113.079 32.9307 113.055 34.8448 113.088 36.7548C113.112 37.9922 112.674 38.9372 111.366 38.9812C109.985 39.0253 109.375 38.1323 109.383 36.7789C109.395 34.8608 109.387 32.9428 109.387 30.4761C108.391 31.4492 107.701 32.0938 107.043 32.7706C106.14 33.7036 105.104 34.104 104.069 33.147C102.997 32.1579 103.415 31.1328 104.338 30.2198C106.136 28.4379 107.926 26.648 109.708 24.8501C110.756 23.7929 111.803 23.7969 112.839 24.8301C114.633 26.616 116.407 28.4219 118.197 30.2078C119.12 31.1328 119.489 32.1659 118.438 33.155C117.39 34.144 116.335 33.7116 115.492 32.7546C114.882 32.0578 114.356 31.281 113.794 30.5402C113.561 30.7004 113.32 30.8605 113.079 31.0207Z" fill="white"/>
</g>
<path d="M100.21 132.195C100.21 134.765 100.21 136.631 100.21 139.112C105.807 137.714 107.119 142.028 108.916 145.761C110.315 148.662 111.842 151.498 113.138 154.439C114.513 157.558 113.169 159.917 109.806 159.933C91.9329 160.022 74.0516 160.022 56.1782 159.933C52.7912 159.917 51.4475 157.574 52.8707 154.447C54.8186 150.181 56.6791 145.81 59.1995 141.899C60.3444 140.122 63 139.354 65.6397 137.714C65.6397 136.72 65.6397 134.652 65.6397 132.195C64.0416 132.195 62.6184 132.195 61.1952 132.195C46.2318 132.195 31.2684 132.236 16.305 132.179C6.26318 132.139 0.99976 126.62 0.99976 116.351C0.99976 83.5061 0.983858 50.6535 0.975907 17.8089C0.975907 16.3303 0.960006 14.8436 1.03951 13.365C1.42115 6.05275 6.82769 0.445339 14.055 0.146385C19.0799 -0.0636913 24.1206 0.0979055 29.1535 0.0655862C31.5626 0.0494265 33.5423 0.857411 33.5741 3.55608C33.6059 6.28706 31.5785 7.08697 29.2012 7.09505C24.5659 7.10313 19.9306 7.02233 15.2953 7.13545C10.3896 7.25665 7.79768 9.6806 7.78973 14.6012C7.72613 41.7899 7.78178 68.9786 7.80563 96.1753C7.80563 96.4177 7.9885 96.652 8.19522 97.161C57.9513 97.161 107.803 97.161 158.036 97.161C158.107 95.8279 158.25 94.5432 158.25 93.2504C158.266 67.403 158.274 41.5556 158.25 15.7082C158.242 9.45436 155.81 7.11121 149.417 7.10313C119.888 7.09505 90.3587 7.09505 60.8215 7.08697C59.5016 7.08697 57.9274 7.41016 56.9335 6.80417C55.7807 6.09315 54.5324 4.56606 54.4609 3.31368C54.3972 2.32794 55.892 0.978608 56.9892 0.283742C57.7684 -0.209128 59.0485 0.0898257 60.1059 0.0898257C89.8975 0.0817458 119.697 0.073666 149.489 0.0898257C159.642 0.0979055 164.977 5.45484 164.985 15.7162C165.017 49.3688 165.025 83.0294 165.017 116.682C165.017 126.628 159.618 132.131 149.751 132.171C134.788 132.228 119.824 132.187 104.861 132.187C103.438 132.195 102.015 132.195 100.21 132.195ZM7.77383 104.546C7.77383 108.335 7.76588 111.931 7.77383 115.527C7.80563 123.089 9.84104 125.214 17.116 125.222C40.8094 125.238 64.5027 125.247 88.1881 125.247C108.701 125.247 129.222 125.255 149.735 125.222C154.712 125.214 157.606 123.445 157.94 119.478C158.354 114.581 158.036 109.62 158.036 104.554C107.898 104.546 58.0626 104.546 7.77383 104.546ZM61.7756 152.661C76.0949 152.661 90.1281 152.661 104.28 152.661C101.808 146.117 101.808 146.117 95.638 146.117C87.1783 146.117 78.7187 146.117 70.2511 146.117C64.0813 146.117 64.0813 146.117 61.7756 152.661ZM93.0063 138.877C93.0063 136.429 93.0063 134.482 93.0063 132.567C86.1209 132.567 79.5138 132.567 73.0021 132.567C73.0021 134.878 73.0021 136.817 73.0021 138.877C79.7841 138.877 86.2958 138.877 93.0063 138.877Z" fill="#263640"/>
<path d="M48.7358 3.79045C46.3744 5.28522 44.9592 6.87695 43.6473 6.78807C42.566 6.71535 40.626 4.39644 40.8407 3.5319C41.1746 2.19872 42.9238 0.566595 44.2595 0.372679C45.301 0.219162 46.6129 2.07753 48.7358 3.79045Z" fill="#263640"/>
<path d="M61.7754 152.662C64.0732 146.117 64.0732 146.117 70.2589 146.117C78.7185 146.117 87.1781 146.117 95.6457 146.117C101.808 146.117 101.808 146.117 104.288 152.662C90.1358 152.662 76.1027 152.662 61.7754 152.662Z" fill="white"/>
<path d="M93.0052 138.877C86.2947 138.877 79.783 138.877 73.001 138.877C73.001 136.817 73.001 134.878 73.001 132.567C79.5127 132.567 86.1198 132.567 93.0052 132.567C93.0052 134.482 93.0052 136.429 93.0052 138.877Z" fill="white"/>
<path d="M83.0284 118.242C80.4125 117.902 76.4371 119.357 76.3576 114.88C76.2781 110.404 80.1899 111.39 82.917 111.414C85.6124 111.438 89.548 110.283 89.6355 114.711C89.7309 119.203 85.7793 117.967 83.0284 118.242Z" fill="#263640"/>
<defs>
<clipPath id="clip0_150_384">
<rect width="89.5336" height="70.4716" fill="white" transform="translate(37.9434 15.5961)"/>
</clipPath>
</defs>
</svg>