<svg width="63" height="62" viewBox="0 0 63 62" fill="none" xmlns="http://www.w3.org/2000/svg">
<path d="M36.6881 15.6089H25.3611C23.9256 15.6089 23.2078 15.6089 22.6761 16.0051C22.1443 16.4013 21.939 17.0891 21.5283 18.4646L18.0797 30.0159C17.3763 32.372 17.0246 33.55 17.6245 34.3551C18.2243 35.1602 19.4537 35.1602 21.9126 35.1602H40.389C42.894 35.1602 44.1464 35.1602 44.7456 34.3391C45.3447 33.5179 44.9626 32.3252 44.1983 29.9397L40.4974 18.3884C40.0679 17.0479 39.8532 16.3777 39.3264 15.9933C38.7996 15.6089 38.0958 15.6089 36.6881 15.6089Z" fill="#D00053"/>
<path d="M41.9036 42.928H53.2306C53.9577 42.928 54.4183 42.9295 54.7658 42.9695C55.0875 43.0065 55.2066 43.067 55.2794 43.1202C55.3523 43.1733 55.4462 43.2682 55.5796 43.5633C55.7237 43.882 55.8657 44.3203 56.0876 45.0126L59.7885 56.5639C60.1804 57.7873 60.4379 58.5993 60.5392 59.2091C60.6366 59.7951 60.5493 59.9741 60.4802 60.0687C60.4112 60.1633 60.2674 60.3011 59.6796 60.3872C59.068 60.4767 58.2162 60.4793 56.9315 60.4793H38.4551C37.1936 60.4793 36.3587 60.4767 35.7583 60.3891C35.1823 60.3051 35.0387 60.1705 34.9688 60.0767C34.899 59.983 34.8111 59.8069 34.8953 59.2309C34.9832 58.6305 35.2196 57.8298 35.5804 56.6211L39.029 45.0698C39.2411 44.3594 39.3771 43.9093 39.5179 43.5817C39.6484 43.2782 39.7427 43.1807 39.816 43.1261C39.8893 43.0714 40.0097 43.009 40.3378 42.9708C40.692 42.9296 41.1623 42.928 41.9036 42.928Z" stroke="#CB0051" stroke-width="2"/>
<path d="M7.32705 42.928H21.6036C22.0383 42.928 22.4232 43.2089 22.5559 43.6229L27.5383 59.1741C27.7451 59.8195 27.2636 60.4793 26.586 60.4793H2.68431C2.01501 60.4793 1.53464 59.8345 1.7261 59.1932L6.36884 43.6419C6.49531 43.2183 6.88495 42.928 7.32705 42.928Z" stroke="#CB0051" stroke-width="2"/>
<path d="M56.0023 10.5968C56.0023 10.5968 46.5829 9.41941 45.6999 0V10.5968H56.0023Z" fill="#D00053"/>
<path d="M35.103 10.5968C35.103 10.5968 44.7916 9.41941 45.6999 0V10.5968H35.103Z" fill="#D00053"/>
<path d="M56.2967 10.5968C56.2967 10.5968 46.6082 11.7743 45.6999 21.1937V10.5968H56.2967Z" fill="#D00053"/>
<path d="M35.103 10.5968C35.103 10.5968 44.7916 11.7743 45.6999 21.1937V10.5968H35.103Z" fill="#D00053"/>
</svg>
