<svg width="56" height="51" viewBox="0 0 56 51" fill="none" xmlns="http://www.w3.org/2000/svg">
<g opacity="0.2">
<path d="M35.805 18.8653C34.8778 18.6479 34.2987 17.7047 34.5158 16.7615L37.9629 1.56901C38.1801 0.622329 39.1108 0.0402942 40.0312 0.254175C40.9584 0.471561 41.5375 1.41474 41.3204 2.35792L37.8733 17.5504C37.6665 18.4691 36.7668 19.0827 35.805 18.8653Z" fill="#FFBE00"/>
<path d="M45.3877 16.5721C44.9154 16.5721 44.4466 16.3757 44.1054 15.9935C43.4677 15.2748 43.5263 14.1668 44.2329 13.5181L48.5555 9.5631L44.2329 5.60807C43.5263 4.95941 43.4677 3.85144 44.1054 3.13266C44.7465 2.41389 45.8324 2.35779 46.539 3.00293L52.2853 8.26229C52.6472 8.59538 52.854 9.06872 52.854 9.5666C52.854 10.0645 52.6472 10.5378 52.2853 10.8709L46.539 16.1303C46.2115 16.4248 45.7979 16.5721 45.3877 16.5721Z" fill="#FFBE00"/>
<path d="M30.4483 16.5722C30.0381 16.5722 29.6245 16.4249 29.2935 16.1234L23.5473 10.864C23.1853 10.5309 22.9785 10.0576 22.9785 9.5597C22.9785 9.06182 23.1853 8.58848 23.5473 8.25538L29.2935 2.99603C30.0002 2.34738 31.0895 2.40698 31.7272 3.12576C32.3649 3.84454 32.3063 4.95251 31.5996 5.60116L27.277 9.55619L31.5996 13.5112C32.3063 14.1599 32.3649 15.2679 31.7272 15.9866C31.3894 16.3758 30.9206 16.5722 30.4483 16.5722Z" fill="#FFBE00"/>
</g>
<path d="M1.13064 22.4207C0.503272 22.4312 0 22.9502 0 23.5883V45.2042C0 45.5268 0.25853 45.7898 0.57566 45.7898H6.02548C6.53909 45.7898 6.99066 45.4427 7.13199 44.9413L12.2164 26.7124C12.5439 25.5343 11.9234 24.2966 10.7928 23.8793C8.71074 23.1079 5.51531 22.3471 1.13064 22.4207Z" fill="#FFBE00"/>
<path d="M50.5583 35.271C45.9633 35.271 36.77 41.1895 32.1751 41.1895C27.5801 41.1895 22.4061 37.6096 22.4061 37.6096C22.4061 37.6096 28.597 38.7772 32.1716 38.7772C35.7462 38.7772 36.7666 37.536 36.7666 35.8565C36.7666 31.7648 29.9345 31.1301 26.4805 30.5972C23.0886 28.6758 21.3271 27.1576 15.7084 26.6737C15.6739 27.0068 15.6222 27.3364 15.5326 27.6695L10.917 44.2189C16.1462 46.6382 25.1465 50.4705 29.8724 50.4705C36.7666 50.4705 55.1498 41.1194 55.1498 38.7842C55.1498 36.4491 52.854 35.271 50.5583 35.271Z" fill="#FFBE00"/>
</svg>
