<svg fill="none" viewBox="0 0 400 400" height="400" width="400" xmlns="http://www.w3.org/2000/svg" aria-label="Sugar: How it works" class="sgr-process-visualization-image" style="max-width: 350px; width: 100%;">
  <circle xmlns="http://www.w3.org/2000/svg" cx="200" cy="200" r="200" fill="white"></circle>
  <path xmlns="http://www.w3.org/2000/svg" d="M230.342 316.955L224.305 316.12L221.864 309.89C221.222 308.221 219.617 307.193 217.626 307.193H210.625C210.047 307.193 209.534 307.578 209.469 308.156L207.157 320.937C207.029 321.515 206.579 321.9 206.001 321.9H175.303C174.725 321.9 174.211 322.285 174.147 322.863L173.505 326.524C173.376 327.23 173.954 327.937 174.661 327.937H177.165C176.908 330.698 178.835 332.882 181.597 332.882C184.358 332.882 187.12 330.698 187.826 327.937H215.763C215.506 330.698 217.433 332.882 220.195 332.882C223.02 332.882 225.718 330.698 226.424 327.937H229.443C230.021 327.937 230.534 327.552 230.599 326.974L231.947 319.331C232.204 318.111 231.498 317.083 230.342 316.955ZM185.386 327.487C185.129 329.029 183.652 330.313 182.046 330.313C180.505 330.313 179.413 329.029 179.734 327.487C179.991 325.946 181.468 324.662 183.074 324.662C184.615 324.662 185.707 325.946 185.386 327.487ZM211.91 315.927L212.873 310.533H216.983C217.69 310.533 218.332 310.918 218.589 311.56L220.323 315.927H211.91ZM223.984 327.487C223.727 329.029 222.25 330.313 220.644 330.313C219.039 330.313 218.011 329.029 218.332 327.487C218.589 325.946 220.066 324.662 221.672 324.662C223.277 324.662 224.241 325.946 223.984 327.487Z" fill="#263640"></path>
  <path xmlns="http://www.w3.org/2000/svg" d="M205.744 319.203L208.891 301.413C209.02 300.706 208.442 300 207.735 300H177.101C176.009 300 175.11 300.899 175.11 301.991C175.11 303.083 176.009 303.982 177.101 303.982H177.422H180.441C181.533 303.982 182.432 304.881 182.432 305.973C182.432 307.064 181.533 307.964 180.441 307.964H175.046C173.954 307.964 173.055 308.863 173.055 309.955C173.055 311.046 173.954 311.945 175.046 311.945H178.386C179.477 311.945 180.377 312.845 180.377 313.936C180.377 315.028 179.477 315.927 178.386 315.991H172.991C171.899 315.991 171 316.891 171 317.982C171 319.074 171.899 319.973 172.991 319.973H204.524C205.166 320.23 205.68 319.781 205.744 319.203Z" fill="#D00053"></path>
  <path xmlns="http://www.w3.org/2000/svg" d="M171.177 128.161C170.058 128.161 169.046 127.969 168.141 127.586C167.252 127.203 166.547 126.651 166.025 125.93C165.504 125.209 165.236 124.358 165.22 123.377H168.67C168.716 124.036 168.946 124.558 169.36 124.941C169.79 125.324 170.372 125.516 171.108 125.516C171.86 125.516 172.45 125.34 172.879 124.987C173.309 124.619 173.523 124.144 173.523 123.561C173.523 123.086 173.378 122.695 173.086 122.388C172.795 122.081 172.427 121.844 171.982 121.675C171.553 121.491 170.955 121.292 170.188 121.077C169.146 120.77 168.295 120.471 167.635 120.18C166.991 119.873 166.432 119.421 165.956 118.823C165.496 118.21 165.266 117.397 165.266 116.385C165.266 115.434 165.504 114.606 165.979 113.901C166.455 113.196 167.122 112.659 167.98 112.291C168.839 111.908 169.82 111.716 170.924 111.716C172.58 111.716 173.922 112.122 174.949 112.935C175.992 113.732 176.567 114.852 176.674 116.293H173.132C173.102 115.741 172.864 115.289 172.419 114.936C171.99 114.568 171.415 114.384 170.694 114.384C170.066 114.384 169.56 114.545 169.176 114.867C168.808 115.189 168.624 115.657 168.624 116.27C168.624 116.699 168.762 117.06 169.038 117.351C169.33 117.627 169.682 117.857 170.096 118.041C170.526 118.21 171.124 118.409 171.89 118.639C172.933 118.946 173.784 119.252 174.443 119.559C175.103 119.866 175.67 120.326 176.145 120.939C176.621 121.552 176.858 122.357 176.858 123.354C176.858 124.213 176.636 125.01 176.191 125.746C175.747 126.482 175.095 127.072 174.236 127.517C173.378 127.946 172.358 128.161 171.177 128.161ZM182.824 111.946V121.882C182.824 122.971 183.108 123.806 183.675 124.389C184.242 124.956 185.04 125.24 186.067 125.24C187.11 125.24 187.915 124.956 188.482 124.389C189.049 123.806 189.333 122.971 189.333 121.882V111.946H192.576V121.859C192.576 123.224 192.277 124.381 191.679 125.332C191.096 126.267 190.307 126.973 189.31 127.448C188.329 127.923 187.232 128.161 186.021 128.161C184.825 128.161 183.736 127.923 182.755 127.448C181.789 126.973 181.022 126.267 180.455 125.332C179.888 124.381 179.604 123.224 179.604 121.859V111.946H182.824ZM206.865 116.776C206.497 116.101 205.991 115.588 205.347 115.235C204.703 114.882 203.952 114.706 203.093 114.706C202.142 114.706 201.299 114.921 200.563 115.35C199.827 115.779 199.252 116.393 198.838 117.19C198.424 117.987 198.217 118.907 198.217 119.95C198.217 121.023 198.424 121.959 198.838 122.756C199.267 123.553 199.858 124.167 200.609 124.596C201.36 125.025 202.234 125.24 203.231 125.24C204.458 125.24 205.462 124.918 206.244 124.274C207.026 123.615 207.54 122.702 207.785 121.537H202.265V119.076H210.959V121.882C210.744 123.001 210.284 124.036 209.579 124.987C208.874 125.938 207.961 126.704 206.842 127.287C205.738 127.854 204.496 128.138 203.116 128.138C201.567 128.138 200.164 127.793 198.907 127.103C197.665 126.398 196.684 125.424 195.963 124.182C195.258 122.94 194.905 121.529 194.905 119.95C194.905 118.371 195.258 116.96 195.963 115.718C196.684 114.461 197.665 113.487 198.907 112.797C200.164 112.092 201.56 111.739 203.093 111.739C204.902 111.739 206.474 112.184 207.808 113.073C209.142 113.947 210.062 115.181 210.568 116.776H206.865ZM223.185 124.941H216.791L215.733 128H212.352L218.125 111.923H221.874L227.647 128H224.243L223.185 124.941ZM222.311 122.365L219.988 115.649L217.665 122.365H222.311ZM238.085 128L234.543 121.744H233.025V128H229.805V111.946H235.831C237.073 111.946 238.131 112.168 239.005 112.613C239.879 113.042 240.531 113.633 240.96 114.384C241.405 115.12 241.627 115.948 241.627 116.868C241.627 117.926 241.321 118.884 240.707 119.743C240.094 120.586 239.182 121.169 237.97 121.491L241.811 128H238.085ZM233.025 119.329H235.716C236.59 119.329 237.242 119.122 237.671 118.708C238.101 118.279 238.315 117.688 238.315 116.937C238.315 116.201 238.101 115.634 237.671 115.235C237.242 114.821 236.59 114.614 235.716 114.614H233.025V119.329Z" fill="#263640"></path>
  <path xmlns="http://www.w3.org/2000/svg" d="M330 202.001C322.832 202.001 317 207.833 317 215.001C317 222.169 322.832 228.001 330 228.001C337.168 228.001 343 222.169 343 215.001C343 207.833 337.168 202.001 330 202.001ZM329.75 213.501H330.25C332.318 213.501 334 215.183 334 217.251C334 218.877 332.952 220.253 331.5 220.771V221.501C331.5 222.329 330.828 223.001 330 223.001C329.172 223.001 328.5 222.329 328.5 221.501V221.001H327.5C326.672 221.001 326 220.329 326 219.501C326 218.673 326.672 218.001 327.5 218.001H330.25C330.664 218.001 331 217.665 331 217.251C331 216.837 330.664 216.501 330.25 216.501H329.75C327.682 216.501 326 214.819 326 212.751C326 211.125 327.048 209.749 328.5 209.231V208.501C328.5 207.673 329.172 207.001 330 207.001C330.828 207.001 331.5 207.673 331.5 208.501V209.001H332.5C333.328 209.001 334 209.673 334 210.501C334 211.329 333.328 212.001 332.5 212.001H329.75C329.336 212.001 329 212.337 329 212.751C329 213.165 329.336 213.501 329.75 213.501Z" fill="#D00053"></path>
  <path xmlns="http://www.w3.org/2000/svg" d="M329 191.918V184.002C329 182.896 328.104 182.002 327 182.002C325.896 182.002 325 182.896 325 184.002V188.006L317.398 180.572C316.62 179.809 315.378 179.809 314.602 180.572L295.878 198.876C295.32 199.44 295 200.214 295 201.002C295 202.656 296.346 204.002 298 204.002H301V215.002C301 217.76 303.244 220.002 306 220.002H311C312.104 220.002 313 219.108 313 218.002C313 216.896 312.104 216.002 311 216.002H306C305.448 216.002 305 215.552 305 215.002V202.002C305 200.896 304.104 200.002 303 200.002H300.446L316 184.798L329.102 197.61C329.894 198.384 331.158 198.37 331.93 197.578C332.702 196.788 332.688 195.522 331.898 194.75L329 191.918Z" fill="#263640"></path>
  <path xmlns="http://www.w3.org/2000/svg" d="M109.947 192.504L106.702 207.213C106.336 208.875 105.408 210.376 104.09 211.441C102.767 212.509 101.101 213.097 99.3993 213.097C98.364 213.097 97.5247 212.257 97.5247 211.222C97.5247 210.186 98.364 209.347 99.3993 209.347C101.161 209.347 102.659 208.138 103.041 206.406L106.286 191.697C106.509 190.686 107.509 190.047 108.52 190.27C109.531 190.493 110.17 191.493 109.947 192.504ZM104.929 222.47C104.929 225.519 102.449 228 99.3993 228C96.3498 228 93.8691 225.519 93.8691 222.47C93.8691 221.847 93.9742 221.248 94.165 220.689H86.0747C86.2655 221.248 86.3706 221.847 86.3706 222.47C86.3706 225.519 83.8895 228 80.8401 228C77.791 228 75.3099 225.519 75.3099 222.47C75.3099 221.847 75.415 221.248 75.6058 220.689H74.8412C71.7405 220.689 69.2173 218.166 69.2173 215.065C69.2173 215.049 69.2195 215.034 69.2198 215.018C69.2195 215.002 69.2173 214.987 69.2173 214.971C69.2173 212.696 70.5767 210.733 72.5249 209.848L70.2965 189.375C69.8662 186.172 67.109 183.758 63.8746 183.758C62.8394 183.758 62 182.919 62 181.884C62 180.848 62.8394 180.009 63.8746 180.009C68.991 180.009 73.3511 183.835 74.0165 188.907L74.0212 188.948L76.2419 209.347H90.0261C91.0614 209.347 91.9008 210.187 91.9008 211.222C91.9008 212.257 91.0614 213.097 90.0261 213.097H74.8412C73.8077 213.097 72.9666 213.938 72.9666 214.971C72.9666 214.987 72.9647 215.002 72.9644 215.018C72.9647 215.034 72.9666 215.049 72.9666 215.065C72.9666 216.099 73.8077 216.94 74.8412 216.94H99.3993C102.449 216.94 104.929 219.42 104.929 222.47ZM80.8401 220.689C79.8583 220.689 79.0592 221.488 79.0592 222.47C79.0592 223.452 79.8583 224.251 80.8401 224.251C81.8223 224.251 82.621 223.452 82.621 222.47C82.621 221.488 81.8223 220.689 80.8401 220.689ZM101.18 222.47C101.18 221.488 100.381 220.689 99.3993 220.689C98.4171 220.689 97.6184 221.488 97.6184 222.47C97.6184 223.452 98.4171 224.251 99.3993 224.251C100.381 224.251 101.18 223.452 101.18 222.47ZM77.7632 191.952C77.0685 191.185 77.1274 189.999 77.895 189.305L86.6306 181.399C88.6741 179.534 91.7528 179.534 93.7963 181.399L102.532 189.305C103.299 189.999 103.358 191.185 102.664 191.952C102.294 192.361 101.784 192.569 101.273 192.569C100.915 192.569 100.556 192.465 100.243 192.258V197.598C100.243 200.51 97.8751 202.88 94.9652 202.88H85.3679C82.458 202.88 80.0905 200.51 80.0905 197.598V192.318C79.3412 192.751 78.3671 192.62 77.7632 191.952ZM83.8339 188.986C83.8361 189.025 83.8397 189.063 83.8397 189.101V197.598C83.8397 198.443 84.5253 199.13 85.3679 199.13H94.9652C95.8079 199.13 96.4934 198.443 96.4934 197.598V189.101C96.4934 189.035 96.4971 188.97 96.5037 188.906L91.2771 184.176C91.2749 184.173 91.2723 184.171 91.2701 184.169C90.6677 183.619 89.7592 183.619 89.1567 184.169C89.1545 184.171 89.1523 184.173 89.1501 184.176L83.8339 188.986Z" fill="#263640"></path>
  <mask xmlns="http://www.w3.org/2000/svg" id="mask0_1_27" style="mask-type:alpha" maskUnits="userSpaceOnUse" x="62" y="180" width="48" height="48">
    <path d="M109.947 192.504L106.702 207.213C106.336 208.875 105.408 210.376 104.09 211.441C102.767 212.509 101.101 213.097 99.3993 213.097C98.364 213.097 97.5247 212.257 97.5247 211.222C97.5247 210.186 98.364 209.347 99.3993 209.347C101.161 209.347 102.659 208.138 103.041 206.406L106.286 191.697C106.509 190.686 107.509 190.047 108.52 190.27C109.531 190.493 110.17 191.493 109.947 192.504ZM104.929 222.47C104.929 225.519 102.449 228 99.3993 228C96.3498 228 93.8691 225.519 93.8691 222.47C93.8691 221.847 93.9742 221.248 94.165 220.689H86.0747C86.2655 221.248 86.3706 221.847 86.3706 222.47C86.3706 225.519 83.8895 228 80.8401 228C77.791 228 75.3099 225.519 75.3099 222.47C75.3099 221.847 75.415 221.248 75.6058 220.689H74.8412C71.7405 220.689 69.2173 218.166 69.2173 215.065C69.2173 215.049 69.2195 215.034 69.2198 215.018C69.2195 215.002 69.2173 214.987 69.2173 214.971C69.2173 212.696 70.5767 210.733 72.5249 209.848L70.2965 189.375C69.8662 186.172 67.109 183.758 63.8746 183.758C62.8394 183.758 62 182.919 62 181.884C62 180.848 62.8394 180.009 63.8746 180.009C68.991 180.009 73.3511 183.835 74.0165 188.907L74.0212 188.948L76.2419 209.347H90.0261C91.0614 209.347 91.9008 210.187 91.9008 211.222C91.9008 212.257 91.0614 213.097 90.0261 213.097H74.8412C73.8077 213.097 72.9666 213.938 72.9666 214.971C72.9666 214.987 72.9647 215.002 72.9644 215.018C72.9647 215.034 72.9666 215.049 72.9666 215.065C72.9666 216.099 73.8077 216.94 74.8412 216.94H99.3993C102.449 216.94 104.929 219.42 104.929 222.47ZM80.8401 220.689C79.8583 220.689 79.0592 221.488 79.0592 222.47C79.0592 223.452 79.8583 224.251 80.8401 224.251C81.8223 224.251 82.621 223.452 82.621 222.47C82.621 221.488 81.8223 220.689 80.8401 220.689ZM101.18 222.47C101.18 221.488 100.381 220.689 99.3993 220.689C98.4171 220.689 97.6184 221.488 97.6184 222.47C97.6184 223.452 98.4171 224.251 99.3993 224.251C100.381 224.251 101.18 223.452 101.18 222.47ZM77.7632 191.952C77.0685 191.185 77.1274 189.999 77.895 189.305L86.6306 181.399C88.6741 179.534 91.7528 179.534 93.7963 181.399L102.532 189.305C103.299 189.999 103.358 191.185 102.664 191.952C102.294 192.361 101.784 192.569 101.273 192.569C100.915 192.569 100.556 192.465 100.243 192.258V197.598C100.243 200.51 97.8751 202.88 94.9652 202.88H85.3679C82.458 202.88 80.0905 200.51 80.0905 197.598V192.318C79.3412 192.751 78.3671 192.62 77.7632 191.952ZM83.8339 188.986C83.8361 189.025 83.8397 189.063 83.8397 189.101V197.598C83.8397 198.443 84.5253 199.13 85.3679 199.13H94.9652C95.8079 199.13 96.4934 198.443 96.4934 197.598V189.101C96.4934 189.035 96.4971 188.97 96.5037 188.906L91.2771 184.176C91.2749 184.173 91.2723 184.171 91.2701 184.169C90.6677 183.619 89.7592 183.619 89.1567 184.169C89.1545 184.171 89.1523 184.173 89.1501 184.176L83.8339 188.986Z" fill="#3B3C45"></path>
  </mask>
  <g xmlns="http://www.w3.org/2000/svg" mask="url(#mask0_1_27)">
    <rect x="77" y="172" width="26" height="32" fill="#D00053"></rect>
  </g>
  <g xmlns="http://www.w3.org/2000/svg" clip-path="url(#clip0_1_27)">
    <path d="M214.993 93.3333C214.767 93.2467 214.553 93.16 214.34 93.0733C212.64 92.3667 211.64 90.5933 211.927 88.7733C212.627 88.2 213.1 87.36 213.18 86.4067L213.327 84.5467C213.4 83.58 213.053 82.66 212.433 81.98C212.367 78.3667 211.667 74.6667 209.627 71.92C207.627 69.22 204.573 67.8067 200.58 67.6867V67.6667H199.453V67.6867C195.453 67.8067 192.407 69.22 190.4 71.92C188.347 74.6867 187.647 78.4133 187.587 82.0467C187 82.72 186.68 83.6133 186.753 84.5467L186.9 86.4067C186.973 87.3267 187.42 88.1333 188.087 88.7067C188.373 90.5733 187.347 92.38 185.607 93.1C185.413 93.18 185.213 93.26 185.007 93.3333L184.16 93.6533L184.787 94.3C184.813 94.3267 186.907 96.4267 190.233 96.4267C191.233 96.4267 192.34 96.24 193.54 95.7467C195.373 97.42 197.573 98.3267 200.033 98.3267C202.48 98.3267 204.68 97.4333 206.507 95.7667C207.68 96.24 208.773 96.42 209.753 96.42C213.08 96.42 215.173 94.32 215.2 94.2933L215.827 93.6467L214.993 93.3333ZM190.333 82.6133C194.907 82.0067 195.127 74.76 195.127 74.76C195.127 80.8533 208.027 82.4133 209.747 82.5933V82.6133L210.353 82.7867C211.06 82.9867 211.527 83.6667 211.467 84.4L211.32 86.26C211.253 87.06 210.573 87.68 209.753 87.68L209.067 87.6733L208.86 88.3267C208.693 88.8333 208.487 89.4 208.24 89.9867C207.38 90.84 205.727 91.8933 202.66 92.3067C202.2 91.58 201.173 91.0733 199.973 91.0733C198.353 91.0733 197.033 92 197.033 93.1467C197.033 94.2933 198.347 95.22 199.973 95.22C201.22 95.22 202.28 94.6667 202.707 93.8933C204.307 93.6867 205.593 93.32 206.62 92.8733C205.187 94.84 203.08 96.4667 200.02 96.4667C194.607 96.4667 192.167 91.3667 191.193 88.32L190.967 87.6733H190.307C189.5 87.6733 188.82 87.0467 188.753 86.2533L188.607 84.4C188.547 83.6667 189.02 82.9867 189.72 82.7867L190.333 82.6133ZM195.947 83.0933C194.96 83.0933 194.167 83.8867 194.167 84.8733C194.167 85.86 194.96 86.6533 195.947 86.6533C196.927 86.6533 197.72 85.86 197.72 84.8733C197.72 83.8867 196.927 83.0933 195.947 83.0933ZM203.853 83.0933C202.873 83.0933 202.073 83.8867 202.073 84.8733C202.073 85.86 202.873 86.6533 203.853 86.6533C204.833 86.6533 205.633 85.86 205.633 84.8733C205.633 83.8867 204.833 83.0933 203.853 83.0933Z" fill="#D00053"></path>
    <path d="M185.892 106.983C186.346 106.983 186.699 107.102 186.949 107.341C187.2 107.581 187.339 107.853 187.367 108.157H186.893C186.839 107.926 186.732 107.743 186.571 107.608C186.411 107.472 186.187 107.405 185.897 107.405C185.544 107.405 185.258 107.529 185.04 107.778C184.824 108.026 184.715 108.406 184.715 108.919C184.715 109.339 184.813 109.68 185.008 109.942C185.205 110.202 185.498 110.332 185.887 110.332C186.245 110.332 186.518 110.195 186.705 109.92C186.804 109.775 186.878 109.584 186.927 109.348H187.401C187.359 109.726 187.219 110.042 186.981 110.298C186.696 110.606 186.312 110.759 185.829 110.759C185.412 110.759 185.062 110.633 184.779 110.381C184.406 110.047 184.22 109.532 184.22 108.836C184.22 108.307 184.36 107.873 184.64 107.534C184.942 107.167 185.36 106.983 185.892 106.983ZM187.948 108.052H188.365V108.504C188.399 108.416 188.483 108.309 188.617 108.184C188.75 108.057 188.904 107.993 189.078 107.993C189.086 107.993 189.1 107.994 189.12 107.996C189.139 107.997 189.173 108.001 189.22 108.006V108.469C189.194 108.465 189.169 108.461 189.146 108.46C189.125 108.458 189.102 108.457 189.076 108.457C188.854 108.457 188.684 108.529 188.565 108.672C188.447 108.814 188.387 108.977 188.387 109.163V110.667H187.948V108.052ZM190.689 107.993C190.875 107.993 191.055 108.037 191.229 108.125C191.403 108.211 191.536 108.324 191.627 108.462C191.715 108.594 191.773 108.748 191.803 108.924C191.829 109.044 191.842 109.236 191.842 109.5H189.925C189.933 109.765 189.996 109.978 190.113 110.139C190.23 110.299 190.412 110.379 190.658 110.379C190.887 110.379 191.07 110.303 191.207 110.152C191.285 110.064 191.34 109.962 191.373 109.846H191.805C191.794 109.942 191.756 110.05 191.69 110.169C191.627 110.286 191.555 110.382 191.476 110.457C191.342 110.587 191.177 110.675 190.98 110.72C190.874 110.746 190.755 110.759 190.621 110.759C190.296 110.759 190.02 110.641 189.793 110.405C189.567 110.168 189.454 109.836 189.454 109.409C189.454 108.989 189.568 108.648 189.796 108.386C190.024 108.124 190.322 107.993 190.689 107.993ZM191.39 109.151C191.372 108.96 191.331 108.808 191.266 108.694C191.145 108.482 190.944 108.377 190.663 108.377C190.461 108.377 190.292 108.45 190.155 108.596C190.018 108.741 189.946 108.926 189.938 109.151H191.39ZM192.721 109.971C192.721 110.098 192.767 110.198 192.86 110.271C192.953 110.344 193.062 110.381 193.189 110.381C193.344 110.381 193.494 110.345 193.639 110.274C193.883 110.155 194.005 109.96 194.005 109.69V109.336C193.951 109.37 193.882 109.399 193.797 109.422C193.713 109.444 193.63 109.461 193.548 109.47L193.282 109.505C193.123 109.526 193.003 109.559 192.923 109.605C192.788 109.681 192.721 109.803 192.721 109.971ZM193.785 109.082C193.886 109.069 193.954 109.027 193.988 108.955C194.007 108.916 194.017 108.86 194.017 108.787C194.017 108.637 193.963 108.529 193.856 108.462C193.75 108.394 193.598 108.36 193.399 108.36C193.17 108.36 193.007 108.421 192.911 108.545C192.857 108.613 192.822 108.715 192.806 108.85H192.396C192.404 108.528 192.508 108.304 192.708 108.179C192.91 108.052 193.144 107.988 193.409 107.988C193.717 107.988 193.967 108.047 194.159 108.164C194.349 108.281 194.444 108.464 194.444 108.711V110.217C194.444 110.263 194.453 110.3 194.471 110.327C194.491 110.355 194.531 110.369 194.591 110.369C194.61 110.369 194.632 110.368 194.657 110.366C194.681 110.363 194.707 110.359 194.735 110.354V110.679C194.667 110.698 194.614 110.711 194.579 110.715C194.543 110.72 194.494 110.723 194.432 110.723C194.281 110.723 194.171 110.669 194.103 110.562C194.067 110.505 194.042 110.424 194.027 110.32C193.937 110.437 193.809 110.539 193.641 110.625C193.473 110.711 193.289 110.755 193.087 110.755C192.844 110.755 192.646 110.681 192.491 110.535C192.338 110.387 192.262 110.202 192.262 109.981C192.262 109.738 192.337 109.55 192.489 109.417C192.64 109.283 192.839 109.201 193.084 109.17L193.785 109.082ZM195.255 107.322H195.699V108.052H196.117V108.411H195.699V110.117C195.699 110.208 195.73 110.27 195.792 110.3C195.826 110.318 195.883 110.327 195.963 110.327C195.984 110.327 196.007 110.327 196.031 110.327C196.056 110.326 196.084 110.323 196.117 110.32V110.667C196.066 110.681 196.013 110.692 195.958 110.698C195.904 110.705 195.846 110.708 195.782 110.708C195.577 110.708 195.438 110.656 195.365 110.552C195.292 110.446 195.255 110.309 195.255 110.142V108.411H194.901V108.052H195.255V107.322ZM197.647 107.993C197.833 107.993 198.013 108.037 198.187 108.125C198.361 108.211 198.494 108.324 198.585 108.462C198.673 108.594 198.731 108.748 198.761 108.924C198.787 109.044 198.8 109.236 198.8 109.5H196.883C196.891 109.765 196.954 109.978 197.071 110.139C197.188 110.299 197.37 110.379 197.616 110.379C197.845 110.379 198.028 110.303 198.165 110.152C198.243 110.064 198.299 109.962 198.331 109.846H198.763C198.752 109.942 198.714 110.05 198.648 110.169C198.585 110.286 198.513 110.382 198.434 110.457C198.3 110.587 198.135 110.675 197.938 110.72C197.832 110.746 197.713 110.759 197.579 110.759C197.254 110.759 196.978 110.641 196.751 110.405C196.525 110.168 196.412 109.836 196.412 109.409C196.412 108.989 196.526 108.648 196.754 108.386C196.982 108.124 197.28 107.993 197.647 107.993ZM198.348 109.151C198.33 108.96 198.289 108.808 198.224 108.694C198.103 108.482 197.902 108.377 197.621 108.377C197.419 108.377 197.25 108.45 197.113 108.596C196.976 108.741 196.904 108.926 196.896 109.151H198.348ZM199.62 109.39C199.62 109.67 199.68 109.904 199.798 110.093C199.917 110.282 200.108 110.376 200.37 110.376C200.573 110.376 200.74 110.289 200.87 110.115C201.002 109.939 201.068 109.688 201.068 109.361C201.068 109.03 201 108.786 200.865 108.628C200.73 108.469 200.563 108.389 200.365 108.389C200.143 108.389 199.964 108.473 199.825 108.643C199.688 108.812 199.62 109.061 199.62 109.39ZM200.282 108.006C200.482 108.006 200.65 108.048 200.785 108.132C200.863 108.181 200.951 108.267 201.051 108.389V107.068H201.473V110.667H201.078V110.303C200.975 110.464 200.854 110.58 200.714 110.652C200.574 110.724 200.414 110.759 200.233 110.759C199.942 110.759 199.689 110.637 199.476 110.393C199.263 110.147 199.156 109.821 199.156 109.414C199.156 109.033 199.253 108.704 199.447 108.425C199.642 108.146 199.92 108.006 200.282 108.006ZM203.482 107.068H203.91V108.369C204.006 108.244 204.12 108.149 204.254 108.084C204.387 108.017 204.532 107.984 204.688 107.984C205.014 107.984 205.278 108.096 205.479 108.32C205.683 108.543 205.785 108.873 205.785 109.309C205.785 109.723 205.685 110.066 205.484 110.34C205.284 110.613 205.007 110.75 204.652 110.75C204.453 110.75 204.286 110.702 204.149 110.606C204.068 110.549 203.98 110.458 203.888 110.332V110.667H203.482V107.068ZM204.625 110.361C204.863 110.361 205.04 110.267 205.157 110.078C205.276 109.889 205.335 109.64 205.335 109.331C205.335 109.056 205.276 108.828 205.157 108.648C205.04 108.467 204.867 108.377 204.637 108.377C204.437 108.377 204.261 108.451 204.11 108.599C203.96 108.747 203.885 108.991 203.885 109.331C203.885 109.577 203.916 109.776 203.978 109.929C204.094 110.217 204.309 110.361 204.625 110.361ZM207.933 108.052H208.419C208.357 108.22 208.22 108.602 208.006 109.199C207.847 109.649 207.713 110.015 207.606 110.298C207.352 110.965 207.173 111.372 207.069 111.519C206.965 111.665 206.786 111.738 206.532 111.738C206.47 111.738 206.422 111.736 206.388 111.731C206.355 111.726 206.314 111.717 206.266 111.704V111.304C206.342 111.325 206.397 111.338 206.432 111.343C206.466 111.348 206.496 111.35 206.522 111.35C206.603 111.35 206.663 111.336 206.7 111.309C206.739 111.283 206.772 111.25 206.798 111.211C206.806 111.198 206.835 111.131 206.886 111.011C206.936 110.89 206.973 110.801 206.996 110.742L206.029 108.052H206.527L207.228 110.181L207.933 108.052ZM184.698 115.509C184.71 115.713 184.758 115.878 184.842 116.005C185.003 116.243 185.287 116.361 185.694 116.361C185.877 116.361 186.043 116.335 186.192 116.283C186.482 116.182 186.627 116.002 186.627 115.741C186.627 115.546 186.566 115.407 186.444 115.324C186.32 115.243 186.126 115.172 185.863 115.111L185.377 115.002C185.06 114.93 184.835 114.851 184.703 114.765C184.475 114.615 184.361 114.391 184.361 114.093C184.361 113.771 184.473 113.507 184.696 113.3C184.919 113.093 185.235 112.99 185.643 112.99C186.019 112.99 186.338 113.081 186.6 113.263C186.864 113.444 186.996 113.734 186.996 114.132H186.539C186.515 113.94 186.463 113.793 186.383 113.691C186.235 113.503 185.983 113.41 185.628 113.41C185.342 113.41 185.136 113.47 185.011 113.59C184.885 113.711 184.823 113.851 184.823 114.01C184.823 114.186 184.896 114.315 185.042 114.396C185.139 114.448 185.356 114.513 185.694 114.591L186.197 114.706C186.44 114.762 186.627 114.837 186.759 114.933C186.987 115.101 187.101 115.344 187.101 115.663C187.101 116.06 186.956 116.344 186.666 116.515C186.378 116.686 186.043 116.772 185.66 116.772C185.214 116.772 184.865 116.658 184.613 116.43C184.361 116.204 184.237 115.897 184.242 115.509H184.698ZM188.666 113.976C188.96 113.976 189.199 114.048 189.383 114.191C189.569 114.334 189.68 114.581 189.718 114.931H189.291C189.264 114.77 189.205 114.636 189.112 114.53C189.02 114.423 188.871 114.369 188.666 114.369C188.386 114.369 188.185 114.506 188.065 114.779C187.987 114.957 187.948 115.176 187.948 115.436C187.948 115.698 188.003 115.919 188.114 116.098C188.224 116.277 188.399 116.366 188.636 116.366C188.819 116.366 188.963 116.311 189.068 116.2C189.176 116.088 189.25 115.935 189.291 115.741H189.718C189.669 116.088 189.547 116.342 189.352 116.503C189.156 116.663 188.906 116.742 188.602 116.742C188.26 116.742 187.988 116.618 187.784 116.369C187.581 116.118 187.479 115.806 187.479 115.431C187.479 114.972 187.59 114.615 187.813 114.36C188.036 114.104 188.32 113.976 188.666 113.976ZM191.195 116.383C191.486 116.383 191.686 116.274 191.793 116.054C191.902 115.833 191.957 115.587 191.957 115.317C191.957 115.072 191.917 114.874 191.839 114.721C191.716 114.48 191.502 114.36 191.2 114.36C190.931 114.36 190.736 114.462 190.614 114.667C190.492 114.872 190.431 115.12 190.431 115.409C190.431 115.688 190.492 115.92 190.614 116.105C190.736 116.291 190.93 116.383 191.195 116.383ZM191.212 113.976C191.549 113.976 191.834 114.089 192.066 114.313C192.299 114.538 192.416 114.868 192.416 115.304C192.416 115.726 192.313 116.074 192.108 116.349C191.903 116.624 191.585 116.762 191.153 116.762C190.794 116.762 190.508 116.641 190.296 116.398C190.085 116.154 189.979 115.827 189.979 115.417C189.979 114.977 190.09 114.627 190.313 114.367C190.536 114.106 190.836 113.976 191.212 113.976ZM193.028 113.322H193.473V114.052H193.89V114.411H193.473V116.117C193.473 116.208 193.504 116.27 193.565 116.3C193.6 116.318 193.657 116.327 193.736 116.327C193.757 116.327 193.78 116.327 193.805 116.327C193.829 116.326 193.858 116.323 193.89 116.32V116.667C193.84 116.681 193.787 116.692 193.731 116.698C193.678 116.705 193.619 116.708 193.556 116.708C193.351 116.708 193.211 116.656 193.138 116.552C193.065 116.446 193.028 116.309 193.028 116.142V114.411H192.674V114.052H193.028V113.322ZM194.42 113.322H194.864V114.052H195.282V114.411H194.864V116.117C194.864 116.208 194.895 116.27 194.957 116.3C194.991 116.318 195.048 116.327 195.128 116.327C195.149 116.327 195.172 116.327 195.196 116.327C195.221 116.326 195.249 116.323 195.282 116.32V116.667C195.231 116.681 195.178 116.692 195.123 116.698C195.069 116.705 195.011 116.708 194.947 116.708C194.742 116.708 194.603 116.656 194.53 116.552C194.457 116.446 194.42 116.309 194.42 116.142V114.411H194.066V114.052H194.42V113.322ZM198.551 116.252C198.715 116.252 198.85 116.235 198.956 116.2C199.145 116.137 199.299 116.015 199.42 115.834C199.516 115.689 199.585 115.504 199.627 115.278C199.652 115.142 199.664 115.017 199.664 114.902C199.664 114.457 199.575 114.112 199.398 113.866C199.222 113.621 198.938 113.498 198.546 113.498H197.684V116.252H198.551ZM197.196 113.08H198.648C199.142 113.08 199.524 113.255 199.796 113.605C200.038 113.921 200.16 114.325 200.16 114.819C200.16 115.199 200.088 115.544 199.945 115.851C199.693 116.395 199.259 116.667 198.644 116.667H197.196V113.08ZM201.168 114.052V115.788C201.168 115.921 201.189 116.03 201.231 116.115C201.31 116.271 201.455 116.349 201.668 116.349C201.974 116.349 202.183 116.213 202.293 115.939C202.354 115.793 202.384 115.592 202.384 115.336V114.052H202.823V116.667H202.408L202.413 116.281C202.356 116.38 202.285 116.464 202.201 116.532C202.033 116.669 201.83 116.737 201.59 116.737C201.218 116.737 200.964 116.613 200.829 116.364C200.755 116.23 200.719 116.052 200.719 115.829V114.052H201.168ZM203.512 114.052H203.929V114.423C204.053 114.27 204.184 114.16 204.322 114.093C204.461 114.027 204.614 113.993 204.784 113.993C205.155 113.993 205.405 114.123 205.536 114.382C205.607 114.523 205.643 114.726 205.643 114.989V116.667H205.196V115.019C205.196 114.859 205.173 114.731 205.125 114.633C205.047 114.47 204.906 114.389 204.701 114.389C204.597 114.389 204.511 114.399 204.444 114.421C204.324 114.456 204.218 114.528 204.127 114.635C204.054 114.722 204.006 114.811 203.983 114.904C203.962 114.995 203.951 115.126 203.951 115.297V116.667H203.512V114.052ZM206.307 113.08H206.747V116.667H206.307V113.08ZM207.745 115.971C207.745 116.098 207.792 116.198 207.884 116.271C207.977 116.344 208.087 116.381 208.214 116.381C208.368 116.381 208.518 116.345 208.663 116.274C208.907 116.155 209.029 115.96 209.029 115.69V115.336C208.976 115.37 208.906 115.399 208.822 115.422C208.737 115.444 208.654 115.461 208.573 115.47L208.307 115.505C208.147 115.526 208.028 115.559 207.948 115.605C207.813 115.681 207.745 115.803 207.745 115.971ZM208.81 115.082C208.91 115.069 208.978 115.027 209.012 114.955C209.032 114.916 209.042 114.86 209.042 114.787C209.042 114.637 208.988 114.529 208.88 114.462C208.775 114.394 208.622 114.36 208.424 114.36C208.194 114.36 208.032 114.421 207.936 114.545C207.882 114.613 207.847 114.715 207.831 114.85H207.42C207.429 114.528 207.533 114.304 207.733 114.179C207.935 114.052 208.168 113.988 208.434 113.988C208.741 113.988 208.991 114.047 209.183 114.164C209.374 114.281 209.469 114.464 209.469 114.711V116.217C209.469 116.263 209.478 116.3 209.496 116.327C209.515 116.355 209.555 116.369 209.615 116.369C209.635 116.369 209.657 116.368 209.681 116.366C209.706 116.363 209.732 116.359 209.759 116.354V116.679C209.691 116.698 209.639 116.711 209.603 116.715C209.567 116.72 209.518 116.723 209.457 116.723C209.305 116.723 209.195 116.669 209.127 116.562C209.091 116.505 209.066 116.424 209.051 116.32C208.962 116.437 208.833 116.539 208.666 116.625C208.498 116.711 208.313 116.755 208.111 116.755C207.869 116.755 207.67 116.681 207.516 116.535C207.363 116.387 207.286 116.202 207.286 115.981C207.286 115.738 207.362 115.55 207.513 115.417C207.665 115.283 207.863 115.201 208.109 115.17L208.81 115.082ZM211.295 116.371C211.5 116.371 211.67 116.286 211.805 116.115C211.942 115.942 212.01 115.685 212.01 115.343C212.01 115.135 211.98 114.956 211.92 114.806C211.806 114.518 211.598 114.374 211.295 114.374C210.991 114.374 210.782 114.526 210.67 114.831C210.61 114.993 210.58 115.2 210.58 115.451C210.58 115.653 210.61 115.824 210.67 115.966C210.784 116.236 210.992 116.371 211.295 116.371ZM210.157 114.064H210.584V114.411C210.672 114.292 210.768 114.2 210.873 114.135C211.021 114.037 211.195 113.988 211.395 113.988C211.691 113.988 211.943 114.102 212.149 114.33C212.356 114.556 212.459 114.88 212.459 115.302C212.459 115.872 212.311 116.278 212.013 116.523C211.824 116.677 211.604 116.755 211.354 116.755C211.157 116.755 210.991 116.711 210.858 116.625C210.78 116.576 210.693 116.493 210.597 116.374V117.709H210.157V114.064Z" fill="#D00053"></path>
  </g>
  <path xmlns="http://www.w3.org/2000/svg" class="s_srg_arc_border_1" d="M254 82C273.714 86.9558 315.114 107.894 323 152" stroke="black" stroke-dasharray="6 6"></path>
  <path xmlns="http://www.w3.org/2000/svg" class="s_srg_arc_border_2" d="M82.6953 247C87.1651 266.83 107.08 308.732 150.979 317.699" stroke="black" stroke-dasharray="6 6"></path>
  <path xmlns="http://www.w3.org/2000/svg" class="s_srg_arc_border_3" d="M147.794 86C128.521 92.4637 88.8623 116.537 84.407 161.121" stroke="black" stroke-dasharray="6 6"></path>
  <path xmlns="http://www.w3.org/2000/svg" class="s_srg_arc_border_4" d="M318.671 250.729C312.801 270.191 289.956 310.57 245.53 316.391" stroke="black" stroke-dasharray="6 6"></path>
  <defs xmlns="http://www.w3.org/2000/svg">
    <clipPath id="clip0_1_27">
      <rect width="32" height="40" fill="white" transform="translate(184 67)"></rect>
    </clipPath>
  </defs>
</svg>