<svg width="100%" height="100%" viewBox="0 0 569 569" fill="none" xmlns="http://www.w3.org/2000/svg" aria-label="Sugar: Top Splash Demo" class="sgr-top-splash-background"><g clip-path="url(#clip0_2_2)"><path d="M497.727 483.497C482.999 498.678 469.822 507.601 459.733 514.338C361.336 580.038 248.856 561.103 214.08 554.629C157.974 544.187 110.612 536.819 69.9206 500.056C-22.5434 416.517 -18.0471 242.251 52.6079 134.301C60.985 121.501 131.532 16.9276 244.256 2.19325C247.014 1.83249 249.07 1.62662 250.872 1.43707C268.309 -0.409563 376.37 -10.1543 464.482 63.6661C477.094 74.2322 497.393 93.2937 516.214 122.363C585.037 228.656 585.255 393.277 497.727 483.497Z" fill="url(#paint0_linear_2_2)" fill-opacity="0.15"></path><g opacity="0.3"><circle stroke-dasharray="50" stroke-width="3" stroke-dashoffset="20" opacity=".3" cx="100" cy="155" r="80" stroke="#DC246D" class="s_sgr_top_splash_dash1"></circle><path opacity="0.3" d="M19.925 168.983C20.0962 168.618 20.1634 168.2 20.0901 167.772C19.9127 166.733 19.7558 165.671 19.6213 164.619C19.4786 163.498 18.4534 162.705 17.3323 162.85C16.2113 162.993 15.4185 164.018 15.5632 165.139C15.7038 166.246 15.8709 167.363 16.0564 168.455C16.246 169.568 17.3018 170.32 18.4146 170.131C19.1036 170.014 19.6498 169.568 19.925 168.983Z" fill="#DC246D"></path></g><path d="M112.433 107.408C112.256 107.041 111.867 106.825 111.461 106.872L99.9004 108.203C96.4966 103.965 92.3937 100.241 87.6813 97.2289L87.7587 85.6009C87.7608 85.1932 87.504 84.8284 87.1208 84.6918L73.9559 80.0548C73.5706 79.9183 73.1426 80.0426 72.8899 80.3626L65.6623 89.4735C60.1021 88.8681 54.5703 89.1983 49.2628 90.3662L41.0895 82.0829C40.8021 81.7934 40.3639 81.716 39.995 81.8913L27.4069 87.9204C27.04 88.0956 26.824 88.487 26.8709 88.8926L28.2018 100.453C23.9644 103.857 20.2405 107.96 17.228 112.673L5.59996 112.595C5.19232 112.593 4.82748 112.848 4.69092 113.233L0.0539631 126.398C-0.0805596 126.783 0.0417233 127.211 0.361724 127.464L9.47259 134.691C8.86723 140.252 9.19743 145.783 10.3653 151.091L2.08199 159.264C1.79256 159.552 1.7151 159.99 1.89039 160.359L7.91946 172.947C8.09475 173.314 8.48609 173.53 8.8917 173.483L20.4525 172.152C23.8563 176.389 27.9593 180.113 32.6717 183.126L32.5942 194.754C32.5922 195.161 32.8469 195.526 33.2322 195.663L46.3971 200.3C46.7823 200.434 47.2103 200.312 47.463 199.992L54.6906 190.883C60.2509 191.489 65.7826 191.158 71.0901 189.991L79.2634 198.274C79.5488 198.563 79.989 198.641 80.3579 198.465L92.946 192.436C93.3129 192.261 93.5289 191.87 93.4821 191.464L92.1511 179.903C96.3886 176.5 100.112 172.397 103.125 167.684L114.753 167.762C115.161 167.764 115.525 167.509 115.662 167.124L120.299 153.959C120.434 153.574 120.311 153.146 119.991 152.893L110.882 145.665C111.488 140.105 111.158 134.573 109.99 129.266L118.273 121.092C118.562 120.805 118.64 120.367 118.465 120L112.433 107.408Z" fill="#DC246D"></path><path d="M71.8666 147.936C67.5884 154.381 58.8648 156.146 52.4179 151.866C49.2953 149.793 47.1674 146.629 46.4255 142.954C45.6836 139.282 46.4153 135.539 48.4882 132.417C52.7664 125.972 61.49 124.207 67.9369 128.485C73.8009 132.378 75.7902 139.95 72.8796 146.138C72.5902 146.754 72.2519 147.353 71.8666 147.936ZM49.6337 142.306C50.2024 145.123 51.835 147.549 54.2299 149.138C59.1705 152.418 65.862 151.067 69.1415 146.124C72.4251 141.181 71.0697 134.492 66.127 131.212C61.1863 127.933 54.4949 129.284 51.2153 134.227C50.9178 134.675 50.6569 135.14 50.4327 135.617C49.4564 137.694 49.171 140.017 49.6337 142.306Z" fill="white"></path><path d="M91.0932 155.025C91.5926 153.963 92.043 152.868 92.4384 151.745C92.5628 151.393 92.681 151.036 92.7951 150.679C93.3536 148.916 93.7694 147.114 94.0384 145.296C94.0425 145.272 94.0466 145.247 94.0486 145.223C94.0588 145.154 94.069 145.082 94.0792 145.011C94.0996 144.874 94.1159 144.736 94.1343 144.599C94.1811 144.239 93.9834 143.902 93.6716 143.755C93.5962 143.719 93.5126 143.694 93.425 143.684C92.9765 143.627 92.5689 143.945 92.5098 144.393C92.2163 146.701 91.6721 148.992 90.8935 151.201C87.027 162.185 77.8794 169.828 67.299 172.291C61.4146 173.662 55.088 173.43 48.9794 171.278C47.9073 170.901 46.8638 170.473 45.8508 169.996C39.0288 166.785 33.5623 161.372 30.2624 154.481C26.4693 146.564 25.9883 137.645 28.905 129.366C34.93 112.269 53.7285 103.268 70.819 109.289C71.8728 109.66 72.9041 110.084 73.909 110.557C78.2606 112.605 82.1169 115.581 85.1885 119.289C85.268 119.384 85.3638 119.458 85.4698 119.507C85.747 119.637 86.0873 119.605 86.3401 119.397C86.6866 119.107 86.7375 118.594 86.4481 118.245C83.2236 114.354 79.1757 111.227 74.606 109.077C73.5523 108.582 72.47 108.138 71.3632 107.746C53.4207 101.426 33.6805 110.885 27.362 128.821C24.3006 137.512 24.8061 146.876 28.7888 155.188C32.2538 162.424 37.9914 168.106 45.1537 171.477C46.2176 171.979 47.3142 172.427 48.4393 172.825C57.1323 175.886 66.4939 175.381 74.8058 171.4C82.0394 167.929 87.724 162.189 91.0932 155.025Z" fill="white"></path><g opacity="0.3"><path opacity="0.3" d="M229.239 40.2141C229.471 39.7188 229.363 39.1114 228.933 38.7303C228.13 38.0189 227.294 37.3218 226.45 36.6594C225.902 36.2293 225.107 36.3252 224.677 36.8734C224.243 37.4217 224.343 38.2166 224.891 38.6467C225.696 39.2785 226.491 39.943 227.257 40.6217C227.779 41.0844 228.578 41.0355 229.041 40.5137C229.122 40.422 229.188 40.3201 229.239 40.2141Z" fill="#5A5A5A"></path><path opacity="0.3" d="M221.342 34.5764C220.982 35.1736 220.207 35.3672 219.608 35.0085C218.098 34.1014 216.524 33.2617 214.932 32.5116C214.596 32.3526 214.258 32.1998 213.915 32.0469C213.279 31.7636 212.992 31.0156 213.275 30.3796C213.567 29.7865 214.307 29.4563 214.945 29.7397C215.301 29.8986 215.656 30.0617 216.008 30.2268C217.678 31.0115 219.329 31.8941 220.912 32.8459C221.473 33.1822 221.679 33.8854 221.406 34.4643C221.385 34.5009 221.365 34.5376 221.342 34.5764ZM207.907 29.7988C205.864 29.1751 203.765 28.6716 201.67 28.3027C200.983 28.1824 200.524 27.5282 200.644 26.8392C200.765 26.1564 201.419 25.6917 202.108 25.814C204.305 26.1993 206.506 26.7272 208.646 27.3835C209.313 27.5873 209.69 28.2945 209.486 28.961C209.468 29.0202 209.445 29.0772 209.421 29.1302C209.154 29.6907 208.514 29.9842 207.907 29.7988ZM195.29 27.5893C193.16 27.4833 191.001 27.5119 188.874 27.6729C188.179 27.7259 187.571 27.2021 187.52 26.507C187.467 25.8099 187.989 25.2046 188.686 25.1516C190.918 24.9845 193.182 24.9559 195.414 25.064C196.111 25.0986 196.649 25.6917 196.615 26.3888C196.607 26.558 196.564 26.719 196.497 26.8637C196.285 27.3142 195.818 27.6158 195.29 27.5893ZM182.518 28.5473C180.425 28.9692 178.338 29.5236 176.32 30.1983C175.658 30.4184 174.942 30.0617 174.722 29.3993C174.502 28.7389 174.859 28.0214 175.521 27.8013C177.639 27.094 179.826 26.5131 182.023 26.0708C182.708 25.9322 183.374 26.3766 183.511 27.0614C183.566 27.3366 183.527 27.6097 183.415 27.8461C183.248 28.1967 182.926 28.4658 182.518 28.5473ZM170.367 32.5952C168.438 33.5124 166.551 34.558 164.753 35.7015C164.166 36.0765 163.384 35.9012 163.009 35.3142C162.633 34.7251 162.807 33.9445 163.396 33.5695C165.279 32.371 167.258 31.2765 169.278 30.3144C169.908 30.0148 170.662 30.2818 170.962 30.9116C171.131 31.2683 171.119 31.6637 170.964 31.9939C170.845 32.2487 170.64 32.4647 170.367 32.5952ZM159.566 39.4701C157.921 40.8276 156.348 42.2992 154.884 43.8482C154.405 44.3557 153.606 44.3782 153.099 43.8992C152.591 43.4202 152.569 42.6233 153.048 42.1117C154.58 40.4892 156.233 38.9443 157.958 37.5195C158.496 37.0752 159.293 37.1527 159.735 37.6908C160.057 38.0801 160.106 38.6059 159.904 39.0339C159.827 39.197 159.715 39.3478 159.566 39.4701ZM150.777 48.7726C149.52 50.4867 148.354 52.3028 147.312 54.1698C146.972 54.7792 146.201 54.9973 145.594 54.6569C144.985 54.3166 144.775 53.5543 145.107 52.9367C146.201 50.98 147.424 49.0763 148.743 47.2786C149.157 46.716 149.948 46.5937 150.51 47.0075C151.005 47.3703 151.158 48.0266 150.906 48.5626C150.867 48.636 150.826 48.7053 150.777 48.7726ZM140.935 66.925C140.26 66.7436 139.862 66.0506 140.044 65.3759C140.547 63.511 141.163 61.6419 141.868 59.8238C141.974 59.5466 142.084 59.2735 142.194 59.0004C142.437 58.3502 143.195 58.0445 143.841 58.3094C144.487 58.5724 144.797 59.3102 144.534 59.9563C144.428 60.2131 144.326 60.4699 144.226 60.7349C143.55 62.4735 142.965 64.257 142.484 66.0343C142.463 66.1077 142.439 66.177 142.406 66.2442C142.151 66.7905 141.536 67.0881 140.935 66.925Z" fill="#5A5A5A"></path></g><g opacity="0.3"><path opacity="0.3" d="M241.788 103.495C240.826 105.476 239.731 107.412 238.541 109.257C238.162 109.842 237.381 110.011 236.794 109.632C236.207 109.253 236.048 108.47 236.419 107.885C237.554 106.128 238.596 104.277 239.515 102.388C239.821 101.76 240.577 101.499 241.203 101.805C241.825 102.109 242.087 102.855 241.794 103.479C241.794 103.485 241.79 103.491 241.788 103.495ZM242.713 98.1608C242.055 97.9325 241.704 97.213 241.933 96.5547C242.617 94.5715 243.19 92.5251 243.632 90.4746C243.781 89.7979 244.452 89.3597 245.135 89.5065C245.817 89.6532 246.249 90.3258 246.103 91.0086C245.638 93.1569 245.039 95.3012 244.321 97.3801C244.307 97.425 244.289 97.4657 244.27 97.5065C243.997 98.0833 243.329 98.3748 242.713 98.1608ZM234.615 114.587C233.201 116.277 231.672 117.895 230.072 119.395C229.563 119.872 228.762 119.845 228.287 119.336C227.81 118.826 227.836 118.029 228.344 117.55C229.872 116.12 231.33 114.577 232.679 112.964C233.127 112.428 233.924 112.359 234.458 112.805C234.909 113.182 235.029 113.804 234.791 114.312C234.746 114.409 234.687 114.501 234.615 114.587ZM245.726 85.6094C245.031 85.5462 244.519 84.9327 244.58 84.2377C244.768 82.1464 244.829 80.0247 244.762 77.9294C244.739 77.2323 245.287 76.6494 245.982 76.6249C246.68 76.6025 247.265 77.1487 247.287 77.8478C247.358 80.0471 247.295 82.2728 247.097 84.4639C247.083 84.6147 247.044 84.7574 246.983 84.8879C246.763 85.3546 246.27 85.6563 245.726 85.6094ZM224.979 123.612C223.203 124.908 221.33 126.111 219.412 127.185C218.803 127.525 218.032 127.307 217.692 126.7C217.352 126.091 217.568 125.32 218.177 124.98C220.009 123.957 221.795 122.809 223.487 121.572C224.049 121.16 224.84 121.282 225.252 121.847C225.535 122.232 225.566 122.725 225.374 123.131C225.288 123.317 225.156 123.484 224.979 123.612ZM213.457 130.065C211.418 130.901 209.313 131.62 207.195 132.203C206.522 132.389 205.827 131.993 205.642 131.321C205.456 130.648 205.85 129.953 206.525 129.768C208.542 129.211 210.552 128.524 212.497 127.725C213.143 127.46 213.88 127.77 214.145 128.414C214.286 128.755 214.266 129.121 214.119 129.431C213.991 129.71 213.76 129.941 213.457 130.065ZM200.72 133.573C198.539 133.897 196.321 134.091 194.126 134.148C193.427 134.166 192.848 133.616 192.83 132.917C192.811 132.22 193.364 131.641 194.059 131.62C196.152 131.567 198.268 131.382 200.347 131.072C201.038 130.97 201.68 131.445 201.782 132.136C201.82 132.393 201.778 132.641 201.676 132.86C201.504 133.228 201.154 133.508 200.72 133.573Z" fill="#5A5A5A"></path><path opacity="0.3" d="M246.559 71.9288C246.663 71.7087 246.704 71.456 246.663 71.1971C246.496 70.1291 246.296 69.061 246.07 68.0216C245.921 67.3408 245.249 66.9066 244.566 67.0554C243.885 67.2063 243.453 67.8768 243.6 68.5596C243.816 69.5502 244.005 70.5693 244.166 71.5884C244.274 72.2774 244.921 72.7502 245.609 72.6402C246.042 72.5729 246.386 72.2957 246.559 71.9288Z" fill="#DC246D"></path></g><path d="M227.308 57.5084C227.19 57.2618 226.929 57.1171 226.658 57.1497L218.923 58.0404C216.646 55.2052 213.899 52.7125 210.748 50.6987L210.799 42.9168C210.801 42.6436 210.63 42.3991 210.371 42.3094L201.562 39.2072C201.305 39.1155 201.017 39.199 200.848 39.4131L196.011 45.5094C192.292 45.1038 188.59 45.3239 185.038 46.1066L179.569 40.5647C179.377 40.371 179.084 40.3201 178.837 40.4362L170.413 44.4719C170.167 44.5901 170.022 44.851 170.055 45.1221L170.945 52.8572C168.11 55.1339 165.617 57.8814 163.602 61.0345L155.82 60.9836C155.547 60.9815 155.302 61.1527 155.212 61.4116L152.108 70.2208C152.018 70.4776 152.1 70.765 152.314 70.9342L158.41 75.7709C158.005 79.4906 158.225 83.1921 159.007 86.7447L153.466 92.2132C153.272 92.4048 153.221 92.6983 153.337 92.945L157.373 101.369C157.491 101.616 157.752 101.758 158.023 101.728L165.758 100.837C168.035 103.672 170.78 106.165 173.933 108.179L173.882 115.961C173.88 116.234 174.052 116.478 174.31 116.568L183.12 119.672C183.376 119.762 183.664 119.68 183.833 119.466L188.67 113.37C192.39 113.776 196.091 113.555 199.644 112.773L205.112 118.315C205.304 118.508 205.597 118.559 205.844 118.443L214.268 114.407C214.514 114.289 214.659 114.028 214.627 113.757L213.736 106.022C216.571 103.745 219.064 100.998 221.08 97.8448L228.862 97.8958C229.135 97.8978 229.379 97.7266 229.469 97.4678L232.571 88.6586C232.661 88.4018 232.579 88.1144 232.365 87.9452L226.269 83.1085C226.674 79.3887 226.454 75.6873 225.672 72.1347L231.214 66.6661C231.407 66.4746 231.458 66.181 231.342 65.9344L227.308 57.5084Z" fill="#DC246D"></path><path d="M200.302 84.7207C198.891 86.8486 196.735 88.2978 194.232 88.8033C191.731 89.3088 189.181 88.8094 187.053 87.399C182.663 84.4843 181.465 78.5531 184.375 74.1505C187.29 69.7602 193.233 68.5596 197.622 71.4743C199.75 72.8868 201.199 75.0412 201.704 77.5441C202.116 79.5783 201.863 81.643 200.995 83.4876C200.797 83.9095 200.565 84.3233 200.302 84.7207ZM188.452 85.2935C190.017 86.333 191.892 86.6998 193.733 86.3268C195.573 85.9538 197.159 84.8879 198.196 83.3245C199.234 81.7592 199.601 79.884 199.23 78.0435C198.859 76.203 197.791 74.6173 196.227 73.5798C192.997 71.4356 188.627 72.3202 186.483 75.5487C186.289 75.8402 186.122 76.1398 185.977 76.4476C184.518 79.5477 185.515 83.3429 188.452 85.2935Z" fill="white"></path><path d="M213.685 89.6532C214.025 88.9297 214.331 88.1837 214.604 87.4132C215.142 85.8845 215.527 84.3008 215.746 82.6988C215.756 82.6275 215.764 82.5541 215.774 82.4828C215.845 81.9263 215.542 81.4066 215.061 81.1803C214.942 81.1253 214.816 81.0866 214.68 81.0703C213.987 80.9826 213.359 81.4738 213.267 82.1648C213.077 83.6608 212.725 85.1447 212.221 86.5714C212.195 86.6489 212.164 86.7284 212.138 86.8058C210.915 90.175 208.899 93.11 206.284 95.4234C204.865 96.679 203.268 97.7511 201.521 98.6051C201.506 98.6112 201.492 98.6194 201.478 98.6255C201.433 98.6459 201.39 98.6683 201.348 98.6887C196.223 101.143 190.449 101.457 185.089 99.5671C184.396 99.3226 183.719 99.0454 183.063 98.7376C178.646 96.6586 175.107 93.1549 172.969 88.6932C170.515 83.5691 170.203 77.7948 172.091 72.4363C173.98 67.0819 177.841 62.7731 182.965 60.3171C188.089 57.863 193.863 57.5492 199.224 59.4386C199.906 59.6791 200.573 59.9522 201.223 60.258C204.042 61.5848 206.537 63.511 208.524 65.91C208.646 66.0587 208.795 66.1709 208.958 66.2463C209.386 66.448 209.914 66.3991 210.301 66.075C210.837 65.6287 210.913 64.8338 210.469 64.2957C208.243 61.6113 205.45 59.4549 202.299 57.9711C201.572 57.6286 200.826 57.3229 200.063 57.0539C194.067 54.9423 187.606 55.2908 181.872 58.0383C176.139 60.7859 171.816 65.594 169.706 71.5946C167.592 77.591 167.943 84.0501 170.691 89.7837C173.081 94.7753 177.04 98.6968 181.98 101.02C182.714 101.365 183.47 101.677 184.245 101.95C195.854 106.045 208.555 100.562 213.685 89.6532Z" fill="white"></path><path d="M369.461 293.277C369.427 292.428 365.734 207.978 328.835 177.57C317.903 168.56 304.985 165.135 290.445 167.385C259.843 172.121 238.679 194.633 227.539 234.296C219.171 264.095 219.95 292.891 219.957 293.178L217.142 293.265C217.133 292.973 216.336 263.804 224.809 233.594C229.804 215.784 236.996 201.078 246.187 189.892C257.746 175.821 272.491 167.313 290.011 164.602C305.378 162.223 319.046 165.856 330.625 175.399C346.561 188.532 358.413 212.366 365.857 246.242C371.377 271.361 372.264 292.954 372.274 293.169L369.461 293.277Z" fill="#263640"></path><path d="M101.592 527.898L138.995 281.346C139.352 278.992 141.357 277.238 143.738 277.199L359.863 273.627L406.613 551.965H119.991C107.833 551.965 99.8188 539.923 101.592 527.898Z" fill="#DC246D"></path><path d="M401.533 277.173L359.865 273.627L406.616 551.965L452.766 550.774C457.323 550.655 460.657 546.439 459.723 541.978L404.763 279.824C404.339 278.357 403.053 277.301 401.533 277.173Z" fill="#A6134E"></path><path d="M322.87 292.382C322.836 291.533 319.145 207.083 282.244 176.675C271.311 167.665 258.395 164.24 243.854 166.49C213.251 171.226 192.088 193.738 180.948 233.401C172.579 263.2 173.359 291.996 173.366 292.283L170.551 292.37C170.541 292.078 169.745 262.909 178.219 232.699C183.215 214.889 190.406 200.183 199.597 188.997C211.157 174.926 225.901 166.418 243.422 163.707C258.791 161.328 272.457 164.961 284.036 174.504C299.972 187.637 311.823 211.471 319.266 245.347C324.785 270.466 325.673 292.059 325.682 292.274L322.87 292.382Z" fill="#263640"></path><path d="M166.199 374.348C166.182 373.892 164.199 328.591 144.464 312.332C138.667 307.556 131.813 305.739 124.101 306.934C85.0313 312.979 86.4594 373.656 86.4787 374.269L84.1845 374.339C84.1797 374.182 83.7503 358.415 88.3265 342.093C94.4538 320.245 106.704 307.303 123.749 304.664C132.139 303.366 139.6 305.349 145.926 310.562C166.452 327.477 168.418 372.356 168.49 374.259L166.199 374.348Z" fill="#263640"></path><path d="M46.2869 355.722L167.308 353.722L202.837 555.202H21.9804C15.8024 555.202 40.7217 379.447 43.7998 357.912C43.9759 356.67 45.0301 355.744 46.2869 355.722Z" fill="#FFBE00"></path><path d="M188.607 355.536L167.308 353.725L202.837 555.204H226.627C229.404 555.204 231.481 552.659 230.926 549.938L191.765 358.347C191.451 356.81 190.165 355.667 188.607 355.536Z" fill="#D59E00"></path><path d="M141.113 373.866C141.096 373.41 139.113 328.109 119.378 311.85C113.581 307.073 106.728 305.257 99.0155 306.451C59.9455 312.496 61.3736 373.174 61.3929 373.786L59.0988 373.856C59.094 373.699 58.6646 357.932 63.2407 341.611C69.368 319.762 81.6178 306.82 98.6633 304.181C107.053 302.883 114.515 304.866 120.84 310.079C141.366 326.994 143.332 371.873 143.405 373.777L141.113 373.866Z" fill="#263640"></path><path d="M434.378 536.592C434.378 536.592 436.18 546.8 437.065 556.905C437.412 560.854 434.367 564.282 430.404 564.449C416.948 565.01 388.164 566.098 377.835 565.637C376.282 565.569 375.266 563.979 375.841 562.535C376.323 561.326 377.251 560.347 378.435 559.802L425.981 537.949L434.378 536.592Z" fill="#090244"></path><path d="M435.856 530.595L434.408 542.806C434.408 542.806 426.079 546.684 420.39 542.318L423.839 528.711L435.856 530.595Z" fill="url(#paint1_linear_2_2)"></path><path d="M434.766 301.04C435.391 304.229 438.126 460.158 421.458 530.036C421.187 531.177 421.764 532.352 422.849 532.794C425.406 533.839 430.418 535.351 436.424 535.554C438.283 535.616 439.953 534.407 440.477 532.623C445.243 516.409 468.071 435.181 471.051 357.583C474.379 270.876 471.051 354.632 471.051 354.632L469.098 301.036L434.766 301.04Z" fill="#090244"></path><path d="M489.073 541.918C489.073 541.918 491.943 547.071 494.724 560.765C495.225 563.237 493.496 565.605 490.985 565.851C486.541 566.289 479.7 566.85 474.221 566.812C471.696 566.793 469.723 564.594 470.029 562.088C470.636 557.09 472.527 548.889 478.368 542.498L489.073 541.918Z" fill="#090244"></path><path d="M491.594 526.213L488.209 544.679C488.209 544.679 484.862 547.167 478.24 545.363L479.855 525.495L491.594 526.213Z" fill="url(#paint2_linear_2_2)"></path><path d="M500.739 305.824C514.37 388.095 497.782 509.162 492.187 532.858C491.845 534.309 490.675 535.42 489.203 535.664C486.705 536.077 482.595 536.417 478.542 535.237C477.146 534.831 476.165 533.572 476.108 532.119C475.357 512.963 476.708 395.353 464.007 348.874C463.363 346.518 461.924 344.465 459.935 343.051L435.281 325.523L433.39 297.192L500.739 305.824Z" fill="#090244"></path><path d="M421.388 151.874C421.388 151.874 484.013 136.267 527.809 159.461L501.736 304.824C501.736 304.824 460.255 308.168 434.386 299.938L421.388 151.874Z" fill="#FFBE00"></path><path d="M490.624 109.321L495.417 150.57C495.723 151.154 495.574 151.875 495.05 152.274C491.84 154.742 480.065 162.251 463.395 154.909C461.66 154.144 460.332 152.669 459.81 150.844L466.591 115.095L490.624 109.321Z" fill="url(#paint3_linear_2_2)"></path><path d="M452.184 87.8178C452.184 87.8178 446.084 117.625 450.904 127.52C455.726 137.415 472.476 131.669 484.803 118.847L486.961 87.9661L452.184 87.8178Z" fill="url(#paint4_linear_2_2)"></path><path d="M480.125 105.373C479.445 105.284 479.005 104.613 479.203 103.954C479.805 101.956 480.855 97.9298 480.631 94.7432C480.631 94.7432 482.629 92.4416 473.286 92.9229C463.945 93.4042 449.976 93.995 445.053 87.3731C440.254 80.9177 441.896 60.6413 457.351 71.8596C457.939 72.2861 458.776 72.0535 459.036 71.376C460.165 68.4517 463.525 62.0806 471.099 63.1117C478.186 64.0766 480.241 68.4562 480.836 70.792C481.012 71.4786 481.776 71.8299 482.406 71.5037C485.394 69.9686 492.835 67.213 498.674 73.9604C503.485 79.5171 502.657 83.7097 501.453 85.9953C501.063 86.7367 501.587 87.6103 502.424 87.6194C504.692 87.6445 507.897 88.6163 509.062 93.5685C510.675 100.416 502.967 102.04 500.732 102.364C500.367 102.417 500.048 102.643 499.888 102.976C498.649 105.553 492.908 116.632 484.249 120.314C483.498 120.633 482.67 120.043 482.709 119.23L483.268 106.808C483.293 106.231 482.873 105.731 482.301 105.654L480.125 105.373Z" fill="#090244"></path><path d="M479.037 107.435C479.037 107.435 486.815 97.875 489.187 103.297C491.56 108.719 482.812 114.041 477.492 113.327L479.037 107.435Z" fill="url(#paint5_linear_2_2)"></path><path d="M538.267 240.255C538.267 240.255 533.997 294.84 498.063 297.194C498.063 297.194 482.661 295.783 475.975 301.034C469.29 306.285 472.529 314.373 472.529 314.373L501.521 310.838C501.521 310.838 542.984 317.742 567.914 248.341L538.267 240.255Z" fill="url(#paint6_linear_2_2)"></path><path d="M527.811 159.461C527.811 159.461 576.998 188.72 568.914 247.341C568.914 247.341 551.343 254.957 538.567 244.747C538.567 244.747 528.61 206.663 506.987 204.765L527.811 159.461Z" fill="#FFBE00"></path><path d="M387.71 181.437C387.71 181.437 364.089 192.416 336.463 163.107C317.583 143.074 306.032 155.358 302.382 163.444C298.73 171.531 307.464 170.855 310.509 170.855C313.555 170.855 313.933 162.06 319.303 163.257C324.672 164.455 323.094 162.851 323.429 168.241C323.767 173.632 352.634 234.504 388.346 204.857L387.71 181.437Z" fill="url(#paint7_linear_2_2)"></path><path d="M421.388 151.874L383.281 180.437C383.281 180.437 382.608 201.836 387.66 211.955L430.109 201.523L421.388 151.874Z" fill="#FFBE00"></path><path d="M178 376.477V410.312C178 422.913 182.74 435.051 189.57 445.635L196.034 453.904C203.518 465.489 216.329 472.116 230.118 472.116H371.699L372.771 468.475L407.473 341.342L436.591 325.642L432.254 317.713L399.722 335.352L388.565 376.477H178ZM188.103 386.58H386.083L372.119 438.098L364.751 465.382H230.118C219.429 465.382 209.394 459.127 203.6 450.151L197.715 440.767C191.828 431.663 188.101 421.154 188.101 410.312V386.58H188.103Z" fill="white"></path><path d="M197.549 518.257C197.549 520.764 199.588 523.303 202.106 523.303H368.225C370.743 523.303 372.646 519.747 372.646 517.24V438.908C372.646 438.046 372.474 438.132 372.055 437.446L364.751 465.382H362.54V513.202H202.106C199.588 513.2 197.549 515.741 197.549 518.257Z" fill="white"></path><path d="M289.772 381.233H283.709V466.504H289.772V381.233Z" fill="white"></path><path d="M343.334 381.233H337.271V466.504H343.334V381.233Z" fill="white"></path><path d="M237.472 381.233H231.409V466.504H237.472V381.233Z" fill="white"></path><path d="M383.779 406.316H186.552V411.738H383.779V406.316Z" fill="white"></path><path d="M375.168 436H191.49V441.422H375.168V436Z" fill="white"></path><path d="M327.362 549.115C327.362 559.932 336.13 568.703 346.947 568.703C357.764 568.703 366.535 559.934 366.535 549.115C366.535 538.298 357.766 529.53 346.947 529.53C336.13 529.53 327.362 538.298 327.362 549.115ZM335.127 549.115C335.127 542.587 340.419 537.292 346.949 537.292C353.478 537.292 358.772 542.585 358.772 549.115C358.772 555.644 353.478 560.938 346.949 560.938C340.419 560.938 335.127 555.646 335.127 549.115Z" fill="white"></path><path d="M205.644 549.115C205.644 559.932 214.413 568.703 225.23 568.703C236.046 568.703 244.817 559.934 244.817 549.115C244.817 538.298 236.049 529.53 225.23 529.53C214.415 529.53 205.644 538.298 205.644 549.115ZM213.409 549.115C213.409 542.587 218.701 537.292 225.232 537.292C231.76 537.292 237.055 542.585 237.055 549.115C237.055 555.644 231.762 560.938 225.232 560.938C218.703 560.938 213.409 555.646 213.409 549.115Z" fill="white"></path><path d="M412.074 325.637C412.074 330.719 416.193 334.839 421.275 334.839H451.894C456.976 334.839 461.096 330.719 461.096 325.637C461.096 320.555 456.976 316.435 451.894 316.435H421.275C416.193 316.435 412.074 320.555 412.074 325.637Z" fill="white"></path><path d="M299.299 313.133C298.374 313.133 297.538 312.975 296.791 312.658C296.056 312.341 295.473 311.885 295.043 311.29C294.612 310.695 294.39 309.992 294.378 309.181H297.228C297.266 309.726 297.456 310.156 297.798 310.473C298.152 310.79 298.634 310.948 299.242 310.948C299.862 310.948 300.35 310.802 300.705 310.511C301.059 310.207 301.237 309.814 301.237 309.333C301.237 308.94 301.116 308.617 300.876 308.364C300.635 308.111 300.331 307.914 299.964 307.775C299.609 307.623 299.115 307.458 298.482 307.281C297.62 307.028 296.917 306.781 296.373 306.54C295.841 306.287 295.378 305.913 294.986 305.419C294.606 304.912 294.416 304.241 294.416 303.405C294.416 302.62 294.612 301.936 295.005 301.353C295.397 300.77 295.948 300.327 296.658 300.023C297.367 299.706 298.178 299.548 299.09 299.548C300.458 299.548 301.566 299.884 302.415 300.555C303.276 301.214 303.751 302.138 303.84 303.329H300.914C300.888 302.873 300.692 302.499 300.325 302.208C299.97 301.904 299.495 301.752 298.9 301.752C298.38 301.752 297.962 301.885 297.646 302.151C297.342 302.417 297.19 302.803 297.19 303.31C297.19 303.665 297.304 303.962 297.532 304.203C297.772 304.431 298.064 304.621 298.406 304.773C298.76 304.912 299.254 305.077 299.888 305.267C300.749 305.52 301.452 305.774 301.997 306.027C302.541 306.28 303.01 306.66 303.403 307.167C303.795 307.674 303.992 308.339 303.992 309.162C303.992 309.871 303.808 310.53 303.441 311.138C303.073 311.746 302.535 312.234 301.826 312.601C301.116 312.956 300.274 313.133 299.299 313.133ZM308.92 299.738V307.946C308.92 308.845 309.154 309.536 309.623 310.017C310.091 310.486 310.75 310.72 311.599 310.72C312.46 310.72 313.125 310.486 313.594 310.017C314.062 309.536 314.297 308.845 314.297 307.946V299.738H316.976V307.927C316.976 309.054 316.729 310.011 316.235 310.796C315.753 311.569 315.101 312.151 314.278 312.544C313.467 312.937 312.561 313.133 311.561 313.133C310.573 313.133 309.673 312.937 308.863 312.544C308.065 312.151 307.431 311.569 306.963 310.796C306.494 310.011 306.26 309.054 306.26 307.927V299.738H308.92ZM328.78 303.728C328.476 303.171 328.058 302.746 327.526 302.455C326.994 302.164 326.373 302.018 325.664 302.018C324.879 302.018 324.182 302.195 323.574 302.55C322.966 302.905 322.491 303.411 322.149 304.07C321.807 304.729 321.636 305.489 321.636 306.35C321.636 307.237 321.807 308.009 322.149 308.668C322.504 309.327 322.991 309.833 323.612 310.188C324.233 310.543 324.955 310.72 325.778 310.72C326.791 310.72 327.621 310.454 328.267 309.922C328.913 309.377 329.337 308.624 329.54 307.661H324.98V305.628H332.162V307.946C331.985 308.871 331.605 309.726 331.022 310.511C330.439 311.296 329.686 311.93 328.761 312.411C327.849 312.88 326.823 313.114 325.683 313.114C324.404 313.114 323.245 312.829 322.206 312.259C321.18 311.676 320.369 310.872 319.774 309.846C319.191 308.82 318.9 307.655 318.9 306.35C318.9 305.045 319.191 303.88 319.774 302.854C320.369 301.815 321.18 301.011 322.206 300.441C323.245 299.858 324.397 299.567 325.664 299.567C327.159 299.567 328.457 299.934 329.559 300.669C330.661 301.391 331.421 302.411 331.839 303.728H328.78ZM342.262 310.473H336.98L336.106 313H333.313L338.082 299.719H341.179L345.948 313H343.136L342.262 310.473ZM341.54 308.345L339.621 302.797L337.702 308.345H341.54ZM354.57 313L351.644 307.832H350.39V313H347.73V299.738H352.708C353.734 299.738 354.608 299.922 355.33 300.289C356.052 300.644 356.591 301.131 356.945 301.752C357.313 302.36 357.496 303.044 357.496 303.804C357.496 304.678 357.243 305.47 356.736 306.179C356.23 306.876 355.476 307.357 354.475 307.623L357.648 313H354.57ZM350.39 305.837H352.613C353.335 305.837 353.874 305.666 354.228 305.324C354.583 304.969 354.76 304.482 354.76 303.861C354.76 303.253 354.583 302.784 354.228 302.455C353.874 302.113 353.335 301.942 352.613 301.942H350.39V305.837Z" fill="white" fill-opacity="0.6"></path></g><defs><linearGradient id="paint0_linear_2_2" x1="88.3463" y1="64.2774" x2="457.605" y2="539.062" gradientUnits="userSpaceOnUse"><stop stop-color="#5C5F6B"></stop><stop offset="1" stop-color="#DF0059"></stop></linearGradient><linearGradient id="paint1_linear_2_2" x1="435.855" y1="536.55" x2="420.389" y2="536.55" gradientUnits="userSpaceOnUse"><stop stop-color="#FEBBBA"></stop><stop offset="1" stop-color="#FF928E"></stop></linearGradient><linearGradient id="paint2_linear_2_2" x1="491.593" y1="535.757" x2="478.24" y2="535.757" gradientUnits="userSpaceOnUse"><stop stop-color="#FEBBBA"></stop><stop offset="1" stop-color="#FF928E"></stop></linearGradient><linearGradient id="paint3_linear_2_2" x1="489.655" y1="200.347" x2="472.216" y2="115.475" gradientUnits="userSpaceOnUse"><stop stop-color="#FEBBBA"></stop><stop offset="1" stop-color="#FF928E"></stop></linearGradient><linearGradient id="paint4_linear_2_2" x1="453.67" y1="119.677" x2="487.875" y2="81.9663" gradientUnits="userSpaceOnUse"><stop stop-color="#FEBBBA"></stop><stop offset="1" stop-color="#FF928E"></stop></linearGradient><linearGradient id="paint5_linear_2_2" x1="467.415" y1="125.936" x2="498.19" y2="92.0063" gradientUnits="userSpaceOnUse"><stop stop-color="#FEBBBA"></stop><stop offset="1" stop-color="#FF928E"></stop></linearGradient><linearGradient id="paint6_linear_2_2" x1="519.139" y1="307.645" x2="521.307" y2="217.472" gradientUnits="userSpaceOnUse"><stop stop-color="#FEBBBA"></stop><stop offset="1" stop-color="#FF928E"></stop></linearGradient><linearGradient id="paint7_linear_2_2" x1="344.434" y1="206.215" x2="346.138" y2="135.343" gradientUnits="userSpaceOnUse"><stop stop-color="#FEBBBA"></stop><stop offset="1" stop-color="#FF928E"></stop></linearGradient><clipPath id="clip0_2_2"><rect width="569" height="569" fill="white"></rect></clipPath></defs></svg>